<svg version="1.1" xmlns="http://www.w3.org/2000/svg" xmlns:xlink="http://www.w3.org/1999/xlink" width="400" height="300" style="width: 400px; height: 300px;"><defs><clipPath id="QrQmnMqChsQH"><path fill="none" stroke="none" d=" M 55 28 L 308 28 L 308 196 L 55 196 L 55 28 Z"/></clipPath><clipPath id="uHGJtwcGiMKT"><path fill="none" stroke="none" d=" M 55 28 L 308 28 L 308 196 L 55 196 L 55 28 Z"/></clipPath><clipPath id="tZnKgeQtXTpP"><path fill="none" stroke="none" d=" M 55 28 L 308 28 L 308 196 L 55 196 L 55 28 Z"/></clipPath><clipPath id="gVJcimgBsTVW"><path fill="none" stroke="none" d=" M 55 28 L 308 28 L 308 196 L 55 196 L 55 28 Z"/></clipPath><clipPath id="kPXiLbKySbxd"><path fill="none" stroke="none" d=" M 55 28 L 308 28 L 308 196 L 55 196 L 55 28 Z"/></clipPath><clipPath id="gftJclUzEOVK"><path fill="none" stroke="none" d=" M 55 28 L 308 28 L 308 196 L 55 196 L 55 28 Z"/></clipPath></defs><g><g/><g/><g/><g/><g/><g/><g transform="scale(1,1) translate(0.5,0.5)"><rect fill="#FFFFFF" stroke="none" x="0" y="0" width="400" height="300"/><rect fill="#ffffff" stroke="none" x="0" y="0" width="400" height="300"/><rect fill="#FFFFFF" stroke="none" x="55" y="28" width="253" height="168"/><rect fill="#ffffff" stroke="none" x="55" y="28" width="253" height="168"/><g clip-path="url(#QrQmnMqChsQH)"><g><g><path fill="none" stroke="#e5e5e5" paint-order="fill stroke markers" d=" M 79 196 L 79 28" stroke-linejoin="bevel" stroke-miterlimit="10"/><path fill="none" stroke="#e5e5e5" paint-order="fill stroke markers" d=" M 112 196 L 112 28" stroke-linejoin="bevel" stroke-miterlimit="10"/><path fill="none" stroke="#e5e5e5" paint-order="fill stroke markers" d=" M 148 196 L 148 28" stroke-linejoin="bevel" stroke-miterlimit="10"/><path fill="none" stroke="#e5e5e5" paint-order="fill stroke markers" d=" M 182 196 L 182 28" stroke-linejoin="bevel" stroke-miterlimit="10"/><path fill="none" stroke="#e5e5e5" paint-order="fill stroke markers" d=" M 218 196 L 218 28" stroke-linejoin="bevel" stroke-miterlimit="10"/><path fill="none" stroke="#e5e5e5" paint-order="fill stroke markers" d=" M 252 196 L 252 28" stroke-linejoin="bevel" stroke-miterlimit="10"/><path fill="none" stroke="#e5e5e5" paint-order="fill stroke markers" d=" M 287 196 L 287 28" stroke-linejoin="bevel" stroke-miterlimit="10"/></g></g></g><g clip-path="url(#uHGJtwcGiMKT)"><g><g/></g></g><g clip-path="url(#tZnKgeQtXTpP)"><g><g><path fill="none" stroke="none"/><path fill="none" stroke="#3182bd" paint-order="fill stroke markers" d=" M 66.5 28 L 67.64427860696742 28.6657630364584 L 68.7885572139312 28.74203917365739 L 69.93283582089862 28.73827976567634 L 71.0771144278624 28.66475321523282 L 72.22139303482618 28.725907608602938 L 73.3656716417936 28.735390092942538 L 74.50995024875738 28.73825171051155 L 75.65422885572116 28.737634497331754 L 76.79850746268858 28.742768614684138 L 77.94278606965236 28.6741221996339 L 79.08706467661978 28.76454017094943 L 80.23134328358356 28.741534176719796 L 81.37562189054734 28.87975626471456 L 82.51990049751475 28.97619467154712 L 83.66417910447854 29.09758615594751 L 84.80845771144595 29.255775748247885 L 85.95273631840973 29.460834222932533 L 87.09701492537351 29.723791487992145 L 88.24129353234093 30.045678108552153 L 89.38557213930471 30.396996606264963 L 90.5298507462685 30.772094974131477 L 91.67412935323591 31.169114659519494 L 92.81840796019969 31.591050135562142 L 93.96268656716711 32.03890425299784 L 95.10696517413089 32.513688133911444 L 96.25124378109467 33.0025429539254 L 97.39552238806209 33.493151461512355 L 98.53980099502587 33.98185706857825 L 99.68407960199329 34.40651014141358 L 100.82835820895707 34.76729742756112 L 101.97263681592085 34.95959162477064 L 103.11691542288827 35.16323876868125 L 104.26119402985205 35.3552760649863 L 105.40547263681583 35.5249500285899 L 106.54975124378325 36.26462840247851 L 107.69402985074703 36.70847446408288 L 108.83830845771445 36.83892309175903 L 109.98258706467823 36.97698239483614 L 111.12686567164201 36.96552345242105 L 112.27114427860943 37.0579463230078 L 113.41542288557321 37.17714684212612 L 114.55970149253699 37.28373955705109 L 115.7039800995044 38.3071250553034 L 116.84825870646819 39.49662974448495 L 117.9925373134356 39.95258241203578 L 119.13681592039939 40.04369634650848 L 120.28109452736317 40.13074229029948 L 121.42537313433058 40.25939985174355 L 122.56965174129436 40.44683978132011 L 123.71393034826178 41.74670892517568 L 124.85820895522556 42.54026238035061 L 126.00248756218934 43.095611721163294 L 127.14676616915676 43.75912937394105 L 128.29104477612054 44.60233065358739 L 129.43532338308432 45.76597844378554 L 130.57960199005174 47.480586187929106 L 131.72388059701552 49.94266381678028 L 132.86815920398294 52.22509945345482 L 134.01243781094672 55.87879880466059 L 135.1567164179105 60.515210917022586 L 136.30099502487792 66.08320257964624 L 137.4452736318417 72.72235767404405 L 138.58955223880912 79.52374408063943 L 139.7338308457729 88.22474236846921 L 140.87810945273668 97.98918529962503 L 142.0223880597041 108.34588745607448 L 143.16666666666788 118.94452183894242 L 144.31094527363166 129.48444994524448 L 145.45522388059908 139.66138421515632 L 146.59950248756286 149.21167481913173 L 147.74378109453028 157.9758300719532 L 148.88805970149406 165.8135165735446 L 150.03233830845784 172.61250681591665 L 151.17661691542526 178.3835009481184 L 152.32089552238904 183.17253188150468 L 153.46517412935646 187.04629665420546 L 154.60945273632024 190.11959850383104 L 155.75373134328402 192.5133951736506 L 156.89800995025143 191.40712408034378 L 158.04228855721522 191.7854710766046 L 159.186567164179 193.2770649410317 L 160.33084577114641 194.35324543320579 L 161.4751243781102 192.06787550301897 L 162.6194029850776 191.5584971603017 L 163.7636815920414 192.0622183948183 L 164.90796019900517 192.2295777972274 L 166.0522388059726 192.04742943540606 L 167.19651741293637 191.51728923340227 L 168.34079601990015 191.4313338775289 L 169.48507462686757 190.7773226454101 L 170.62935323383135 189.33960336327277 L 171.77363184079877 187.48416435923266 L 172.91791044776255 185.24636205206232 L 174.06218905472633 182.63475015889287 L 175.20646766169375 179.66690461905557 L 176.35074626865753 177.59718520522017 L 177.49502487562495 174.50292060771244 L 178.63930348258873 170.7248029384399 L 179.7835820895525 166.68708167084986 L 180.92786069651993 162.33714944488617 L 182.0721393034837 157.73321449828717 L 183.2164179104475 152.93367525535186 L 184.3606965174149 147.96492744433857 L 185.5049751243787 142.8548338262579 L 186.6492537313461 137.6348191661318 L 187.7935323383099 133.6685145721185 L 188.93781094527367 129.17304197782556 L 190.0820895522411 123.9927071643215 L 191.22636815920487 118.52987256711455 L 192.37064676617229 115.5206907492592 L 193.51492537313607 110.80313579507394 L 194.65920398009985 105.25625986681753 L 195.80348258706726 99.72559086587941 L 196.94776119403105 94.31536085485324 L 198.09203980099483 89.10372547193836 L 199.23631840796224 84.07002117088214 L 200.38059701492602 79.1759668353487 L 201.52487562189344 74.37270771465195 L 202.66915422885722 69.69529374320071 L 203.813432835821 65.22556103155415 L 204.95771144278842 61.05665755290886 L 206.1019900497522 57.24304534549333 L 207.24626865671962 53.79053751372169 L 208.3905472636834 50.68303087987945 L 209.53482587064718 47.86120557646248 L 210.6791044776146 45.33303722828376 L 211.82338308457838 43.39331490690037 L 212.96766169154216 41.61337878589478 L 214.11194029850958 41.1328016266487 L 215.25621890547336 40.35616203359746 L 216.40049751244078 40.17848806352259 L 217.54477611940456 40.47422813031025 L 218.68905472636834 39.6884942013298 L 219.83333333333576 38.501433642870154 L 220.97761194029954 37.48647299014414 L 222.12189054726696 36.666637269357324 L 223.26616915423074 36.0045882384735 L 224.41044776119452 35.47550498656989 L 225.55472636816194 35.070494844686465 L 226.69900497512572 34.77284239843215 L 227.8432835820895 34.56380186365044 L 228.98756218905692 34.82425750187079 L 230.1318407960207 35.05177195276451 L 231.27611940298812 34.9273045481568 L 232.4203980099519 34.70798475405434 L 233.56467661691568 34.49715571432458 L 234.7089552238831 34.318865655427686 L 235.85323383084688 34.19127914123257 L 236.99751243781066 34.24717187379716 L 238.14179104477807 34.26938322036784 L 239.28606965174185 34.27054778428965 L 240.43034825870927 34.32372329606088 L 241.57462686567305 34.43577614128915 L 242.71890547263683 34.79908952590159 L 243.86318407960425 35.105666406237816 L 245.00746268656803 35.43947848472388 L 246.15174129353545 36.15471255493151 L 247.29601990049923 36.77742155340354 L 248.440298507463 37.493568034818736 L 249.58457711443043 38.354103422699325 L 250.7288557213942 39.848544750628236 L 251.873134328358 40.59088497671266 L 253.0174129353254 41.8644201414624 L 254.1616915422892 44.229698643554315 L 255.3059701492566 45.032616027798184 L 256.4502487562204 46.792926621069626 L 257.59452736318417 49.23931967412028 L 258.7388059701516 52.03946077202028 L 259.88308457711537 55.13652122058494 L 261.0273631840828 58.479670051051414 L 262.17164179104657 62.011464289951505 L 263.31592039801035 65.72989289177752 L 264.46019900497777 69.61672124565669 L 265.60447761194155 73.59707118664544 L 266.7487562189053 74.16020442268095 L 267.89303482587275 77.31564533240186 L 269.0373134328365 82.6613690326309 L 270.18159203980395 88.60646542379406 L 271.3258706467677 93.39416544288451 L 272.4701492537315 99.19633342348459 L 273.6144278606989 105.46800214739633 L 274.7587064676627 110.4308052347048 L 275.9029850746301 114.79263437022867 L 277.0472636815939 118.85296958850032 L 278.1915422885577 122.6117051045247 L 279.3358208955251 126.20944559439282 L 280.4800995024889 129.62856612306007 L 281.62437810945266 132.89319016972033 L 282.7686567164201 136.04700144646597 L 283.91293532338386 139.14631564651992 L 285.0572139303513 138.29504769094862 L 286.20149253731506 140.46386983230468 L 287.34577114427884 144.7984973362693 L 288.49004975124626 144.72109602833638 L 289.63432835821004 142.99147849487665 L 290.7786069651738 144.55321500170987 L 291.92288557214124 146.86630356238484 L 293.067164179105 150.1767736220078 L 294.21144278607244 152.60682113908632 L 295.3557213930362 154.2646133230003 L 296.5 155.52719284824002" stroke-linejoin="bevel" stroke-miterlimit="10" stroke-width="1.5"/></g></g></g><g clip-path="url(#gVJcimgBsTVW)"><g><g><path fill="none" stroke="none"/><path fill="none" stroke="#de2d26" paint-order="fill stroke markers" d=" M 66.5 NaN" stroke-linejoin="bevel" stroke-miterlimit="10" stroke-width="1.5"/><path fill="none" stroke="none"/><path fill="none" stroke="#de2d26" paint-order="fill stroke markers" d=" M 68.7885572139312 NaN" stroke-linejoin="bevel" stroke-miterlimit="10" stroke-width="1.5"/><path fill="none" stroke="none"/><path fill="none" stroke="#de2d26" paint-order="fill stroke markers" d=" M 71.0771144278624 NaN" stroke-linejoin="bevel" stroke-miterlimit="10" stroke-width="1.5"/><path fill="none" stroke="none"/><path fill="none" stroke="#de2d26" paint-order="fill stroke markers" d=" M 73.3656716417936 36.18316999798134 L 74.50995024875738 44.85767975718295 L 75.65422885572116 54.718790264301106 L 76.79850746268858 61.7153595143659 L 77.94278606965236 67.14232024281705 L 79.08706467661978 71.57647002148404" stroke-linejoin="bevel" stroke-miterlimit="10" stroke-width="1.5"/><path fill="none" stroke="none"/><path fill="none" stroke="#de2d26" paint-order="fill stroke markers" d=" M 81.37562189054734 NaN" stroke-linejoin="bevel" stroke-miterlimit="10" stroke-width="1.5"/><path fill="none" stroke="none"/><path fill="none" stroke="#de2d26" paint-order="fill stroke markers" d=" M 83.66417910447854 NaN" stroke-linejoin="bevel" stroke-miterlimit="10" stroke-width="1.5"/><path fill="none" stroke="none"/><path fill="none" stroke="#de2d26" paint-order="fill stroke markers" d=" M 85.95273631840973 NaN" stroke-linejoin="bevel" stroke-miterlimit="10" stroke-width="1.5"/><path fill="none" stroke="none"/><path fill="none" stroke="#de2d26" paint-order="fill stroke markers" d=" M 88.24129353234093 NaN" stroke-linejoin="bevel" stroke-miterlimit="10" stroke-width="1.5"/><path fill="none" stroke="none"/><path fill="none" stroke="#de2d26" paint-order="fill stroke markers" d=" M 90.5298507462685 NaN" stroke-linejoin="bevel" stroke-miterlimit="10" stroke-width="1.5"/><path fill="none" stroke="none"/><path fill="none" stroke="#de2d26" paint-order="fill stroke markers" d=" M 92.81840796019969 NaN" stroke-linejoin="bevel" stroke-miterlimit="10" stroke-width="1.5"/><path fill="none" stroke="none"/><path fill="none" stroke="#de2d26" paint-order="fill stroke markers" d=" M 95.10696517413089 NaN" stroke-linejoin="bevel" stroke-miterlimit="10" stroke-width="1.5"/><path fill="none" stroke="none"/><path fill="none" stroke="#de2d26" paint-order="fill stroke markers" d=" M 97.39552238806209 NaN" stroke-linejoin="bevel" stroke-miterlimit="10" stroke-width="1.5"/><path fill="none" stroke="none"/><path fill="none" stroke="#de2d26" paint-order="fill stroke markers" d=" M 99.68407960199329 NaN" stroke-linejoin="bevel" stroke-miterlimit="10" stroke-width="1.5"/><path fill="none" stroke="none"/><path fill="none" stroke="#de2d26" paint-order="fill stroke markers" d=" M 101.97263681592085 NaN" stroke-linejoin="bevel" stroke-miterlimit="10" stroke-width="1.5"/><path fill="none" stroke="none"/><path fill="none" stroke="#de2d26" paint-order="fill stroke markers" d=" M 104.26119402985205 NaN" stroke-linejoin="bevel" stroke-miterlimit="10" stroke-width="1.5"/><path fill="none" stroke="none"/><path fill="none" stroke="#de2d26" paint-order="fill stroke markers" d=" M 106.54975124378325 NaN" stroke-linejoin="bevel" stroke-miterlimit="10" stroke-width="1.5"/><path fill="none" stroke="none"/><path fill="none" stroke="#de2d26" paint-order="fill stroke markers" d=" M 108.83830845771445 NaN" stroke-linejoin="bevel" stroke-miterlimit="10" stroke-width="1.5"/><path fill="none" stroke="none"/><path fill="none" stroke="#de2d26" paint-order="fill stroke markers" d=" M 111.12686567164201 NaN" stroke-linejoin="bevel" stroke-miterlimit="10" stroke-width="1.5"/><path fill="none" stroke="none"/><path fill="none" stroke="#de2d26" paint-order="fill stroke markers" d=" M 113.41542288557321 NaN L 114.55970149253699 75.32549024079839 L 115.7039800995044 78.57303927154881 L 116.84825870646819 81.43758052860218 L 117.9925373134356 84.00000000000003 L 119.13681592039939 86.31799036886063 L 120.28109452736317 88.43414977866695 L 121.42537313433058 90.38082772918287" stroke-linejoin="bevel" stroke-miterlimit="10" stroke-width="1.5"/><path fill="none" stroke="none"/><path fill="none" stroke="#de2d26" paint-order="fill stroke markers" d=" M 123.71393034826178 92.18316999798134 L 124.85820895522556 93.86111050711816 L 126.00248756218934 95.4307190287318 L 127.14676616915676 80.04745984000033 L 128.29104477612054 82.75252189617552 L 129.43532338308432 58.46781048361544 L 130.57960199005174 60.83088055210493 L 131.72388059701552 63.189780082817435 L 132.86815920398294 47.291758608924 L 134.01243781094672 44.46221590588368 L 135.1567164179105 45.39221755993185 L 136.30099502487792 42.01287115109977 L 137.4452736318417 39.93597875083188 L 138.58955223880912 42.50766767074492 L 139.7338308457729 47.49598225733888 L 140.87810945273668 53.02202827274425 L 142.0223880597041 53.744481020229784 L 143.16666666666788 58.45923031383637 L 144.31094527363166 61.21334350583342 L 145.45522388059908 62.61441568227795 L 146.59950248756286 66.11867832631802 L 147.74378109453028 69.60253611049296 L 148.88805970149406 72.04943389139827 L 150.03233830845784 76.1763478076266 L 151.17661691542526 76.93322862282743 L 152.32089552238904 77.93730227886181 L 153.46517412935646 82.05523138948305 L 154.60945273632024 85.86789154299846 L 155.75373134328402 88.5809953581475 L 156.89800995025143 89.1420042194576 L 158.04228855721522 92.26837324777884 L 159.186567164179 92.97596430687072 L 160.33084577114641 97.6954697089945 L 161.4751243781102 100.91561527442416 L 162.6194029850776 103.20127375498842 L 163.7636815920414 103.17943636546057 L 164.90796019900517 104.76269568623661 L 166.0522388059726 102.3135362178976 L 167.19651741293637 105.86103896530656 L 168.34079601990015 105.68336937137681 L 169.48507462686757 107.16855542254719 L 170.62935323383135 105.61360803783016 L 171.77363184079877 105.96006399831853 L 172.91791044776255 106.71892212047236 L 174.06218905472633 107.45041220670278 L 175.20646766169375 107.32396609988 L 176.35074626865753 107.37056258266045 L 177.49502487562495 106.72381153583486 L 178.63930348258873 107.10450995187594 L 179.7835820895525 106.97901210893478 L 180.92786069651993 104.66592071559641 L 182.0721393034837 104.77880515675263 L 183.2164179104475 102.57697295159076 L 184.3606965174149 102.89817465715869 L 185.5049751243787 102.67854129121112 L 186.6492537313461 102.73307683027923 L 187.7935323383099 102.70791603655147 L 188.93781094527367 107.33613126415672 L 190.0820895522411 105.52755215643046 L 191.22636815920487 106.70718391622412 L 192.37064676617229 109.81651202140912 L 193.51492537313607 110.74171713111336 L 194.65920398009985 110.5181218849096 L 195.80348258706726 113.02023420481966 L 196.94776119403105 110.00640529983919 L 198.09203980099483 112.7565282414758 L 199.23631840796224 113.09993263007487 L 200.38059701492602 112.11295861264442 L 201.52487562189344 113.93994179866624 L 202.66915422885722 116.29599724598565 L 203.813432835821 116.17385667519065 L 204.95771144278842 118.09702984564863 L 206.1019900497522 120.8905017995578 L 207.24626865671962 122.4749513005918 L 208.3905472636834 123.98045266399114 L 209.53482587064718 124.39904258948785 L 210.6791044776146 126.6283761442593 L 211.82338308457838 126.6219432494162 L 212.96766169154216 125.18283336641834 L 214.11194029850958 123.4145534086588 L 215.25621890547336 120.33394955480092 L 216.40049751244078 117.61275379347143 L 217.54477611940456 117.90157539038825 L 218.68905472636834 111.37645662874215 L 219.83333333333576 108.35409347512291 L 220.97761194029954 110.332108797907 L 222.12189054726696 105.19742061649414 L 223.26616915423074 104.1589500593801 L 224.41044776119452 102.07382083891262 L 225.55472636816194 100.7977917904856 L 226.69900497512572 103.39074231138325 L 227.8432835820895 102.18950407141571 L 228.98756218905692 99.5521030875473 L 230.1318407960207 100.73829967788626 L 231.27611940298812 101.45208313956017 L 232.4203980099519 101.83040419623215 L 233.56467661691568 102.16563469444962 L 234.7089552238831 99.01567363155635 L 235.85323383084688 98.15238233367666 L 236.99751243781066 96.98980904723382 L 238.14179104477807 94.77837169462099 L 239.28606965174185 92.44991338174633 L 240.43034825870927 92.04418190210296 L 241.57462686567305 92.02062536157854 L 242.71890547263683 92.1185430376473 L 243.86318407960425 94.52964744288359 L 245.00746268656803 95.07628674398855 L 246.15174129353545 95.8801954445692 L 247.29601990049923 96.54862132967784 L 248.440298507463 96.6875404608247 L 249.58457711443043 100.31806366883595 L 250.7288557213942 99.30073093262372 L 251.873134328358 96.85016527009975 L 253.0174129353254 97.75684761265477 L 254.1616915422892 98.17826898497029 L 255.3059701492566 100.65311772744218 L 256.4502487562204 102.01867805085857 L 257.59452736318417 99.99382046682705 L 258.7388059701516 102.36251220734044 L 259.88308457711537 104.7669343260858 L 261.0273631840828 105.0486748825173 L 262.17164179104657 106.06315246808306 L 263.31592039801035 106.69342914892863 L 264.46019900497777 108.70058234279836 L 265.60447761194155 111.77357591395833 L 266.7487562189053 111.96416263829423 L 267.89303482587275 113.21555773955058 L 269.0373134328365 114.79292875353973 L 270.18159203980395 115.86351425096913 L 271.3258706467677 116.74058456406125 L 272.4701492537315 117.46672214235726 L 273.6144278606989 117.80505181800447 L 274.7587064676627 119.59353713108958 L 275.9029850746301 121.32336656169078 L 277.0472636815939 123.2062710842577 L 278.1915422885577 124.70094629874214 L 279.3358208955251 123.90555256354409 L 280.4800995024889 124.76518543602616 L 281.62437810945266 125.0855880326399 L 282.7686567164201 127.07904049729757 L 283.91293532338386 127.20398507386032 L 285.0572139303513 127.61213834610867 L 286.20149253731506 127.86927618228263 L 287.34577114427884 129.59892807247093 L 288.49004975124626 130.79750910219735 L 289.63432835821004 132.5078383716053 L 290.7786069651738 134.27235510174071 L 291.92288557214124 135.559464458509 L 293.067164179105 137.79591880844694 L 294.21144278607244 142.52886841854877 L 295.3557213930362 147.60235362635294 L 296.5 149.70620374321047" stroke-linejoin="bevel" stroke-miterlimit="10" stroke-width="1.5"/></g></g></g><g clip-path="url(#kPXiLbKySbxd)"><g><g><path fill="none" stroke="none"/><path fill="none" stroke="#9ecae1" paint-order="fill stroke markers" d=" M 66.5 195.01514969357834 L 67.64427860696742 195.7781320941451 L 68.7885572139312 196 L 69.93283582089862 193.17493205438245 L 71.0771144278624 193.7869028485987 L 72.22139303482618 193.93027771382106 L 73.3656716417936 194.14282800384717 L 74.50995024875738 194.57038522214037 L 75.65422885572116 193.2285681581166 L 76.79850746268858 193.02714193823465 L 77.94278606965236 192.81588964362493 L 79.08706467661978 192.64794679406424 L 80.23134328358356 192.46166465039647 L 81.37562189054734 191.8235535705041 L 82.51990049751475 192.17618250253864 L 83.66417910447854 192.00791379322854 L 84.80845771144595 191.6331331212717 L 85.95273631840973 191.7106482106436 L 87.09701492537351 191.45962064913553 L 88.24129353234093 191.1427979493977 L 89.38557213930471 190.74992502971486 L 90.5298507462685 190.46903504905777 L 91.67412935323591 190.2756078164405 L 92.81840796019969 190.06299469090797 L 93.96268656716711 189.76468576449236 L 95.10696517413089 188.65130324028422 L 96.25124378109467 188.14727766554213 L 97.39552238806209 187.81777965756632 L 98.53980099502587 187.58572705324502 L 99.68407960199329 187.22330305976914 L 100.82835820895707 186.3143958714285 L 101.97263681592085 185.59388562821945 L 103.11691542288827 185.43902137360539 L 104.26119402985205 185.47760300752444 L 105.40547263681583 185.47143131532135 L 106.54975124378325 185.46725053991386 L 107.69402985074703 185.95327830881573 L 108.83830845771445 186.4890378485269 L 109.98258706467823 187.03570806302835 L 111.12686567164201 187.58344673990425 L 112.27114427860943 187.20567521543978 L 113.41542288557321 186.77682501909524 L 114.55970149253699 187.36411089484488 L 115.7039800995044 187.90560606798664 L 116.84825870646819 188.34828281128233 L 117.9925373134356 188.76913531096167 L 119.13681592039939 189.19050428910072 L 120.28109452736317 188.52027254454336 L 121.42537313433058 188.18805634267483 L 122.56965174129436 187.44680916474044 L 123.71393034826178 187.33824083066057 L 124.85820895522556 188.2443834929603 L 126.00248756218934 188.99558186862882 L 127.14676616915676 189.54604680007947 L 128.29104477612054 189.87959440521618 L 129.43532338308432 188.41597258561902 L 130.57960199005174 187.5880473840064 L 131.72388059701552 187.57268541791444 L 132.86815920398294 187.3836643774261 L 134.01243781094672 187.28066831044617 L 135.1567164179105 186.94174029639453 L 136.30099502487792 186.49478459569917 L 137.4452736318417 186.2504932177794 L 138.58955223880912 185.93797233956178 L 139.7338308457729 185.09312972427082 L 140.87810945273668 183.57296208103372 L 142.0223880597041 182.43451398902414 L 143.16666666666788 181.01115709693482 L 144.31094527363166 178.950335219167 L 145.45522388059908 176.52919413959884 L 146.59950248756286 173.83859434650807 L 147.74378109453028 170.98000013142675 L 148.88805970149406 167.85943146871176 L 150.03233830845784 164.26997456026368 L 151.17661691542526 161.3027979200919 L 152.32089552238904 157.75305005810466 L 153.46517412935646 154.3742519017836 L 154.60945273632024 150.28692454433485 L 155.75373134328402 145.1314500752212 L 156.89800995025143 141.7448303579469 L 158.04228855721522 136.50408156786528 L 159.186567164179 129.73057542276206 L 160.33084577114641 122.79277278617774 L 161.4751243781102 115.92475459540736 L 162.6194029850776 109.10565705131589 L 163.7636815920414 102.15237408452526 L 164.90796019900517 96.15533705754564 L 166.0522388059726 89.96864341128317 L 167.19651741293637 83.41956702547061 L 168.34079601990015 76.91396287264126 L 169.48507462686757 70.65328967386773 L 170.62935323383135 64.82475460725277 L 171.77363184079877 59.54200781365441 L 172.91791044776255 54.83310845994123 L 174.06218905472633 50.74308407739329 L 175.20646766169375 47.265030814253834 L 176.35074626865753 44.353816749567216 L 177.49502487562495 42.14482748276322 L 178.63930348258873 40.27730546804216 L 179.7835820895525 38.63447099553912 L 180.92786069651993 37.28479760552392 L 182.0721393034837 36.17527871577073 L 183.2164179104475 35.26519672791002 L 184.3606965174149 34.52602975743241 L 185.5049751243787 33.92667862363473 L 186.6492537313461 33.42836554365729 L 187.7935323383099 33.011719924304685 L 188.93781094527367 32.667910339446934 L 190.0820895522411 32.385681614882145 L 191.22636815920487 32.15490975943905 L 192.37064676617229 31.963364198026767 L 193.51492537313607 31.777719262348057 L 194.65920398009985 31.694739320123148 L 195.80348258706726 31.569564177480714 L 196.94776119403105 31.46692013971321 L 198.09203980099483 31.370677449058235 L 199.23631840796224 31.284330651919674 L 200.38059701492602 31.169763442269613 L 201.52487562189344 31.16508094438737 L 202.66915422885722 31.11013577335632 L 203.813432835821 31.067041816314003 L 204.95771144278842 31.032609116418598 L 206.1019900497522 30.999335149727386 L 207.24626865671962 30.967163267657668 L 208.3905472636834 30.937615670637967 L 209.53482587064718 30.917119580596164 L 210.6791044776146 30.942295789790506 L 211.82338308457838 31.29883349259373 L 212.96766169154216 31.281622002231586 L 214.11194029850958 31.228073105648036 L 215.25621890547336 31.17952350493701 L 216.40049751244078 31.13075352493877 L 217.54477611940456 31.156280237533565 L 218.68905472636834 31.492042605097765 L 219.83333333333576 31.4405007308157 L 220.97761194029954 31.36254998163122 L 222.12189054726696 31.289494060787206 L 223.26616915423074 31.22719854564309 L 224.41044776119452 31.131966363428404 L 225.55472636816194 31.316948595577713 L 226.69900497512572 31.661500819506614 L 227.8432835820895 31.79333973956699 L 228.98756218905692 32.076523602806304 L 230.1318407960207 31.985038622430466 L 231.27611940298812 31.920696624547304 L 232.4203980099519 31.817378826315917 L 233.56467661691568 31.739757842866055 L 234.7089552238831 31.666640341389694 L 235.85323383084688 31.650261850884505 L 236.99751243781066 31.582975134169544 L 238.14179104477807 31.702138540556717 L 239.28606965174185 31.994307797031723 L 240.43034825870927 31.931235984685344 L 241.57462686567305 31.84489400702836 L 242.71890547263683 31.769556155664986 L 243.86318407960425 31.709311947354337 L 245.00746268656803 31.665426053423232 L 246.15174129353545 31.629478973864053 L 247.29601990049923 31.60996766720305 L 248.440298507463 31.59771353311612 L 249.58457711443043 31.64255287224347 L 250.7288557213942 31.643004676853224 L 251.873134328358 31.6524362021963 L 253.0174129353254 31.671186890704888 L 254.1616915422892 31.70953788329399 L 255.3059701492566 31.802520202004104 L 256.4502487562204 32.14690938929746 L 257.59452736318417 32.49974001142556 L 258.7388059701516 32.67744839280195 L 259.88308457711537 32.98665364452643 L 261.0273631840828 33.26787294975318 L 262.17164179104657 33.55275711632976 L 263.31592039801035 33.89852434233532 L 264.46019900497777 34.329291182909174 L 265.60447761194155 34.88284606791592 L 266.7487562189053 35.82743558797603 L 267.89303482587275 36.5297584444796 L 269.0373134328365 37.3941332294213 L 270.18159203980395 38.86823528480687 L 271.3258706467677 40.164241504099095 L 272.4701492537315 41.53557068604485 L 273.6144278606989 43.06166069273971 L 274.7587064676627 44.73789164201031 L 275.9029850746301 46.57180453188778 L 277.0472636815939 48.56892571201203 L 278.1915422885577 50.72493172163999 L 279.3358208955251 53.03402825752218 L 280.4800995024889 55.49732014075326 L 281.62437810945266 55.9527305760775 L 282.7686567164201 58.02150321323694 L 283.91293532338386 60.64724229627208 L 285.0572139303513 63.52456111519814 L 286.20149253731506 66.64404054742596 L 287.34577114427884 69.92715684249158 L 288.49004975124626 73.21435767423404 L 289.63432835821004 76.50415015550219 L 290.7786069651738 79.76377399614611 L 291.92288557214124 82.93348588001217 L 293.067164179105 82.95983263520294 L 294.21144278607244 84.82437800302124 L 295.3557213930362 87.08826609659515 L 296.5 89.12546130955754" stroke-linejoin="bevel" stroke-miterlimit="10" stroke-width="1.5"/></g></g></g><g clip-path="url(#gftJclUzEOVK)"><g><g><path fill="none" stroke="none"/><path fill="none" stroke="#fc9272" paint-order="fill stroke markers" d=" M 66.5 NaN" stroke-linejoin="bevel" stroke-miterlimit="10" stroke-width="1.5"/><path fill="none" stroke="none"/><path fill="none" stroke="#fc9272" paint-order="fill stroke markers" d=" M 68.7885572139312 NaN" stroke-linejoin="bevel" stroke-miterlimit="10" stroke-width="1.5"/><path fill="none" stroke="none"/><path fill="none" stroke="#fc9272" paint-order="fill stroke markers" d=" M 71.0771144278624 NaN" stroke-linejoin="bevel" stroke-miterlimit="10" stroke-width="1.5"/><path fill="none" stroke="none"/><path fill="none" stroke="#fc9272" paint-order="fill stroke markers" d=" M 73.3656716417936 NaN" stroke-linejoin="bevel" stroke-miterlimit="10" stroke-width="1.5"/><path fill="none" stroke="none"/><path fill="none" stroke="#fc9272" paint-order="fill stroke markers" d=" M 75.65422885572116 NaN" stroke-linejoin="bevel" stroke-miterlimit="10" stroke-width="1.5"/><path fill="none" stroke="none"/><path fill="none" stroke="#fc9272" paint-order="fill stroke markers" d=" M 77.94278606965236 NaN" stroke-linejoin="bevel" stroke-miterlimit="10" stroke-width="1.5"/><path fill="none" stroke="none"/><path fill="none" stroke="#fc9272" paint-order="fill stroke markers" d=" M 80.23134328358356 NaN" stroke-linejoin="bevel" stroke-miterlimit="10" stroke-width="1.5"/><path fill="none" stroke="none"/><path fill="none" stroke="#fc9272" paint-order="fill stroke markers" d=" M 82.51990049751475 NaN" stroke-linejoin="bevel" stroke-miterlimit="10" stroke-width="1.5"/><path fill="none" stroke="none"/><path fill="none" stroke="#fc9272" paint-order="fill stroke markers" d=" M 84.80845771144595 NaN" stroke-linejoin="bevel" stroke-miterlimit="10" stroke-width="1.5"/><path fill="none" stroke="none"/><path fill="none" stroke="#fc9272" paint-order="fill stroke markers" d=" M 87.09701492537351 NaN" stroke-linejoin="bevel" stroke-miterlimit="10" stroke-width="1.5"/><path fill="none" stroke="none"/><path fill="none" stroke="#fc9272" paint-order="fill stroke markers" d=" M 89.38557213930471 NaN" stroke-linejoin="bevel" stroke-miterlimit="10" stroke-width="1.5"/><path fill="none" stroke="none"/><path fill="none" stroke="#fc9272" paint-order="fill stroke markers" d=" M 91.67412935323591 NaN" stroke-linejoin="bevel" stroke-miterlimit="10" stroke-width="1.5"/><path fill="none" stroke="none"/><path fill="none" stroke="#fc9272" paint-order="fill stroke markers" d=" M 93.96268656716711 NaN" stroke-linejoin="bevel" stroke-miterlimit="10" stroke-width="1.5"/><path fill="none" stroke="none"/><path fill="none" stroke="#fc9272" paint-order="fill stroke markers" d=" M 96.25124378109467 NaN" stroke-linejoin="bevel" stroke-miterlimit="10" stroke-width="1.5"/><path fill="none" stroke="none"/><path fill="none" stroke="#fc9272" paint-order="fill stroke markers" d=" M 98.53980099502587 NaN" stroke-linejoin="bevel" stroke-miterlimit="10" stroke-width="1.5"/><path fill="none" stroke="none"/><path fill="none" stroke="#fc9272" paint-order="fill stroke markers" d=" M 100.82835820895707 NaN" stroke-linejoin="bevel" stroke-miterlimit="10" stroke-width="1.5"/><path fill="none" stroke="none"/><path fill="none" stroke="#fc9272" paint-order="fill stroke markers" d=" M 103.11691542288827 NaN" stroke-linejoin="bevel" stroke-miterlimit="10" stroke-width="1.5"/><path fill="none" stroke="none"/><path fill="none" stroke="#fc9272" paint-order="fill stroke markers" d=" M 105.40547263681583 NaN" stroke-linejoin="bevel" stroke-miterlimit="10" stroke-width="1.5"/><path fill="none" stroke="none"/><path fill="none" stroke="#fc9272" paint-order="fill stroke markers" d=" M 107.69402985074703 NaN" stroke-linejoin="bevel" stroke-miterlimit="10" stroke-width="1.5"/><path fill="none" stroke="none"/><path fill="none" stroke="#fc9272" paint-order="fill stroke markers" d=" M 109.98258706467823 NaN" stroke-linejoin="bevel" stroke-miterlimit="10" stroke-width="1.5"/><path fill="none" stroke="none"/><path fill="none" stroke="#fc9272" paint-order="fill stroke markers" d=" M 112.27114427860943 NaN" stroke-linejoin="bevel" stroke-miterlimit="10" stroke-width="1.5"/><path fill="none" stroke="none"/><path fill="none" stroke="#fc9272" paint-order="fill stroke markers" d=" M 114.55970149253699 NaN" stroke-linejoin="bevel" stroke-miterlimit="10" stroke-width="1.5"/><path fill="none" stroke="none"/><path fill="none" stroke="#fc9272" paint-order="fill stroke markers" d=" M 116.84825870646819 NaN" stroke-linejoin="bevel" stroke-miterlimit="10" stroke-width="1.5"/><path fill="none" stroke="none"/><path fill="none" stroke="#fc9272" paint-order="fill stroke markers" d=" M 119.13681592039939 NaN" stroke-linejoin="bevel" stroke-miterlimit="10" stroke-width="1.5"/><path fill="none" stroke="none"/><path fill="none" stroke="#fc9272" paint-order="fill stroke markers" d=" M 121.42537313433058 NaN" stroke-linejoin="bevel" stroke-miterlimit="10" stroke-width="1.5"/><path fill="none" stroke="none"/><path fill="none" stroke="#fc9272" paint-order="fill stroke markers" d=" M 123.71393034826178 NaN" stroke-linejoin="bevel" stroke-miterlimit="10" stroke-width="1.5"/><path fill="none" stroke="none"/><path fill="none" stroke="#fc9272" paint-order="fill stroke markers" d=" M 126.00248756218934 NaN" stroke-linejoin="bevel" stroke-miterlimit="10" stroke-width="1.5"/><path fill="none" stroke="none"/><path fill="none" stroke="#fc9272" paint-order="fill stroke markers" d=" M 128.29104477612054 NaN" stroke-linejoin="bevel" stroke-miterlimit="10" stroke-width="1.5"/><path fill="none" stroke="none"/><path fill="none" stroke="#fc9272" paint-order="fill stroke markers" d=" M 130.57960199005174 NaN" stroke-linejoin="bevel" stroke-miterlimit="10" stroke-width="1.5"/><path fill="none" stroke="none"/><path fill="none" stroke="#fc9272" paint-order="fill stroke markers" d=" M 132.86815920398294 NaN" stroke-linejoin="bevel" stroke-miterlimit="10" stroke-width="1.5"/><path fill="none" stroke="none"/><path fill="none" stroke="#fc9272" paint-order="fill stroke markers" d=" M 135.1567164179105 NaN" stroke-linejoin="bevel" stroke-miterlimit="10" stroke-width="1.5"/><path fill="none" stroke="none"/><path fill="none" stroke="#fc9272" paint-order="fill stroke markers" d=" M 137.4452736318417 NaN" stroke-linejoin="bevel" stroke-miterlimit="10" stroke-width="1.5"/><path fill="none" stroke="none"/><path fill="none" stroke="#fc9272" paint-order="fill stroke markers" d=" M 139.7338308457729 NaN" stroke-linejoin="bevel" stroke-miterlimit="10" stroke-width="1.5"/><path fill="none" stroke="none"/><path fill="none" stroke="#fc9272" paint-order="fill stroke markers" d=" M 142.0223880597041 NaN" stroke-linejoin="bevel" stroke-miterlimit="10" stroke-width="1.5"/><path fill="none" stroke="none"/><path fill="none" stroke="#fc9272" paint-order="fill stroke markers" d=" M 144.31094527363166 NaN" stroke-linejoin="bevel" stroke-miterlimit="10" stroke-width="1.5"/><path fill="none" stroke="none"/><path fill="none" stroke="#fc9272" paint-order="fill stroke markers" d=" M 146.59950248756286 NaN" stroke-linejoin="bevel" stroke-miterlimit="10" stroke-width="1.5"/><path fill="none" stroke="none"/><path fill="none" stroke="#fc9272" paint-order="fill stroke markers" d=" M 148.88805970149406 28 L 150.03233830845784 44.85767975718295 L 151.17661691542526 54.718790264301106 L 152.32089552238904 61.7153595143659 L 153.46517412935646 67.14232024281705 L 154.60945273632024 71.57647002148404" stroke-linejoin="bevel" stroke-miterlimit="10" stroke-width="1.5"/><path fill="none" stroke="none"/><path fill="none" stroke="#fc9272" paint-order="fill stroke markers" d=" M 156.89800995025143 75.32549024079839 L 158.04228855721522 61.7153595143659 L 159.186567164179 67.14232024281705 L 160.33084577114641 71.57647002148404 L 161.4751243781102 75.32549024079839 L 162.6194029850776 78.57303927154881 L 163.7636815920414 71.57647002148407 L 164.90796019900517 68.3289209907336 L 166.0522388059726 79.56585022133304 L 167.19651741293637 82.32205949086315 L 168.34079601990015 72.37393461190221 L 169.48507462686757 76.01061980015105 L 170.62935323383135 70.99040573550684 L 171.77363184079877 66.14950929303288 L 172.91791044776255 76.17892836797567 L 174.06218905472633 73.89446039034462 L 175.20646766169375 77.32556116772435 L 176.35074626865753 80.33191326963984 L 177.49502487562495 80.6891986813552 L 178.63930348258873 79.2646638211889 L 179.7835820895525 90.9965692500648 L 180.92786069651993 80.33191326963977 L 182.0721393034837 84.68512955935263 L 183.2164179104475 83.69407784071589 L 184.3606965174149 89.28758790584426 L 185.5049751243787 92.97201182958315 L 186.6492537313461 98.66098884668685 L 187.7935323383099 92.41369770489187 L 188.93781094527367 101.61945763395431 L 190.0820895522411 102.77031922630415 L 191.22636815920487 108.74958290875904 L 192.37064676617229 109.61312300533866 L 193.51492537313607 110.4470501078141 L 194.65920398009985 97.26018956692039 L 195.80348258706726 105.62728990244447 L 196.94776119403105 108.72293031322965 L 198.09203980099483 109.58740064335711 L 199.23631840796224 106.35935787462174 L 200.38059701492602 107.31035537018975 L 201.52487562189344 108.22556142559237 L 202.66915422885722 115.48840040956269 L 203.813432835821 113.82776062389158 L 204.95771144278842 112.41473928295137 L 206.1019900497522 115.27546166726577 L 207.24626865671962 113.82235546974422 L 208.3905472636834 114.52564758813054 L 209.53482587064718 115.20917241712142 L 210.6791044776146 132.7316905934479 L 211.82338308457838 137.49156610234894 L 212.96766169154216 150.1832409249074 L 214.11194029850958 123.62392986148426 L 215.25621890547336 133.95729775066698 L 216.40049751244078 134.2671171122646 L 217.54477611940456 134.5730392715489 L 218.68905472636834 122.45163107868841 L 219.83333333333576 118.51282410478409 L 220.97761194029954 107.91816623454095 L 222.12189054726696 114.56028394478457 L 223.26616915423074 115.24284953903155 L 224.41044776119452 115.90678042261068 L 225.55472636816194 116.55306710529119 L 226.69900497512572 117.18262316274834 L 227.8432835820895 121.27657578125535 L 228.98756218905692 128.1770064834232 L 230.1318407960207 133.99624169971952 L 231.27611940298812 119.01749725385383 L 232.4203980099519 119.58708982163509 L 233.56467661691568 120.143647083549 L 234.7089552238831 21.165388003186536 L 235.85323383084688 41.65260519953722 L 236.99751243781066 52.38740386591613 L 238.14179104477807 59.8812009297356 L 239.28606965174185 65.87361698187524 L 240.43034825870927 70.5238668080574 L 241.57462686567305 74.42607698823909 L 242.71890547263683 170.50252924894946 L 243.86318407960425 167.17273938412563 L 245.00746268656803 185.19094712643613 L 246.15174129353545 187.54683867189178 L 247.29601990049923 187.58124310680978 L 248.440298507463 187.61559894100805 L 249.58457711443043 187.64990631161285 L 250.7288557213942 167.4274065381656 L 251.873134328358 163.60640769972576 L 253.0174129353254 149.20375992392837 L 254.1616915422892 146.56044061581684 L 255.3059701492566 146.74543936473634 L 256.4502487562204 142.8662041397581 L 257.59452736318417 143.08141647788443 L 258.7388059701516 139.49232789582064 L 259.88308457711537 130.30875548070486 L 261.0273631840828 95.7870813546491 L 262.17164179104657 87.93788697480267 L 263.31592039801035 88.71801729709107 L 264.46019900497777 90.9812363772317 L 265.60447761194155 89.73324408046385 L 266.7487562189053 91.55233753091306 L 267.89303482587275 93.7893534742803 L 269.0373134328365 110.61700261445519 L 270.18159203980395 124.99915741368295 L 271.3258706467677 127.65338150952897 L 272.4701492537315 128.05412336355738 L 273.6144278606989 141.92132782974778 L 274.7587064676627 140.84016650852377 L 275.9029850746301 144.16646192779376 L 277.0472636815939 143.75992897264027 L 278.1915422885577 145.63099720505238 L 279.3358208955251 143.7608809808205 L 280.4800995024889 143.96835322361633 L 281.62437810945266 143.7817960432822 L 282.7686567164201 146.87796461572108 L 283.91293532338386 147.28066918162673 L 285.0572139303513 150.51906282697033 L 286.20149253731506 155.36253994750922 L 287.34577114427884 159.08900029807756 L 288.49004975124626 159.1996903660084 L 289.63432835821004 138.10632713618224 L 290.7786069651738 138.0747932420178 L 291.92288557214124 136.11147965998885 L 293.067164179105 136.66245047290357 L 294.21144278607244 136.6725806479195 L 295.3557213930362 135.65590851446967 L 296.5 135.94495128116378" stroke-linejoin="bevel" stroke-miterlimit="10" stroke-width="1.5"/></g></g></g><g><g/><g><path fill="#ffffff" stroke="none" paint-order="stroke fill markers" d=" M 53.69767761230469 258 L 308 258 L 308 278.98333740234375 L 53.69767761230469 278.98333740234375 L 53.69767761230469 258 Z" fill-opacity="0.95"/><text fill="#444444" stroke="none" font-family="helvetica" font-size="13px" font-style="normal" font-weight="normal" text-decoration="normal" x="78.69767761230469" y="268.4916687011719" text-anchor="start" dominant-baseline="central">Maricopa, Arizona</text><g><path fill="none" stroke="#3182bd" paint-order="fill stroke markers" d=" M 53.69767761230469 268 L 73.69767761230469 268" stroke-linejoin="bevel" stroke-miterlimit="10" stroke-width="1.5"/></g><text fill="#444444" stroke="none" font-family="helvetica" font-size="13px" font-style="normal" font-weight="normal" text-decoration="normal" x="211.44186401367188" y="268.4916687011719" text-anchor="start" dominant-baseline="central">Anderson, Texas</text><g><path fill="none" stroke="#9ecae1" paint-order="fill stroke markers" d=" M 186.44186401367188 268 L 206.44186401367188 268" stroke-linejoin="bevel" stroke-miterlimit="10" stroke-width="1.5"/></g></g></g><g><g/><g><path fill="#ffffff" stroke="none" paint-order="stroke fill markers" d=" M 53.69767761230469 279 L 308 279 L 308 299.98333740234375 L 53.69767761230469 299.98333740234375 L 53.69767761230469 279 Z" fill-opacity="0.95"/><text fill="#444444" stroke="none" font-family="helvetica" font-size="13px" font-style="normal" font-weight="normal" text-decoration="normal" x="78.69767761230469" y="289.4916687011719" text-anchor="start" dominant-baseline="central">Maricopa, Arizona</text><g><path fill="none" stroke="#de2d26" paint-order="fill stroke markers" d=" M 53.69767761230469 289 L 73.69767761230469 289" stroke-linejoin="bevel" stroke-miterlimit="10" stroke-width="1.5"/></g><text fill="#444444" stroke="none" font-family="helvetica" font-size="13px" font-style="normal" font-weight="normal" text-decoration="normal" x="211.44186401367188" y="289.4916687011719" text-anchor="start" dominant-baseline="central">Anderson, Texas</text><g><path fill="none" stroke="#fc9272" paint-order="fill stroke markers" d=" M 186.44186401367188 289 L 206.44186401367188 289" stroke-linejoin="bevel" stroke-miterlimit="10" stroke-width="1.5"/></g></g></g><g><g fill="#444444"><path fill="" stroke="none" d=""/><g transform="translate(55,23)"><path fill="none" stroke="none"/><text fill="" stroke="none" font-family="helvetica" font-size="13px" font-style="normal" font-weight="bold" text-decoration="normal" x="0" y="0" text-anchor="start" dominant-baseline="text-after-edge">Beta - Arizona, Texas</text></g></g></g><g/><g><g fill="#444444"><path fill="none" stroke="black" paint-order="fill stroke markers" d=" M 55 196 L 308 196" stroke-linejoin="bevel" stroke-miterlimit="10"/><path fill="none" stroke="black" paint-order="fill stroke markers" d=" M 79 202 L 79 194" stroke-linejoin="bevel" stroke-miterlimit="10"/><path fill="none" stroke="black" paint-order="fill stroke markers" d=" M 112 202 L 112 194" stroke-linejoin="bevel" stroke-miterlimit="10"/><path fill="none" stroke="black" paint-order="fill stroke markers" d=" M 148 202 L 148 194" stroke-linejoin="bevel" stroke-miterlimit="10"/><path fill="none" stroke="black" paint-order="fill stroke markers" d=" M 182 202 L 182 194" stroke-linejoin="bevel" stroke-miterlimit="10"/><path fill="none" stroke="black" paint-order="fill stroke markers" d=" M 218 202 L 218 194" stroke-linejoin="bevel" stroke-miterlimit="10"/><path fill="none" stroke="black" paint-order="fill stroke markers" d=" M 252 202 L 252 194" stroke-linejoin="bevel" stroke-miterlimit="10"/><path fill="" stroke="black" paint-order="fill stroke markers" d=" M 287 202 L 287 194" stroke-linejoin="bevel" stroke-miterlimit="10"/><g transform="translate(79,207) rotate(-45,0,0)"><text fill="" stroke="none" font-family="helvetica" font-size="11px" font-style="normal" font-weight="normal" text-decoration="normal" x="0" y="0" text-anchor="end" dominant-baseline="central">2/2020</text><g transform="rotate(45,0,0) translate(-79,-207) translate(112,207) rotate(-45,0,0)"><text fill="" stroke="none" font-family="helvetica" font-size="11px" font-style="normal" font-weight="normal" text-decoration="normal" x="0" y="0" text-anchor="end" dominant-baseline="central">3/2020</text><g transform="rotate(45,0,0) translate(-112,-207) translate(148,207) rotate(-45,0,0)"><text fill="" stroke="none" font-family="helvetica" font-size="11px" font-style="normal" font-weight="normal" text-decoration="normal" x="0" y="0" text-anchor="end" dominant-baseline="central">4/2020</text><g transform="rotate(45,0,0) translate(-148,-207) translate(182,207) rotate(-45,0,0)"><text fill="" stroke="none" font-family="helvetica" font-size="11px" font-style="normal" font-weight="normal" text-decoration="normal" x="0" y="0" text-anchor="end" dominant-baseline="central">5/2020</text><g transform="rotate(45,0,0) translate(-182,-207) translate(218,207) rotate(-45,0,0)"><text fill="" stroke="none" font-family="helvetica" font-size="11px" font-style="normal" font-weight="normal" text-decoration="normal" x="0" y="0" text-anchor="end" dominant-baseline="central">6/2020</text><g transform="rotate(45,0,0) translate(-218,-207) translate(252,207) rotate(-45,0,0)"><text fill="" stroke="none" font-family="helvetica" font-size="11px" font-style="normal" font-weight="normal" text-decoration="normal" x="0" y="0" text-anchor="end" dominant-baseline="central">7/2020</text><g transform="rotate(45,0,0) translate(-252,-207) translate(287,207) rotate(-45,0,0)"><text fill="" stroke="none" font-family="helvetica" font-size="11px" font-style="normal" font-weight="normal" text-decoration="normal" x="0" y="0" text-anchor="end" dominant-baseline="central">8/2020</text><g transform="rotate(45,0,0) translate(-287,-207) translate(182,243) rotate(0,0,0)"><text fill="" stroke="none" font-family="helvetica" font-size="13px" font-style="italic" font-weight="normal" text-decoration="normal" x="0" y="0" text-anchor="middle" dominant-baseline="hanging">Month</text><g transform="rotate(0,0,0) translate(-182,-243)"/></g></g></g></g></g></g></g></g></g></g><g><g fill="#444444"><path fill="none" stroke="black" paint-order="fill stroke markers" d=" M 55 196 L 55 28" stroke-linejoin="bevel" stroke-miterlimit="10"/><path fill="none" stroke="black" paint-order="fill stroke markers" d=" M 49 166 L 57 166" stroke-linejoin="bevel" stroke-miterlimit="10"/><path fill="none" stroke="black" paint-order="fill stroke markers" d=" M 49 135 L 57 135" stroke-linejoin="bevel" stroke-miterlimit="10"/><path fill="none" stroke="black" paint-order="fill stroke markers" d=" M 49 106 L 57 106" stroke-linejoin="bevel" stroke-miterlimit="10"/><path fill="none" stroke="black" paint-order="fill stroke markers" d=" M 49 79 L 57 79" stroke-linejoin="bevel" stroke-miterlimit="10"/><path fill="none" stroke="black" paint-order="fill stroke markers" d=" M 49 53 L 57 53" stroke-linejoin="bevel" stroke-miterlimit="10"/><path fill="none" stroke="black" paint-order="fill stroke markers" d=" M 49 29 L 57 29" stroke-linejoin="bevel" stroke-miterlimit="10"/><path fill="none" stroke="black" paint-order="fill stroke markers" d=" M 51 169 L 55 169" stroke-linejoin="bevel" stroke-miterlimit="10"/><path fill="none" stroke="black" paint-order="fill stroke markers" d=" M 51 172 L 55 172" stroke-linejoin="bevel" stroke-miterlimit="10"/><path fill="none" stroke="black" paint-order="fill stroke markers" d=" M 51 176 L 55 176" stroke-linejoin="bevel" stroke-miterlimit="10"/><path fill="none" stroke="black" paint-order="fill stroke markers" d=" M 51 179 L 55 179" stroke-linejoin="bevel" stroke-miterlimit="10"/><path fill="none" stroke="black" paint-order="fill stroke markers" d=" M 51 182 L 55 182" stroke-linejoin="bevel" stroke-miterlimit="10"/><path fill="none" stroke="black" paint-order="fill stroke markers" d=" M 51 186 L 55 186" stroke-linejoin="bevel" stroke-miterlimit="10"/><path fill="none" stroke="black" paint-order="fill stroke markers" d=" M 51 189 L 55 189" stroke-linejoin="bevel" stroke-miterlimit="10"/><path fill="none" stroke="black" paint-order="fill stroke markers" d=" M 51 192 L 55 192" stroke-linejoin="bevel" stroke-miterlimit="10"/><path fill="none" stroke="black" paint-order="fill stroke markers" d=" M 51 196 L 55 196" stroke-linejoin="bevel" stroke-miterlimit="10"/><path fill="none" stroke="black" paint-order="fill stroke markers" d=" M 51 166 L 55 166" stroke-linejoin="bevel" stroke-miterlimit="10"/><path fill="none" stroke="black" paint-order="fill stroke markers" d=" M 51 163 L 55 163" stroke-linejoin="bevel" stroke-miterlimit="10"/><path fill="none" stroke="black" paint-order="fill stroke markers" d=" M 51 160 L 55 160" stroke-linejoin="bevel" stroke-miterlimit="10"/><path fill="none" stroke="black" paint-order="fill stroke markers" d=" M 51 156 L 55 156" stroke-linejoin="bevel" stroke-miterlimit="10"/><path fill="none" stroke="black" paint-order="fill stroke markers" d=" M 51 153 L 55 153" stroke-linejoin="bevel" stroke-miterlimit="10"/><path fill="none" stroke="black" paint-order="fill stroke markers" d=" M 51 150 L 55 150" stroke-linejoin="bevel" stroke-miterlimit="10"/><path fill="none" stroke="black" paint-order="fill stroke markers" d=" M 51 147 L 55 147" stroke-linejoin="bevel" stroke-miterlimit="10"/><path fill="none" stroke="black" paint-order="fill stroke markers" d=" M 51 144 L 55 144" stroke-linejoin="bevel" stroke-miterlimit="10"/><path fill="none" stroke="black" paint-order="fill stroke markers" d=" M 51 141 L 55 141" stroke-linejoin="bevel" stroke-miterlimit="10"/><path fill="none" stroke="black" paint-order="fill stroke markers" d=" M 51 138 L 55 138" stroke-linejoin="bevel" stroke-miterlimit="10"/><path fill="none" stroke="black" paint-order="fill stroke markers" d=" M 51 135 L 55 135" stroke-linejoin="bevel" stroke-miterlimit="10"/><path fill="none" stroke="black" paint-order="fill stroke markers" d=" M 51 132 L 55 132" stroke-linejoin="bevel" stroke-miterlimit="10"/><path fill="none" stroke="black" paint-order="fill stroke markers" d=" M 51 129 L 55 129" stroke-linejoin="bevel" stroke-miterlimit="10"/><path fill="none" stroke="black" paint-order="fill stroke markers" d=" M 51 126 L 55 126" stroke-linejoin="bevel" stroke-miterlimit="10"/><path fill="none" stroke="black" paint-order="fill stroke markers" d=" M 51 123 L 55 123" stroke-linejoin="bevel" stroke-miterlimit="10"/><path fill="none" stroke="black" paint-order="fill stroke markers" d=" M 51 120 L 55 120" stroke-linejoin="bevel" stroke-miterlimit="10"/><path fill="none" stroke="black" paint-order="fill stroke markers" d=" M 51 117 L 55 117" stroke-linejoin="bevel" stroke-miterlimit="10"/><path fill="none" stroke="black" paint-order="fill stroke markers" d=" M 51 115 L 55 115" stroke-linejoin="bevel" stroke-miterlimit="10"/><path fill="none" stroke="black" paint-order="fill stroke markers" d=" M 51 112 L 55 112" stroke-linejoin="bevel" stroke-miterlimit="10"/><path fill="none" stroke="black" paint-order="fill stroke markers" d=" M 51 109 L 55 109" stroke-linejoin="bevel" stroke-miterlimit="10"/><path fill="none" stroke="black" paint-order="fill stroke markers" d=" M 51 106 L 55 106" stroke-linejoin="bevel" stroke-miterlimit="10"/><path fill="none" stroke="black" paint-order="fill stroke markers" d=" M 51 103 L 55 103" stroke-linejoin="bevel" stroke-miterlimit="10"/><path fill="none" stroke="black" paint-order="fill stroke markers" d=" M 51 101 L 55 101" stroke-linejoin="bevel" stroke-miterlimit="10"/><path fill="none" stroke="black" paint-order="fill stroke markers" d=" M 51 98 L 55 98" stroke-linejoin="bevel" stroke-miterlimit="10"/><path fill="none" stroke="black" paint-order="fill stroke markers" d=" M 51 95 L 55 95" stroke-linejoin="bevel" stroke-miterlimit="10"/><path fill="none" stroke="black" paint-order="fill stroke markers" d=" M 51 92 L 55 92" stroke-linejoin="bevel" stroke-miterlimit="10"/><path fill="none" stroke="black" paint-order="fill stroke markers" d=" M 51 90 L 55 90" stroke-linejoin="bevel" stroke-miterlimit="10"/><path fill="none" stroke="black" paint-order="fill stroke markers" d=" M 51 87 L 55 87" stroke-linejoin="bevel" stroke-miterlimit="10"/><path fill="none" stroke="black" paint-order="fill stroke markers" d=" M 51 84 L 55 84" stroke-linejoin="bevel" stroke-miterlimit="10"/><path fill="none" stroke="black" paint-order="fill stroke markers" d=" M 51 82 L 55 82" stroke-linejoin="bevel" stroke-miterlimit="10"/><path fill="none" stroke="black" paint-order="fill stroke markers" d=" M 51 79 L 55 79" stroke-linejoin="bevel" stroke-miterlimit="10"/><path fill="none" stroke="black" paint-order="fill stroke markers" d=" M 51 76 L 55 76" stroke-linejoin="bevel" stroke-miterlimit="10"/><path fill="none" stroke="black" paint-order="fill stroke markers" d=" M 51 74 L 55 74" stroke-linejoin="bevel" stroke-miterlimit="10"/><path fill="none" stroke="black" paint-order="fill stroke markers" d=" M 51 71 L 55 71" stroke-linejoin="bevel" stroke-miterlimit="10"/><path fill="none" stroke="black" paint-order="fill stroke markers" d=" M 51 69 L 55 69" stroke-linejoin="bevel" stroke-miterlimit="10"/><path fill="none" stroke="black" paint-order="fill stroke markers" d=" M 51 66 L 55 66" stroke-linejoin="bevel" stroke-miterlimit="10"/><path fill="none" stroke="black" paint-order="fill stroke markers" d=" M 51 63 L 55 63" stroke-linejoin="bevel" stroke-miterlimit="10"/><path fill="none" stroke="black" paint-order="fill stroke markers" d=" M 51 61 L 55 61" stroke-linejoin="bevel" stroke-miterlimit="10"/><path fill="none" stroke="black" paint-order="fill stroke markers" d=" M 51 58 L 55 58" stroke-linejoin="bevel" stroke-miterlimit="10"/><path fill="none" stroke="black" paint-order="fill stroke markers" d=" M 51 56 L 55 56" stroke-linejoin="bevel" stroke-miterlimit="10"/><path fill="none" stroke="black" paint-order="fill stroke markers" d=" M 51 53 L 55 53" stroke-linejoin="bevel" stroke-miterlimit="10"/><path fill="none" stroke="black" paint-order="fill stroke markers" d=" M 51 51 L 55 51" stroke-linejoin="bevel" stroke-miterlimit="10"/><path fill="none" stroke="black" paint-order="fill stroke markers" d=" M 51 48 L 55 48" stroke-linejoin="bevel" stroke-miterlimit="10"/><path fill="none" stroke="black" paint-order="fill stroke markers" d=" M 51 46 L 55 46" stroke-linejoin="bevel" stroke-miterlimit="10"/><path fill="none" stroke="black" paint-order="fill stroke markers" d=" M 51 44 L 55 44" stroke-linejoin="bevel" stroke-miterlimit="10"/><path fill="none" stroke="black" paint-order="fill stroke markers" d=" M 51 41 L 55 41" stroke-linejoin="bevel" stroke-miterlimit="10"/><path fill="none" stroke="black" paint-order="fill stroke markers" d=" M 51 39 L 55 39" stroke-linejoin="bevel" stroke-miterlimit="10"/><path fill="none" stroke="black" paint-order="fill stroke markers" d=" M 51 36 L 55 36" stroke-linejoin="bevel" stroke-miterlimit="10"/><path fill="none" stroke="black" paint-order="fill stroke markers" d=" M 51 34 L 55 34" stroke-linejoin="bevel" stroke-miterlimit="10"/><path fill="none" stroke="black" paint-order="fill stroke markers" d=" M 51 32 L 55 32" stroke-linejoin="bevel" stroke-miterlimit="10"/><path fill="" stroke="black" paint-order="fill stroke markers" d=" M 51 29 L 55 29" stroke-linejoin="bevel" stroke-miterlimit="10"/><g transform="translate(44,166) rotate(0,0,0)"><text fill="" stroke="none" font-family="helvetica" font-size="11px" font-style="normal" font-weight="normal" text-decoration="normal" x="0" y="0" text-anchor="end" dominant-baseline="central">0.7</text><g transform="rotate(0,0,0) translate(-44,-166) translate(44,135) rotate(0,0,0)"><text fill="" stroke="none" font-family="helvetica" font-size="11px" font-style="normal" font-weight="normal" text-decoration="normal" x="0" y="0" text-anchor="end" dominant-baseline="central">0.75</text><g transform="rotate(0,0,0) translate(-44,-135) translate(44,106) rotate(0,0,0)"><text fill="" stroke="none" font-family="helvetica" font-size="11px" font-style="normal" font-weight="normal" text-decoration="normal" x="0" y="0" text-anchor="end" dominant-baseline="central">0.8</text><g transform="rotate(0,0,0) translate(-44,-106) translate(44,79) rotate(0,0,0)"><text fill="" stroke="none" font-family="helvetica" font-size="11px" font-style="normal" font-weight="normal" text-decoration="normal" x="0" y="0" text-anchor="end" dominant-baseline="central">0.85</text><g transform="rotate(0,0,0) translate(-44,-79) translate(44,53) rotate(0,0,0)"><text fill="" stroke="none" font-family="helvetica" font-size="11px" font-style="normal" font-weight="normal" text-decoration="normal" x="0" y="0" text-anchor="end" dominant-baseline="central">0.9</text><g transform="rotate(0,0,0) translate(-44,-53) translate(44,29) rotate(0,0,0)"><text fill="" stroke="none" font-family="helvetica" font-size="11px" font-style="normal" font-weight="normal" text-decoration="normal" x="0" y="0" text-anchor="end" dominant-baseline="central">0.95</text><g transform="rotate(0,0,0) translate(-44,-29) translate(15,112) rotate(-90,0,0)"><text fill="" stroke="none" font-family="helvetica" font-size="13px" font-style="italic" font-weight="normal" text-decoration="normal" x="0" y="0" text-anchor="middle" dominant-baseline="alphabetic">log(beta)</text><g transform="rotate(90,0,0) translate(-15,-112)"/></g></g></g></g></g></g></g></g></g><g><g fill="#444444"><path fill="none" stroke="black" paint-order="fill stroke markers" d=" M 308 196 L 308 28" stroke-linejoin="bevel" stroke-miterlimit="10"/><path fill="none" stroke="black" paint-order="fill stroke markers" d=" M 314 196 L 306 196" stroke-linejoin="bevel" stroke-miterlimit="10"/><path fill="none" stroke="black" paint-order="fill stroke markers" d=" M 314 140 L 306 140" stroke-linejoin="bevel" stroke-miterlimit="10"/><path fill="none" stroke="black" paint-order="fill stroke markers" d=" M 314 84 L 306 84" stroke-linejoin="bevel" stroke-miterlimit="10"/><path fill="none" stroke="black" paint-order="fill stroke markers" d=" M 314 28 L 306 28" stroke-linejoin="bevel" stroke-miterlimit="10"/><path fill="none" stroke="black" paint-order="fill stroke markers" d=" M 312 196 L 308 196" stroke-linejoin="bevel" stroke-miterlimit="10"/><path fill="none" stroke="black" paint-order="fill stroke markers" d=" M 312 179 L 308 179" stroke-linejoin="bevel" stroke-miterlimit="10"/><path fill="none" stroke="black" paint-order="fill stroke markers" d=" M 312 162 L 308 162" stroke-linejoin="bevel" stroke-miterlimit="10"/><path fill="none" stroke="black" paint-order="fill stroke markers" d=" M 312 152 L 308 152" stroke-linejoin="bevel" stroke-miterlimit="10"/><path fill="none" stroke="black" paint-order="fill stroke markers" d=" M 312 145 L 308 145" stroke-linejoin="bevel" stroke-miterlimit="10"/><path fill="none" stroke="black" paint-order="fill stroke markers" d=" M 312 140 L 308 140" stroke-linejoin="bevel" stroke-miterlimit="10"/><path fill="none" stroke="black" paint-order="fill stroke markers" d=" M 312 123 L 308 123" stroke-linejoin="bevel" stroke-miterlimit="10"/><path fill="none" stroke="black" paint-order="fill stroke markers" d=" M 312 106 L 308 106" stroke-linejoin="bevel" stroke-miterlimit="10"/><path fill="none" stroke="black" paint-order="fill stroke markers" d=" M 312 96 L 308 96" stroke-linejoin="bevel" stroke-miterlimit="10"/><path fill="none" stroke="black" paint-order="fill stroke markers" d=" M 312 89 L 308 89" stroke-linejoin="bevel" stroke-miterlimit="10"/><path fill="none" stroke="black" paint-order="fill stroke markers" d=" M 312 84 L 308 84" stroke-linejoin="bevel" stroke-miterlimit="10"/><path fill="none" stroke="black" paint-order="fill stroke markers" d=" M 312 67 L 308 67" stroke-linejoin="bevel" stroke-miterlimit="10"/><path fill="none" stroke="black" paint-order="fill stroke markers" d=" M 312 50 L 308 50" stroke-linejoin="bevel" stroke-miterlimit="10"/><path fill="none" stroke="black" paint-order="fill stroke markers" d=" M 312 40 L 308 40" stroke-linejoin="bevel" stroke-miterlimit="10"/><path fill="none" stroke="black" paint-order="fill stroke markers" d=" M 312 33 L 308 33" stroke-linejoin="bevel" stroke-miterlimit="10"/><path fill="" stroke="black" paint-order="fill stroke markers" d=" M 312 28 L 308 28" stroke-linejoin="bevel" stroke-miterlimit="10"/><g transform="translate(319,196) rotate(0,0,0)"><text fill="" stroke="none" font-family="helvetica" font-size="11px" font-style="normal" font-weight="normal" text-decoration="normal" x="0" y="0" text-anchor="start" dominant-baseline="central">10^-3</text><g transform="rotate(0,0,0) translate(-319,-196) translate(319,140) rotate(0,0,0)"><text fill="" stroke="none" font-family="helvetica" font-size="11px" font-style="normal" font-weight="normal" text-decoration="normal" x="0" y="0" text-anchor="start" dominant-baseline="central">10^-2</text><g transform="rotate(0,0,0) translate(-319,-140) translate(319,84) rotate(0,0,0)"><text fill="" stroke="none" font-family="helvetica" font-size="11px" font-style="normal" font-weight="normal" text-decoration="normal" x="0" y="0" text-anchor="start" dominant-baseline="central">10^-1</text><g transform="rotate(0,0,0) translate(-319,-84) translate(319,28) rotate(0,0,0)"><text fill="" stroke="none" font-family="helvetica" font-size="11px" font-style="normal" font-weight="normal" text-decoration="normal" x="0" y="0" text-anchor="start" dominant-baseline="central">10^0</text><g transform="rotate(0,0,0) translate(-319,-28) translate(354,112) rotate(90,0,0)"><text fill="" stroke="none" font-family="helvetica" font-size="13px" font-style="italic" font-weight="normal" text-decoration="normal" x="0" y="0" text-anchor="middle" dominant-baseline="alphabetic">log(growth)</text><g transform="rotate(-90,0,0) translate(-354,-112)"/></g></g></g></g></g></g></g></g><g/><g/><g/><g/><g/><g/><g/><g/><g/><g/><g/><g/><g/><g/><g/><g/><g/><g/><g/><g/><g/><g/><g/><g/><g/><g/><g/><g/><g/><g/><g/><g/><g/><g/><g/><g/><g/><g/><g/><g/><g/><g/><g/><g/><g/><g/><g/><g/><g/><g/></g></svg>