<svg version="1.1" xmlns="http://www.w3.org/2000/svg" xmlns:xlink="http://www.w3.org/1999/xlink" width="400" height="300" style="width: 400px; height: 300px;"><defs><clipPath id="RxVNCrBOAxbe"><path fill="none" stroke="none" d=" M 55 28 L 308 28 L 308 196 L 55 196 L 55 28 Z"/></clipPath><clipPath id="INkmRIGDWAsh"><path fill="none" stroke="none" d=" M 55 28 L 308 28 L 308 196 L 55 196 L 55 28 Z"/></clipPath><clipPath id="XxqwOHJEJbPf"><path fill="none" stroke="none" d=" M 55 28 L 308 28 L 308 196 L 55 196 L 55 28 Z"/></clipPath><clipPath id="VlUXmKvdGnib"><path fill="none" stroke="none" d=" M 55 28 L 308 28 L 308 196 L 55 196 L 55 28 Z"/></clipPath><clipPath id="smRMJUlNkGEF"><path fill="none" stroke="none" d=" M 55 28 L 308 28 L 308 196 L 55 196 L 55 28 Z"/></clipPath><clipPath id="UwxgxtZxTfDF"><path fill="none" stroke="none" d=" M 55 28 L 308 28 L 308 196 L 55 196 L 55 28 Z"/></clipPath></defs><g><g/><g/><g/><g/><g/><g/><g transform="scale(1,1) translate(0.5,0.5)"><rect fill="#FFFFFF" stroke="none" x="0" y="0" width="400" height="300"/><rect fill="#ffffff" stroke="none" x="0" y="0" width="400" height="300"/><rect fill="#FFFFFF" stroke="none" x="55" y="28" width="253" height="168"/><rect fill="#ffffff" stroke="none" x="55" y="28" width="253" height="168"/><g clip-path="url(#RxVNCrBOAxbe)"><g><g><path fill="none" stroke="#e5e5e5" paint-order="fill stroke markers" d=" M 79 196 L 79 28" stroke-linejoin="bevel" stroke-miterlimit="10"/><path fill="none" stroke="#e5e5e5" paint-order="fill stroke markers" d=" M 112 196 L 112 28" stroke-linejoin="bevel" stroke-miterlimit="10"/><path fill="none" stroke="#e5e5e5" paint-order="fill stroke markers" d=" M 148 196 L 148 28" stroke-linejoin="bevel" stroke-miterlimit="10"/><path fill="none" stroke="#e5e5e5" paint-order="fill stroke markers" d=" M 182 196 L 182 28" stroke-linejoin="bevel" stroke-miterlimit="10"/><path fill="none" stroke="#e5e5e5" paint-order="fill stroke markers" d=" M 218 196 L 218 28" stroke-linejoin="bevel" stroke-miterlimit="10"/><path fill="none" stroke="#e5e5e5" paint-order="fill stroke markers" d=" M 252 196 L 252 28" stroke-linejoin="bevel" stroke-miterlimit="10"/><path fill="none" stroke="#e5e5e5" paint-order="fill stroke markers" d=" M 287 196 L 287 28" stroke-linejoin="bevel" stroke-miterlimit="10"/></g></g></g><g clip-path="url(#INkmRIGDWAsh)"><g><g/></g></g><g clip-path="url(#XxqwOHJEJbPf)"><g><g><path fill="none" stroke="none"/><path fill="none" stroke="#3182bd" paint-order="fill stroke markers" d=" M 66.5 28.076717383745205 L 67.64427860696742 28.278230271155223 L 68.7885572139312 28.301278568363898 L 69.93283582089862 28.29879085732088 L 71.0771144278624 28.29255665035214 L 72.22139303482618 28.365843691940682 L 73.3656716417936 28.45512218182742 L 74.50995024875738 28.475060723016583 L 75.65422885572116 28.484295697455394 L 76.79850746268858 28.48444561734263 L 77.94278606965236 28.56118078366802 L 79.08706467661978 28.594469503195285 L 80.23134328358356 28.650795695037488 L 81.37562189054734 28.456381433520193 L 82.51990049751475 28.563309992758263 L 83.66417910447854 28.732327461279368 L 84.80845771144595 29.114884413981883 L 85.95273631840973 29.05718266016555 L 87.09701492537351 29.44168213556094 L 88.24129353234093 29.511509626161114 L 89.38557213930471 29.555141960255412 L 90.5298507462685 29.602414814949924 L 91.67412935323591 29.70409884251626 L 92.81840796019969 29.81713986723355 L 93.96268656716711 29.89646492174282 L 95.10696517413089 29.991925019324412 L 96.25124378109467 30.129253758844214 L 97.39552238806209 30.31544003401757 L 98.53980099502587 30.551474445876977 L 99.68407960199329 30.84628965702504 L 100.82835820895707 31.123859751280946 L 101.97263681592085 31.297253252065644 L 103.11691542288827 31.448956270280178 L 104.26119402985205 31.960860264698027 L 105.40547263681583 32.417592713019076 L 106.54975124378325 32.52997677053034 L 107.69402985074703 32.61359409749255 L 108.83830845771445 32.67414640256001 L 109.98258706467823 32.70106772146738 L 111.12686567164201 32.707783163023095 L 112.27114427860943 32.70950741323168 L 113.41542288557321 32.720458059671955 L 114.55970149253699 32.74045422404339 L 115.7039800995044 33.38746804382515 L 116.84825870646819 33.7851074051774 L 117.9925373134356 33.71216744837335 L 119.13681592039939 34.398594791761894 L 120.28109452736317 34.64524902310782 L 121.42537313433058 34.47485787998008 L 122.56965174129436 34.33445456401864 L 123.71393034826178 34.23733476924957 L 124.85820895522556 34.18234943037797 L 126.00248756218934 34.146545599596635 L 127.14676616915676 34.12812891035122 L 128.29104477612054 33.94090754390436 L 129.43532338308432 33.90870023951052 L 130.57960199005174 33.971934145360706 L 131.72388059701552 34.06636081166653 L 132.86815920398294 34.1927269739148 L 134.01243781094672 34.35743235052527 L 135.1567164179105 34.27587682729825 L 136.30099502487792 34.45293706857851 L 137.4452736318417 34.78352577111062 L 138.58955223880912 35.21161083193883 L 139.7338308457729 35.77124613822673 L 140.87810945273668 36.51805034116691 L 142.0223880597041 37.51519944596089 L 143.16666666666788 38.84281622107801 L 144.31094527363166 40.808979095330415 L 145.45522388059908 43.22002175512878 L 146.59950248756286 46.28438054607349 L 147.74378109453028 50.19245706072729 L 148.88805970149406 55.105452886363025 L 150.03233830845784 61.04498793765299 L 151.17661691542526 67.94281041678971 L 152.32089552238904 75.57364855933223 L 153.46517412935646 82.80032907121424 L 154.60945273632024 92.09744767398874 L 155.75373134328402 102.60098338773015 L 156.89800995025143 113.5729800187328 L 158.04228855721522 124.60646361350683 L 159.186567164179 135.441959284914 L 160.33084577114641 145.68086492990673 L 161.4751243781102 154.5724973109833 L 162.6194029850776 158.27677796324085 L 163.7636815920414 163.69400528797647 L 164.90796019900517 169.83839973224582 L 166.0522388059726 175.35667593225216 L 167.19651741293637 179.91704837520416 L 168.34079601990015 183.54382100665273 L 169.48507462686757 186.3285895629434 L 170.62935323383135 188.41957537372022 L 171.77363184079877 187.8829467449548 L 172.91791044776255 188.19701305906378 L 174.06218905472633 189.2660818031537 L 175.20646766169375 189.89577969721003 L 176.35074626865753 190.1276686173213 L 177.49502487562495 190.17887839043007 L 178.63930348258873 188.2326897708282 L 179.7835820895525 187.1719427728655 L 180.92786069651993 186.76448285428208 L 182.0721393034837 186.29684988618214 L 183.2164179104475 185.7211051300031 L 184.3606965174149 184.93241081869866 L 185.5049751243787 183.89135834831777 L 186.6492537313461 182.6182600230946 L 187.7935323383099 181.13514528997172 L 188.93781094527367 179.30149605556355 L 190.0820895522411 177.12916127333585 L 191.22636815920487 173.7745041172184 L 192.37064676617229 170.77275818645444 L 193.51492537313607 167.90510449705337 L 194.65920398009985 164.77867350411984 L 195.80348258706726 161.15508271732108 L 196.94776119403105 157.02142160084853 L 198.09203980099483 152.36843326003668 L 199.23631840796224 147.25226250512887 L 200.38059701492602 143.31369854413924 L 201.52487562189344 138.58773097204892 L 202.66915422885722 132.95251133586248 L 203.813432835821 131.241737025776 L 204.95771144278842 127.27345995734886 L 206.1019900497522 121.73094284971107 L 207.24626865671962 115.90992747315563 L 208.3905472636834 109.98804028502681 L 209.53482587064718 104.17195554507778 L 210.6791044776146 98.49364505300072 L 211.82338308457838 92.89284134269673 L 212.96766169154216 87.34941248438686 L 214.11194029850958 82.91586041033989 L 215.25621890547336 78.06410005411594 L 216.40049751244078 73.09682344295636 L 217.54477611940456 68.40734986939181 L 218.68905472636834 64.0365451555783 L 219.83333333333576 60.03607045047116 L 220.97761194029954 58.48515343087166 L 222.12189054726696 55.79638631050253 L 223.26616915423074 52.73554882278245 L 224.41044776119452 50.44218420132654 L 225.55472636816194 48.639246445843526 L 226.69900497512572 48.06744993796818 L 227.8432835820895 48.01469308133679 L 228.98756218905692 46.53767943453252 L 230.1318407960207 44.704302634180436 L 231.27611940298812 43.10039852209201 L 232.4203980099519 42.80068345701946 L 233.56467661691568 41.985592029994365 L 234.7089552238831 40.88704070392734 L 235.85323383084688 39.88072479078946 L 236.99751243781066 38.99325416625672 L 238.14179104477807 38.209314395306336 L 239.28606965174185 37.5050856588623 L 240.43034825870927 36.87243681851885 L 241.57462686567305 36.302307647973976 L 242.71890547263683 35.7884779493468 L 243.86318407960425 35.33469084628456 L 245.00746268656803 34.9424172030007 L 246.15174129353545 34.61645652265301 L 247.29601990049923 34.36921003234164 L 248.440298507463 34.63723068426776 L 249.58457711443043 34.82126112454392 L 250.7288557213942 35.45433417636261 L 251.873134328358 35.83201691683172 L 253.0174129353254 36.322941816853984 L 254.1616915422892 36.82486703125409 L 255.3059701492566 37.3776580454456 L 256.4502487562204 38.06719873438266 L 257.59452736318417 38.6904652123489 L 258.7388059701516 39.62785738553109 L 259.88308457711537 40.2888117917301 L 261.0273631840828 41.46297331691238 L 262.17164179104657 42.98630664389577 L 263.31592039801035 44.754430955476295 L 264.46019900497777 47.55131384093542 L 265.60447761194155 50.93162827544418 L 266.7487562189053 53.771081287889785 L 267.89303482587275 57.70690752166465 L 269.0373134328365 61.1694424977637 L 270.18159203980395 64.90644191697146 L 271.3258706467677 68.96233258228251 L 272.4701492537315 73.28658719868896 L 273.6144278606989 79.27914378638297 L 274.7587064676627 84.45411987106428 L 275.9029850746301 85.18095151821849 L 277.0472636815939 89.32867492933202 L 278.1915422885577 94.8700799987098 L 279.3358208955251 95.47769759921064 L 280.4800995024889 99.92734175279999 L 281.62437810945266 105.86758902383976 L 282.7686567164201 112.20732098272896 L 283.91293532338386 118.5267405752348 L 285.0572139303513 126.26404670615239 L 286.20149253731506 128.7806211782799 L 287.34577114427884 133.70045191316325 L 288.49004975124626 139.02885191031174 L 289.63432835821004 143.77019171580338 L 290.7786069651738 143.53569301345397 L 291.92288557214124 147.28766399901667 L 293.067164179105 150.96404640489774 L 294.21144278607244 153.94815893492122 L 295.3557213930362 156.5410178577624 L 296.5 158.7772380723217" stroke-linejoin="bevel" stroke-miterlimit="10" stroke-width="1.5"/></g></g></g><g clip-path="url(#VlUXmKvdGnib)"><g><g><path fill="none" stroke="none"/><path fill="none" stroke="#de2d26" paint-order="fill stroke markers" d=" M 66.5 NaN" stroke-linejoin="bevel" stroke-miterlimit="10" stroke-width="1.5"/><path fill="none" stroke="none"/><path fill="none" stroke="#de2d26" paint-order="fill stroke markers" d=" M 68.7885572139312 NaN" stroke-linejoin="bevel" stroke-miterlimit="10" stroke-width="1.5"/><path fill="none" stroke="none"/><path fill="none" stroke="#de2d26" paint-order="fill stroke markers" d=" M 71.0771144278624 NaN" stroke-linejoin="bevel" stroke-miterlimit="10" stroke-width="1.5"/><path fill="none" stroke="none"/><path fill="none" stroke="#de2d26" paint-order="fill stroke markers" d=" M 73.3656716417936 NaN" stroke-linejoin="bevel" stroke-miterlimit="10" stroke-width="1.5"/><path fill="none" stroke="none"/><path fill="none" stroke="#de2d26" paint-order="fill stroke markers" d=" M 75.65422885572116 NaN" stroke-linejoin="bevel" stroke-miterlimit="10" stroke-width="1.5"/><path fill="none" stroke="none"/><path fill="none" stroke="#de2d26" paint-order="fill stroke markers" d=" M 77.94278606965236 NaN" stroke-linejoin="bevel" stroke-miterlimit="10" stroke-width="1.5"/><path fill="none" stroke="none"/><path fill="none" stroke="#de2d26" paint-order="fill stroke markers" d=" M 80.23134328358356 NaN" stroke-linejoin="bevel" stroke-miterlimit="10" stroke-width="1.5"/><path fill="none" stroke="none"/><path fill="none" stroke="#de2d26" paint-order="fill stroke markers" d=" M 82.51990049751475 NaN" stroke-linejoin="bevel" stroke-miterlimit="10" stroke-width="1.5"/><path fill="none" stroke="none"/><path fill="none" stroke="#de2d26" paint-order="fill stroke markers" d=" M 84.80845771144595 NaN" stroke-linejoin="bevel" stroke-miterlimit="10" stroke-width="1.5"/><path fill="none" stroke="none"/><path fill="none" stroke="#de2d26" paint-order="fill stroke markers" d=" M 87.09701492537351 NaN" stroke-linejoin="bevel" stroke-miterlimit="10" stroke-width="1.5"/><path fill="none" stroke="none"/><path fill="none" stroke="#de2d26" paint-order="fill stroke markers" d=" M 89.38557213930471 NaN" stroke-linejoin="bevel" stroke-miterlimit="10" stroke-width="1.5"/><path fill="none" stroke="none"/><path fill="none" stroke="#de2d26" paint-order="fill stroke markers" d=" M 91.67412935323591 NaN" stroke-linejoin="bevel" stroke-miterlimit="10" stroke-width="1.5"/><path fill="none" stroke="none"/><path fill="none" stroke="#de2d26" paint-order="fill stroke markers" d=" M 93.96268656716711 NaN" stroke-linejoin="bevel" stroke-miterlimit="10" stroke-width="1.5"/><path fill="none" stroke="none"/><path fill="none" stroke="#de2d26" paint-order="fill stroke markers" d=" M 96.25124378109467 NaN" stroke-linejoin="bevel" stroke-miterlimit="10" stroke-width="1.5"/><path fill="none" stroke="none"/><path fill="none" stroke="#de2d26" paint-order="fill stroke markers" d=" M 98.53980099502587 NaN" stroke-linejoin="bevel" stroke-miterlimit="10" stroke-width="1.5"/><path fill="none" stroke="none"/><path fill="none" stroke="#de2d26" paint-order="fill stroke markers" d=" M 100.82835820895707 NaN" stroke-linejoin="bevel" stroke-miterlimit="10" stroke-width="1.5"/><path fill="none" stroke="none"/><path fill="none" stroke="#de2d26" paint-order="fill stroke markers" d=" M 103.11691542288827 NaN" stroke-linejoin="bevel" stroke-miterlimit="10" stroke-width="1.5"/><path fill="none" stroke="none"/><path fill="none" stroke="#de2d26" paint-order="fill stroke markers" d=" M 105.40547263681583 NaN" stroke-linejoin="bevel" stroke-miterlimit="10" stroke-width="1.5"/><path fill="none" stroke="none"/><path fill="none" stroke="#de2d26" paint-order="fill stroke markers" d=" M 107.69402985074703 NaN" stroke-linejoin="bevel" stroke-miterlimit="10" stroke-width="1.5"/><path fill="none" stroke="none"/><path fill="none" stroke="#de2d26" paint-order="fill stroke markers" d=" M 109.98258706467823 NaN" stroke-linejoin="bevel" stroke-miterlimit="10" stroke-width="1.5"/><path fill="none" stroke="none"/><path fill="none" stroke="#de2d26" paint-order="fill stroke markers" d=" M 112.27114427860943 NaN" stroke-linejoin="bevel" stroke-miterlimit="10" stroke-width="1.5"/><path fill="none" stroke="none"/><path fill="none" stroke="#de2d26" paint-order="fill stroke markers" d=" M 114.55970149253699 NaN" stroke-linejoin="bevel" stroke-miterlimit="10" stroke-width="1.5"/><path fill="none" stroke="none"/><path fill="none" stroke="#de2d26" paint-order="fill stroke markers" d=" M 116.84825870646819 28 L 117.9925373134356 44.85767975718295 L 119.13681592039939 54.718790264301106 L 120.28109452736317 61.7153595143659 L 121.42537313433058 67.14232024281705 L 122.56965174129436 71.57647002148404" stroke-linejoin="bevel" stroke-miterlimit="10" stroke-width="1.5"/><path fill="none" stroke="none"/><path fill="none" stroke="#de2d26" paint-order="fill stroke markers" d=" M 124.85820895522556 75.32549024079839 L 126.00248756218934 51.854249007247745 L 127.14676616915676 23.93716263967775 L 128.29104477612054 31.247549030750463 L 129.43532338308432 40.423529978515944 L 130.57960199005174 35.45117110250686 L 131.72388059701552 39.78348011879217 L 132.86815920398294 45.84045957010122 L 134.01243781094672 50.819178288383 L 135.1567164179105 51.54442964564993 L 136.30099502487792 49.822977959318536 L 137.4452736318417 55.021664552037095 L 138.58955223880912 56.84730450850404 L 139.7338308457729 55.42276100331799 L 140.87810945273668 55.30229786265585 L 142.0223880597041 55.99750856636666 L 143.16666666666788 56.84451095792983 L 144.31094527363166 57.63084514997388 L 145.45522388059908 60.22135649329894 L 146.59950248756286 61.027111993311365 L 147.74378109453028 65.27906573904684 L 148.88805970149406 66.23686912394189 L 150.03233830845784 67.56016226735107 L 151.17661691542526 70.02910536852838 L 152.32089552238904 74.8236337435583 L 153.46517412935646 75.92602670273767 L 154.60945273632024 78.97297413757362 L 155.75373134328402 80.50102035041473 L 156.89800995025143 84.30871985704341 L 158.04228855721522 87.31067622900336 L 159.186567164179 89.57895455421301 L 160.33084577114641 91.24056989825209 L 161.4751243781102 94.1557555028273 L 162.6194029850776 97.3134426180038 L 163.7636815920414 99.37639697108087 L 164.90796019900517 100.17310720241055 L 166.0522388059726 101.55902520350399 L 167.19651741293637 105.23369866625858 L 168.34079601990015 105.94742237991947 L 169.48507462686757 107.6240853531234 L 170.62935323383135 107.4336843643679 L 171.77363184079877 108.87982614129002 L 172.91791044776255 110.20896885834497 L 174.06218905472633 111.78557780586972 L 175.20646766169375 110.58077588802077 L 176.35074626865753 112.42371419990735 L 177.49502487562495 113.17897414944734 L 178.63930348258873 116.9968518208108 L 179.7835820895525 119.76306240157716 L 180.92786069651993 120.72740872516165 L 182.0721393034837 122.8163643595807 L 183.2164179104475 126.97729943914314 L 184.3606965174149 125.97243799387759 L 185.5049751243787 128.83483234530888 L 186.6492537313461 127.99520523596111 L 187.7935323383099 127.86844415607574 L 188.93781094527367 132.3164121470469 L 190.0820895522411 134.02394461242767 L 191.22636815920487 132.70222412966802 L 192.37064676617229 135.8102679713943 L 193.51492537313607 135.83691359926434 L 194.65920398009985 136.36258303998352 L 195.80348258706726 134.0395684201099 L 196.94776119403105 132.1750964130168 L 198.09203980099483 132.32974582639662 L 199.23631840796224 127.6176440659868 L 200.38059701492602 128.22224731143268 L 201.52487562189344 129.23402689055905 L 202.66915422885722 130.94713327386876 L 203.813432835821 130.50460435595298 L 204.95771144278842 131.2623189433215 L 206.1019900497522 131.85827148069322 L 207.24626865671962 139.82909295031072 L 208.3905472636834 138.47094548728433 L 209.53482587064718 138.91043666141846 L 210.6791044776146 138.5426521564829 L 211.82338308457838 142.64760030690846 L 212.96766169154216 141.29513862232284 L 214.11194029850958 141.39470404767204 L 215.25621890547336 140.01455155068578 L 216.40049751244078 141.9733652761336 L 217.54477611940456 142.83403490709824 L 218.68905472636834 139.95838422080766 L 219.83333333333576 137.8828031704254 L 220.97761194029954 138.888945546202 L 222.12189054726696 138.133947926188 L 223.26616915423074 136.2363971016149 L 224.41044776119452 135.10792882533616 L 225.55472636816194 133.1784628243524 L 226.69900497512572 133.27694991674088 L 227.8432835820895 133.28080138251678 L 228.98756218905692 133.04822069551335 L 230.1318407960207 127.53687955006257 L 231.27611940298812 128.29765527061386 L 232.4203980099519 128.28809084890784 L 233.56467661691568 125.87210873319454 L 234.7089552238831 124.10795048004712 L 235.85323383084688 122.41732793706493 L 236.99751243781066 120.73506222600267 L 238.14179104477807 121.99529326250489 L 239.28606965174185 118.40272481604381 L 240.43034825870927 117.99787732569786 L 241.57462686567305 117.6871334337543 L 242.71890547263683 116.05696093582092 L 243.86318407960425 115.06741047559275 L 245.00746268656803 111.41376632973906 L 246.15174129353545 109.3323068285269 L 247.29601990049923 106.11487402640337 L 248.440298507463 103.929535226113 L 249.58457711443043 102.61906534175193 L 250.7288557213942 103.19771507767348 L 251.873134328358 101.11541705375002 L 253.0174129353254 101.231194952281 L 254.1616915422892 100.30232825699379 L 255.3059701492566 101.23388151730892 L 256.4502487562204 101.58704871868522 L 257.59452736318417 101.97423833290124 L 258.7388059701516 100.22255038790661 L 259.88308457711537 101.8950663812104 L 261.0273631840828 102.55055278750358 L 262.17164179104657 103.51498366784223 L 263.31592039801035 102.6898566212704 L 264.46019900497777 102.1077048546242 L 265.60447761194155 103.1202386150166 L 266.7487562189053 104.80388646419476 L 267.89303482587275 104.43590896761083 L 269.0373134328365 105.4157480895396 L 270.18159203980395 105.66970545497392 L 271.3258706467677 107.09537660844633 L 272.4701492537315 108.48621199067058 L 273.6144278606989 108.89754148488225 L 274.7587064676627 109.4228572362079 L 275.9029850746301 110.7120915449488 L 277.0472636815939 110.36641576912687 L 278.1915422885577 111.01156035249 L 279.3358208955251 112.18348814747816 L 280.4800995024889 113.30919660006113 L 281.62437810945266 113.42946812902414 L 282.7686567164201 114.14404726105533 L 283.91293532338386 114.79302993289335 L 285.0572139303513 116.44511662541596 L 286.20149253731506 117.76366239218342 L 287.34577114427884 120.23358161109523 L 288.49004975124626 123.03330503289651 L 289.63432835821004 126.49343060823017 L 290.7786069651738 129.7096295435469 L 291.92288557214124 132.16684323756854 L 293.067164179105 134.23770165065739 L 294.21144278607244 136.78781376310374 L 295.3557213930362 137.73293775039113 L 296.5 137.56104070675974" stroke-linejoin="bevel" stroke-miterlimit="10" stroke-width="1.5"/></g></g></g><g clip-path="url(#smRMJUlNkGEF)"><g><g><path fill="none" stroke="none"/><path fill="none" stroke="#9ecae1" paint-order="fill stroke markers" d=" M 66.5 28 L 67.64427860696742 28.147814021162475 L 68.7885572139312 28.41123033772425 L 69.93283582089862 28.42484117540448 L 71.0771144278624 28.40961145329331 L 72.22139303482618 28.503036047606827 L 73.3656716417936 28.57044741068978 L 74.50995024875738 28.558361845371564 L 75.65422885572116 28.54759605308493 L 76.79850746268858 28.53853978040914 L 77.94278606965236 28.58670192804513 L 79.08706467661978 28.610664853272937 L 80.23134328358356 28.632229513320112 L 81.37562189054734 28.663033572433363 L 82.51990049751475 28.69935911659772 L 83.66417910447854 28.77264852645075 L 84.80845771144595 28.844448839280346 L 85.95273631840973 28.943870913480396 L 87.09701492537351 29.021460297839127 L 88.24129353234093 28.834816829850922 L 89.38557213930471 29.181991723753356 L 90.5298507462685 29.231239767347347 L 91.67412935323591 29.319598664167586 L 92.81840796019969 29.408154141097185 L 93.96268656716711 29.35173868168411 L 95.10696517413089 29.690120891318713 L 96.25124378109467 29.807518314171944 L 97.39552238806209 29.9423880533717 L 98.53980099502587 30.118392372055922 L 99.68407960199329 30.352312732503407 L 100.82835820895707 30.602218993717884 L 101.97263681592085 30.759184732058458 L 103.11691542288827 30.90465973795284 L 104.26119402985205 31.045958689420388 L 105.40547263681583 31.18814371242766 L 106.54975124378325 31.337519693816887 L 107.69402985074703 31.48845099127817 L 108.83830845771445 31.621019000120015 L 109.98258706467823 31.725850091795706 L 111.12686567164201 31.812134898165226 L 112.27114427860943 31.89154999896374 L 113.41542288557321 31.975176577800312 L 114.55970149253699 32.065554420957824 L 115.7039800995044 32.68978478198565 L 116.84825870646819 33.86936902528916 L 117.9925373134356 34.309201519937915 L 119.13681592039939 34.220401524334704 L 120.28109452736317 34.09748656755244 L 121.42537313433058 34.873281243526264 L 122.56965174129436 35.284414900858565 L 123.71393034826178 35.92279166460304 L 124.85820895522556 37.4854086920171 L 126.00248756218934 39.30457714940232 L 127.14676616915676 39.71622451788505 L 128.29104477612054 40.99059892096676 L 129.43532338308432 41.36784504822714 L 130.57960199005174 41.121886961464014 L 131.72388059701552 40.88405585157264 L 132.86815920398294 40.728130917765014 L 134.01243781094672 40.676239004426435 L 135.1567164179105 42.189566381438794 L 136.30099502487792 42.987419302386314 L 137.4452736318417 43.37716353556931 L 138.58955223880912 43.93922635968926 L 139.7338308457729 43.96892635274574 L 140.87810945273668 45.79009179366312 L 142.0223880597041 46.86766411756625 L 143.16666666666788 49.10862776981406 L 144.31094527363166 52.35146944391661 L 145.45522388059908 55.252311650290096 L 146.59950248756286 60.089529703532946 L 147.74378109453028 66.27037873402679 L 148.88805970149406 73.65144536295556 L 150.03233830845784 82.06056911023194 L 151.17661691542526 91.2638492517719 L 152.32089552238904 100.80406015571626 L 153.46517412935646 110.79860692611604 L 154.60945273632024 121.3935981301659 L 155.75373134328402 132.2027590099641 L 156.89800995025143 142.71956409653586 L 158.04228855721522 152.60077437954607 L 159.186567164179 161.7059441092592 L 160.33084577114641 169.7906518961604 L 161.4751243781102 176.60647699126696 L 162.6194029850776 182.11253140258628 L 163.7636815920414 183.6535554561708 L 164.90796019900517 186.03287909192832 L 166.0522388059726 189.31379977867442 L 167.19651741293637 191.8790156991648 L 168.34079601990015 193.72104465652876 L 169.48507462686757 194.92003497503848 L 170.62935323383135 195.6228851358382 L 171.77363184079877 195.9690589170111 L 172.91791044776255 196 L 174.06218905472633 195.81906347486859 L 175.20646766169375 195.6388758472551 L 176.35074626865753 195.19482206015525 L 177.49502487562495 194.367880038666 L 178.63930348258873 191.87112508541634 L 179.7835820895525 190.1021919059441 L 180.92786069651993 188.9706049981457 L 182.0721393034837 187.79825991686616 L 183.2164179104475 186.51686040829244 L 184.3606965174149 185.01996082796737 L 185.5049751243787 183.2979430481186 L 186.6492537313461 181.369634915259 L 187.7935323383099 179.21593175280105 L 188.93781094527367 176.70559671095572 L 190.0820895522411 173.8614571577559 L 191.22636815920487 172.0921126145057 L 192.37064676617229 169.64155622039527 L 193.51492537313607 166.47353895259803 L 194.65920398009985 164.36546477366744 L 195.80348258706726 161.36089355439083 L 196.94776119403105 157.23350639992998 L 198.09203980099483 154.02690226001138 L 199.23631840796224 149.91378468206355 L 200.38059701492602 144.72795783445127 L 201.52487562189344 139.0502744397126 L 202.66915422885722 132.9646727192175 L 203.813432835821 126.58500431318562 L 204.95771144278842 120.24387654358011 L 206.1019900497522 113.96221088041054 L 207.24626865671962 107.68215412061691 L 208.3905472636834 101.49027476152438 L 209.53482587064718 95.51426131590542 L 210.6791044776146 89.75775342054826 L 211.82338308457838 85.25623784961518 L 212.96766169154216 83.17736194370829 L 214.11194029850958 78.90497064587854 L 215.25621890547336 76.53939579796575 L 216.40049751244078 72.40099820879061 L 217.54477611940456 67.63945330450727 L 218.68905472636834 63.16432690944097 L 219.83333333333576 59.74373579156858 L 220.97761194029954 56.38688129892307 L 222.12189054726696 53.18320547799959 L 223.26616915423074 50.31647263961989 L 224.41044776119452 47.78851990828531 L 225.55472636816194 45.543993371828435 L 226.69900497512572 43.56205138302093 L 227.8432835820895 43.06385895685281 L 228.98756218905692 41.982106835954085 L 230.1318407960207 40.63929982242644 L 231.27611940298812 39.50155051165936 L 232.4203980099519 38.56455875471352 L 233.56467661691568 37.798411211756985 L 234.7089552238831 37.1614051663322 L 235.85323383084688 36.620666682735276 L 236.99751243781066 36.159294963648904 L 238.14179104477807 35.75906855428218 L 239.28606965174185 35.398843692670425 L 240.43034825870927 35.07068708005926 L 241.57462686567305 34.77100874308988 L 242.71890547263683 34.49280211754288 L 243.86318407960425 34.23985356479059 L 245.00746268656803 34.022405957834366 L 246.15174129353545 33.851630098939324 L 247.29601990049923 33.74390678555389 L 248.440298507463 33.71407720566259 L 249.58457711443043 33.780226204551184 L 250.7288557213942 33.960833487773584 L 251.873134328358 34.45254238173695 L 253.0174129353254 34.96767331400244 L 254.1616915422892 35.580215572480114 L 255.3059701492566 36.34116889860837 L 256.4502487562204 37.2507529955823 L 257.59452736318417 38.32980158499356 L 258.7388059701516 39.619264023622605 L 259.88308457711537 41.683800517028175 L 261.0273631840828 43.54509416554674 L 262.17164179104657 45.51671215609801 L 263.31592039801035 47.778935750915394 L 264.46019900497777 50.34682244259429 L 265.60447761194155 51.08192588634165 L 266.7487562189053 53.50520291578522 L 267.89303482587275 56.6869982949319 L 269.0373134328365 60.28125060379253 L 270.18159203980395 60.92541110168577 L 271.3258706467677 64.27929370046706 L 272.4701492537315 68.6729711113029 L 273.6144278606989 74.75238322917257 L 274.7587064676627 80.06577476590137 L 275.9029850746301 85.3857378070494 L 277.0472636815939 91.1752023805232 L 278.1915422885577 97.31073625525359 L 279.3358208955251 103.50619249115447 L 280.4800995024889 104.12973647352915 L 281.62437810945266 103.09358787839234 L 282.7686567164201 107.98506921459546 L 283.91293532338386 114.34824244218055 L 285.0572139303513 120.6585370581567 L 286.20149253731506 122.39375788463029 L 287.34577114427884 127.42031184274438 L 288.49004975124626 133.00817271378827 L 289.63432835821004 138.09595751345222 L 290.7786069651738 137.99065132557968 L 291.92288557214124 140.76628344200196 L 293.067164179105 145.8021716448854 L 294.21144278607244 151.305123763858 L 295.3557213930362 155.27296610351902 L 296.5 154.64240435429377" stroke-linejoin="bevel" stroke-miterlimit="10" stroke-width="1.5"/></g></g></g><g clip-path="url(#UwxgxtZxTfDF)"><g><g><path fill="none" stroke="none"/><path fill="none" stroke="#fc9272" paint-order="fill stroke markers" d=" M 66.5 NaN" stroke-linejoin="bevel" stroke-miterlimit="10" stroke-width="1.5"/><path fill="none" stroke="none"/><path fill="none" stroke="#fc9272" paint-order="fill stroke markers" d=" M 68.7885572139312 NaN" stroke-linejoin="bevel" stroke-miterlimit="10" stroke-width="1.5"/><path fill="none" stroke="none"/><path fill="none" stroke="#fc9272" paint-order="fill stroke markers" d=" M 71.0771144278624 NaN" stroke-linejoin="bevel" stroke-miterlimit="10" stroke-width="1.5"/><path fill="none" stroke="none"/><path fill="none" stroke="#fc9272" paint-order="fill stroke markers" d=" M 73.3656716417936 NaN" stroke-linejoin="bevel" stroke-miterlimit="10" stroke-width="1.5"/><path fill="none" stroke="none"/><path fill="none" stroke="#fc9272" paint-order="fill stroke markers" d=" M 75.65422885572116 NaN" stroke-linejoin="bevel" stroke-miterlimit="10" stroke-width="1.5"/><path fill="none" stroke="none"/><path fill="none" stroke="#fc9272" paint-order="fill stroke markers" d=" M 77.94278606965236 NaN" stroke-linejoin="bevel" stroke-miterlimit="10" stroke-width="1.5"/><path fill="none" stroke="none"/><path fill="none" stroke="#fc9272" paint-order="fill stroke markers" d=" M 80.23134328358356 NaN" stroke-linejoin="bevel" stroke-miterlimit="10" stroke-width="1.5"/><path fill="none" stroke="none"/><path fill="none" stroke="#fc9272" paint-order="fill stroke markers" d=" M 82.51990049751475 NaN" stroke-linejoin="bevel" stroke-miterlimit="10" stroke-width="1.5"/><path fill="none" stroke="none"/><path fill="none" stroke="#fc9272" paint-order="fill stroke markers" d=" M 84.80845771144595 NaN" stroke-linejoin="bevel" stroke-miterlimit="10" stroke-width="1.5"/><path fill="none" stroke="none"/><path fill="none" stroke="#fc9272" paint-order="fill stroke markers" d=" M 87.09701492537351 NaN" stroke-linejoin="bevel" stroke-miterlimit="10" stroke-width="1.5"/><path fill="none" stroke="none"/><path fill="none" stroke="#fc9272" paint-order="fill stroke markers" d=" M 89.38557213930471 NaN" stroke-linejoin="bevel" stroke-miterlimit="10" stroke-width="1.5"/><path fill="none" stroke="none"/><path fill="none" stroke="#fc9272" paint-order="fill stroke markers" d=" M 91.67412935323591 NaN" stroke-linejoin="bevel" stroke-miterlimit="10" stroke-width="1.5"/><path fill="none" stroke="none"/><path fill="none" stroke="#fc9272" paint-order="fill stroke markers" d=" M 93.96268656716711 NaN" stroke-linejoin="bevel" stroke-miterlimit="10" stroke-width="1.5"/><path fill="none" stroke="none"/><path fill="none" stroke="#fc9272" paint-order="fill stroke markers" d=" M 96.25124378109467 NaN" stroke-linejoin="bevel" stroke-miterlimit="10" stroke-width="1.5"/><path fill="none" stroke="none"/><path fill="none" stroke="#fc9272" paint-order="fill stroke markers" d=" M 98.53980099502587 NaN" stroke-linejoin="bevel" stroke-miterlimit="10" stroke-width="1.5"/><path fill="none" stroke="none"/><path fill="none" stroke="#fc9272" paint-order="fill stroke markers" d=" M 100.82835820895707 NaN" stroke-linejoin="bevel" stroke-miterlimit="10" stroke-width="1.5"/><path fill="none" stroke="none"/><path fill="none" stroke="#fc9272" paint-order="fill stroke markers" d=" M 103.11691542288827 NaN" stroke-linejoin="bevel" stroke-miterlimit="10" stroke-width="1.5"/><path fill="none" stroke="none"/><path fill="none" stroke="#fc9272" paint-order="fill stroke markers" d=" M 105.40547263681583 NaN" stroke-linejoin="bevel" stroke-miterlimit="10" stroke-width="1.5"/><path fill="none" stroke="none"/><path fill="none" stroke="#fc9272" paint-order="fill stroke markers" d=" M 107.69402985074703 NaN" stroke-linejoin="bevel" stroke-miterlimit="10" stroke-width="1.5"/><path fill="none" stroke="none"/><path fill="none" stroke="#fc9272" paint-order="fill stroke markers" d=" M 109.98258706467823 NaN" stroke-linejoin="bevel" stroke-miterlimit="10" stroke-width="1.5"/><path fill="none" stroke="none"/><path fill="none" stroke="#fc9272" paint-order="fill stroke markers" d=" M 112.27114427860943 NaN" stroke-linejoin="bevel" stroke-miterlimit="10" stroke-width="1.5"/><path fill="none" stroke="none"/><path fill="none" stroke="#fc9272" paint-order="fill stroke markers" d=" M 114.55970149253699 NaN" stroke-linejoin="bevel" stroke-miterlimit="10" stroke-width="1.5"/><path fill="none" stroke="none"/><path fill="none" stroke="#fc9272" paint-order="fill stroke markers" d=" M 116.84825870646819 NaN" stroke-linejoin="bevel" stroke-miterlimit="10" stroke-width="1.5"/><path fill="none" stroke="none"/><path fill="none" stroke="#fc9272" paint-order="fill stroke markers" d=" M 119.13681592039939 28 L 120.28109452736317 34.996569250064795 L 121.42537313433058 48.60669997649728 L 122.56965174129436 50.2846404856341 L 123.71393034826178 53.04084975516429 L 124.85820895522556 52.28471141256003 L 126.00248756218934 51.23850748636582 L 127.14676616915676 38.89618122598287 L 128.29104477612054 38.69983124141871 L 129.43532338308432 47.22586723568321 L 130.57960199005174 52.732340447216814 L 131.72388059701552 50.22138819773977 L 132.86815920398294 54.90028730801973 L 134.01243781094672 55.40780209534955 L 135.1567164179105 57.487316825047486 L 136.30099502487792 55.93506824712236 L 137.4452736318417 58.407833903314014 L 138.58955223880912 61.20722061061659 L 139.7338308457729 59.17526266131961 L 140.87810945273668 60.843358998241456 L 142.0223880597041 62.851153026854206 L 143.16666666666788 63.23648739693624 L 144.31094527363166 64.07873805998307 L 145.45522388059908 65.34966022386513 L 146.59950248756286 68.86447259081008 L 147.74378109453028 73.15633530475385 L 148.88805970149406 74.64046333615167 L 150.03233830845784 77.67475518262631 L 151.17661691542526 79.8585260139687 L 152.32089552238904 84.64072982983559 L 153.46517412935646 86.20440258593372 L 154.60945273632024 86.73024834362958 L 155.75373134328402 88.41070833975672 L 156.89800995025143 91.19338982781183 L 158.04228855721522 90.53916920501919 L 159.186567164179 93.66227043386397 L 160.33084577114641 95.17483393188195 L 161.4751243781102 95.89006808152358 L 162.6194029850776 99.15212193806734 L 163.7636815920414 100.83678955824954 L 164.90796019900517 100.66294220798419 L 166.0522388059726 103.44240137685298 L 167.19651741293637 103.9968256910862 L 168.34079601990015 104.49083854813857 L 169.48507462686757 108.09180567694482 L 170.62935323383135 108.12333626043387 L 171.77363184079877 109.1366627129133 L 172.91791044776255 109.10689620922403 L 174.06218905472633 111.30319767178294 L 175.20646766169375 113.12163736366828 L 176.35074626865753 116.09789954399191 L 177.49502487562495 118.8934088900818 L 178.63930348258873 121.57907291126891 L 179.7835820895525 123.9028813717498 L 180.92786069651993 125.58903332559893 L 182.0721393034837 125.54572256705607 L 183.2164179104475 127.6603593908056 L 184.3606965174149 127.47492293872976 L 185.5049751243787 125.70390758364678 L 186.6492537313461 125.39285475853202 L 187.7935323383099 125.2523301011094 L 188.93781094527367 131.31001508826176 L 190.0820895522411 134.2728410023784 L 191.22636815920487 133.21091405879002 L 192.37064676617229 135.81983237335737 L 193.51492537313607 138.17570518376547 L 194.65920398009985 138.72224239651368 L 195.80348258706726 140.70449730715984 L 196.94776119403105 139.55978744783206 L 198.09203980099483 140.63671870166988 L 199.23631840796224 141.2373067038526 L 200.38059701492602 137.77967429390475 L 201.52487562189344 139.23127924010396 L 202.66915422885722 140.2103964843268 L 203.813432835821 138.11680013585993 L 204.95771144278842 138.84840399661198 L 206.1019900497522 137.51928039140788 L 207.24626865671962 140.01137218067086 L 208.3905472636834 140.74570175567058 L 209.53482587064718 141.42668651782603 L 210.6791044776146 142.282252757903 L 211.82338308457838 145.90752798079794 L 212.96766169154216 143.4555125440757 L 214.11194029850958 143.13494499907236 L 215.25621890547336 141.76726111931418 L 216.40049751244078 142.2671859038117 L 217.54477611940456 141.83333805274856 L 218.68905472636834 139.5061883175905 L 219.83333333333576 136.96406199487618 L 220.97761194029954 137.10880332050476 L 222.12189054726696 136.7869304644716 L 223.26616915423074 134.10536816839155 L 224.41044776119452 132.90179606928143 L 225.55472636816194 130.30263954202655 L 226.69900497512572 129.69180353805712 L 227.8432835820895 128.6737523283187 L 228.98756218905692 125.90205294458603 L 230.1318407960207 122.76025895745416 L 231.27611940298812 123.91873247247811 L 232.4203980099519 124.05919157435771 L 233.56467661691568 119.12212349166283 L 234.7089552238831 116.9906108337921 L 235.85323383084688 115.70412064229481 L 236.99751243781066 115.7478762275224 L 238.14179104477807 115.17321341699683 L 239.28606965174185 111.12330065451795 L 240.43034825870927 111.86411839469861 L 241.57462686567305 112.19270620066838 L 242.71890547263683 111.26605285283621 L 243.86318407960425 111.13263997662752 L 245.00746268656803 107.87628176519729 L 246.15174129353545 105.98168519386167 L 247.29601990049923 106.57166086772705 L 248.440298507463 105.39480796380553 L 249.58457711443043 105.48706614355527 L 250.7288557213942 105.92737601791315 L 251.873134328358 103.56717489135221 L 253.0174129353254 102.7362540552223 L 254.1616915422892 100.89947648213098 L 255.3059701492566 97.79349274792827 L 256.4502487562204 98.47255748725048 L 257.59452736318417 99.26368785039051 L 258.7388059701516 98.39095206052447 L 259.88308457711537 98.55608698471676 L 261.0273631840828 98.39185508705872 L 262.17164179104657 99.09849011838045 L 263.31592039801035 99.9973607935343 L 264.46019900497777 99.13345961252118 L 265.60447761194155 98.9618126705489 L 266.7487562189053 99.89432277002625 L 267.89303482587275 100.89539326113336 L 269.0373134328365 102.7086461827528 L 270.18159203980395 104.63247659865388 L 271.3258706467677 107.22679157183453 L 272.4701492537315 107.40836689863053 L 273.6144278606989 107.66537427722105 L 274.7587064676627 108.94384163224858 L 275.9029850746301 110.21147328457678 L 277.0472636815939 110.41813302676574 L 278.1915422885577 110.33697266902887 L 279.3358208955251 111.12235604278324 L 280.4800995024889 112.57448688534595 L 281.62437810945266 115.14253981053642 L 282.7686567164201 115.41366985951916 L 283.91293532338386 115.78384637416974 L 285.0572139303513 117.71390007432998 L 286.20149253731506 118.94525774992123 L 287.34577114427884 119.45384324424381 L 288.49004975124626 122.55466874259014 L 289.63432835821004 124.4925650409884 L 290.7786069651738 128.10084305717498 L 291.92288557214124 131.02158932510423 L 293.067164179105 133.10816320820973 L 294.21144278607244 135.5715509874227 L 295.3557213930362 138.37605029808196 L 296.5 138.15478746082522" stroke-linejoin="bevel" stroke-miterlimit="10" stroke-width="1.5"/></g></g></g><g><g/><g><path fill="#ffffff" stroke="none" paint-order="stroke fill markers" d=" M 43 258 L 308 258 L 308 278.98333740234375 L 43 278.98333740234375 L 43 258 Z" fill-opacity="0.95"/><text fill="#444444" stroke="none" font-family="helvetica" font-size="13px" font-style="normal" font-weight="normal" text-decoration="normal" x="68" y="268.4916687011719" text-anchor="start" dominant-baseline="central">Miami-Dade, Florida</text><g><path fill="none" stroke="#3182bd" paint-order="fill stroke markers" d=" M 43 268 L 63 268" stroke-linejoin="bevel" stroke-miterlimit="10" stroke-width="1.5"/></g><text fill="#444444" stroke="none" font-family="helvetica" font-size="13px" font-style="normal" font-weight="normal" text-decoration="normal" x="213.0465087890625" y="268.4916687011719" text-anchor="start" dominant-baseline="central">Broward, Florida</text><g><path fill="none" stroke="#9ecae1" paint-order="fill stroke markers" d=" M 188.0465087890625 268 L 208.0465087890625 268" stroke-linejoin="bevel" stroke-miterlimit="10" stroke-width="1.5"/></g></g></g><g><g/><g><path fill="#ffffff" stroke="none" paint-order="stroke fill markers" d=" M 43 279 L 308 279 L 308 299.98333740234375 L 43 299.98333740234375 L 43 279 Z" fill-opacity="0.95"/><text fill="#444444" stroke="none" font-family="helvetica" font-size="13px" font-style="normal" font-weight="normal" text-decoration="normal" x="68" y="289.4916687011719" text-anchor="start" dominant-baseline="central">Miami-Dade, Florida</text><g><path fill="none" stroke="#de2d26" paint-order="fill stroke markers" d=" M 43 289 L 63 289" stroke-linejoin="bevel" stroke-miterlimit="10" stroke-width="1.5"/></g><text fill="#444444" stroke="none" font-family="helvetica" font-size="13px" font-style="normal" font-weight="normal" text-decoration="normal" x="213.0465087890625" y="289.4916687011719" text-anchor="start" dominant-baseline="central">Broward, Florida</text><g><path fill="none" stroke="#fc9272" paint-order="fill stroke markers" d=" M 188.0465087890625 289 L 208.0465087890625 289" stroke-linejoin="bevel" stroke-miterlimit="10" stroke-width="1.5"/></g></g></g><g><g fill="#444444"><path fill="" stroke="none" d=""/><g transform="translate(55,23)"><path fill="none" stroke="none"/><text fill="" stroke="none" font-family="helvetica" font-size="13px" font-style="normal" font-weight="bold" text-decoration="normal" x="0" y="0" text-anchor="start" dominant-baseline="text-after-edge">Beta - Florida</text></g></g></g><g/><g><g fill="#444444"><path fill="none" stroke="black" paint-order="fill stroke markers" d=" M 55 196 L 308 196" stroke-linejoin="bevel" stroke-miterlimit="10"/><path fill="none" stroke="black" paint-order="fill stroke markers" d=" M 79 202 L 79 194" stroke-linejoin="bevel" stroke-miterlimit="10"/><path fill="none" stroke="black" paint-order="fill stroke markers" d=" M 112 202 L 112 194" stroke-linejoin="bevel" stroke-miterlimit="10"/><path fill="none" stroke="black" paint-order="fill stroke markers" d=" M 148 202 L 148 194" stroke-linejoin="bevel" stroke-miterlimit="10"/><path fill="none" stroke="black" paint-order="fill stroke markers" d=" M 182 202 L 182 194" stroke-linejoin="bevel" stroke-miterlimit="10"/><path fill="none" stroke="black" paint-order="fill stroke markers" d=" M 218 202 L 218 194" stroke-linejoin="bevel" stroke-miterlimit="10"/><path fill="none" stroke="black" paint-order="fill stroke markers" d=" M 252 202 L 252 194" stroke-linejoin="bevel" stroke-miterlimit="10"/><path fill="" stroke="black" paint-order="fill stroke markers" d=" M 287 202 L 287 194" stroke-linejoin="bevel" stroke-miterlimit="10"/><g transform="translate(79,207) rotate(-45,0,0)"><text fill="" stroke="none" font-family="helvetica" font-size="11px" font-style="normal" font-weight="normal" text-decoration="normal" x="0" y="0" text-anchor="end" dominant-baseline="central">2/2020</text><g transform="rotate(45,0,0) translate(-79,-207) translate(112,207) rotate(-45,0,0)"><text fill="" stroke="none" font-family="helvetica" font-size="11px" font-style="normal" font-weight="normal" text-decoration="normal" x="0" y="0" text-anchor="end" dominant-baseline="central">3/2020</text><g transform="rotate(45,0,0) translate(-112,-207) translate(148,207) rotate(-45,0,0)"><text fill="" stroke="none" font-family="helvetica" font-size="11px" font-style="normal" font-weight="normal" text-decoration="normal" x="0" y="0" text-anchor="end" dominant-baseline="central">4/2020</text><g transform="rotate(45,0,0) translate(-148,-207) translate(182,207) rotate(-45,0,0)"><text fill="" stroke="none" font-family="helvetica" font-size="11px" font-style="normal" font-weight="normal" text-decoration="normal" x="0" y="0" text-anchor="end" dominant-baseline="central">5/2020</text><g transform="rotate(45,0,0) translate(-182,-207) translate(218,207) rotate(-45,0,0)"><text fill="" stroke="none" font-family="helvetica" font-size="11px" font-style="normal" font-weight="normal" text-decoration="normal" x="0" y="0" text-anchor="end" dominant-baseline="central">6/2020</text><g transform="rotate(45,0,0) translate(-218,-207) translate(252,207) rotate(-45,0,0)"><text fill="" stroke="none" font-family="helvetica" font-size="11px" font-style="normal" font-weight="normal" text-decoration="normal" x="0" y="0" text-anchor="end" dominant-baseline="central">7/2020</text><g transform="rotate(45,0,0) translate(-252,-207) translate(287,207) rotate(-45,0,0)"><text fill="" stroke="none" font-family="helvetica" font-size="11px" font-style="normal" font-weight="normal" text-decoration="normal" x="0" y="0" text-anchor="end" dominant-baseline="central">8/2020</text><g transform="rotate(45,0,0) translate(-287,-207) translate(182,243) rotate(0,0,0)"><text fill="" stroke="none" font-family="helvetica" font-size="13px" font-style="italic" font-weight="normal" text-decoration="normal" x="0" y="0" text-anchor="middle" dominant-baseline="hanging">Month</text><g transform="rotate(0,0,0) translate(-182,-243)"/></g></g></g></g></g></g></g></g></g></g><g><g fill="#444444"><path fill="none" stroke="black" paint-order="fill stroke markers" d=" M 55 196 L 55 28" stroke-linejoin="bevel" stroke-miterlimit="10"/><path fill="none" stroke="black" paint-order="fill stroke markers" d=" M 49 175 L 57 175" stroke-linejoin="bevel" stroke-miterlimit="10"/><path fill="none" stroke="black" paint-order="fill stroke markers" d=" M 49 142 L 57 142" stroke-linejoin="bevel" stroke-miterlimit="10"/><path fill="none" stroke="black" paint-order="fill stroke markers" d=" M 49 111 L 57 111" stroke-linejoin="bevel" stroke-miterlimit="10"/><path fill="none" stroke="black" paint-order="fill stroke markers" d=" M 49 82 L 57 82" stroke-linejoin="bevel" stroke-miterlimit="10"/><path fill="none" stroke="black" paint-order="fill stroke markers" d=" M 49 55 L 57 55" stroke-linejoin="bevel" stroke-miterlimit="10"/><path fill="none" stroke="black" paint-order="fill stroke markers" d=" M 49 29 L 57 29" stroke-linejoin="bevel" stroke-miterlimit="10"/><path fill="none" stroke="black" paint-order="fill stroke markers" d=" M 51 178 L 55 178" stroke-linejoin="bevel" stroke-miterlimit="10"/><path fill="none" stroke="black" paint-order="fill stroke markers" d=" M 51 182 L 55 182" stroke-linejoin="bevel" stroke-miterlimit="10"/><path fill="none" stroke="black" paint-order="fill stroke markers" d=" M 51 185 L 55 185" stroke-linejoin="bevel" stroke-miterlimit="10"/><path fill="none" stroke="black" paint-order="fill stroke markers" d=" M 51 189 L 55 189" stroke-linejoin="bevel" stroke-miterlimit="10"/><path fill="none" stroke="black" paint-order="fill stroke markers" d=" M 51 192 L 55 192" stroke-linejoin="bevel" stroke-miterlimit="10"/><path fill="none" stroke="black" paint-order="fill stroke markers" d=" M 51 196 L 55 196" stroke-linejoin="bevel" stroke-miterlimit="10"/><path fill="none" stroke="black" paint-order="fill stroke markers" d=" M 51 175 L 55 175" stroke-linejoin="bevel" stroke-miterlimit="10"/><path fill="none" stroke="black" paint-order="fill stroke markers" d=" M 51 171 L 55 171" stroke-linejoin="bevel" stroke-miterlimit="10"/><path fill="none" stroke="black" paint-order="fill stroke markers" d=" M 51 168 L 55 168" stroke-linejoin="bevel" stroke-miterlimit="10"/><path fill="none" stroke="black" paint-order="fill stroke markers" d=" M 51 165 L 55 165" stroke-linejoin="bevel" stroke-miterlimit="10"/><path fill="none" stroke="black" paint-order="fill stroke markers" d=" M 51 161 L 55 161" stroke-linejoin="bevel" stroke-miterlimit="10"/><path fill="none" stroke="black" paint-order="fill stroke markers" d=" M 51 158 L 55 158" stroke-linejoin="bevel" stroke-miterlimit="10"/><path fill="none" stroke="black" paint-order="fill stroke markers" d=" M 51 155 L 55 155" stroke-linejoin="bevel" stroke-miterlimit="10"/><path fill="none" stroke="black" paint-order="fill stroke markers" d=" M 51 152 L 55 152" stroke-linejoin="bevel" stroke-miterlimit="10"/><path fill="none" stroke="black" paint-order="fill stroke markers" d=" M 51 148 L 55 148" stroke-linejoin="bevel" stroke-miterlimit="10"/><path fill="none" stroke="black" paint-order="fill stroke markers" d=" M 51 145 L 55 145" stroke-linejoin="bevel" stroke-miterlimit="10"/><path fill="none" stroke="black" paint-order="fill stroke markers" d=" M 51 142 L 55 142" stroke-linejoin="bevel" stroke-miterlimit="10"/><path fill="none" stroke="black" paint-order="fill stroke markers" d=" M 51 139 L 55 139" stroke-linejoin="bevel" stroke-miterlimit="10"/><path fill="none" stroke="black" paint-order="fill stroke markers" d=" M 51 136 L 55 136" stroke-linejoin="bevel" stroke-miterlimit="10"/><path fill="none" stroke="black" paint-order="fill stroke markers" d=" M 51 132 L 55 132" stroke-linejoin="bevel" stroke-miterlimit="10"/><path fill="none" stroke="black" paint-order="fill stroke markers" d=" M 51 129 L 55 129" stroke-linejoin="bevel" stroke-miterlimit="10"/><path fill="none" stroke="black" paint-order="fill stroke markers" d=" M 51 126 L 55 126" stroke-linejoin="bevel" stroke-miterlimit="10"/><path fill="none" stroke="black" paint-order="fill stroke markers" d=" M 51 123 L 55 123" stroke-linejoin="bevel" stroke-miterlimit="10"/><path fill="none" stroke="black" paint-order="fill stroke markers" d=" M 51 120 L 55 120" stroke-linejoin="bevel" stroke-miterlimit="10"/><path fill="none" stroke="black" paint-order="fill stroke markers" d=" M 51 117 L 55 117" stroke-linejoin="bevel" stroke-miterlimit="10"/><path fill="none" stroke="black" paint-order="fill stroke markers" d=" M 51 114 L 55 114" stroke-linejoin="bevel" stroke-miterlimit="10"/><path fill="none" stroke="black" paint-order="fill stroke markers" d=" M 51 111 L 55 111" stroke-linejoin="bevel" stroke-miterlimit="10"/><path fill="none" stroke="black" paint-order="fill stroke markers" d=" M 51 108 L 55 108" stroke-linejoin="bevel" stroke-miterlimit="10"/><path fill="none" stroke="black" paint-order="fill stroke markers" d=" M 51 105 L 55 105" stroke-linejoin="bevel" stroke-miterlimit="10"/><path fill="none" stroke="black" paint-order="fill stroke markers" d=" M 51 102 L 55 102" stroke-linejoin="bevel" stroke-miterlimit="10"/><path fill="none" stroke="black" paint-order="fill stroke markers" d=" M 51 99 L 55 99" stroke-linejoin="bevel" stroke-miterlimit="10"/><path fill="none" stroke="black" paint-order="fill stroke markers" d=" M 51 96 L 55 96" stroke-linejoin="bevel" stroke-miterlimit="10"/><path fill="none" stroke="black" paint-order="fill stroke markers" d=" M 51 93 L 55 93" stroke-linejoin="bevel" stroke-miterlimit="10"/><path fill="none" stroke="black" paint-order="fill stroke markers" d=" M 51 91 L 55 91" stroke-linejoin="bevel" stroke-miterlimit="10"/><path fill="none" stroke="black" paint-order="fill stroke markers" d=" M 51 88 L 55 88" stroke-linejoin="bevel" stroke-miterlimit="10"/><path fill="none" stroke="black" paint-order="fill stroke markers" d=" M 51 85 L 55 85" stroke-linejoin="bevel" stroke-miterlimit="10"/><path fill="none" stroke="black" paint-order="fill stroke markers" d=" M 51 82 L 55 82" stroke-linejoin="bevel" stroke-miterlimit="10"/><path fill="none" stroke="black" paint-order="fill stroke markers" d=" M 51 79 L 55 79" stroke-linejoin="bevel" stroke-miterlimit="10"/><path fill="none" stroke="black" paint-order="fill stroke markers" d=" M 51 76 L 55 76" stroke-linejoin="bevel" stroke-miterlimit="10"/><path fill="none" stroke="black" paint-order="fill stroke markers" d=" M 51 74 L 55 74" stroke-linejoin="bevel" stroke-miterlimit="10"/><path fill="none" stroke="black" paint-order="fill stroke markers" d=" M 51 71 L 55 71" stroke-linejoin="bevel" stroke-miterlimit="10"/><path fill="none" stroke="black" paint-order="fill stroke markers" d=" M 51 68 L 55 68" stroke-linejoin="bevel" stroke-miterlimit="10"/><path fill="none" stroke="black" paint-order="fill stroke markers" d=" M 51 65 L 55 65" stroke-linejoin="bevel" stroke-miterlimit="10"/><path fill="none" stroke="black" paint-order="fill stroke markers" d=" M 51 63 L 55 63" stroke-linejoin="bevel" stroke-miterlimit="10"/><path fill="none" stroke="black" paint-order="fill stroke markers" d=" M 51 60 L 55 60" stroke-linejoin="bevel" stroke-miterlimit="10"/><path fill="none" stroke="black" paint-order="fill stroke markers" d=" M 51 57 L 55 57" stroke-linejoin="bevel" stroke-miterlimit="10"/><path fill="none" stroke="black" paint-order="fill stroke markers" d=" M 51 55 L 55 55" stroke-linejoin="bevel" stroke-miterlimit="10"/><path fill="none" stroke="black" paint-order="fill stroke markers" d=" M 51 52 L 55 52" stroke-linejoin="bevel" stroke-miterlimit="10"/><path fill="none" stroke="black" paint-order="fill stroke markers" d=" M 51 49 L 55 49" stroke-linejoin="bevel" stroke-miterlimit="10"/><path fill="none" stroke="black" paint-order="fill stroke markers" d=" M 51 47 L 55 47" stroke-linejoin="bevel" stroke-miterlimit="10"/><path fill="none" stroke="black" paint-order="fill stroke markers" d=" M 51 44 L 55 44" stroke-linejoin="bevel" stroke-miterlimit="10"/><path fill="none" stroke="black" paint-order="fill stroke markers" d=" M 51 42 L 55 42" stroke-linejoin="bevel" stroke-miterlimit="10"/><path fill="none" stroke="black" paint-order="fill stroke markers" d=" M 51 39 L 55 39" stroke-linejoin="bevel" stroke-miterlimit="10"/><path fill="none" stroke="black" paint-order="fill stroke markers" d=" M 51 36 L 55 36" stroke-linejoin="bevel" stroke-miterlimit="10"/><path fill="none" stroke="black" paint-order="fill stroke markers" d=" M 51 34 L 55 34" stroke-linejoin="bevel" stroke-miterlimit="10"/><path fill="none" stroke="black" paint-order="fill stroke markers" d=" M 51 31 L 55 31" stroke-linejoin="bevel" stroke-miterlimit="10"/><path fill="" stroke="black" paint-order="fill stroke markers" d=" M 51 29 L 55 29" stroke-linejoin="bevel" stroke-miterlimit="10"/><g transform="translate(44,175) rotate(0,0,0)"><text fill="" stroke="none" font-family="helvetica" font-size="11px" font-style="normal" font-weight="normal" text-decoration="normal" x="0" y="0" text-anchor="end" dominant-baseline="central">0.7</text><g transform="rotate(0,0,0) translate(-44,-175) translate(44,142) rotate(0,0,0)"><text fill="" stroke="none" font-family="helvetica" font-size="11px" font-style="normal" font-weight="normal" text-decoration="normal" x="0" y="0" text-anchor="end" dominant-baseline="central">0.75</text><g transform="rotate(0,0,0) translate(-44,-142) translate(44,111) rotate(0,0,0)"><text fill="" stroke="none" font-family="helvetica" font-size="11px" font-style="normal" font-weight="normal" text-decoration="normal" x="0" y="0" text-anchor="end" dominant-baseline="central">0.8</text><g transform="rotate(0,0,0) translate(-44,-111) translate(44,82) rotate(0,0,0)"><text fill="" stroke="none" font-family="helvetica" font-size="11px" font-style="normal" font-weight="normal" text-decoration="normal" x="0" y="0" text-anchor="end" dominant-baseline="central">0.85</text><g transform="rotate(0,0,0) translate(-44,-82) translate(44,55) rotate(0,0,0)"><text fill="" stroke="none" font-family="helvetica" font-size="11px" font-style="normal" font-weight="normal" text-decoration="normal" x="0" y="0" text-anchor="end" dominant-baseline="central">0.9</text><g transform="rotate(0,0,0) translate(-44,-55) translate(44,29) rotate(0,0,0)"><text fill="" stroke="none" font-family="helvetica" font-size="11px" font-style="normal" font-weight="normal" text-decoration="normal" x="0" y="0" text-anchor="end" dominant-baseline="central">0.95</text><g transform="rotate(0,0,0) translate(-44,-29) translate(15,112) rotate(-90,0,0)"><text fill="" stroke="none" font-family="helvetica" font-size="13px" font-style="italic" font-weight="normal" text-decoration="normal" x="0" y="0" text-anchor="middle" dominant-baseline="alphabetic">log(beta)</text><g transform="rotate(90,0,0) translate(-15,-112)"/></g></g></g></g></g></g></g></g></g><g><g fill="#444444"><path fill="none" stroke="black" paint-order="fill stroke markers" d=" M 308 196 L 308 28" stroke-linejoin="bevel" stroke-miterlimit="10"/><path fill="none" stroke="black" paint-order="fill stroke markers" d=" M 314 196 L 306 196" stroke-linejoin="bevel" stroke-miterlimit="10"/><path fill="none" stroke="black" paint-order="fill stroke markers" d=" M 314 140 L 306 140" stroke-linejoin="bevel" stroke-miterlimit="10"/><path fill="none" stroke="black" paint-order="fill stroke markers" d=" M 314 84 L 306 84" stroke-linejoin="bevel" stroke-miterlimit="10"/><path fill="none" stroke="black" paint-order="fill stroke markers" d=" M 314 28 L 306 28" stroke-linejoin="bevel" stroke-miterlimit="10"/><path fill="none" stroke="black" paint-order="fill stroke markers" d=" M 312 196 L 308 196" stroke-linejoin="bevel" stroke-miterlimit="10"/><path fill="none" stroke="black" paint-order="fill stroke markers" d=" M 312 179 L 308 179" stroke-linejoin="bevel" stroke-miterlimit="10"/><path fill="none" stroke="black" paint-order="fill stroke markers" d=" M 312 162 L 308 162" stroke-linejoin="bevel" stroke-miterlimit="10"/><path fill="none" stroke="black" paint-order="fill stroke markers" d=" M 312 152 L 308 152" stroke-linejoin="bevel" stroke-miterlimit="10"/><path fill="none" stroke="black" paint-order="fill stroke markers" d=" M 312 145 L 308 145" stroke-linejoin="bevel" stroke-miterlimit="10"/><path fill="none" stroke="black" paint-order="fill stroke markers" d=" M 312 140 L 308 140" stroke-linejoin="bevel" stroke-miterlimit="10"/><path fill="none" stroke="black" paint-order="fill stroke markers" d=" M 312 123 L 308 123" stroke-linejoin="bevel" stroke-miterlimit="10"/><path fill="none" stroke="black" paint-order="fill stroke markers" d=" M 312 106 L 308 106" stroke-linejoin="bevel" stroke-miterlimit="10"/><path fill="none" stroke="black" paint-order="fill stroke markers" d=" M 312 96 L 308 96" stroke-linejoin="bevel" stroke-miterlimit="10"/><path fill="none" stroke="black" paint-order="fill stroke markers" d=" M 312 89 L 308 89" stroke-linejoin="bevel" stroke-miterlimit="10"/><path fill="none" stroke="black" paint-order="fill stroke markers" d=" M 312 84 L 308 84" stroke-linejoin="bevel" stroke-miterlimit="10"/><path fill="none" stroke="black" paint-order="fill stroke markers" d=" M 312 67 L 308 67" stroke-linejoin="bevel" stroke-miterlimit="10"/><path fill="none" stroke="black" paint-order="fill stroke markers" d=" M 312 50 L 308 50" stroke-linejoin="bevel" stroke-miterlimit="10"/><path fill="none" stroke="black" paint-order="fill stroke markers" d=" M 312 40 L 308 40" stroke-linejoin="bevel" stroke-miterlimit="10"/><path fill="none" stroke="black" paint-order="fill stroke markers" d=" M 312 33 L 308 33" stroke-linejoin="bevel" stroke-miterlimit="10"/><path fill="" stroke="black" paint-order="fill stroke markers" d=" M 312 28 L 308 28" stroke-linejoin="bevel" stroke-miterlimit="10"/><g transform="translate(319,196) rotate(0,0,0)"><text fill="" stroke="none" font-family="helvetica" font-size="11px" font-style="normal" font-weight="normal" text-decoration="normal" x="0" y="0" text-anchor="start" dominant-baseline="central">10^-3</text><g transform="rotate(0,0,0) translate(-319,-196) translate(319,140) rotate(0,0,0)"><text fill="" stroke="none" font-family="helvetica" font-size="11px" font-style="normal" font-weight="normal" text-decoration="normal" x="0" y="0" text-anchor="start" dominant-baseline="central">10^-2</text><g transform="rotate(0,0,0) translate(-319,-140) translate(319,84) rotate(0,0,0)"><text fill="" stroke="none" font-family="helvetica" font-size="11px" font-style="normal" font-weight="normal" text-decoration="normal" x="0" y="0" text-anchor="start" dominant-baseline="central">10^-1</text><g transform="rotate(0,0,0) translate(-319,-84) translate(319,28) rotate(0,0,0)"><text fill="" stroke="none" font-family="helvetica" font-size="11px" font-style="normal" font-weight="normal" text-decoration="normal" x="0" y="0" text-anchor="start" dominant-baseline="central">10^0</text><g transform="rotate(0,0,0) translate(-319,-28) translate(354,112) rotate(90,0,0)"><text fill="" stroke="none" font-family="helvetica" font-size="13px" font-style="italic" font-weight="normal" text-decoration="normal" x="0" y="0" text-anchor="middle" dominant-baseline="alphabetic">log(growth)</text><g transform="rotate(-90,0,0) translate(-354,-112)"/></g></g></g></g></g></g></g></g><g/><g/><g/><g/><g/><g/><g/><g/><g/><g/><g/><g/><g/><g/><g/><g/><g/><g/><g/><g/><g/><g/><g/><g/><g/><g/><g/><g/><g/><g/><g/><g/><g/><g/><g/><g/><g/><g/><g/><g/><g/><g/><g/><g/><g/><g/><g/><g/><g/><g/><g/><g/><g/><g/><g/><g/><g/><g/><g/><g/><g/><g/><g/><g/><g/><g/><g/><g/><g/><g/></g></svg>