<svg version="1.1" xmlns="http://www.w3.org/2000/svg" xmlns:xlink="http://www.w3.org/1999/xlink" width="850" height="250" style="width: 850px; height: 250px;"><defs><clipPath id="GTzZXutqdVBw"><path fill="none" stroke="none" d=" M 52 28 L 845 28 L 845 153 L 52 153 L 52 28 Z"/></clipPath><clipPath id="WQJKOTlTNTXc"><path fill="none" stroke="none" d=" M 52 28 L 845 28 L 845 153 L 52 153 L 52 28 Z"/></clipPath><clipPath id="VDddynDNLZZT"><path fill="none" stroke="none" d=" M 52 28 L 845 28 L 845 153 L 52 153 L 52 28 Z"/></clipPath><clipPath id="FcVurTnzmgps"><path fill="none" stroke="none" d=" M 52 28 L 845 28 L 845 153 L 52 153 L 52 28 Z"/></clipPath></defs><g><g transform="scale(1,1) translate(0.5,0.5)"><rect fill="#FFFFFF" stroke="none" x="0" y="0" width="850" height="250"/><rect fill="#ffffff" stroke="none" x="0" y="0" width="850" height="250"/><rect fill="#FFFFFF" stroke="none" x="52" y="28" width="793" height="125"/><rect fill="#ffffff" stroke="none" x="52" y="28" width="793" height="125"/><g><rect fill="none" stroke="#e5e5e5" x="52" y="28" width="793" height="125" stroke-linejoin="bevel" stroke-miterlimit="10"/></g><g clip-path="url(#GTzZXutqdVBw)"><g><g/></g></g><g clip-path="url(#WQJKOTlTNTXc)"><g><g><path fill="none" stroke="#e5e5e5" paint-order="fill stroke markers" d=" M 52 127 L 845 127" stroke-linejoin="bevel" stroke-miterlimit="10"/><path fill="none" stroke="#e5e5e5" paint-order="fill stroke markers" d=" M 52 102 L 845 102" stroke-linejoin="bevel" stroke-miterlimit="10"/><path fill="none" stroke="#e5e5e5" paint-order="fill stroke markers" d=" M 52 76 L 845 76" stroke-linejoin="bevel" stroke-miterlimit="10"/><path fill="none" stroke="#e5e5e5" paint-order="fill stroke markers" d=" M 52 50 L 845 50" stroke-linejoin="bevel" stroke-miterlimit="10"/></g></g></g><g clip-path="url(#VDddynDNLZZT)"><g><g fill="#444444"><path fill="" stroke="none" d=""/><g transform="translate(72.99646525276778,101.51052977953273) rotate(0,0,0)"><path fill="none" stroke="none"/><text fill="" stroke="none" font-family="helvetica" font-size="0.75em" font-style="normal" font-weight="normal" text-decoration="normal" x="0" y="0" text-anchor="middle" dominant-baseline="text-after-edge">98.2</text></g></g><g fill="#444444"><path fill="" stroke="none" d=""/><g transform="translate(99.4403761504602,111.69068772622572) rotate(0,0,0)"><path fill="none" stroke="none"/><text fill="" stroke="none" font-family="helvetica" font-size="0.75em" font-style="normal" font-weight="normal" text-decoration="normal" x="0" y="0" text-anchor="middle" dominant-baseline="text-after-edge">78.4</text></g></g><g fill="#444444"><path fill="" stroke="none" d=""/><g transform="translate(125.8842870481526,124.08168805528135) rotate(0,0,0)"><path fill="none" stroke="none"/><text fill="" stroke="none" font-family="helvetica" font-size="0.75em" font-style="normal" font-weight="normal" text-decoration="normal" x="0" y="0" text-anchor="middle" dominant-baseline="text-after-edge">54.3</text></g></g><g fill="#444444"><path fill="" stroke="none" d=""/><g transform="translate(189.3496732026144,99.14544257979598) rotate(0,0,0)"><path fill="none" stroke="none"/><text fill="" stroke="none" font-family="helvetica" font-size="0.75em" font-style="normal" font-weight="normal" text-decoration="normal" x="0" y="0" text-anchor="middle" dominant-baseline="text-after-edge">102.8</text></g></g><g fill="#444444"><path fill="" stroke="none" d=""/><g transform="translate(215.79358410030682,127.93780848963473) rotate(0,0,0)"><path fill="none" stroke="none"/><text fill="" stroke="none" font-family="helvetica" font-size="0.75em" font-style="normal" font-weight="normal" text-decoration="normal" x="0" y="0" text-anchor="middle" dominant-baseline="text-after-edge">46.8</text></g></g><g fill="#444444"><path fill="" stroke="none" d=""/><g transform="translate(242.23749499799922,128.09205330700888) rotate(0,0,0)"><path fill="none" stroke="none"/><text fill="" stroke="none" font-family="helvetica" font-size="0.75em" font-style="normal" font-weight="normal" text-decoration="normal" x="0" y="0" text-anchor="middle" dominant-baseline="text-after-edge">46.5</text></g></g><g fill="#444444"><path fill="" stroke="none" d=""/><g transform="translate(305.70288115246103,88.0912306679829) rotate(0,0,0)"><path fill="none" stroke="none"/><text fill="" stroke="none" font-family="helvetica" font-size="0.75em" font-style="normal" font-weight="normal" text-decoration="normal" x="0" y="0" text-anchor="middle" dominant-baseline="text-after-edge">124.3</text></g></g><g fill="#444444"><path fill="" stroke="none" d=""/><g transform="translate(332.1467920501534,107.7831523527476) rotate(0,0,0)"><path fill="none" stroke="none"/><text fill="" stroke="none" font-family="helvetica" font-size="0.75em" font-style="normal" font-weight="normal" text-decoration="normal" x="0" y="0" text-anchor="middle" dominant-baseline="text-after-edge">86</text></g></g><g fill="#444444"><path fill="" stroke="none" d=""/><g transform="translate(358.59070294784584,118.27179993418888) rotate(0,0,0)"><path fill="none" stroke="none"/><text fill="" stroke="none" font-family="helvetica" font-size="0.75em" font-style="normal" font-weight="normal" text-decoration="normal" x="0" y="0" text-anchor="middle" dominant-baseline="text-after-edge">65.6</text></g></g><g fill="#444444"><path fill="" stroke="none" d=""/><g transform="translate(422.0560891023076,88.0912306679829) rotate(0,0,0)"><path fill="none" stroke="none"/><text fill="" stroke="none" font-family="helvetica" font-size="0.75em" font-style="normal" font-weight="normal" text-decoration="normal" x="0" y="0" text-anchor="middle" dominant-baseline="text-after-edge">124.3</text></g></g><g fill="#444444"><path fill="" stroke="none" d=""/><g transform="translate(448.5,111.38219809147745) rotate(0,0,0)"><path fill="none" stroke="none"/><text fill="" stroke="none" font-family="helvetica" font-size="0.75em" font-style="normal" font-weight="normal" text-decoration="normal" x="0" y="0" text-anchor="middle" dominant-baseline="text-after-edge">79</text></g></g><g fill="#444444"><path fill="" stroke="none" d=""/><g transform="translate(474.94391089769243,113.74728529121421) rotate(0,0,0)"><path fill="none" stroke="none"/><text fill="" stroke="none" font-family="helvetica" font-size="0.75em" font-style="normal" font-weight="normal" text-decoration="normal" x="0" y="0" text-anchor="middle" dominant-baseline="text-after-edge">74.4</text></g></g><g fill="#444444"><path fill="" stroke="none" d=""/><g transform="translate(538.4092970521542,88.24547548535702) rotate(0,0,0)"><path fill="none" stroke="none"/><text fill="" stroke="none" font-family="helvetica" font-size="0.75em" font-style="normal" font-weight="normal" text-decoration="normal" x="0" y="0" text-anchor="middle" dominant-baseline="text-after-edge">124</text></g></g><g fill="#444444"><path fill="" stroke="none" d=""/><g transform="translate(564.8532079498467,111.1251233958539) rotate(0,0,0)"><path fill="none" stroke="none"/><text fill="" stroke="none" font-family="helvetica" font-size="0.75em" font-style="normal" font-weight="normal" text-decoration="normal" x="0" y="0" text-anchor="middle" dominant-baseline="text-after-edge">79.5</text></g></g><g fill="#444444"><path fill="" stroke="none" d=""/><g transform="translate(591.2971188475391,126.80667982889108) rotate(0,0,0)"><path fill="none" stroke="none"/><text fill="" stroke="none" font-family="helvetica" font-size="0.75em" font-style="normal" font-weight="normal" text-decoration="normal" x="0" y="0" text-anchor="middle" dominant-baseline="text-after-edge">49</text></g></g><g fill="#444444"><path fill="" stroke="none" d=""/><g transform="translate(654.7625050020008,88.24547548535702) rotate(0,0,0)"><path fill="none" stroke="none"/><text fill="" stroke="none" font-family="helvetica" font-size="0.75em" font-style="normal" font-weight="normal" text-decoration="normal" x="0" y="0" text-anchor="middle" dominant-baseline="text-after-edge">124</text></g></g><g fill="#444444"><path fill="" stroke="none" d=""/><g transform="translate(681.2064158996932,93.23272458045409) rotate(0,0,0)"><path fill="none" stroke="none"/><text fill="" stroke="none" font-family="helvetica" font-size="0.75em" font-style="normal" font-weight="normal" text-decoration="normal" x="0" y="0" text-anchor="middle" dominant-baseline="text-after-edge">114.3</text></g></g><g fill="#444444"><path fill="" stroke="none" d=""/><g transform="translate(707.6503267973857,107.52607765712406) rotate(0,0,0)"><path fill="none" stroke="none"/><text fill="" stroke="none" font-family="helvetica" font-size="0.75em" font-style="normal" font-weight="normal" text-decoration="normal" x="0" y="0" text-anchor="middle" dominant-baseline="text-after-edge">86.5</text></g></g><g fill="#444444"><path fill="" stroke="none" d=""/><g transform="translate(771.1157129518474,47.83333333333333) rotate(0,0,0)"><path fill="none" stroke="none"/><text fill="" stroke="none" font-family="helvetica" font-size="0.75em" font-style="normal" font-weight="normal" text-decoration="normal" x="0" y="0" text-anchor="middle" dominant-baseline="text-after-edge">202.6</text></g></g><g fill="#444444"><path fill="" stroke="none" d=""/><g transform="translate(797.5596238495398,68.03940440934517) rotate(0,0,0)"><path fill="none" stroke="none"/><text fill="" stroke="none" font-family="helvetica" font-size="0.75em" font-style="normal" font-weight="normal" text-decoration="normal" x="0" y="0" text-anchor="middle" dominant-baseline="text-after-edge">163.3</text></g></g><g fill="#444444"><path fill="" stroke="none" d=""/><g transform="translate(824.0035347472323,103.25863770977296) rotate(0,0,0)"><path fill="none" stroke="none"/><text fill="" stroke="none" font-family="helvetica" font-size="0.75em" font-style="normal" font-weight="normal" text-decoration="normal" x="0" y="0" text-anchor="middle" dominant-baseline="text-after-edge">94.8</text></g></g></g></g><g clip-path="url(#FcVurTnzmgps)"><g><g><path fill="none" stroke="none"/><path fill="#fc8d59" stroke="none" paint-order="stroke fill markers" d=" M 61.096705348806196 102.51052977953273 L 84.89622515672936 102.51052977953273 L 84.89622515672936 153 L 61.096705348806196 153 L 61.096705348806196 102.51052977953273 Z"/><path fill="none" stroke="black" paint-order="fill stroke markers" d=" M 61.096705348806196 102.51052977953273 L 84.89622515672936 102.51052977953273 L 84.89622515672936 153 L 61.096705348806196 153 L 61.096705348806196 102.51052977953273 Z" stroke-linejoin="bevel" stroke-miterlimit="10"/><path fill="#ffffbf" stroke="none" paint-order="stroke fill markers" d=" M 87.54061624649862 112.69068772622572 L 111.34013605442178 112.69068772622572 L 111.34013605442178 153 L 87.54061624649862 153 L 87.54061624649862 112.69068772622572 Z"/><path fill="none" stroke="black" paint-order="fill stroke markers" d=" M 87.54061624649862 112.69068772622572 L 111.34013605442178 112.69068772622572 L 111.34013605442178 153 L 87.54061624649862 153 L 87.54061624649862 112.69068772622572 Z" stroke-linejoin="bevel" stroke-miterlimit="10"/><path fill="#91bfdb" stroke="none" paint-order="stroke fill markers" d=" M 113.98452714419102 125.08168805528135 L 137.78404695211418 125.08168805528135 L 137.78404695211418 153 L 113.98452714419102 153 L 113.98452714419102 125.08168805528135 Z"/><path fill="none" stroke="black" paint-order="fill stroke markers" d=" M 113.98452714419102 125.08168805528135 L 137.78404695211418 125.08168805528135 L 137.78404695211418 153 L 113.98452714419102 153 L 113.98452714419102 125.08168805528135 Z" stroke-linejoin="bevel" stroke-miterlimit="10"/><path fill="#fc8d59" stroke="none" paint-order="stroke fill markers" d=" M 177.4499132986528 100.14544257979598 L 201.24943310657602 100.14544257979598 L 201.24943310657602 153 L 177.4499132986528 153 L 177.4499132986528 100.14544257979598 Z"/><path fill="none" stroke="black" paint-order="fill stroke markers" d=" M 177.4499132986528 100.14544257979598 L 201.24943310657602 100.14544257979598 L 201.24943310657602 153 L 177.4499132986528 153 L 177.4499132986528 100.14544257979598 Z" stroke-linejoin="bevel" stroke-miterlimit="10"/><path fill="#ffffbf" stroke="none" paint-order="stroke fill markers" d=" M 203.89382419634524 128.93780848963473 L 227.6933440042684 128.93780848963473 L 227.6933440042684 153 L 203.89382419634524 153 L 203.89382419634524 128.93780848963473 Z"/><path fill="none" stroke="black" paint-order="fill stroke markers" d=" M 203.89382419634524 128.93780848963473 L 227.6933440042684 128.93780848963473 L 227.6933440042684 153 L 203.89382419634524 153 L 203.89382419634524 128.93780848963473 Z" stroke-linejoin="bevel" stroke-miterlimit="10"/><path fill="#91bfdb" stroke="none" paint-order="stroke fill markers" d=" M 230.33773509403764 129.09205330700888 L 254.1372549019608 129.09205330700888 L 254.1372549019608 153 L 230.33773509403764 153 L 230.33773509403764 129.09205330700888 Z"/><path fill="none" stroke="black" paint-order="fill stroke markers" d=" M 230.33773509403764 129.09205330700888 L 254.1372549019608 129.09205330700888 L 254.1372549019608 153 L 230.33773509403764 153 L 230.33773509403764 129.09205330700888 Z" stroke-linejoin="bevel" stroke-miterlimit="10"/><path fill="#fc8d59" stroke="none" paint-order="stroke fill markers" d=" M 293.80312124849945 89.0912306679829 L 317.6026410564226 89.0912306679829 L 317.6026410564226 153 L 293.80312124849945 153 L 293.80312124849945 89.0912306679829 Z"/><path fill="none" stroke="black" paint-order="fill stroke markers" d=" M 293.80312124849945 89.0912306679829 L 317.6026410564226 89.0912306679829 L 317.6026410564226 153 L 293.80312124849945 153 L 293.80312124849945 89.0912306679829 Z" stroke-linejoin="bevel" stroke-miterlimit="10"/><path fill="#ffffbf" stroke="none" paint-order="stroke fill markers" d=" M 320.2470321461918 108.7831523527476 L 344.046551954115 108.7831523527476 L 344.046551954115 153 L 320.2470321461918 153 L 320.2470321461918 108.7831523527476 Z"/><path fill="none" stroke="black" paint-order="fill stroke markers" d=" M 320.2470321461918 108.7831523527476 L 344.046551954115 108.7831523527476 L 344.046551954115 153 L 320.2470321461918 153 L 320.2470321461918 108.7831523527476 Z" stroke-linejoin="bevel" stroke-miterlimit="10"/><path fill="#91bfdb" stroke="none" paint-order="stroke fill markers" d=" M 346.6909430438843 119.27179993418888 L 370.49046285180737 119.27179993418888 L 370.49046285180737 153 L 346.6909430438843 153 L 346.6909430438843 119.27179993418888 Z"/><path fill="none" stroke="black" paint-order="fill stroke markers" d=" M 346.6909430438843 119.27179993418888 L 370.49046285180737 119.27179993418888 L 370.49046285180737 153 L 346.6909430438843 153 L 346.6909430438843 119.27179993418888 Z" stroke-linejoin="bevel" stroke-miterlimit="10"/><path fill="#fc8d59" stroke="none" paint-order="stroke fill markers" d=" M 410.15632919834604 89.0912306679829 L 433.9558490062692 89.0912306679829 L 433.9558490062692 153 L 410.15632919834604 153 L 410.15632919834604 89.0912306679829 Z"/><path fill="none" stroke="black" paint-order="fill stroke markers" d=" M 410.15632919834604 89.0912306679829 L 433.9558490062692 89.0912306679829 L 433.9558490062692 153 L 410.15632919834604 153 L 410.15632919834604 89.0912306679829 Z" stroke-linejoin="bevel" stroke-miterlimit="10"/><path fill="#ffffbf" stroke="none" paint-order="stroke fill markers" d=" M 436.6002400960384 112.38219809147745 L 460.3997599039616 112.38219809147745 L 460.3997599039616 153 L 436.6002400960384 153 L 436.6002400960384 112.38219809147745 Z"/><path fill="none" stroke="black" paint-order="fill stroke markers" d=" M 436.6002400960384 112.38219809147745 L 460.3997599039616 112.38219809147745 L 460.3997599039616 153 L 436.6002400960384 153 L 436.6002400960384 112.38219809147745 Z" stroke-linejoin="bevel" stroke-miterlimit="10"/><path fill="#91bfdb" stroke="none" paint-order="stroke fill markers" d=" M 463.0441509937308 114.74728529121421 L 486.84367080165407 114.74728529121421 L 486.84367080165407 153 L 463.0441509937308 153 L 463.0441509937308 114.74728529121421 Z"/><path fill="none" stroke="black" paint-order="fill stroke markers" d=" M 463.0441509937308 114.74728529121421 L 486.84367080165407 114.74728529121421 L 486.84367080165407 153 L 463.0441509937308 153 L 463.0441509937308 114.74728529121421 Z" stroke-linejoin="bevel" stroke-miterlimit="10"/><path fill="#fc8d59" stroke="none" paint-order="stroke fill markers" d=" M 526.5095371481927 89.24547548535702 L 550.3090569561157 89.24547548535702 L 550.3090569561157 153 L 526.5095371481927 153 L 526.5095371481927 89.24547548535702 Z"/><path fill="none" stroke="black" paint-order="fill stroke markers" d=" M 526.5095371481927 89.24547548535702 L 550.3090569561157 89.24547548535702 L 550.3090569561157 153 L 526.5095371481927 153 L 526.5095371481927 89.24547548535702 Z" stroke-linejoin="bevel" stroke-miterlimit="10"/><path fill="#ffffbf" stroke="none" paint-order="stroke fill markers" d=" M 552.9534480458851 112.1251233958539 L 576.7529678538083 112.1251233958539 L 576.7529678538083 153 L 552.9534480458851 153 L 552.9534480458851 112.1251233958539 Z"/><path fill="none" stroke="black" paint-order="fill stroke markers" d=" M 552.9534480458851 112.1251233958539 L 576.7529678538083 112.1251233958539 L 576.7529678538083 153 L 552.9534480458851 153 L 552.9534480458851 112.1251233958539 Z" stroke-linejoin="bevel" stroke-miterlimit="10"/><path fill="#91bfdb" stroke="none" paint-order="stroke fill markers" d=" M 579.3973589435775 127.80667982889108 L 603.1968787515007 127.80667982889108 L 603.1968787515007 153 L 579.3973589435775 153 L 579.3973589435775 127.80667982889108 Z"/><path fill="none" stroke="black" paint-order="fill stroke markers" d=" M 579.3973589435775 127.80667982889108 L 603.1968787515007 127.80667982889108 L 603.1968787515007 153 L 579.3973589435775 153 L 579.3973589435775 127.80667982889108 Z" stroke-linejoin="bevel" stroke-miterlimit="10"/><path fill="#fc8d59" stroke="none" paint-order="stroke fill markers" d=" M 642.8627450980392 89.24547548535702 L 666.6622649059624 89.24547548535702 L 666.6622649059624 153 L 642.8627450980392 153 L 642.8627450980392 89.24547548535702 Z"/><path fill="none" stroke="black" paint-order="fill stroke markers" d=" M 642.8627450980392 89.24547548535702 L 666.6622649059624 89.24547548535702 L 666.6622649059624 153 L 642.8627450980392 153 L 642.8627450980392 89.24547548535702 Z" stroke-linejoin="bevel" stroke-miterlimit="10"/><path fill="#ffffbf" stroke="none" paint-order="stroke fill markers" d=" M 669.3066559957316 94.23272458045409 L 693.1061758036548 94.23272458045409 L 693.1061758036548 153 L 669.3066559957316 153 L 669.3066559957316 94.23272458045409 Z"/><path fill="none" stroke="black" paint-order="fill stroke markers" d=" M 669.3066559957316 94.23272458045409 L 693.1061758036548 94.23272458045409 L 693.1061758036548 153 L 669.3066559957316 153 L 669.3066559957316 94.23272458045409 Z" stroke-linejoin="bevel" stroke-miterlimit="10"/><path fill="#91bfdb" stroke="none" paint-order="stroke fill markers" d=" M 695.7505668934241 108.52607765712406 L 719.5500867013473 108.52607765712406 L 719.5500867013473 153 L 695.7505668934241 153 L 695.7505668934241 108.52607765712406 Z"/><path fill="none" stroke="black" paint-order="fill stroke markers" d=" M 695.7505668934241 108.52607765712406 L 719.5500867013473 108.52607765712406 L 719.5500867013473 153 L 695.7505668934241 153 L 695.7505668934241 108.52607765712406 Z" stroke-linejoin="bevel" stroke-miterlimit="10"/><path fill="#fc8d59" stroke="none" paint-order="stroke fill markers" d=" M 759.2159530478858 48.83333333333333 L 783.015472855809 48.83333333333333 L 783.015472855809 153 L 759.2159530478858 153 L 759.2159530478858 48.83333333333333 Z"/><path fill="none" stroke="black" paint-order="fill stroke markers" d=" M 759.2159530478858 48.83333333333333 L 783.015472855809 48.83333333333333 L 783.015472855809 153 L 759.2159530478858 153 L 759.2159530478858 48.83333333333333 Z" stroke-linejoin="bevel" stroke-miterlimit="10"/><path fill="#ffffbf" stroke="none" paint-order="stroke fill markers" d=" M 785.6598639455782 69.03940440934517 L 809.4593837535014 69.03940440934517 L 809.4593837535014 153 L 785.6598639455782 153 L 785.6598639455782 69.03940440934517 Z"/><path fill="none" stroke="black" paint-order="fill stroke markers" d=" M 785.6598639455782 69.03940440934517 L 809.4593837535014 69.03940440934517 L 809.4593837535014 153 L 785.6598639455782 153 L 785.6598639455782 69.03940440934517 Z" stroke-linejoin="bevel" stroke-miterlimit="10"/><path fill="#91bfdb" stroke="none" paint-order="stroke fill markers" d=" M 812.1037748432707 104.25863770977296 L 835.9032946511938 104.25863770977296 L 835.9032946511938 153 L 812.1037748432707 153 L 812.1037748432707 104.25863770977296 Z"/><path fill="none" stroke="black" paint-order="fill stroke markers" d=" M 812.1037748432707 104.25863770977296 L 835.9032946511938 104.25863770977296 L 835.9032946511938 153 L 812.1037748432707 153 L 812.1037748432707 104.25863770977296 Z" stroke-linejoin="bevel" stroke-miterlimit="10"/></g></g></g><g><g fill="#444444"><path fill="" stroke="none" d=""/><g transform="translate(52,23)"><path fill="none" stroke="none"/><text fill="" stroke="none" font-family="helvetica" font-size="13px" font-style="normal" font-weight="bold" text-decoration="normal" x="0" y="0" text-anchor="start" dominant-baseline="text-after-edge">US Counties - 7 day projection</text></g></g></g><g><g fill="#444444" stroke="lightgrey" stroke-linejoin="bevel" stroke-miterlimit="10" stroke-width="2"><path fill="none" stroke="black" paint-order="fill stroke markers" d=" M 52 153 L 845 153" stroke-linejoin="bevel" stroke-miterlimit="10"/><path fill="none" stroke="black" paint-order="fill stroke markers" d=" M 73 159 L 73 151" stroke-linejoin="bevel" stroke-miterlimit="10"/><path fill="none" stroke="black" paint-order="fill stroke markers" d=" M 99 159 L 99 151" stroke-linejoin="bevel" stroke-miterlimit="10"/><path fill="none" stroke="black" paint-order="fill stroke markers" d=" M 126 159 L 126 151" stroke-linejoin="bevel" stroke-miterlimit="10"/><path fill="none" stroke="black" paint-order="fill stroke markers" d=" M 189 159 L 189 151" stroke-linejoin="bevel" stroke-miterlimit="10"/><path fill="none" stroke="black" paint-order="fill stroke markers" d=" M 216 159 L 216 151" stroke-linejoin="bevel" stroke-miterlimit="10"/><path fill="none" stroke="black" paint-order="fill stroke markers" d=" M 242 159 L 242 151" stroke-linejoin="bevel" stroke-miterlimit="10"/><path fill="none" stroke="black" paint-order="fill stroke markers" d=" M 306 159 L 306 151" stroke-linejoin="bevel" stroke-miterlimit="10"/><path fill="none" stroke="black" paint-order="fill stroke markers" d=" M 332 159 L 332 151" stroke-linejoin="bevel" stroke-miterlimit="10"/><path fill="none" stroke="black" paint-order="fill stroke markers" d=" M 359 159 L 359 151" stroke-linejoin="bevel" stroke-miterlimit="10"/><path fill="none" stroke="black" paint-order="fill stroke markers" d=" M 422 159 L 422 151" stroke-linejoin="bevel" stroke-miterlimit="10"/><path fill="none" stroke="black" paint-order="fill stroke markers" d=" M 449 159 L 449 151" stroke-linejoin="bevel" stroke-miterlimit="10"/><path fill="none" stroke="black" paint-order="fill stroke markers" d=" M 475 159 L 475 151" stroke-linejoin="bevel" stroke-miterlimit="10"/><path fill="none" stroke="black" paint-order="fill stroke markers" d=" M 538 159 L 538 151" stroke-linejoin="bevel" stroke-miterlimit="10"/><path fill="none" stroke="black" paint-order="fill stroke markers" d=" M 565 159 L 565 151" stroke-linejoin="bevel" stroke-miterlimit="10"/><path fill="none" stroke="black" paint-order="fill stroke markers" d=" M 591 159 L 591 151" stroke-linejoin="bevel" stroke-miterlimit="10"/><path fill="none" stroke="black" paint-order="fill stroke markers" d=" M 655 159 L 655 151" stroke-linejoin="bevel" stroke-miterlimit="10"/><path fill="none" stroke="black" paint-order="fill stroke markers" d=" M 681 159 L 681 151" stroke-linejoin="bevel" stroke-miterlimit="10"/><path fill="none" stroke="black" paint-order="fill stroke markers" d=" M 708 159 L 708 151" stroke-linejoin="bevel" stroke-miterlimit="10"/><path fill="none" stroke="black" paint-order="fill stroke markers" d=" M 771 159 L 771 151" stroke-linejoin="bevel" stroke-miterlimit="10"/><path fill="none" stroke="black" paint-order="fill stroke markers" d=" M 798 159 L 798 151" stroke-linejoin="bevel" stroke-miterlimit="10"/><path fill="" stroke="" paint-order="fill stroke markers" d=" M 824 159 L 824 151" stroke-linejoin="bevel" stroke-miterlimit="10"/><g transform="translate(73,164) rotate(-57.29577951308232,0,0)"><text fill="" stroke="none" font-family="helvetica" font-size="11px" font-style="normal" font-weight="normal" text-decoration="normal" x="0" y="0" text-anchor="end" dominant-baseline="central">Columbia</text><g transform="rotate(57.29577951308232,0,0) translate(-73,-164) translate(99,164) rotate(-57.29577951308232,0,0)"><text fill="" stroke="none" font-family="helvetica" font-size="11px" font-style="normal" font-weight="normal" text-decoration="normal" x="0" y="0" text-anchor="end" dominant-baseline="central">Google</text><g transform="rotate(57.29577951308232,0,0) translate(-99,-164) translate(126,164) rotate(-57.29577951308232,0,0)"><text fill="" stroke="none" font-family="helvetica" font-size="11px" font-style="normal" font-weight="normal" text-decoration="normal" x="0" y="0" text-anchor="end" dominant-baseline="central">bAR</text><g transform="rotate(57.29577951308232,0,0) translate(-126,-164) translate(189,164) rotate(-57.29577951308232,0,0)"><text fill="" stroke="none" font-family="helvetica" font-size="11px" font-style="normal" font-weight="normal" text-decoration="normal" x="0" y="0" text-anchor="end" dominant-baseline="central">Columbia</text><g transform="rotate(57.29577951308232,0,0) translate(-189,-164) translate(216,164) rotate(-57.29577951308232,0,0)"><text fill="" stroke="none" font-family="helvetica" font-size="11px" font-style="normal" font-weight="normal" text-decoration="normal" x="0" y="0" text-anchor="end" dominant-baseline="central">Google</text><g transform="rotate(57.29577951308232,0,0) translate(-216,-164) translate(242,164) rotate(-57.29577951308232,0,0)"><text fill="" stroke="none" font-family="helvetica" font-size="11px" font-style="normal" font-weight="normal" text-decoration="normal" x="0" y="0" text-anchor="end" dominant-baseline="central">bAR</text><g transform="rotate(57.29577951308232,0,0) translate(-242,-164) translate(306,164) rotate(-57.29577951308232,0,0)"><text fill="" stroke="none" font-family="helvetica" font-size="11px" font-style="normal" font-weight="normal" text-decoration="normal" x="0" y="0" text-anchor="end" dominant-baseline="central">Columbia</text><g transform="rotate(57.29577951308232,0,0) translate(-306,-164) translate(332,164) rotate(-57.29577951308232,0,0)"><text fill="" stroke="none" font-family="helvetica" font-size="11px" font-style="normal" font-weight="normal" text-decoration="normal" x="0" y="0" text-anchor="end" dominant-baseline="central">Google</text><g transform="rotate(57.29577951308232,0,0) translate(-332,-164) translate(359,164) rotate(-57.29577951308232,0,0)"><text fill="" stroke="none" font-family="helvetica" font-size="11px" font-style="normal" font-weight="normal" text-decoration="normal" x="0" y="0" text-anchor="end" dominant-baseline="central">bAR</text><g transform="rotate(57.29577951308232,0,0) translate(-359,-164) translate(422,164) rotate(-57.29577951308232,0,0)"><text fill="" stroke="none" font-family="helvetica" font-size="11px" font-style="normal" font-weight="normal" text-decoration="normal" x="0" y="0" text-anchor="end" dominant-baseline="central">Columbia</text><g transform="rotate(57.29577951308232,0,0) translate(-422,-164) translate(449,164) rotate(-57.29577951308232,0,0)"><text fill="" stroke="none" font-family="helvetica" font-size="11px" font-style="normal" font-weight="normal" text-decoration="normal" x="0" y="0" text-anchor="end" dominant-baseline="central">Google</text><g transform="rotate(57.29577951308232,0,0) translate(-449,-164) translate(475,164) rotate(-57.29577951308232,0,0)"><text fill="" stroke="none" font-family="helvetica" font-size="11px" font-style="normal" font-weight="normal" text-decoration="normal" x="0" y="0" text-anchor="end" dominant-baseline="central">bAR</text><g transform="rotate(57.29577951308232,0,0) translate(-475,-164) translate(538,164) rotate(-57.29577951308232,0,0)"><text fill="" stroke="none" font-family="helvetica" font-size="11px" font-style="normal" font-weight="normal" text-decoration="normal" x="0" y="0" text-anchor="end" dominant-baseline="central">Columbia</text><g transform="rotate(57.29577951308232,0,0) translate(-538,-164) translate(565,164) rotate(-57.29577951308232,0,0)"><text fill="" stroke="none" font-family="helvetica" font-size="11px" font-style="normal" font-weight="normal" text-decoration="normal" x="0" y="0" text-anchor="end" dominant-baseline="central">Google</text><g transform="rotate(57.29577951308232,0,0) translate(-565,-164) translate(591,164) rotate(-57.29577951308232,0,0)"><text fill="" stroke="none" font-family="helvetica" font-size="11px" font-style="normal" font-weight="normal" text-decoration="normal" x="0" y="0" text-anchor="end" dominant-baseline="central">bAR</text><g transform="rotate(57.29577951308232,0,0) translate(-591,-164) translate(655,164) rotate(-57.29577951308232,0,0)"><text fill="" stroke="none" font-family="helvetica" font-size="11px" font-style="normal" font-weight="normal" text-decoration="normal" x="0" y="0" text-anchor="end" dominant-baseline="central">Columbia</text><g transform="rotate(57.29577951308232,0,0) translate(-655,-164) translate(681,164) rotate(-57.29577951308232,0,0)"><text fill="" stroke="none" font-family="helvetica" font-size="11px" font-style="normal" font-weight="normal" text-decoration="normal" x="0" y="0" text-anchor="end" dominant-baseline="central">Google</text><g transform="rotate(57.29577951308232,0,0) translate(-681,-164) translate(708,164) rotate(-57.29577951308232,0,0)"><text fill="" stroke="none" font-family="helvetica" font-size="11px" font-style="normal" font-weight="normal" text-decoration="normal" x="0" y="0" text-anchor="end" dominant-baseline="central">bAR</text><g transform="rotate(57.29577951308232,0,0) translate(-708,-164) translate(771,164) rotate(-57.29577951308232,0,0)"><text fill="" stroke="none" font-family="helvetica" font-size="11px" font-style="normal" font-weight="normal" text-decoration="normal" x="0" y="0" text-anchor="end" dominant-baseline="central">Columbia</text><g transform="rotate(57.29577951308232,0,0) translate(-771,-164) translate(798,164) rotate(-57.29577951308232,0,0)"><text fill="" stroke="none" font-family="helvetica" font-size="11px" font-style="normal" font-weight="normal" text-decoration="normal" x="0" y="0" text-anchor="end" dominant-baseline="central">Google</text><g transform="rotate(57.29577951308232,0,0) translate(-798,-164) translate(824,164) rotate(-57.29577951308232,0,0)"><text fill="" stroke="none" font-family="helvetica" font-size="11px" font-style="normal" font-weight="normal" text-decoration="normal" x="0" y="0" text-anchor="end" dominant-baseline="central">bAR</text><g transform="rotate(57.29577951308232,0,0) translate(-824,-164) translate(99,216) rotate(0,0,0)"><text fill="" stroke="none" font-family="helvetica" font-size="11px" font-style="normal" font-weight="bold" text-decoration="normal" x="0" y="0" text-anchor="middle" dominant-baseline="hanging">05/11</text><g transform="rotate(0,0,0) translate(-99,-216) translate(216,216) rotate(0,0,0)"><text fill="" stroke="none" font-family="helvetica" font-size="11px" font-style="normal" font-weight="bold" text-decoration="normal" x="0" y="0" text-anchor="middle" dominant-baseline="hanging">05/18</text><g transform="rotate(0,0,0) translate(-216,-216) translate(332,216) rotate(0,0,0)"><text fill="" stroke="none" font-family="helvetica" font-size="11px" font-style="normal" font-weight="bold" text-decoration="normal" x="0" y="0" text-anchor="middle" dominant-baseline="hanging">05/25</text><g transform="rotate(0,0,0) translate(-332,-216) translate(449,216) rotate(0,0,0)"><text fill="" stroke="none" font-family="helvetica" font-size="11px" font-style="normal" font-weight="bold" text-decoration="normal" x="0" y="0" text-anchor="middle" dominant-baseline="hanging">05/30</text><g transform="rotate(0,0,0) translate(-449,-216) translate(565,216) rotate(0,0,0)"><text fill="" stroke="none" font-family="helvetica" font-size="11px" font-style="normal" font-weight="bold" text-decoration="normal" x="0" y="0" text-anchor="middle" dominant-baseline="hanging">06/08</text><g transform="rotate(0,0,0) translate(-565,-216) translate(681,216) rotate(0,0,0)"><text fill="" stroke="none" font-family="helvetica" font-size="11px" font-style="normal" font-weight="bold" text-decoration="normal" x="0" y="0" text-anchor="middle" dominant-baseline="hanging">06/20</text><g transform="rotate(0,0,0) translate(-681,-216) translate(798,216) rotate(0,0,0)"><text fill="" stroke="none" font-family="helvetica" font-size="11px" font-style="normal" font-weight="bold" text-decoration="normal" x="0" y="0" text-anchor="middle" dominant-baseline="hanging">06/27</text><g transform="rotate(0,0,0) translate(-798,-216) translate(449,235) rotate(0,0,0)"><text fill="" stroke="none" font-family="helvetica" font-size="13px" font-style="italic" font-weight="normal" text-decoration="normal" x="0" y="0" text-anchor="middle" dominant-baseline="hanging">Projection date</text><g transform="rotate(0,0,0) translate(-449,-235)"><path fill="none" stroke="" paint-order="fill stroke markers" d=" M 158 218 L 158 156"/><path fill="none" stroke="" paint-order="fill stroke markers" d=" M 274 218 L 274 156"/><path fill="none" stroke="" paint-order="fill stroke markers" d=" M 390 218 L 390 156"/><path fill="none" stroke="" paint-order="fill stroke markers" d=" M 507 218 L 507 156"/><path fill="none" stroke="" paint-order="fill stroke markers" d=" M 623 218 L 623 156"/><path fill="none" stroke="" paint-order="fill stroke markers" d=" M 739 218 L 739 156"/></g></g></g></g></g></g></g></g></g></g></g></g></g></g></g></g></g></g></g></g></g></g></g></g></g></g></g></g></g></g></g></g><g><g fill="#444444"><path fill="none" stroke="black" paint-order="fill stroke markers" d=" M 52 153 L 52 28" stroke-linejoin="bevel" stroke-miterlimit="10"/><path fill="none" stroke="black" paint-order="fill stroke markers" d=" M 46 153 L 54 153" stroke-linejoin="bevel" stroke-miterlimit="10"/><path fill="none" stroke="black" paint-order="fill stroke markers" d=" M 46 127 L 54 127" stroke-linejoin="bevel" stroke-miterlimit="10"/><path fill="none" stroke="black" paint-order="fill stroke markers" d=" M 46 102 L 54 102" stroke-linejoin="bevel" stroke-miterlimit="10"/><path fill="none" stroke="black" paint-order="fill stroke markers" d=" M 46 76 L 54 76" stroke-linejoin="bevel" stroke-miterlimit="10"/><path fill="none" stroke="black" paint-order="fill stroke markers" d=" M 46 50 L 54 50" stroke-linejoin="bevel" stroke-miterlimit="10"/><path fill="none" stroke="black" paint-order="fill stroke markers" d=" M 48 153 L 52 153" stroke-linejoin="bevel" stroke-miterlimit="10"/><path fill="none" stroke="black" paint-order="fill stroke markers" d=" M 48 148 L 52 148" stroke-linejoin="bevel" stroke-miterlimit="10"/><path fill="none" stroke="black" paint-order="fill stroke markers" d=" M 48 143 L 52 143" stroke-linejoin="bevel" stroke-miterlimit="10"/><path fill="none" stroke="black" paint-order="fill stroke markers" d=" M 48 138 L 52 138" stroke-linejoin="bevel" stroke-miterlimit="10"/><path fill="none" stroke="black" paint-order="fill stroke markers" d=" M 48 132 L 52 132" stroke-linejoin="bevel" stroke-miterlimit="10"/><path fill="none" stroke="black" paint-order="fill stroke markers" d=" M 48 127 L 52 127" stroke-linejoin="bevel" stroke-miterlimit="10"/><path fill="none" stroke="black" paint-order="fill stroke markers" d=" M 48 122 L 52 122" stroke-linejoin="bevel" stroke-miterlimit="10"/><path fill="none" stroke="black" paint-order="fill stroke markers" d=" M 48 117 L 52 117" stroke-linejoin="bevel" stroke-miterlimit="10"/><path fill="none" stroke="black" paint-order="fill stroke markers" d=" M 48 112 L 52 112" stroke-linejoin="bevel" stroke-miterlimit="10"/><path fill="none" stroke="black" paint-order="fill stroke markers" d=" M 48 107 L 52 107" stroke-linejoin="bevel" stroke-miterlimit="10"/><path fill="none" stroke="black" paint-order="fill stroke markers" d=" M 48 102 L 52 102" stroke-linejoin="bevel" stroke-miterlimit="10"/><path fill="none" stroke="black" paint-order="fill stroke markers" d=" M 48 96 L 52 96" stroke-linejoin="bevel" stroke-miterlimit="10"/><path fill="none" stroke="black" paint-order="fill stroke markers" d=" M 48 91 L 52 91" stroke-linejoin="bevel" stroke-miterlimit="10"/><path fill="none" stroke="black" paint-order="fill stroke markers" d=" M 48 86 L 52 86" stroke-linejoin="bevel" stroke-miterlimit="10"/><path fill="none" stroke="black" paint-order="fill stroke markers" d=" M 48 81 L 52 81" stroke-linejoin="bevel" stroke-miterlimit="10"/><path fill="none" stroke="black" paint-order="fill stroke markers" d=" M 48 76 L 52 76" stroke-linejoin="bevel" stroke-miterlimit="10"/><path fill="none" stroke="black" paint-order="fill stroke markers" d=" M 48 71 L 52 71" stroke-linejoin="bevel" stroke-miterlimit="10"/><path fill="none" stroke="black" paint-order="fill stroke markers" d=" M 48 66 L 52 66" stroke-linejoin="bevel" stroke-miterlimit="10"/><path fill="none" stroke="black" paint-order="fill stroke markers" d=" M 48 60 L 52 60" stroke-linejoin="bevel" stroke-miterlimit="10"/><path fill="none" stroke="black" paint-order="fill stroke markers" d=" M 48 55 L 52 55" stroke-linejoin="bevel" stroke-miterlimit="10"/><path fill="none" stroke="black" paint-order="fill stroke markers" d=" M 48 50 L 52 50" stroke-linejoin="bevel" stroke-miterlimit="10"/><path fill="none" stroke="black" paint-order="fill stroke markers" d=" M 48 45 L 52 45" stroke-linejoin="bevel" stroke-miterlimit="10"/><path fill="none" stroke="black" paint-order="fill stroke markers" d=" M 48 40 L 52 40" stroke-linejoin="bevel" stroke-miterlimit="10"/><path fill="none" stroke="black" paint-order="fill stroke markers" d=" M 48 35 L 52 35" stroke-linejoin="bevel" stroke-miterlimit="10"/><path fill="" stroke="black" paint-order="fill stroke markers" d=" M 48 30 L 52 30" stroke-linejoin="bevel" stroke-miterlimit="10"/><g transform="translate(41,153) rotate(0,0,0)"><text fill="" stroke="none" font-family="helvetica" font-size="11px" font-style="normal" font-weight="normal" text-decoration="normal" x="0" y="0" text-anchor="end" dominant-baseline="central">0</text><g transform="rotate(0,0,0) translate(-41,-153) translate(41,127) rotate(0,0,0)"><text fill="" stroke="none" font-family="helvetica" font-size="11px" font-style="normal" font-weight="normal" text-decoration="normal" x="0" y="0" text-anchor="end" dominant-baseline="central">50</text><g transform="rotate(0,0,0) translate(-41,-127) translate(41,102) rotate(0,0,0)"><text fill="" stroke="none" font-family="helvetica" font-size="11px" font-style="normal" font-weight="normal" text-decoration="normal" x="0" y="0" text-anchor="end" dominant-baseline="central">100</text><g transform="rotate(0,0,0) translate(-41,-102) translate(41,76) rotate(0,0,0)"><text fill="" stroke="none" font-family="helvetica" font-size="11px" font-style="normal" font-weight="normal" text-decoration="normal" x="0" y="0" text-anchor="end" dominant-baseline="central">150</text><g transform="rotate(0,0,0) translate(-41,-76) translate(41,50) rotate(0,0,0)"><text fill="" stroke="none" font-family="helvetica" font-size="11px" font-style="normal" font-weight="normal" text-decoration="normal" x="0" y="0" text-anchor="end" dominant-baseline="central">200</text><g transform="rotate(0,0,0) translate(-41,-50) translate(16,91) rotate(-90,0,0)"><text fill="" stroke="none" font-family="helvetica" font-size="13px" font-style="italic" font-weight="normal" text-decoration="normal" x="0" y="0" text-anchor="middle" dominant-baseline="alphabetic">Avg. RMSE</text><g transform="rotate(90,0,0) translate(-16,-91)"/></g></g></g></g></g></g></g></g></g></g></svg>