<svg version="1.1" xmlns="http://www.w3.org/2000/svg" xmlns:xlink="http://www.w3.org/1999/xlink" width="850" height="250" style="width: 850px; height: 250px;"><defs><clipPath id="QfxtmTLszTDA"><path fill="none" stroke="none" d=" M 52 28 L 845 28 L 845 153 L 52 153 L 52 28 Z"/></clipPath><clipPath id="ATfpruoMhFwb"><path fill="none" stroke="none" d=" M 52 28 L 845 28 L 845 153 L 52 153 L 52 28 Z"/></clipPath><clipPath id="rTGHGKCKyDBQ"><path fill="none" stroke="none" d=" M 52 28 L 845 28 L 845 153 L 52 153 L 52 28 Z"/></clipPath><clipPath id="qtTwhfaMzaib"><path fill="none" stroke="none" d=" M 52 28 L 845 28 L 845 153 L 52 153 L 52 28 Z"/></clipPath></defs><g><g transform="scale(1,1) translate(0.5,0.5)"><rect fill="#FFFFFF" stroke="none" x="0" y="0" width="850" height="250"/><rect fill="#ffffff" stroke="none" x="0" y="0" width="850" height="250"/><rect fill="#FFFFFF" stroke="none" x="52" y="28" width="793" height="125"/><rect fill="#ffffff" stroke="none" x="52" y="28" width="793" height="125"/><g><rect fill="none" stroke="#e5e5e5" x="52" y="28" width="793" height="125" stroke-linejoin="bevel" stroke-miterlimit="10"/></g><g clip-path="url(#QfxtmTLszTDA)"><g><g/></g></g><g clip-path="url(#ATfpruoMhFwb)"><g><g><path fill="none" stroke="#e5e5e5" paint-order="fill stroke markers" d=" M 52 125 L 845 125" stroke-linejoin="bevel" stroke-miterlimit="10"/><path fill="none" stroke="#e5e5e5" paint-order="fill stroke markers" d=" M 52 96 L 845 96" stroke-linejoin="bevel" stroke-miterlimit="10"/><path fill="none" stroke="#e5e5e5" paint-order="fill stroke markers" d=" M 52 68 L 845 68" stroke-linejoin="bevel" stroke-miterlimit="10"/><path fill="none" stroke="#e5e5e5" paint-order="fill stroke markers" d=" M 52 39 L 845 39" stroke-linejoin="bevel" stroke-miterlimit="10"/></g></g></g><g clip-path="url(#rTGHGKCKyDBQ)"><g><g fill="#444444"><path fill="" stroke="none" d=""/><g transform="translate(72.99646525276778,111.44330601092895) rotate(0,0,0)"><path fill="none" stroke="none"/><text fill="" stroke="none" font-family="helvetica" font-size="0.75em" font-style="normal" font-weight="normal" text-decoration="normal" x="0" y="0" text-anchor="middle" dominant-baseline="text-after-edge">28.5</text></g></g><g fill="#444444"><path fill="" stroke="none" d=""/><g transform="translate(99.4403761504602,56.940801457194894) rotate(0,0,0)"><path fill="none" stroke="none"/><text fill="" stroke="none" font-family="helvetica" font-size="0.75em" font-style="normal" font-weight="normal" text-decoration="normal" x="0" y="0" text-anchor="middle" dominant-baseline="text-after-edge">66.8</text></g></g><g fill="#444444"><path fill="" stroke="none" d=""/><g transform="translate(125.8842870481526,121.26229508196721) rotate(0,0,0)"><path fill="none" stroke="none"/><text fill="" stroke="none" font-family="helvetica" font-size="0.75em" font-style="normal" font-weight="normal" text-decoration="normal" x="0" y="0" text-anchor="middle" dominant-baseline="text-after-edge">21.6</text></g></g><g fill="#444444"><path fill="" stroke="none" d=""/><g transform="translate(189.3496732026144,108.59722222222223) rotate(0,0,0)"><path fill="none" stroke="none"/><text fill="" stroke="none" font-family="helvetica" font-size="0.75em" font-style="normal" font-weight="normal" text-decoration="normal" x="0" y="0" text-anchor="middle" dominant-baseline="text-after-edge">30.5</text></g></g><g fill="#444444"><path fill="" stroke="none" d=""/><g transform="translate(215.79358410030682,85.8285519125683) rotate(0,0,0)"><path fill="none" stroke="none"/><text fill="" stroke="none" font-family="helvetica" font-size="0.75em" font-style="normal" font-weight="normal" text-decoration="normal" x="0" y="0" text-anchor="middle" dominant-baseline="text-after-edge">46.5</text></g></g><g fill="#444444"><path fill="" stroke="none" d=""/><g transform="translate(242.23749499799922,118.27390710382514) rotate(0,0,0)"><path fill="none" stroke="none"/><text fill="" stroke="none" font-family="helvetica" font-size="0.75em" font-style="normal" font-weight="normal" text-decoration="normal" x="0" y="0" text-anchor="middle" dominant-baseline="text-after-edge">23.7</text></g></g><g fill="#444444"><path fill="" stroke="none" d=""/><g transform="translate(305.70288115246103,107.03187613843352) rotate(0,0,0)"><path fill="none" stroke="none"/><text fill="" stroke="none" font-family="helvetica" font-size="0.75em" font-style="normal" font-weight="normal" text-decoration="normal" x="0" y="0" text-anchor="middle" dominant-baseline="text-after-edge">31.6</text></g></g><g fill="#444444"><path fill="" stroke="none" d=""/><g transform="translate(332.1467920501534,94.08219489981784) rotate(0,0,0)"><path fill="none" stroke="none"/><text fill="" stroke="none" font-family="helvetica" font-size="0.75em" font-style="normal" font-weight="normal" text-decoration="normal" x="0" y="0" text-anchor="middle" dominant-baseline="text-after-edge">40.7</text></g></g><g fill="#444444"><path fill="" stroke="none" d=""/><g transform="translate(358.59070294784584,117.56238615664844) rotate(0,0,0)"><path fill="none" stroke="none"/><text fill="" stroke="none" font-family="helvetica" font-size="0.75em" font-style="normal" font-weight="normal" text-decoration="normal" x="0" y="0" text-anchor="middle" dominant-baseline="text-after-edge">24.2</text></g></g><g fill="#444444"><path fill="" stroke="none" d=""/><g transform="translate(422.0560891023076,107.03187613843352) rotate(0,0,0)"><path fill="none" stroke="none"/><text fill="" stroke="none" font-family="helvetica" font-size="0.75em" font-style="normal" font-weight="normal" text-decoration="normal" x="0" y="0" text-anchor="middle" dominant-baseline="text-after-edge">31.6</text></g></g><g fill="#444444"><path fill="" stroke="none" d=""/><g transform="translate(448.5,92.94376138433515) rotate(0,0,0)"><path fill="none" stroke="none"/><text fill="" stroke="none" font-family="helvetica" font-size="0.75em" font-style="normal" font-weight="normal" text-decoration="normal" x="0" y="0" text-anchor="middle" dominant-baseline="text-after-edge">41.5</text></g></g><g fill="#444444"><path fill="" stroke="none" d=""/><g transform="translate(474.94391089769243,114.71630236794172) rotate(0,0,0)"><path fill="none" stroke="none"/><text fill="" stroke="none" font-family="helvetica" font-size="0.75em" font-style="normal" font-weight="normal" text-decoration="normal" x="0" y="0" text-anchor="middle" dominant-baseline="text-after-edge">26.2</text></g></g><g fill="#444444"><path fill="" stroke="none" d=""/><g transform="translate(538.4092970521542,97.7821038251366) rotate(0,0,0)"><path fill="none" stroke="none"/><text fill="" stroke="none" font-family="helvetica" font-size="0.75em" font-style="normal" font-weight="normal" text-decoration="normal" x="0" y="0" text-anchor="middle" dominant-baseline="text-after-edge">38.1</text></g></g><g fill="#444444"><path fill="" stroke="none" d=""/><g transform="translate(564.8532079498467,96.35906193078324) rotate(0,0,0)"><path fill="none" stroke="none"/><text fill="" stroke="none" font-family="helvetica" font-size="0.75em" font-style="normal" font-weight="normal" text-decoration="normal" x="0" y="0" text-anchor="middle" dominant-baseline="text-after-edge">39.1</text></g></g><g fill="#444444"><path fill="" stroke="none" d=""/><g transform="translate(591.2971188475391,110.8740892531876) rotate(0,0,0)"><path fill="none" stroke="none"/><text fill="" stroke="none" font-family="helvetica" font-size="0.75em" font-style="normal" font-weight="normal" text-decoration="normal" x="0" y="0" text-anchor="middle" dominant-baseline="text-after-edge">28.9</text></g></g><g fill="#444444"><path fill="" stroke="none" d=""/><g transform="translate(654.7625050020008,97.7821038251366) rotate(0,0,0)"><path fill="none" stroke="none"/><text fill="" stroke="none" font-family="helvetica" font-size="0.75em" font-style="normal" font-weight="normal" text-decoration="normal" x="0" y="0" text-anchor="middle" dominant-baseline="text-after-edge">38.1</text></g></g><g fill="#444444"><path fill="" stroke="none" d=""/><g transform="translate(681.2064158996932,66.47518214936247) rotate(0,0,0)"><path fill="none" stroke="none"/><text fill="" stroke="none" font-family="helvetica" font-size="0.75em" font-style="normal" font-weight="normal" text-decoration="normal" x="0" y="0" text-anchor="middle" dominant-baseline="text-after-edge">60.1</text></g></g><g fill="#444444"><path fill="" stroke="none" d=""/><g transform="translate(707.6503267973857,93.93989071038251) rotate(0,0,0)"><path fill="none" stroke="none"/><text fill="" stroke="none" font-family="helvetica" font-size="0.75em" font-style="normal" font-weight="normal" text-decoration="normal" x="0" y="0" text-anchor="middle" dominant-baseline="text-after-edge">40.8</text></g></g><g fill="#444444"><path fill="" stroke="none" d=""/><g transform="translate(771.1157129518474,48.40255009107469) rotate(0,0,0)"><path fill="none" stroke="none"/><text fill="" stroke="none" font-family="helvetica" font-size="0.75em" font-style="normal" font-weight="normal" text-decoration="normal" x="0" y="0" text-anchor="middle" dominant-baseline="text-after-edge">72.8</text></g></g><g fill="#444444"><path fill="" stroke="none" d=""/><g transform="translate(797.5596238495398,47.83333333333333) rotate(0,0,0)"><path fill="none" stroke="none"/><text fill="" stroke="none" font-family="helvetica" font-size="0.75em" font-style="normal" font-weight="normal" text-decoration="normal" x="0" y="0" text-anchor="middle" dominant-baseline="text-after-edge">73.2</text></g></g><g fill="#444444"><path fill="" stroke="none" d=""/><g transform="translate(824.0035347472323,87.39389799635701) rotate(0,0,0)"><path fill="none" stroke="none"/><text fill="" stroke="none" font-family="helvetica" font-size="0.75em" font-style="normal" font-weight="normal" text-decoration="normal" x="0" y="0" text-anchor="middle" dominant-baseline="text-after-edge">45.4</text></g></g></g></g><g clip-path="url(#qtTwhfaMzaib)"><g><g><path fill="none" stroke="none"/><path fill="#fc8d59" stroke="none" paint-order="stroke fill markers" d=" M 61.096705348806196 112.44330601092895 L 84.89622515672936 112.44330601092895 L 84.89622515672936 153 L 61.096705348806196 153 L 61.096705348806196 112.44330601092895 Z"/><path fill="none" stroke="black" paint-order="fill stroke markers" d=" M 61.096705348806196 112.44330601092895 L 84.89622515672936 112.44330601092895 L 84.89622515672936 153 L 61.096705348806196 153 L 61.096705348806196 112.44330601092895 Z" stroke-linejoin="bevel" stroke-miterlimit="10"/><path fill="#ffffbf" stroke="none" paint-order="stroke fill markers" d=" M 87.54061624649862 57.940801457194894 L 111.34013605442178 57.940801457194894 L 111.34013605442178 153 L 87.54061624649862 153 L 87.54061624649862 57.940801457194894 Z"/><path fill="none" stroke="black" paint-order="fill stroke markers" d=" M 87.54061624649862 57.940801457194894 L 111.34013605442178 57.940801457194894 L 111.34013605442178 153 L 87.54061624649862 153 L 87.54061624649862 57.940801457194894 Z" stroke-linejoin="bevel" stroke-miterlimit="10"/><path fill="#91bfdb" stroke="none" paint-order="stroke fill markers" d=" M 113.98452714419102 122.26229508196721 L 137.78404695211418 122.26229508196721 L 137.78404695211418 153 L 113.98452714419102 153 L 113.98452714419102 122.26229508196721 Z"/><path fill="none" stroke="black" paint-order="fill stroke markers" d=" M 113.98452714419102 122.26229508196721 L 137.78404695211418 122.26229508196721 L 137.78404695211418 153 L 113.98452714419102 153 L 113.98452714419102 122.26229508196721 Z" stroke-linejoin="bevel" stroke-miterlimit="10"/><path fill="#fc8d59" stroke="none" paint-order="stroke fill markers" d=" M 177.4499132986528 109.59722222222223 L 201.24943310657602 109.59722222222223 L 201.24943310657602 153 L 177.4499132986528 153 L 177.4499132986528 109.59722222222223 Z"/><path fill="none" stroke="black" paint-order="fill stroke markers" d=" M 177.4499132986528 109.59722222222223 L 201.24943310657602 109.59722222222223 L 201.24943310657602 153 L 177.4499132986528 153 L 177.4499132986528 109.59722222222223 Z" stroke-linejoin="bevel" stroke-miterlimit="10"/><path fill="#ffffbf" stroke="none" paint-order="stroke fill markers" d=" M 203.89382419634524 86.8285519125683 L 227.6933440042684 86.8285519125683 L 227.6933440042684 153 L 203.89382419634524 153 L 203.89382419634524 86.8285519125683 Z"/><path fill="none" stroke="black" paint-order="fill stroke markers" d=" M 203.89382419634524 86.8285519125683 L 227.6933440042684 86.8285519125683 L 227.6933440042684 153 L 203.89382419634524 153 L 203.89382419634524 86.8285519125683 Z" stroke-linejoin="bevel" stroke-miterlimit="10"/><path fill="#91bfdb" stroke="none" paint-order="stroke fill markers" d=" M 230.33773509403764 119.27390710382514 L 254.1372549019608 119.27390710382514 L 254.1372549019608 153 L 230.33773509403764 153 L 230.33773509403764 119.27390710382514 Z"/><path fill="none" stroke="black" paint-order="fill stroke markers" d=" M 230.33773509403764 119.27390710382514 L 254.1372549019608 119.27390710382514 L 254.1372549019608 153 L 230.33773509403764 153 L 230.33773509403764 119.27390710382514 Z" stroke-linejoin="bevel" stroke-miterlimit="10"/><path fill="#fc8d59" stroke="none" paint-order="stroke fill markers" d=" M 293.80312124849945 108.03187613843352 L 317.6026410564226 108.03187613843352 L 317.6026410564226 153 L 293.80312124849945 153 L 293.80312124849945 108.03187613843352 Z"/><path fill="none" stroke="black" paint-order="fill stroke markers" d=" M 293.80312124849945 108.03187613843352 L 317.6026410564226 108.03187613843352 L 317.6026410564226 153 L 293.80312124849945 153 L 293.80312124849945 108.03187613843352 Z" stroke-linejoin="bevel" stroke-miterlimit="10"/><path fill="#ffffbf" stroke="none" paint-order="stroke fill markers" d=" M 320.2470321461918 95.08219489981784 L 344.046551954115 95.08219489981784 L 344.046551954115 153 L 320.2470321461918 153 L 320.2470321461918 95.08219489981784 Z"/><path fill="none" stroke="black" paint-order="fill stroke markers" d=" M 320.2470321461918 95.08219489981784 L 344.046551954115 95.08219489981784 L 344.046551954115 153 L 320.2470321461918 153 L 320.2470321461918 95.08219489981784 Z" stroke-linejoin="bevel" stroke-miterlimit="10"/><path fill="#91bfdb" stroke="none" paint-order="stroke fill markers" d=" M 346.6909430438843 118.56238615664844 L 370.49046285180737 118.56238615664844 L 370.49046285180737 153 L 346.6909430438843 153 L 346.6909430438843 118.56238615664844 Z"/><path fill="none" stroke="black" paint-order="fill stroke markers" d=" M 346.6909430438843 118.56238615664844 L 370.49046285180737 118.56238615664844 L 370.49046285180737 153 L 346.6909430438843 153 L 346.6909430438843 118.56238615664844 Z" stroke-linejoin="bevel" stroke-miterlimit="10"/><path fill="#fc8d59" stroke="none" paint-order="stroke fill markers" d=" M 410.15632919834604 108.03187613843352 L 433.9558490062692 108.03187613843352 L 433.9558490062692 153 L 410.15632919834604 153 L 410.15632919834604 108.03187613843352 Z"/><path fill="none" stroke="black" paint-order="fill stroke markers" d=" M 410.15632919834604 108.03187613843352 L 433.9558490062692 108.03187613843352 L 433.9558490062692 153 L 410.15632919834604 153 L 410.15632919834604 108.03187613843352 Z" stroke-linejoin="bevel" stroke-miterlimit="10"/><path fill="#ffffbf" stroke="none" paint-order="stroke fill markers" d=" M 436.6002400960384 93.94376138433515 L 460.3997599039616 93.94376138433515 L 460.3997599039616 153 L 436.6002400960384 153 L 436.6002400960384 93.94376138433515 Z"/><path fill="none" stroke="black" paint-order="fill stroke markers" d=" M 436.6002400960384 93.94376138433515 L 460.3997599039616 93.94376138433515 L 460.3997599039616 153 L 436.6002400960384 153 L 436.6002400960384 93.94376138433515 Z" stroke-linejoin="bevel" stroke-miterlimit="10"/><path fill="#91bfdb" stroke="none" paint-order="stroke fill markers" d=" M 463.0441509937308 115.71630236794172 L 486.84367080165407 115.71630236794172 L 486.84367080165407 153 L 463.0441509937308 153 L 463.0441509937308 115.71630236794172 Z"/><path fill="none" stroke="black" paint-order="fill stroke markers" d=" M 463.0441509937308 115.71630236794172 L 486.84367080165407 115.71630236794172 L 486.84367080165407 153 L 463.0441509937308 153 L 463.0441509937308 115.71630236794172 Z" stroke-linejoin="bevel" stroke-miterlimit="10"/><path fill="#fc8d59" stroke="none" paint-order="stroke fill markers" d=" M 526.5095371481927 98.7821038251366 L 550.3090569561157 98.7821038251366 L 550.3090569561157 153 L 526.5095371481927 153 L 526.5095371481927 98.7821038251366 Z"/><path fill="none" stroke="black" paint-order="fill stroke markers" d=" M 526.5095371481927 98.7821038251366 L 550.3090569561157 98.7821038251366 L 550.3090569561157 153 L 526.5095371481927 153 L 526.5095371481927 98.7821038251366 Z" stroke-linejoin="bevel" stroke-miterlimit="10"/><path fill="#ffffbf" stroke="none" paint-order="stroke fill markers" d=" M 552.9534480458851 97.35906193078324 L 576.7529678538083 97.35906193078324 L 576.7529678538083 153 L 552.9534480458851 153 L 552.9534480458851 97.35906193078324 Z"/><path fill="none" stroke="black" paint-order="fill stroke markers" d=" M 552.9534480458851 97.35906193078324 L 576.7529678538083 97.35906193078324 L 576.7529678538083 153 L 552.9534480458851 153 L 552.9534480458851 97.35906193078324 Z" stroke-linejoin="bevel" stroke-miterlimit="10"/><path fill="#91bfdb" stroke="none" paint-order="stroke fill markers" d=" M 579.3973589435775 111.8740892531876 L 603.1968787515007 111.8740892531876 L 603.1968787515007 153 L 579.3973589435775 153 L 579.3973589435775 111.8740892531876 Z"/><path fill="none" stroke="black" paint-order="fill stroke markers" d=" M 579.3973589435775 111.8740892531876 L 603.1968787515007 111.8740892531876 L 603.1968787515007 153 L 579.3973589435775 153 L 579.3973589435775 111.8740892531876 Z" stroke-linejoin="bevel" stroke-miterlimit="10"/><path fill="#fc8d59" stroke="none" paint-order="stroke fill markers" d=" M 642.8627450980392 98.7821038251366 L 666.6622649059624 98.7821038251366 L 666.6622649059624 153 L 642.8627450980392 153 L 642.8627450980392 98.7821038251366 Z"/><path fill="none" stroke="black" paint-order="fill stroke markers" d=" M 642.8627450980392 98.7821038251366 L 666.6622649059624 98.7821038251366 L 666.6622649059624 153 L 642.8627450980392 153 L 642.8627450980392 98.7821038251366 Z" stroke-linejoin="bevel" stroke-miterlimit="10"/><path fill="#ffffbf" stroke="none" paint-order="stroke fill markers" d=" M 669.3066559957316 67.47518214936247 L 693.1061758036548 67.47518214936247 L 693.1061758036548 153 L 669.3066559957316 153 L 669.3066559957316 67.47518214936247 Z"/><path fill="none" stroke="black" paint-order="fill stroke markers" d=" M 669.3066559957316 67.47518214936247 L 693.1061758036548 67.47518214936247 L 693.1061758036548 153 L 669.3066559957316 153 L 669.3066559957316 67.47518214936247 Z" stroke-linejoin="bevel" stroke-miterlimit="10"/><path fill="#91bfdb" stroke="none" paint-order="stroke fill markers" d=" M 695.7505668934241 94.93989071038251 L 719.5500867013473 94.93989071038251 L 719.5500867013473 153 L 695.7505668934241 153 L 695.7505668934241 94.93989071038251 Z"/><path fill="none" stroke="black" paint-order="fill stroke markers" d=" M 695.7505668934241 94.93989071038251 L 719.5500867013473 94.93989071038251 L 719.5500867013473 153 L 695.7505668934241 153 L 695.7505668934241 94.93989071038251 Z" stroke-linejoin="bevel" stroke-miterlimit="10"/><path fill="#fc8d59" stroke="none" paint-order="stroke fill markers" d=" M 759.2159530478858 49.40255009107469 L 783.015472855809 49.40255009107469 L 783.015472855809 153 L 759.2159530478858 153 L 759.2159530478858 49.40255009107469 Z"/><path fill="none" stroke="black" paint-order="fill stroke markers" d=" M 759.2159530478858 49.40255009107469 L 783.015472855809 49.40255009107469 L 783.015472855809 153 L 759.2159530478858 153 L 759.2159530478858 49.40255009107469 Z" stroke-linejoin="bevel" stroke-miterlimit="10"/><path fill="#ffffbf" stroke="none" paint-order="stroke fill markers" d=" M 785.6598639455782 48.83333333333333 L 809.4593837535014 48.83333333333333 L 809.4593837535014 153 L 785.6598639455782 153 L 785.6598639455782 48.83333333333333 Z"/><path fill="none" stroke="black" paint-order="fill stroke markers" d=" M 785.6598639455782 48.83333333333333 L 809.4593837535014 48.83333333333333 L 809.4593837535014 153 L 785.6598639455782 153 L 785.6598639455782 48.83333333333333 Z" stroke-linejoin="bevel" stroke-miterlimit="10"/><path fill="#91bfdb" stroke="none" paint-order="stroke fill markers" d=" M 812.1037748432707 88.39389799635701 L 835.9032946511938 88.39389799635701 L 835.9032946511938 153 L 812.1037748432707 153 L 812.1037748432707 88.39389799635701 Z"/><path fill="none" stroke="black" paint-order="fill stroke markers" d=" M 812.1037748432707 88.39389799635701 L 835.9032946511938 88.39389799635701 L 835.9032946511938 153 L 812.1037748432707 153 L 812.1037748432707 88.39389799635701 Z" stroke-linejoin="bevel" stroke-miterlimit="10"/></g></g></g><g><g fill="#444444"><path fill="" stroke="none" d=""/><g transform="translate(52,23)"><path fill="none" stroke="none"/><text fill="" stroke="none" font-family="helvetica" font-size="13px" font-style="normal" font-weight="bold" text-decoration="normal" x="0" y="0" text-anchor="start" dominant-baseline="text-after-edge">US Counties - 14 day projection</text></g></g></g><g><g fill="#444444" stroke="lightgrey" stroke-linejoin="bevel" stroke-miterlimit="10" stroke-width="2"><path fill="none" stroke="black" paint-order="fill stroke markers" d=" M 52 153 L 845 153" stroke-linejoin="bevel" stroke-miterlimit="10"/><path fill="none" stroke="black" paint-order="fill stroke markers" d=" M 73 159 L 73 151" stroke-linejoin="bevel" stroke-miterlimit="10"/><path fill="none" stroke="black" paint-order="fill stroke markers" d=" M 99 159 L 99 151" stroke-linejoin="bevel" stroke-miterlimit="10"/><path fill="none" stroke="black" paint-order="fill stroke markers" d=" M 126 159 L 126 151" stroke-linejoin="bevel" stroke-miterlimit="10"/><path fill="none" stroke="black" paint-order="fill stroke markers" d=" M 189 159 L 189 151" stroke-linejoin="bevel" stroke-miterlimit="10"/><path fill="none" stroke="black" paint-order="fill stroke markers" d=" M 216 159 L 216 151" stroke-linejoin="bevel" stroke-miterlimit="10"/><path fill="none" stroke="black" paint-order="fill stroke markers" d=" M 242 159 L 242 151" stroke-linejoin="bevel" stroke-miterlimit="10"/><path fill="none" stroke="black" paint-order="fill stroke markers" d=" M 306 159 L 306 151" stroke-linejoin="bevel" stroke-miterlimit="10"/><path fill="none" stroke="black" paint-order="fill stroke markers" d=" M 332 159 L 332 151" stroke-linejoin="bevel" stroke-miterlimit="10"/><path fill="none" stroke="black" paint-order="fill stroke markers" d=" M 359 159 L 359 151" stroke-linejoin="bevel" stroke-miterlimit="10"/><path fill="none" stroke="black" paint-order="fill stroke markers" d=" M 422 159 L 422 151" stroke-linejoin="bevel" stroke-miterlimit="10"/><path fill="none" stroke="black" paint-order="fill stroke markers" d=" M 449 159 L 449 151" stroke-linejoin="bevel" stroke-miterlimit="10"/><path fill="none" stroke="black" paint-order="fill stroke markers" d=" M 475 159 L 475 151" stroke-linejoin="bevel" stroke-miterlimit="10"/><path fill="none" stroke="black" paint-order="fill stroke markers" d=" M 538 159 L 538 151" stroke-linejoin="bevel" stroke-miterlimit="10"/><path fill="none" stroke="black" paint-order="fill stroke markers" d=" M 565 159 L 565 151" stroke-linejoin="bevel" stroke-miterlimit="10"/><path fill="none" stroke="black" paint-order="fill stroke markers" d=" M 591 159 L 591 151" stroke-linejoin="bevel" stroke-miterlimit="10"/><path fill="none" stroke="black" paint-order="fill stroke markers" d=" M 655 159 L 655 151" stroke-linejoin="bevel" stroke-miterlimit="10"/><path fill="none" stroke="black" paint-order="fill stroke markers" d=" M 681 159 L 681 151" stroke-linejoin="bevel" stroke-miterlimit="10"/><path fill="none" stroke="black" paint-order="fill stroke markers" d=" M 708 159 L 708 151" stroke-linejoin="bevel" stroke-miterlimit="10"/><path fill="none" stroke="black" paint-order="fill stroke markers" d=" M 771 159 L 771 151" stroke-linejoin="bevel" stroke-miterlimit="10"/><path fill="none" stroke="black" paint-order="fill stroke markers" d=" M 798 159 L 798 151" stroke-linejoin="bevel" stroke-miterlimit="10"/><path fill="" stroke="" paint-order="fill stroke markers" d=" M 824 159 L 824 151" stroke-linejoin="bevel" stroke-miterlimit="10"/><g transform="translate(73,164) rotate(-57.29577951308232,0,0)"><text fill="" stroke="none" font-family="helvetica" font-size="11px" font-style="normal" font-weight="normal" text-decoration="normal" x="0" y="0" text-anchor="end" dominant-baseline="central">Columbia</text><g transform="rotate(57.29577951308232,0,0) translate(-73,-164) translate(99,164) rotate(-57.29577951308232,0,0)"><text fill="" stroke="none" font-family="helvetica" font-size="11px" font-style="normal" font-weight="normal" text-decoration="normal" x="0" y="0" text-anchor="end" dominant-baseline="central">Google</text><g transform="rotate(57.29577951308232,0,0) translate(-99,-164) translate(126,164) rotate(-57.29577951308232,0,0)"><text fill="" stroke="none" font-family="helvetica" font-size="11px" font-style="normal" font-weight="normal" text-decoration="normal" x="0" y="0" text-anchor="end" dominant-baseline="central">bAR</text><g transform="rotate(57.29577951308232,0,0) translate(-126,-164) translate(189,164) rotate(-57.29577951308232,0,0)"><text fill="" stroke="none" font-family="helvetica" font-size="11px" font-style="normal" font-weight="normal" text-decoration="normal" x="0" y="0" text-anchor="end" dominant-baseline="central">Columbia</text><g transform="rotate(57.29577951308232,0,0) translate(-189,-164) translate(216,164) rotate(-57.29577951308232,0,0)"><text fill="" stroke="none" font-family="helvetica" font-size="11px" font-style="normal" font-weight="normal" text-decoration="normal" x="0" y="0" text-anchor="end" dominant-baseline="central">Google</text><g transform="rotate(57.29577951308232,0,0) translate(-216,-164) translate(242,164) rotate(-57.29577951308232,0,0)"><text fill="" stroke="none" font-family="helvetica" font-size="11px" font-style="normal" font-weight="normal" text-decoration="normal" x="0" y="0" text-anchor="end" dominant-baseline="central">bAR</text><g transform="rotate(57.29577951308232,0,0) translate(-242,-164) translate(306,164) rotate(-57.29577951308232,0,0)"><text fill="" stroke="none" font-family="helvetica" font-size="11px" font-style="normal" font-weight="normal" text-decoration="normal" x="0" y="0" text-anchor="end" dominant-baseline="central">Columbia</text><g transform="rotate(57.29577951308232,0,0) translate(-306,-164) translate(332,164) rotate(-57.29577951308232,0,0)"><text fill="" stroke="none" font-family="helvetica" font-size="11px" font-style="normal" font-weight="normal" text-decoration="normal" x="0" y="0" text-anchor="end" dominant-baseline="central">Google</text><g transform="rotate(57.29577951308232,0,0) translate(-332,-164) translate(359,164) rotate(-57.29577951308232,0,0)"><text fill="" stroke="none" font-family="helvetica" font-size="11px" font-style="normal" font-weight="normal" text-decoration="normal" x="0" y="0" text-anchor="end" dominant-baseline="central">bAR</text><g transform="rotate(57.29577951308232,0,0) translate(-359,-164) translate(422,164) rotate(-57.29577951308232,0,0)"><text fill="" stroke="none" font-family="helvetica" font-size="11px" font-style="normal" font-weight="normal" text-decoration="normal" x="0" y="0" text-anchor="end" dominant-baseline="central">Columbia</text><g transform="rotate(57.29577951308232,0,0) translate(-422,-164) translate(449,164) rotate(-57.29577951308232,0,0)"><text fill="" stroke="none" font-family="helvetica" font-size="11px" font-style="normal" font-weight="normal" text-decoration="normal" x="0" y="0" text-anchor="end" dominant-baseline="central">Google</text><g transform="rotate(57.29577951308232,0,0) translate(-449,-164) translate(475,164) rotate(-57.29577951308232,0,0)"><text fill="" stroke="none" font-family="helvetica" font-size="11px" font-style="normal" font-weight="normal" text-decoration="normal" x="0" y="0" text-anchor="end" dominant-baseline="central">bAR</text><g transform="rotate(57.29577951308232,0,0) translate(-475,-164) translate(538,164) rotate(-57.29577951308232,0,0)"><text fill="" stroke="none" font-family="helvetica" font-size="11px" font-style="normal" font-weight="normal" text-decoration="normal" x="0" y="0" text-anchor="end" dominant-baseline="central">Columbia</text><g transform="rotate(57.29577951308232,0,0) translate(-538,-164) translate(565,164) rotate(-57.29577951308232,0,0)"><text fill="" stroke="none" font-family="helvetica" font-size="11px" font-style="normal" font-weight="normal" text-decoration="normal" x="0" y="0" text-anchor="end" dominant-baseline="central">Google</text><g transform="rotate(57.29577951308232,0,0) translate(-565,-164) translate(591,164) rotate(-57.29577951308232,0,0)"><text fill="" stroke="none" font-family="helvetica" font-size="11px" font-style="normal" font-weight="normal" text-decoration="normal" x="0" y="0" text-anchor="end" dominant-baseline="central">bAR</text><g transform="rotate(57.29577951308232,0,0) translate(-591,-164) translate(655,164) rotate(-57.29577951308232,0,0)"><text fill="" stroke="none" font-family="helvetica" font-size="11px" font-style="normal" font-weight="normal" text-decoration="normal" x="0" y="0" text-anchor="end" dominant-baseline="central">Columbia</text><g transform="rotate(57.29577951308232,0,0) translate(-655,-164) translate(681,164) rotate(-57.29577951308232,0,0)"><text fill="" stroke="none" font-family="helvetica" font-size="11px" font-style="normal" font-weight="normal" text-decoration="normal" x="0" y="0" text-anchor="end" dominant-baseline="central">Google</text><g transform="rotate(57.29577951308232,0,0) translate(-681,-164) translate(708,164) rotate(-57.29577951308232,0,0)"><text fill="" stroke="none" font-family="helvetica" font-size="11px" font-style="normal" font-weight="normal" text-decoration="normal" x="0" y="0" text-anchor="end" dominant-baseline="central">bAR</text><g transform="rotate(57.29577951308232,0,0) translate(-708,-164) translate(771,164) rotate(-57.29577951308232,0,0)"><text fill="" stroke="none" font-family="helvetica" font-size="11px" font-style="normal" font-weight="normal" text-decoration="normal" x="0" y="0" text-anchor="end" dominant-baseline="central">Columbia</text><g transform="rotate(57.29577951308232,0,0) translate(-771,-164) translate(798,164) rotate(-57.29577951308232,0,0)"><text fill="" stroke="none" font-family="helvetica" font-size="11px" font-style="normal" font-weight="normal" text-decoration="normal" x="0" y="0" text-anchor="end" dominant-baseline="central">Google</text><g transform="rotate(57.29577951308232,0,0) translate(-798,-164) translate(824,164) rotate(-57.29577951308232,0,0)"><text fill="" stroke="none" font-family="helvetica" font-size="11px" font-style="normal" font-weight="normal" text-decoration="normal" x="0" y="0" text-anchor="end" dominant-baseline="central">bAR</text><g transform="rotate(57.29577951308232,0,0) translate(-824,-164) translate(99,216) rotate(0,0,0)"><text fill="" stroke="none" font-family="helvetica" font-size="11px" font-style="normal" font-weight="bold" text-decoration="normal" x="0" y="0" text-anchor="middle" dominant-baseline="hanging">05/11</text><g transform="rotate(0,0,0) translate(-99,-216) translate(216,216) rotate(0,0,0)"><text fill="" stroke="none" font-family="helvetica" font-size="11px" font-style="normal" font-weight="bold" text-decoration="normal" x="0" y="0" text-anchor="middle" dominant-baseline="hanging">05/18</text><g transform="rotate(0,0,0) translate(-216,-216) translate(332,216) rotate(0,0,0)"><text fill="" stroke="none" font-family="helvetica" font-size="11px" font-style="normal" font-weight="bold" text-decoration="normal" x="0" y="0" text-anchor="middle" dominant-baseline="hanging">05/25</text><g transform="rotate(0,0,0) translate(-332,-216) translate(449,216) rotate(0,0,0)"><text fill="" stroke="none" font-family="helvetica" font-size="11px" font-style="normal" font-weight="bold" text-decoration="normal" x="0" y="0" text-anchor="middle" dominant-baseline="hanging">05/30</text><g transform="rotate(0,0,0) translate(-449,-216) translate(565,216) rotate(0,0,0)"><text fill="" stroke="none" font-family="helvetica" font-size="11px" font-style="normal" font-weight="bold" text-decoration="normal" x="0" y="0" text-anchor="middle" dominant-baseline="hanging">06/08</text><g transform="rotate(0,0,0) translate(-565,-216) translate(681,216) rotate(0,0,0)"><text fill="" stroke="none" font-family="helvetica" font-size="11px" font-style="normal" font-weight="bold" text-decoration="normal" x="0" y="0" text-anchor="middle" dominant-baseline="hanging">06/20</text><g transform="rotate(0,0,0) translate(-681,-216) translate(798,216) rotate(0,0,0)"><text fill="" stroke="none" font-family="helvetica" font-size="11px" font-style="normal" font-weight="bold" text-decoration="normal" x="0" y="0" text-anchor="middle" dominant-baseline="hanging">06/27</text><g transform="rotate(0,0,0) translate(-798,-216) translate(449,235) rotate(0,0,0)"><text fill="" stroke="none" font-family="helvetica" font-size="13px" font-style="italic" font-weight="normal" text-decoration="normal" x="0" y="0" text-anchor="middle" dominant-baseline="hanging">Projection date</text><g transform="rotate(0,0,0) translate(-449,-235)"><path fill="none" stroke="" paint-order="fill stroke markers" d=" M 158 218 L 158 156"/><path fill="none" stroke="" paint-order="fill stroke markers" d=" M 274 218 L 274 156"/><path fill="none" stroke="" paint-order="fill stroke markers" d=" M 390 218 L 390 156"/><path fill="none" stroke="" paint-order="fill stroke markers" d=" M 507 218 L 507 156"/><path fill="none" stroke="" paint-order="fill stroke markers" d=" M 623 218 L 623 156"/><path fill="none" stroke="" paint-order="fill stroke markers" d=" M 739 218 L 739 156"/></g></g></g></g></g></g></g></g></g></g></g></g></g></g></g></g></g></g></g></g></g></g></g></g></g></g></g></g></g></g></g></g><g><g fill="#444444"><path fill="none" stroke="black" paint-order="fill stroke markers" d=" M 52 153 L 52 28" stroke-linejoin="bevel" stroke-miterlimit="10"/><path fill="none" stroke="black" paint-order="fill stroke markers" d=" M 46 153 L 54 153" stroke-linejoin="bevel" stroke-miterlimit="10"/><path fill="none" stroke="black" paint-order="fill stroke markers" d=" M 46 125 L 54 125" stroke-linejoin="bevel" stroke-miterlimit="10"/><path fill="none" stroke="black" paint-order="fill stroke markers" d=" M 46 96 L 54 96" stroke-linejoin="bevel" stroke-miterlimit="10"/><path fill="none" stroke="black" paint-order="fill stroke markers" d=" M 46 68 L 54 68" stroke-linejoin="bevel" stroke-miterlimit="10"/><path fill="none" stroke="black" paint-order="fill stroke markers" d=" M 46 39 L 54 39" stroke-linejoin="bevel" stroke-miterlimit="10"/><path fill="none" stroke="black" paint-order="fill stroke markers" d=" M 48 153 L 52 153" stroke-linejoin="bevel" stroke-miterlimit="10"/><path fill="none" stroke="black" paint-order="fill stroke markers" d=" M 48 147 L 52 147" stroke-linejoin="bevel" stroke-miterlimit="10"/><path fill="none" stroke="black" paint-order="fill stroke markers" d=" M 48 142 L 52 142" stroke-linejoin="bevel" stroke-miterlimit="10"/><path fill="none" stroke="black" paint-order="fill stroke markers" d=" M 48 136 L 52 136" stroke-linejoin="bevel" stroke-miterlimit="10"/><path fill="none" stroke="black" paint-order="fill stroke markers" d=" M 48 130 L 52 130" stroke-linejoin="bevel" stroke-miterlimit="10"/><path fill="none" stroke="black" paint-order="fill stroke markers" d=" M 48 125 L 52 125" stroke-linejoin="bevel" stroke-miterlimit="10"/><path fill="none" stroke="black" paint-order="fill stroke markers" d=" M 48 119 L 52 119" stroke-linejoin="bevel" stroke-miterlimit="10"/><path fill="none" stroke="black" paint-order="fill stroke markers" d=" M 48 113 L 52 113" stroke-linejoin="bevel" stroke-miterlimit="10"/><path fill="none" stroke="black" paint-order="fill stroke markers" d=" M 48 107 L 52 107" stroke-linejoin="bevel" stroke-miterlimit="10"/><path fill="none" stroke="black" paint-order="fill stroke markers" d=" M 48 102 L 52 102" stroke-linejoin="bevel" stroke-miterlimit="10"/><path fill="none" stroke="black" paint-order="fill stroke markers" d=" M 48 96 L 52 96" stroke-linejoin="bevel" stroke-miterlimit="10"/><path fill="none" stroke="black" paint-order="fill stroke markers" d=" M 48 90 L 52 90" stroke-linejoin="bevel" stroke-miterlimit="10"/><path fill="none" stroke="black" paint-order="fill stroke markers" d=" M 48 85 L 52 85" stroke-linejoin="bevel" stroke-miterlimit="10"/><path fill="none" stroke="black" paint-order="fill stroke markers" d=" M 48 79 L 52 79" stroke-linejoin="bevel" stroke-miterlimit="10"/><path fill="none" stroke="black" paint-order="fill stroke markers" d=" M 48 73 L 52 73" stroke-linejoin="bevel" stroke-miterlimit="10"/><path fill="none" stroke="black" paint-order="fill stroke markers" d=" M 48 68 L 52 68" stroke-linejoin="bevel" stroke-miterlimit="10"/><path fill="none" stroke="black" paint-order="fill stroke markers" d=" M 48 62 L 52 62" stroke-linejoin="bevel" stroke-miterlimit="10"/><path fill="none" stroke="black" paint-order="fill stroke markers" d=" M 48 56 L 52 56" stroke-linejoin="bevel" stroke-miterlimit="10"/><path fill="none" stroke="black" paint-order="fill stroke markers" d=" M 48 51 L 52 51" stroke-linejoin="bevel" stroke-miterlimit="10"/><path fill="none" stroke="black" paint-order="fill stroke markers" d=" M 48 45 L 52 45" stroke-linejoin="bevel" stroke-miterlimit="10"/><path fill="none" stroke="black" paint-order="fill stroke markers" d=" M 48 39 L 52 39" stroke-linejoin="bevel" stroke-miterlimit="10"/><path fill="" stroke="black" paint-order="fill stroke markers" d=" M 48 33 L 52 33" stroke-linejoin="bevel" stroke-miterlimit="10"/><g transform="translate(41,153) rotate(0,0,0)"><text fill="" stroke="none" font-family="helvetica" font-size="11px" font-style="normal" font-weight="normal" text-decoration="normal" x="0" y="0" text-anchor="end" dominant-baseline="central">0</text><g transform="rotate(0,0,0) translate(-41,-153) translate(41,125) rotate(0,0,0)"><text fill="" stroke="none" font-family="helvetica" font-size="11px" font-style="normal" font-weight="normal" text-decoration="normal" x="0" y="0" text-anchor="end" dominant-baseline="central">20</text><g transform="rotate(0,0,0) translate(-41,-125) translate(41,96) rotate(0,0,0)"><text fill="" stroke="none" font-family="helvetica" font-size="11px" font-style="normal" font-weight="normal" text-decoration="normal" x="0" y="0" text-anchor="end" dominant-baseline="central">40</text><g transform="rotate(0,0,0) translate(-41,-96) translate(41,68) rotate(0,0,0)"><text fill="" stroke="none" font-family="helvetica" font-size="11px" font-style="normal" font-weight="normal" text-decoration="normal" x="0" y="0" text-anchor="end" dominant-baseline="central">60</text><g transform="rotate(0,0,0) translate(-41,-68) translate(41,39) rotate(0,0,0)"><text fill="" stroke="none" font-family="helvetica" font-size="11px" font-style="normal" font-weight="normal" text-decoration="normal" x="0" y="0" text-anchor="end" dominant-baseline="central">80</text><g transform="rotate(0,0,0) translate(-41,-39) translate(23,91) rotate(-90,0,0)"><text fill="" stroke="none" font-family="helvetica" font-size="13px" font-style="italic" font-weight="normal" text-decoration="normal" x="0" y="0" text-anchor="middle" dominant-baseline="alphabetic">Avg. MAE</text><g transform="rotate(90,0,0) translate(-23,-91)"/></g></g></g></g></g></g></g></g></g></g></svg>