<svg version="1.1" xmlns="http://www.w3.org/2000/svg" xmlns:xlink="http://www.w3.org/1999/xlink" width="850" height="250" style="width: 850px; height: 250px;"><defs><clipPath id="lSzKOcgAGvcF"><path fill="none" stroke="none" d=" M 52 28 L 845 28 L 845 153 L 52 153 L 52 28 Z"/></clipPath><clipPath id="ukKBcSMGSAuh"><path fill="none" stroke="none" d=" M 52 28 L 845 28 L 845 153 L 52 153 L 52 28 Z"/></clipPath><clipPath id="DqqIILMVfZfZ"><path fill="none" stroke="none" d=" M 52 28 L 845 28 L 845 153 L 52 153 L 52 28 Z"/></clipPath><clipPath id="JQCEwLeKTgSP"><path fill="none" stroke="none" d=" M 52 28 L 845 28 L 845 153 L 52 153 L 52 28 Z"/></clipPath></defs><g><g transform="scale(1,1) translate(0.5,0.5)"><rect fill="#FFFFFF" stroke="none" x="0" y="0" width="850" height="250"/><rect fill="#ffffff" stroke="none" x="0" y="0" width="850" height="250"/><rect fill="#FFFFFF" stroke="none" x="52" y="28" width="793" height="125"/><rect fill="#ffffff" stroke="none" x="52" y="28" width="793" height="125"/><g><rect fill="none" stroke="#e5e5e5" x="52" y="28" width="793" height="125" stroke-linejoin="bevel" stroke-miterlimit="10"/></g><g clip-path="url(#lSzKOcgAGvcF)"><g><g/></g></g><g clip-path="url(#ukKBcSMGSAuh)"><g><g><path fill="none" stroke="#e5e5e5" paint-order="fill stroke markers" d=" M 52 126 L 845 126" stroke-linejoin="bevel" stroke-miterlimit="10"/><path fill="none" stroke="#e5e5e5" paint-order="fill stroke markers" d=" M 52 100 L 845 100" stroke-linejoin="bevel" stroke-miterlimit="10"/><path fill="none" stroke="#e5e5e5" paint-order="fill stroke markers" d=" M 52 73 L 845 73" stroke-linejoin="bevel" stroke-miterlimit="10"/><path fill="none" stroke="#e5e5e5" paint-order="fill stroke markers" d=" M 52 47 L 845 47" stroke-linejoin="bevel" stroke-miterlimit="10"/></g></g></g><g clip-path="url(#DqqIILMVfZfZ)"><g><g fill="#444444"><path fill="" stroke="none" d=""/><g transform="translate(72.99646525276778,99.11947278911565) rotate(0,0,0)"><path fill="none" stroke="none"/><text fill="" stroke="none" font-family="helvetica" font-size="0.75em" font-style="normal" font-weight="normal" text-decoration="normal" x="0" y="0" text-anchor="middle" dominant-baseline="text-after-edge">19.9</text></g></g><g fill="#444444"><path fill="" stroke="none" d=""/><g transform="translate(99.4403761504602,82.90986394557822) rotate(0,0,0)"><path fill="none" stroke="none"/><text fill="" stroke="none" font-family="helvetica" font-size="0.75em" font-style="normal" font-weight="normal" text-decoration="normal" x="0" y="0" text-anchor="middle" dominant-baseline="text-after-edge">26</text></g></g><g fill="#444444"><path fill="" stroke="none" d=""/><g transform="translate(125.8842870481526,119.58078231292518) rotate(0,0,0)"><path fill="none" stroke="none"/><text fill="" stroke="none" font-family="helvetica" font-size="0.75em" font-style="normal" font-weight="normal" text-decoration="normal" x="0" y="0" text-anchor="middle" dominant-baseline="text-after-edge">12.2</text></g></g><g fill="#444444"><path fill="" stroke="none" d=""/><g transform="translate(189.3496732026144,101.5110544217687) rotate(0,0,0)"><path fill="none" stroke="none"/><text fill="" stroke="none" font-family="helvetica" font-size="0.75em" font-style="normal" font-weight="normal" text-decoration="normal" x="0" y="0" text-anchor="middle" dominant-baseline="text-after-edge">19</text></g></g><g fill="#444444"><path fill="" stroke="none" d=""/><g transform="translate(215.79358410030682,102.04251700680271) rotate(0,0,0)"><path fill="none" stroke="none"/><text fill="" stroke="none" font-family="helvetica" font-size="0.75em" font-style="normal" font-weight="normal" text-decoration="normal" x="0" y="0" text-anchor="middle" dominant-baseline="text-after-edge">18.8</text></g></g><g fill="#444444"><path fill="" stroke="none" d=""/><g transform="translate(242.23749499799922,119.58078231292518) rotate(0,0,0)"><path fill="none" stroke="none"/><text fill="" stroke="none" font-family="helvetica" font-size="0.75em" font-style="normal" font-weight="normal" text-decoration="normal" x="0" y="0" text-anchor="middle" dominant-baseline="text-after-edge">12.2</text></g></g><g fill="#444444"><path fill="" stroke="none" d=""/><g transform="translate(305.70288115246103,99.11947278911565) rotate(0,0,0)"><path fill="none" stroke="none"/><text fill="" stroke="none" font-family="helvetica" font-size="0.75em" font-style="normal" font-weight="normal" text-decoration="normal" x="0" y="0" text-anchor="middle" dominant-baseline="text-after-edge">19.9</text></g></g><g fill="#444444"><path fill="" stroke="none" d=""/><g transform="translate(332.1467920501534,96.72789115646258) rotate(0,0,0)"><path fill="none" stroke="none"/><text fill="" stroke="none" font-family="helvetica" font-size="0.75em" font-style="normal" font-weight="normal" text-decoration="normal" x="0" y="0" text-anchor="middle" dominant-baseline="text-after-edge">20.8</text></g></g><g fill="#444444"><path fill="" stroke="none" d=""/><g transform="translate(358.59070294784584,119.31505102040816) rotate(0,0,0)"><path fill="none" stroke="none"/><text fill="" stroke="none" font-family="helvetica" font-size="0.75em" font-style="normal" font-weight="normal" text-decoration="normal" x="0" y="0" text-anchor="middle" dominant-baseline="text-after-edge">12.3</text></g></g><g fill="#444444"><path fill="" stroke="none" d=""/><g transform="translate(422.0560891023076,99.11947278911565) rotate(0,0,0)"><path fill="none" stroke="none"/><text fill="" stroke="none" font-family="helvetica" font-size="0.75em" font-style="normal" font-weight="normal" text-decoration="normal" x="0" y="0" text-anchor="middle" dominant-baseline="text-after-edge">19.9</text></g></g><g fill="#444444"><path fill="" stroke="none" d=""/><g transform="translate(448.5,95.66496598639455) rotate(0,0,0)"><path fill="none" stroke="none"/><text fill="" stroke="none" font-family="helvetica" font-size="0.75em" font-style="normal" font-weight="normal" text-decoration="normal" x="0" y="0" text-anchor="middle" dominant-baseline="text-after-edge">21.2</text></g></g><g fill="#444444"><path fill="" stroke="none" d=""/><g transform="translate(474.94391089769243,117.45493197278911) rotate(0,0,0)"><path fill="none" stroke="none"/><text fill="" stroke="none" font-family="helvetica" font-size="0.75em" font-style="normal" font-weight="normal" text-decoration="normal" x="0" y="0" text-anchor="middle" dominant-baseline="text-after-edge">13</text></g></g><g fill="#444444"><path fill="" stroke="none" d=""/><g transform="translate(538.4092970521542,93.5391156462585) rotate(0,0,0)"><path fill="none" stroke="none"/><text fill="" stroke="none" font-family="helvetica" font-size="0.75em" font-style="normal" font-weight="normal" text-decoration="normal" x="0" y="0" text-anchor="middle" dominant-baseline="text-after-edge">22</text></g></g><g fill="#444444"><path fill="" stroke="none" d=""/><g transform="translate(564.8532079498467,96.72789115646258) rotate(0,0,0)"><path fill="none" stroke="none"/><text fill="" stroke="none" font-family="helvetica" font-size="0.75em" font-style="normal" font-weight="normal" text-decoration="normal" x="0" y="0" text-anchor="middle" dominant-baseline="text-after-edge">20.8</text></g></g><g fill="#444444"><path fill="" stroke="none" d=""/><g transform="translate(591.2971188475391,117.18920068027211) rotate(0,0,0)"><path fill="none" stroke="none"/><text fill="" stroke="none" font-family="helvetica" font-size="0.75em" font-style="normal" font-weight="normal" text-decoration="normal" x="0" y="0" text-anchor="middle" dominant-baseline="text-after-edge">13.1</text></g></g><g fill="#444444"><path fill="" stroke="none" d=""/><g transform="translate(654.7625050020008,93.5391156462585) rotate(0,0,0)"><path fill="none" stroke="none"/><text fill="" stroke="none" font-family="helvetica" font-size="0.75em" font-style="normal" font-weight="normal" text-decoration="normal" x="0" y="0" text-anchor="middle" dominant-baseline="text-after-edge">22</text></g></g><g fill="#444444"><path fill="" stroke="none" d=""/><g transform="translate(681.2064158996932,89.02168367346938) rotate(0,0,0)"><path fill="none" stroke="none"/><text fill="" stroke="none" font-family="helvetica" font-size="0.75em" font-style="normal" font-weight="normal" text-decoration="normal" x="0" y="0" text-anchor="middle" dominant-baseline="text-after-edge">23.7</text></g></g><g fill="#444444"><path fill="" stroke="none" d=""/><g transform="translate(707.6503267973857,102.83971088435374) rotate(0,0,0)"><path fill="none" stroke="none"/><text fill="" stroke="none" font-family="helvetica" font-size="0.75em" font-style="normal" font-weight="normal" text-decoration="normal" x="0" y="0" text-anchor="middle" dominant-baseline="text-after-edge">18.5</text></g></g><g fill="#444444"><path fill="" stroke="none" d=""/><g transform="translate(771.1157129518474,47.833333333333314) rotate(0,0,0)"><path fill="none" stroke="none"/><text fill="" stroke="none" font-family="helvetica" font-size="0.75em" font-style="normal" font-weight="normal" text-decoration="normal" x="0" y="0" text-anchor="middle" dominant-baseline="text-after-edge">39.2</text></g></g><g fill="#444444"><path fill="" stroke="none" d=""/><g transform="translate(797.5596238495398,60.32270408163265) rotate(0,0,0)"><path fill="none" stroke="none"/><text fill="" stroke="none" font-family="helvetica" font-size="0.75em" font-style="normal" font-weight="normal" text-decoration="normal" x="0" y="0" text-anchor="middle" dominant-baseline="text-after-edge">34.5</text></g></g><g fill="#444444"><path fill="" stroke="none" d=""/><g transform="translate(824.0035347472323,97.2593537414966) rotate(0,0,0)"><path fill="none" stroke="none"/><text fill="" stroke="none" font-family="helvetica" font-size="0.75em" font-style="normal" font-weight="normal" text-decoration="normal" x="0" y="0" text-anchor="middle" dominant-baseline="text-after-edge">20.6</text></g></g></g></g><g clip-path="url(#JQCEwLeKTgSP)"><g><g><path fill="none" stroke="none"/><path fill="#fc8d59" stroke="none" paint-order="stroke fill markers" d=" M 61.096705348806196 100.11947278911565 L 84.89622515672936 100.11947278911565 L 84.89622515672936 153 L 61.096705348806196 153 L 61.096705348806196 100.11947278911565 Z"/><path fill="none" stroke="black" paint-order="fill stroke markers" d=" M 61.096705348806196 100.11947278911565 L 84.89622515672936 100.11947278911565 L 84.89622515672936 153 L 61.096705348806196 153 L 61.096705348806196 100.11947278911565 Z" stroke-linejoin="bevel" stroke-miterlimit="10"/><path fill="#ffffbf" stroke="none" paint-order="stroke fill markers" d=" M 87.54061624649862 83.90986394557822 L 111.34013605442178 83.90986394557822 L 111.34013605442178 153 L 87.54061624649862 153 L 87.54061624649862 83.90986394557822 Z"/><path fill="none" stroke="black" paint-order="fill stroke markers" d=" M 87.54061624649862 83.90986394557822 L 111.34013605442178 83.90986394557822 L 111.34013605442178 153 L 87.54061624649862 153 L 87.54061624649862 83.90986394557822 Z" stroke-linejoin="bevel" stroke-miterlimit="10"/><path fill="#91bfdb" stroke="none" paint-order="stroke fill markers" d=" M 113.98452714419102 120.58078231292518 L 137.78404695211418 120.58078231292518 L 137.78404695211418 153 L 113.98452714419102 153 L 113.98452714419102 120.58078231292518 Z"/><path fill="none" stroke="black" paint-order="fill stroke markers" d=" M 113.98452714419102 120.58078231292518 L 137.78404695211418 120.58078231292518 L 137.78404695211418 153 L 113.98452714419102 153 L 113.98452714419102 120.58078231292518 Z" stroke-linejoin="bevel" stroke-miterlimit="10"/><path fill="#fc8d59" stroke="none" paint-order="stroke fill markers" d=" M 177.4499132986528 102.5110544217687 L 201.24943310657602 102.5110544217687 L 201.24943310657602 153 L 177.4499132986528 153 L 177.4499132986528 102.5110544217687 Z"/><path fill="none" stroke="black" paint-order="fill stroke markers" d=" M 177.4499132986528 102.5110544217687 L 201.24943310657602 102.5110544217687 L 201.24943310657602 153 L 177.4499132986528 153 L 177.4499132986528 102.5110544217687 Z" stroke-linejoin="bevel" stroke-miterlimit="10"/><path fill="#ffffbf" stroke="none" paint-order="stroke fill markers" d=" M 203.89382419634524 103.04251700680271 L 227.6933440042684 103.04251700680271 L 227.6933440042684 153 L 203.89382419634524 153 L 203.89382419634524 103.04251700680271 Z"/><path fill="none" stroke="black" paint-order="fill stroke markers" d=" M 203.89382419634524 103.04251700680271 L 227.6933440042684 103.04251700680271 L 227.6933440042684 153 L 203.89382419634524 153 L 203.89382419634524 103.04251700680271 Z" stroke-linejoin="bevel" stroke-miterlimit="10"/><path fill="#91bfdb" stroke="none" paint-order="stroke fill markers" d=" M 230.33773509403764 120.58078231292518 L 254.1372549019608 120.58078231292518 L 254.1372549019608 153 L 230.33773509403764 153 L 230.33773509403764 120.58078231292518 Z"/><path fill="none" stroke="black" paint-order="fill stroke markers" d=" M 230.33773509403764 120.58078231292518 L 254.1372549019608 120.58078231292518 L 254.1372549019608 153 L 230.33773509403764 153 L 230.33773509403764 120.58078231292518 Z" stroke-linejoin="bevel" stroke-miterlimit="10"/><path fill="#fc8d59" stroke="none" paint-order="stroke fill markers" d=" M 293.80312124849945 100.11947278911565 L 317.6026410564226 100.11947278911565 L 317.6026410564226 153 L 293.80312124849945 153 L 293.80312124849945 100.11947278911565 Z"/><path fill="none" stroke="black" paint-order="fill stroke markers" d=" M 293.80312124849945 100.11947278911565 L 317.6026410564226 100.11947278911565 L 317.6026410564226 153 L 293.80312124849945 153 L 293.80312124849945 100.11947278911565 Z" stroke-linejoin="bevel" stroke-miterlimit="10"/><path fill="#ffffbf" stroke="none" paint-order="stroke fill markers" d=" M 320.2470321461918 97.72789115646258 L 344.046551954115 97.72789115646258 L 344.046551954115 153 L 320.2470321461918 153 L 320.2470321461918 97.72789115646258 Z"/><path fill="none" stroke="black" paint-order="fill stroke markers" d=" M 320.2470321461918 97.72789115646258 L 344.046551954115 97.72789115646258 L 344.046551954115 153 L 320.2470321461918 153 L 320.2470321461918 97.72789115646258 Z" stroke-linejoin="bevel" stroke-miterlimit="10"/><path fill="#91bfdb" stroke="none" paint-order="stroke fill markers" d=" M 346.6909430438843 120.31505102040816 L 370.49046285180737 120.31505102040816 L 370.49046285180737 153 L 346.6909430438843 153 L 346.6909430438843 120.31505102040816 Z"/><path fill="none" stroke="black" paint-order="fill stroke markers" d=" M 346.6909430438843 120.31505102040816 L 370.49046285180737 120.31505102040816 L 370.49046285180737 153 L 346.6909430438843 153 L 346.6909430438843 120.31505102040816 Z" stroke-linejoin="bevel" stroke-miterlimit="10"/><path fill="#fc8d59" stroke="none" paint-order="stroke fill markers" d=" M 410.15632919834604 100.11947278911565 L 433.9558490062692 100.11947278911565 L 433.9558490062692 153 L 410.15632919834604 153 L 410.15632919834604 100.11947278911565 Z"/><path fill="none" stroke="black" paint-order="fill stroke markers" d=" M 410.15632919834604 100.11947278911565 L 433.9558490062692 100.11947278911565 L 433.9558490062692 153 L 410.15632919834604 153 L 410.15632919834604 100.11947278911565 Z" stroke-linejoin="bevel" stroke-miterlimit="10"/><path fill="#ffffbf" stroke="none" paint-order="stroke fill markers" d=" M 436.6002400960384 96.66496598639455 L 460.3997599039616 96.66496598639455 L 460.3997599039616 153 L 436.6002400960384 153 L 436.6002400960384 96.66496598639455 Z"/><path fill="none" stroke="black" paint-order="fill stroke markers" d=" M 436.6002400960384 96.66496598639455 L 460.3997599039616 96.66496598639455 L 460.3997599039616 153 L 436.6002400960384 153 L 436.6002400960384 96.66496598639455 Z" stroke-linejoin="bevel" stroke-miterlimit="10"/><path fill="#91bfdb" stroke="none" paint-order="stroke fill markers" d=" M 463.0441509937308 118.45493197278911 L 486.84367080165407 118.45493197278911 L 486.84367080165407 153 L 463.0441509937308 153 L 463.0441509937308 118.45493197278911 Z"/><path fill="none" stroke="black" paint-order="fill stroke markers" d=" M 463.0441509937308 118.45493197278911 L 486.84367080165407 118.45493197278911 L 486.84367080165407 153 L 463.0441509937308 153 L 463.0441509937308 118.45493197278911 Z" stroke-linejoin="bevel" stroke-miterlimit="10"/><path fill="#fc8d59" stroke="none" paint-order="stroke fill markers" d=" M 526.5095371481927 94.5391156462585 L 550.3090569561157 94.5391156462585 L 550.3090569561157 153 L 526.5095371481927 153 L 526.5095371481927 94.5391156462585 Z"/><path fill="none" stroke="black" paint-order="fill stroke markers" d=" M 526.5095371481927 94.5391156462585 L 550.3090569561157 94.5391156462585 L 550.3090569561157 153 L 526.5095371481927 153 L 526.5095371481927 94.5391156462585 Z" stroke-linejoin="bevel" stroke-miterlimit="10"/><path fill="#ffffbf" stroke="none" paint-order="stroke fill markers" d=" M 552.9534480458851 97.72789115646258 L 576.7529678538083 97.72789115646258 L 576.7529678538083 153 L 552.9534480458851 153 L 552.9534480458851 97.72789115646258 Z"/><path fill="none" stroke="black" paint-order="fill stroke markers" d=" M 552.9534480458851 97.72789115646258 L 576.7529678538083 97.72789115646258 L 576.7529678538083 153 L 552.9534480458851 153 L 552.9534480458851 97.72789115646258 Z" stroke-linejoin="bevel" stroke-miterlimit="10"/><path fill="#91bfdb" stroke="none" paint-order="stroke fill markers" d=" M 579.3973589435775 118.18920068027211 L 603.1968787515007 118.18920068027211 L 603.1968787515007 153 L 579.3973589435775 153 L 579.3973589435775 118.18920068027211 Z"/><path fill="none" stroke="black" paint-order="fill stroke markers" d=" M 579.3973589435775 118.18920068027211 L 603.1968787515007 118.18920068027211 L 603.1968787515007 153 L 579.3973589435775 153 L 579.3973589435775 118.18920068027211 Z" stroke-linejoin="bevel" stroke-miterlimit="10"/><path fill="#fc8d59" stroke="none" paint-order="stroke fill markers" d=" M 642.8627450980392 94.5391156462585 L 666.6622649059624 94.5391156462585 L 666.6622649059624 153 L 642.8627450980392 153 L 642.8627450980392 94.5391156462585 Z"/><path fill="none" stroke="black" paint-order="fill stroke markers" d=" M 642.8627450980392 94.5391156462585 L 666.6622649059624 94.5391156462585 L 666.6622649059624 153 L 642.8627450980392 153 L 642.8627450980392 94.5391156462585 Z" stroke-linejoin="bevel" stroke-miterlimit="10"/><path fill="#ffffbf" stroke="none" paint-order="stroke fill markers" d=" M 669.3066559957316 90.02168367346938 L 693.1061758036548 90.02168367346938 L 693.1061758036548 153 L 669.3066559957316 153 L 669.3066559957316 90.02168367346938 Z"/><path fill="none" stroke="black" paint-order="fill stroke markers" d=" M 669.3066559957316 90.02168367346938 L 693.1061758036548 90.02168367346938 L 693.1061758036548 153 L 669.3066559957316 153 L 669.3066559957316 90.02168367346938 Z" stroke-linejoin="bevel" stroke-miterlimit="10"/><path fill="#91bfdb" stroke="none" paint-order="stroke fill markers" d=" M 695.7505668934241 103.83971088435374 L 719.5500867013473 103.83971088435374 L 719.5500867013473 153 L 695.7505668934241 153 L 695.7505668934241 103.83971088435374 Z"/><path fill="none" stroke="black" paint-order="fill stroke markers" d=" M 695.7505668934241 103.83971088435374 L 719.5500867013473 103.83971088435374 L 719.5500867013473 153 L 695.7505668934241 153 L 695.7505668934241 103.83971088435374 Z" stroke-linejoin="bevel" stroke-miterlimit="10"/><path fill="#fc8d59" stroke="none" paint-order="stroke fill markers" d=" M 759.2159530478858 48.833333333333314 L 783.015472855809 48.833333333333314 L 783.015472855809 153 L 759.2159530478858 153 L 759.2159530478858 48.833333333333314 Z"/><path fill="none" stroke="black" paint-order="fill stroke markers" d=" M 759.2159530478858 48.833333333333314 L 783.015472855809 48.833333333333314 L 783.015472855809 153 L 759.2159530478858 153 L 759.2159530478858 48.833333333333314 Z" stroke-linejoin="bevel" stroke-miterlimit="10"/><path fill="#ffffbf" stroke="none" paint-order="stroke fill markers" d=" M 785.6598639455782 61.32270408163265 L 809.4593837535014 61.32270408163265 L 809.4593837535014 153 L 785.6598639455782 153 L 785.6598639455782 61.32270408163265 Z"/><path fill="none" stroke="black" paint-order="fill stroke markers" d=" M 785.6598639455782 61.32270408163265 L 809.4593837535014 61.32270408163265 L 809.4593837535014 153 L 785.6598639455782 153 L 785.6598639455782 61.32270408163265 Z" stroke-linejoin="bevel" stroke-miterlimit="10"/><path fill="#91bfdb" stroke="none" paint-order="stroke fill markers" d=" M 812.1037748432707 98.2593537414966 L 835.9032946511938 98.2593537414966 L 835.9032946511938 153 L 812.1037748432707 153 L 812.1037748432707 98.2593537414966 Z"/><path fill="none" stroke="black" paint-order="fill stroke markers" d=" M 812.1037748432707 98.2593537414966 L 835.9032946511938 98.2593537414966 L 835.9032946511938 153 L 812.1037748432707 153 L 812.1037748432707 98.2593537414966 Z" stroke-linejoin="bevel" stroke-miterlimit="10"/></g></g></g><g><g fill="#444444"><path fill="" stroke="none" d=""/><g transform="translate(52,23)"><path fill="none" stroke="none"/><text fill="" stroke="none" font-family="helvetica" font-size="13px" font-style="normal" font-weight="bold" text-decoration="normal" x="0" y="0" text-anchor="start" dominant-baseline="text-after-edge">US Counties - 7 day projection</text></g></g></g><g><g fill="#444444" stroke="lightgrey" stroke-linejoin="bevel" stroke-miterlimit="10" stroke-width="2"><path fill="none" stroke="black" paint-order="fill stroke markers" d=" M 52 153 L 845 153" stroke-linejoin="bevel" stroke-miterlimit="10"/><path fill="none" stroke="black" paint-order="fill stroke markers" d=" M 73 159 L 73 151" stroke-linejoin="bevel" stroke-miterlimit="10"/><path fill="none" stroke="black" paint-order="fill stroke markers" d=" M 99 159 L 99 151" stroke-linejoin="bevel" stroke-miterlimit="10"/><path fill="none" stroke="black" paint-order="fill stroke markers" d=" M 126 159 L 126 151" stroke-linejoin="bevel" stroke-miterlimit="10"/><path fill="none" stroke="black" paint-order="fill stroke markers" d=" M 189 159 L 189 151" stroke-linejoin="bevel" stroke-miterlimit="10"/><path fill="none" stroke="black" paint-order="fill stroke markers" d=" M 216 159 L 216 151" stroke-linejoin="bevel" stroke-miterlimit="10"/><path fill="none" stroke="black" paint-order="fill stroke markers" d=" M 242 159 L 242 151" stroke-linejoin="bevel" stroke-miterlimit="10"/><path fill="none" stroke="black" paint-order="fill stroke markers" d=" M 306 159 L 306 151" stroke-linejoin="bevel" stroke-miterlimit="10"/><path fill="none" stroke="black" paint-order="fill stroke markers" d=" M 332 159 L 332 151" stroke-linejoin="bevel" stroke-miterlimit="10"/><path fill="none" stroke="black" paint-order="fill stroke markers" d=" M 359 159 L 359 151" stroke-linejoin="bevel" stroke-miterlimit="10"/><path fill="none" stroke="black" paint-order="fill stroke markers" d=" M 422 159 L 422 151" stroke-linejoin="bevel" stroke-miterlimit="10"/><path fill="none" stroke="black" paint-order="fill stroke markers" d=" M 449 159 L 449 151" stroke-linejoin="bevel" stroke-miterlimit="10"/><path fill="none" stroke="black" paint-order="fill stroke markers" d=" M 475 159 L 475 151" stroke-linejoin="bevel" stroke-miterlimit="10"/><path fill="none" stroke="black" paint-order="fill stroke markers" d=" M 538 159 L 538 151" stroke-linejoin="bevel" stroke-miterlimit="10"/><path fill="none" stroke="black" paint-order="fill stroke markers" d=" M 565 159 L 565 151" stroke-linejoin="bevel" stroke-miterlimit="10"/><path fill="none" stroke="black" paint-order="fill stroke markers" d=" M 591 159 L 591 151" stroke-linejoin="bevel" stroke-miterlimit="10"/><path fill="none" stroke="black" paint-order="fill stroke markers" d=" M 655 159 L 655 151" stroke-linejoin="bevel" stroke-miterlimit="10"/><path fill="none" stroke="black" paint-order="fill stroke markers" d=" M 681 159 L 681 151" stroke-linejoin="bevel" stroke-miterlimit="10"/><path fill="none" stroke="black" paint-order="fill stroke markers" d=" M 708 159 L 708 151" stroke-linejoin="bevel" stroke-miterlimit="10"/><path fill="none" stroke="black" paint-order="fill stroke markers" d=" M 771 159 L 771 151" stroke-linejoin="bevel" stroke-miterlimit="10"/><path fill="none" stroke="black" paint-order="fill stroke markers" d=" M 798 159 L 798 151" stroke-linejoin="bevel" stroke-miterlimit="10"/><path fill="" stroke="" paint-order="fill stroke markers" d=" M 824 159 L 824 151" stroke-linejoin="bevel" stroke-miterlimit="10"/><g transform="translate(73,164) rotate(-57.29577951308232,0,0)"><text fill="" stroke="none" font-family="helvetica" font-size="11px" font-style="normal" font-weight="normal" text-decoration="normal" x="0" y="0" text-anchor="end" dominant-baseline="central">Columbia</text><g transform="rotate(57.29577951308232,0,0) translate(-73,-164) translate(99,164) rotate(-57.29577951308232,0,0)"><text fill="" stroke="none" font-family="helvetica" font-size="11px" font-style="normal" font-weight="normal" text-decoration="normal" x="0" y="0" text-anchor="end" dominant-baseline="central">Google</text><g transform="rotate(57.29577951308232,0,0) translate(-99,-164) translate(126,164) rotate(-57.29577951308232,0,0)"><text fill="" stroke="none" font-family="helvetica" font-size="11px" font-style="normal" font-weight="normal" text-decoration="normal" x="0" y="0" text-anchor="end" dominant-baseline="central">bAR</text><g transform="rotate(57.29577951308232,0,0) translate(-126,-164) translate(189,164) rotate(-57.29577951308232,0,0)"><text fill="" stroke="none" font-family="helvetica" font-size="11px" font-style="normal" font-weight="normal" text-decoration="normal" x="0" y="0" text-anchor="end" dominant-baseline="central">Columbia</text><g transform="rotate(57.29577951308232,0,0) translate(-189,-164) translate(216,164) rotate(-57.29577951308232,0,0)"><text fill="" stroke="none" font-family="helvetica" font-size="11px" font-style="normal" font-weight="normal" text-decoration="normal" x="0" y="0" text-anchor="end" dominant-baseline="central">Google</text><g transform="rotate(57.29577951308232,0,0) translate(-216,-164) translate(242,164) rotate(-57.29577951308232,0,0)"><text fill="" stroke="none" font-family="helvetica" font-size="11px" font-style="normal" font-weight="normal" text-decoration="normal" x="0" y="0" text-anchor="end" dominant-baseline="central">bAR</text><g transform="rotate(57.29577951308232,0,0) translate(-242,-164) translate(306,164) rotate(-57.29577951308232,0,0)"><text fill="" stroke="none" font-family="helvetica" font-size="11px" font-style="normal" font-weight="normal" text-decoration="normal" x="0" y="0" text-anchor="end" dominant-baseline="central">Columbia</text><g transform="rotate(57.29577951308232,0,0) translate(-306,-164) translate(332,164) rotate(-57.29577951308232,0,0)"><text fill="" stroke="none" font-family="helvetica" font-size="11px" font-style="normal" font-weight="normal" text-decoration="normal" x="0" y="0" text-anchor="end" dominant-baseline="central">Google</text><g transform="rotate(57.29577951308232,0,0) translate(-332,-164) translate(359,164) rotate(-57.29577951308232,0,0)"><text fill="" stroke="none" font-family="helvetica" font-size="11px" font-style="normal" font-weight="normal" text-decoration="normal" x="0" y="0" text-anchor="end" dominant-baseline="central">bAR</text><g transform="rotate(57.29577951308232,0,0) translate(-359,-164) translate(422,164) rotate(-57.29577951308232,0,0)"><text fill="" stroke="none" font-family="helvetica" font-size="11px" font-style="normal" font-weight="normal" text-decoration="normal" x="0" y="0" text-anchor="end" dominant-baseline="central">Columbia</text><g transform="rotate(57.29577951308232,0,0) translate(-422,-164) translate(449,164) rotate(-57.29577951308232,0,0)"><text fill="" stroke="none" font-family="helvetica" font-size="11px" font-style="normal" font-weight="normal" text-decoration="normal" x="0" y="0" text-anchor="end" dominant-baseline="central">Google</text><g transform="rotate(57.29577951308232,0,0) translate(-449,-164) translate(475,164) rotate(-57.29577951308232,0,0)"><text fill="" stroke="none" font-family="helvetica" font-size="11px" font-style="normal" font-weight="normal" text-decoration="normal" x="0" y="0" text-anchor="end" dominant-baseline="central">bAR</text><g transform="rotate(57.29577951308232,0,0) translate(-475,-164) translate(538,164) rotate(-57.29577951308232,0,0)"><text fill="" stroke="none" font-family="helvetica" font-size="11px" font-style="normal" font-weight="normal" text-decoration="normal" x="0" y="0" text-anchor="end" dominant-baseline="central">Columbia</text><g transform="rotate(57.29577951308232,0,0) translate(-538,-164) translate(565,164) rotate(-57.29577951308232,0,0)"><text fill="" stroke="none" font-family="helvetica" font-size="11px" font-style="normal" font-weight="normal" text-decoration="normal" x="0" y="0" text-anchor="end" dominant-baseline="central">Google</text><g transform="rotate(57.29577951308232,0,0) translate(-565,-164) translate(591,164) rotate(-57.29577951308232,0,0)"><text fill="" stroke="none" font-family="helvetica" font-size="11px" font-style="normal" font-weight="normal" text-decoration="normal" x="0" y="0" text-anchor="end" dominant-baseline="central">bAR</text><g transform="rotate(57.29577951308232,0,0) translate(-591,-164) translate(655,164) rotate(-57.29577951308232,0,0)"><text fill="" stroke="none" font-family="helvetica" font-size="11px" font-style="normal" font-weight="normal" text-decoration="normal" x="0" y="0" text-anchor="end" dominant-baseline="central">Columbia</text><g transform="rotate(57.29577951308232,0,0) translate(-655,-164) translate(681,164) rotate(-57.29577951308232,0,0)"><text fill="" stroke="none" font-family="helvetica" font-size="11px" font-style="normal" font-weight="normal" text-decoration="normal" x="0" y="0" text-anchor="end" dominant-baseline="central">Google</text><g transform="rotate(57.29577951308232,0,0) translate(-681,-164) translate(708,164) rotate(-57.29577951308232,0,0)"><text fill="" stroke="none" font-family="helvetica" font-size="11px" font-style="normal" font-weight="normal" text-decoration="normal" x="0" y="0" text-anchor="end" dominant-baseline="central">bAR</text><g transform="rotate(57.29577951308232,0,0) translate(-708,-164) translate(771,164) rotate(-57.29577951308232,0,0)"><text fill="" stroke="none" font-family="helvetica" font-size="11px" font-style="normal" font-weight="normal" text-decoration="normal" x="0" y="0" text-anchor="end" dominant-baseline="central">Columbia</text><g transform="rotate(57.29577951308232,0,0) translate(-771,-164) translate(798,164) rotate(-57.29577951308232,0,0)"><text fill="" stroke="none" font-family="helvetica" font-size="11px" font-style="normal" font-weight="normal" text-decoration="normal" x="0" y="0" text-anchor="end" dominant-baseline="central">Google</text><g transform="rotate(57.29577951308232,0,0) translate(-798,-164) translate(824,164) rotate(-57.29577951308232,0,0)"><text fill="" stroke="none" font-family="helvetica" font-size="11px" font-style="normal" font-weight="normal" text-decoration="normal" x="0" y="0" text-anchor="end" dominant-baseline="central">bAR</text><g transform="rotate(57.29577951308232,0,0) translate(-824,-164) translate(99,216) rotate(0,0,0)"><text fill="" stroke="none" font-family="helvetica" font-size="11px" font-style="normal" font-weight="bold" text-decoration="normal" x="0" y="0" text-anchor="middle" dominant-baseline="hanging">05/11</text><g transform="rotate(0,0,0) translate(-99,-216) translate(216,216) rotate(0,0,0)"><text fill="" stroke="none" font-family="helvetica" font-size="11px" font-style="normal" font-weight="bold" text-decoration="normal" x="0" y="0" text-anchor="middle" dominant-baseline="hanging">05/18</text><g transform="rotate(0,0,0) translate(-216,-216) translate(332,216) rotate(0,0,0)"><text fill="" stroke="none" font-family="helvetica" font-size="11px" font-style="normal" font-weight="bold" text-decoration="normal" x="0" y="0" text-anchor="middle" dominant-baseline="hanging">05/25</text><g transform="rotate(0,0,0) translate(-332,-216) translate(449,216) rotate(0,0,0)"><text fill="" stroke="none" font-family="helvetica" font-size="11px" font-style="normal" font-weight="bold" text-decoration="normal" x="0" y="0" text-anchor="middle" dominant-baseline="hanging">05/30</text><g transform="rotate(0,0,0) translate(-449,-216) translate(565,216) rotate(0,0,0)"><text fill="" stroke="none" font-family="helvetica" font-size="11px" font-style="normal" font-weight="bold" text-decoration="normal" x="0" y="0" text-anchor="middle" dominant-baseline="hanging">06/08</text><g transform="rotate(0,0,0) translate(-565,-216) translate(681,216) rotate(0,0,0)"><text fill="" stroke="none" font-family="helvetica" font-size="11px" font-style="normal" font-weight="bold" text-decoration="normal" x="0" y="0" text-anchor="middle" dominant-baseline="hanging">06/20</text><g transform="rotate(0,0,0) translate(-681,-216) translate(798,216) rotate(0,0,0)"><text fill="" stroke="none" font-family="helvetica" font-size="11px" font-style="normal" font-weight="bold" text-decoration="normal" x="0" y="0" text-anchor="middle" dominant-baseline="hanging">06/27</text><g transform="rotate(0,0,0) translate(-798,-216) translate(449,235) rotate(0,0,0)"><text fill="" stroke="none" font-family="helvetica" font-size="13px" font-style="italic" font-weight="normal" text-decoration="normal" x="0" y="0" text-anchor="middle" dominant-baseline="hanging">Projection date</text><g transform="rotate(0,0,0) translate(-449,-235)"><path fill="none" stroke="" paint-order="fill stroke markers" d=" M 158 218 L 158 156"/><path fill="none" stroke="" paint-order="fill stroke markers" d=" M 274 218 L 274 156"/><path fill="none" stroke="" paint-order="fill stroke markers" d=" M 390 218 L 390 156"/><path fill="none" stroke="" paint-order="fill stroke markers" d=" M 507 218 L 507 156"/><path fill="none" stroke="" paint-order="fill stroke markers" d=" M 623 218 L 623 156"/><path fill="none" stroke="" paint-order="fill stroke markers" d=" M 739 218 L 739 156"/></g></g></g></g></g></g></g></g></g></g></g></g></g></g></g></g></g></g></g></g></g></g></g></g></g></g></g></g></g></g></g></g><g><g fill="#444444"><path fill="none" stroke="black" paint-order="fill stroke markers" d=" M 52 153 L 52 28" stroke-linejoin="bevel" stroke-miterlimit="10"/><path fill="none" stroke="black" paint-order="fill stroke markers" d=" M 46 153 L 54 153" stroke-linejoin="bevel" stroke-miterlimit="10"/><path fill="none" stroke="black" paint-order="fill stroke markers" d=" M 46 126 L 54 126" stroke-linejoin="bevel" stroke-miterlimit="10"/><path fill="none" stroke="black" paint-order="fill stroke markers" d=" M 46 100 L 54 100" stroke-linejoin="bevel" stroke-miterlimit="10"/><path fill="none" stroke="black" paint-order="fill stroke markers" d=" M 46 73 L 54 73" stroke-linejoin="bevel" stroke-miterlimit="10"/><path fill="none" stroke="black" paint-order="fill stroke markers" d=" M 46 47 L 54 47" stroke-linejoin="bevel" stroke-miterlimit="10"/><path fill="none" stroke="black" paint-order="fill stroke markers" d=" M 48 153 L 52 153" stroke-linejoin="bevel" stroke-miterlimit="10"/><path fill="none" stroke="black" paint-order="fill stroke markers" d=" M 48 148 L 52 148" stroke-linejoin="bevel" stroke-miterlimit="10"/><path fill="none" stroke="black" paint-order="fill stroke markers" d=" M 48 142 L 52 142" stroke-linejoin="bevel" stroke-miterlimit="10"/><path fill="none" stroke="black" paint-order="fill stroke markers" d=" M 48 137 L 52 137" stroke-linejoin="bevel" stroke-miterlimit="10"/><path fill="none" stroke="black" paint-order="fill stroke markers" d=" M 48 132 L 52 132" stroke-linejoin="bevel" stroke-miterlimit="10"/><path fill="none" stroke="black" paint-order="fill stroke markers" d=" M 48 126 L 52 126" stroke-linejoin="bevel" stroke-miterlimit="10"/><path fill="none" stroke="black" paint-order="fill stroke markers" d=" M 48 121 L 52 121" stroke-linejoin="bevel" stroke-miterlimit="10"/><path fill="none" stroke="black" paint-order="fill stroke markers" d=" M 48 116 L 52 116" stroke-linejoin="bevel" stroke-miterlimit="10"/><path fill="none" stroke="black" paint-order="fill stroke markers" d=" M 48 110 L 52 110" stroke-linejoin="bevel" stroke-miterlimit="10"/><path fill="none" stroke="black" paint-order="fill stroke markers" d=" M 48 105 L 52 105" stroke-linejoin="bevel" stroke-miterlimit="10"/><path fill="none" stroke="black" paint-order="fill stroke markers" d=" M 48 100 L 52 100" stroke-linejoin="bevel" stroke-miterlimit="10"/><path fill="none" stroke="black" paint-order="fill stroke markers" d=" M 48 95 L 52 95" stroke-linejoin="bevel" stroke-miterlimit="10"/><path fill="none" stroke="black" paint-order="fill stroke markers" d=" M 48 89 L 52 89" stroke-linejoin="bevel" stroke-miterlimit="10"/><path fill="none" stroke="black" paint-order="fill stroke markers" d=" M 48 84 L 52 84" stroke-linejoin="bevel" stroke-miterlimit="10"/><path fill="none" stroke="black" paint-order="fill stroke markers" d=" M 48 79 L 52 79" stroke-linejoin="bevel" stroke-miterlimit="10"/><path fill="none" stroke="black" paint-order="fill stroke markers" d=" M 48 73 L 52 73" stroke-linejoin="bevel" stroke-miterlimit="10"/><path fill="none" stroke="black" paint-order="fill stroke markers" d=" M 48 68 L 52 68" stroke-linejoin="bevel" stroke-miterlimit="10"/><path fill="none" stroke="black" paint-order="fill stroke markers" d=" M 48 63 L 52 63" stroke-linejoin="bevel" stroke-miterlimit="10"/><path fill="none" stroke="black" paint-order="fill stroke markers" d=" M 48 57 L 52 57" stroke-linejoin="bevel" stroke-miterlimit="10"/><path fill="none" stroke="black" paint-order="fill stroke markers" d=" M 48 52 L 52 52" stroke-linejoin="bevel" stroke-miterlimit="10"/><path fill="none" stroke="black" paint-order="fill stroke markers" d=" M 48 47 L 52 47" stroke-linejoin="bevel" stroke-miterlimit="10"/><path fill="none" stroke="black" paint-order="fill stroke markers" d=" M 48 41 L 52 41" stroke-linejoin="bevel" stroke-miterlimit="10"/><path fill="none" stroke="black" paint-order="fill stroke markers" d=" M 48 36 L 52 36" stroke-linejoin="bevel" stroke-miterlimit="10"/><path fill="" stroke="black" paint-order="fill stroke markers" d=" M 48 31 L 52 31" stroke-linejoin="bevel" stroke-miterlimit="10"/><g transform="translate(41,153) rotate(0,0,0)"><text fill="" stroke="none" font-family="helvetica" font-size="11px" font-style="normal" font-weight="normal" text-decoration="normal" x="0" y="0" text-anchor="end" dominant-baseline="central">0</text><g transform="rotate(0,0,0) translate(-41,-153) translate(41,126) rotate(0,0,0)"><text fill="" stroke="none" font-family="helvetica" font-size="11px" font-style="normal" font-weight="normal" text-decoration="normal" x="0" y="0" text-anchor="end" dominant-baseline="central">10</text><g transform="rotate(0,0,0) translate(-41,-126) translate(41,100) rotate(0,0,0)"><text fill="" stroke="none" font-family="helvetica" font-size="11px" font-style="normal" font-weight="normal" text-decoration="normal" x="0" y="0" text-anchor="end" dominant-baseline="central">20</text><g transform="rotate(0,0,0) translate(-41,-100) translate(41,73) rotate(0,0,0)"><text fill="" stroke="none" font-family="helvetica" font-size="11px" font-style="normal" font-weight="normal" text-decoration="normal" x="0" y="0" text-anchor="end" dominant-baseline="central">30</text><g transform="rotate(0,0,0) translate(-41,-73) translate(41,47) rotate(0,0,0)"><text fill="" stroke="none" font-family="helvetica" font-size="11px" font-style="normal" font-weight="normal" text-decoration="normal" x="0" y="0" text-anchor="end" dominant-baseline="central">40</text><g transform="rotate(0,0,0) translate(-41,-47) translate(23,91) rotate(-90,0,0)"><text fill="" stroke="none" font-family="helvetica" font-size="13px" font-style="italic" font-weight="normal" text-decoration="normal" x="0" y="0" text-anchor="middle" dominant-baseline="alphabetic">Avg. MAE</text><g transform="rotate(90,0,0) translate(-23,-91)"/></g></g></g></g></g></g></g></g></g></g></svg>