<svg version="1.1" xmlns="http://www.w3.org/2000/svg" xmlns:xlink="http://www.w3.org/1999/xlink" width="850" height="250" style="width: 850px; height: 250px;"><defs><clipPath id="FxlDeMprnGUo"><path fill="none" stroke="none" d=" M 52 28 L 845 28 L 845 153 L 52 153 L 52 28 Z"/></clipPath><clipPath id="wVRKQmOOHDWU"><path fill="none" stroke="none" d=" M 52 28 L 845 28 L 845 153 L 52 153 L 52 28 Z"/></clipPath><clipPath id="oiFAXNExyrnA"><path fill="none" stroke="none" d=" M 52 28 L 845 28 L 845 153 L 52 153 L 52 28 Z"/></clipPath><clipPath id="sCOgyitNxgye"><path fill="none" stroke="none" d=" M 52 28 L 845 28 L 845 153 L 52 153 L 52 28 Z"/></clipPath></defs><g><g transform="scale(1,1) translate(0.5,0.5)"><rect fill="#FFFFFF" stroke="none" x="0" y="0" width="850" height="250"/><rect fill="#ffffff" stroke="none" x="0" y="0" width="850" height="250"/><rect fill="#FFFFFF" stroke="none" x="52" y="28" width="793" height="125"/><rect fill="#ffffff" stroke="none" x="52" y="28" width="793" height="125"/><g><rect fill="none" stroke="#e5e5e5" x="52" y="28" width="793" height="125" stroke-linejoin="bevel" stroke-miterlimit="10"/></g><g clip-path="url(#FxlDeMprnGUo)"><g><g/></g></g><g clip-path="url(#wVRKQmOOHDWU)"><g><g><path fill="none" stroke="#e5e5e5" paint-order="fill stroke markers" d=" M 52 131 L 845 131" stroke-linejoin="bevel" stroke-miterlimit="10"/><path fill="none" stroke="#e5e5e5" paint-order="fill stroke markers" d=" M 52 108 L 845 108" stroke-linejoin="bevel" stroke-miterlimit="10"/><path fill="none" stroke="#e5e5e5" paint-order="fill stroke markers" d=" M 52 86 L 845 86" stroke-linejoin="bevel" stroke-miterlimit="10"/><path fill="none" stroke="#e5e5e5" paint-order="fill stroke markers" d=" M 52 63 L 845 63" stroke-linejoin="bevel" stroke-miterlimit="10"/><path fill="none" stroke="#e5e5e5" paint-order="fill stroke markers" d=" M 52 41 L 845 41" stroke-linejoin="bevel" stroke-miterlimit="10"/></g></g></g><g clip-path="url(#oiFAXNExyrnA)"><g><g fill="#444444"><path fill="" stroke="none" d=""/><g transform="translate(72.99646525276778,124.59480715363068) rotate(0,0,0)"><path fill="none" stroke="none"/><text fill="" stroke="none" font-family="helvetica" font-size="0.75em" font-style="normal" font-weight="normal" text-decoration="normal" x="0" y="0" text-anchor="middle" dominant-baseline="text-after-edge">122.1</text></g></g><g fill="#444444"><path fill="" stroke="none" d=""/><g transform="translate(99.4403761504602,90.7479350714645) rotate(0,0,0)"><path fill="none" stroke="none"/><text fill="" stroke="none" font-family="helvetica" font-size="0.75em" font-style="normal" font-weight="normal" text-decoration="normal" x="0" y="0" text-anchor="middle" dominant-baseline="text-after-edge">272.9</text></g></g><g fill="#444444"><path fill="" stroke="none" d=""/><g transform="translate(125.8842870481526,130.54269913093444) rotate(0,0,0)"><path fill="none" stroke="none"/><text fill="" stroke="none" font-family="helvetica" font-size="0.75em" font-style="normal" font-weight="normal" text-decoration="normal" x="0" y="0" text-anchor="middle" dominant-baseline="text-after-edge">95.6</text></g></g><g fill="#444444"><path fill="" stroke="none" d=""/><g transform="translate(189.3496732026144,117.32266752854989) rotate(0,0,0)"><path fill="none" stroke="none"/><text fill="" stroke="none" font-family="helvetica" font-size="0.75em" font-style="normal" font-weight="normal" text-decoration="normal" x="0" y="0" text-anchor="middle" dominant-baseline="text-after-edge">154.5</text></g></g><g fill="#444444"><path fill="" stroke="none" d=""/><g transform="translate(215.79358410030682,117.70423041011276) rotate(0,0,0)"><path fill="none" stroke="none"/><text fill="" stroke="none" font-family="helvetica" font-size="0.75em" font-style="normal" font-weight="normal" text-decoration="normal" x="0" y="0" text-anchor="middle" dominant-baseline="text-after-edge">152.8</text></g></g><g fill="#444444"><path fill="" stroke="none" d=""/><g transform="translate(242.23749499799922,129.91424262012498) rotate(0,0,0)"><path fill="none" stroke="none"/><text fill="" stroke="none" font-family="helvetica" font-size="0.75em" font-style="normal" font-weight="normal" text-decoration="normal" x="0" y="0" text-anchor="middle" dominant-baseline="text-after-edge">98.4</text></g></g><g fill="#444444"><path fill="" stroke="none" d=""/><g transform="translate(305.70288115246103,112.11545643898586) rotate(0,0,0)"><path fill="none" stroke="none"/><text fill="" stroke="none" font-family="helvetica" font-size="0.75em" font-style="normal" font-weight="normal" text-decoration="normal" x="0" y="0" text-anchor="middle" dominant-baseline="text-after-edge">177.7</text></g></g><g fill="#444444"><path fill="" stroke="none" d=""/><g transform="translate(332.1467920501534,106.21245421245422) rotate(0,0,0)"><path fill="none" stroke="none"/><text fill="" stroke="none" font-family="helvetica" font-size="0.75em" font-style="normal" font-weight="normal" text-decoration="normal" x="0" y="0" text-anchor="middle" dominant-baseline="text-after-edge">204</text></g></g><g fill="#444444"><path fill="" stroke="none" d=""/><g transform="translate(358.59070294784584,122.37276449041156) rotate(0,0,0)"><path fill="none" stroke="none"/><text fill="" stroke="none" font-family="helvetica" font-size="0.75em" font-style="normal" font-weight="normal" text-decoration="normal" x="0" y="0" text-anchor="middle" dominant-baseline="text-after-edge">132</text></g></g><g fill="#444444"><path fill="" stroke="none" d=""/><g transform="translate(422.0560891023076,112.11545643898586) rotate(0,0,0)"><path fill="none" stroke="none"/><text fill="" stroke="none" font-family="helvetica" font-size="0.75em" font-style="normal" font-weight="normal" text-decoration="normal" x="0" y="0" text-anchor="middle" dominant-baseline="text-after-edge">177.7</text></g></g><g fill="#444444"><path fill="" stroke="none" d=""/><g transform="translate(448.5,112.90102707749767) rotate(0,0,0)"><path fill="none" stroke="none"/><text fill="" stroke="none" font-family="helvetica" font-size="0.75em" font-style="normal" font-weight="normal" text-decoration="normal" x="0" y="0" text-anchor="middle" dominant-baseline="text-after-edge">174.2</text></g></g><g fill="#444444"><path fill="" stroke="none" d=""/><g transform="translate(474.94391089769243,115.28018386841916) rotate(0,0,0)"><path fill="none" stroke="none"/><text fill="" stroke="none" font-family="helvetica" font-size="0.75em" font-style="normal" font-weight="normal" text-decoration="normal" x="0" y="0" text-anchor="middle" dominant-baseline="text-after-edge">163.6</text></g></g><g fill="#444444"><path fill="" stroke="none" d=""/><g transform="translate(538.4092970521542,107.87337499102205) rotate(0,0,0)"><path fill="none" stroke="none"/><text fill="" stroke="none" font-family="helvetica" font-size="0.75em" font-style="normal" font-weight="normal" text-decoration="normal" x="0" y="0" text-anchor="middle" dominant-baseline="text-after-edge">196.6</text></g></g><g fill="#444444"><path fill="" stroke="none" d=""/><g transform="translate(564.8532079498467,110.02808302808302) rotate(0,0,0)"><path fill="none" stroke="none"/><text fill="" stroke="none" font-family="helvetica" font-size="0.75em" font-style="normal" font-weight="normal" text-decoration="normal" x="0" y="0" text-anchor="middle" dominant-baseline="text-after-edge">187</text></g></g><g fill="#444444"><path fill="" stroke="none" d=""/><g transform="translate(591.2971188475391,125.62727142138907) rotate(0,0,0)"><path fill="none" stroke="none"/><text fill="" stroke="none" font-family="helvetica" font-size="0.75em" font-style="normal" font-weight="normal" text-decoration="normal" x="0" y="0" text-anchor="middle" dominant-baseline="text-after-edge">117.5</text></g></g><g fill="#444444"><path fill="" stroke="none" d=""/><g transform="translate(654.7625050020008,107.87337499102205) rotate(0,0,0)"><path fill="none" stroke="none"/><text fill="" stroke="none" font-family="helvetica" font-size="0.75em" font-style="normal" font-weight="normal" text-decoration="normal" x="0" y="0" text-anchor="middle" dominant-baseline="text-after-edge">196.6</text></g></g><g fill="#444444"><path fill="" stroke="none" d=""/><g transform="translate(681.2064158996932,67.60726854844502) rotate(0,0,0)"><path fill="none" stroke="none"/><text fill="" stroke="none" font-family="helvetica" font-size="0.75em" font-style="normal" font-weight="normal" text-decoration="normal" x="0" y="0" text-anchor="middle" dominant-baseline="text-after-edge">376</text></g></g><g fill="#444444"><path fill="" stroke="none" d=""/><g transform="translate(707.6503267973857,104.75353731236083) rotate(0,0,0)"><path fill="none" stroke="none"/><text fill="" stroke="none" font-family="helvetica" font-size="0.75em" font-style="normal" font-weight="normal" text-decoration="normal" x="0" y="0" text-anchor="middle" dominant-baseline="text-after-edge">210.5</text></g></g><g fill="#444444"><path fill="" stroke="none" d=""/><g transform="translate(771.1157129518474,66.08101702219349) rotate(0,0,0)"><path fill="none" stroke="none"/><text fill="" stroke="none" font-family="helvetica" font-size="0.75em" font-style="normal" font-weight="normal" text-decoration="normal" x="0" y="0" text-anchor="middle" dominant-baseline="text-after-edge">382.8</text></g></g><g fill="#444444"><path fill="" stroke="none" d=""/><g transform="translate(797.5596238495398,47.83333333333333) rotate(0,0,0)"><path fill="none" stroke="none"/><text fill="" stroke="none" font-family="helvetica" font-size="0.75em" font-style="normal" font-weight="normal" text-decoration="normal" x="0" y="0" text-anchor="middle" dominant-baseline="text-after-edge">464.1</text></g></g><g fill="#444444"><path fill="" stroke="none" d=""/><g transform="translate(824.0035347472323,101.47658550599726) rotate(0,0,0)"><path fill="none" stroke="none"/><text fill="" stroke="none" font-family="helvetica" font-size="0.75em" font-style="normal" font-weight="normal" text-decoration="normal" x="0" y="0" text-anchor="middle" dominant-baseline="text-after-edge">225.1</text></g></g></g></g><g clip-path="url(#sCOgyitNxgye)"><g><g><path fill="none" stroke="none"/><path fill="#fc8d59" stroke="none" paint-order="stroke fill markers" d=" M 61.096705348806196 125.59480715363068 L 84.89622515672936 125.59480715363068 L 84.89622515672936 153 L 61.096705348806196 153 L 61.096705348806196 125.59480715363068 Z"/><path fill="none" stroke="black" paint-order="fill stroke markers" d=" M 61.096705348806196 125.59480715363068 L 84.89622515672936 125.59480715363068 L 84.89622515672936 153 L 61.096705348806196 153 L 61.096705348806196 125.59480715363068 Z" stroke-linejoin="bevel" stroke-miterlimit="10"/><path fill="#ffffbf" stroke="none" paint-order="stroke fill markers" d=" M 87.54061624649862 91.7479350714645 L 111.34013605442178 91.7479350714645 L 111.34013605442178 153 L 87.54061624649862 153 L 87.54061624649862 91.7479350714645 Z"/><path fill="none" stroke="black" paint-order="fill stroke markers" d=" M 87.54061624649862 91.7479350714645 L 111.34013605442178 91.7479350714645 L 111.34013605442178 153 L 87.54061624649862 153 L 87.54061624649862 91.7479350714645 Z" stroke-linejoin="bevel" stroke-miterlimit="10"/><path fill="#91bfdb" stroke="none" paint-order="stroke fill markers" d=" M 113.98452714419102 131.54269913093444 L 137.78404695211418 131.54269913093444 L 137.78404695211418 153 L 113.98452714419102 153 L 113.98452714419102 131.54269913093444 Z"/><path fill="none" stroke="black" paint-order="fill stroke markers" d=" M 113.98452714419102 131.54269913093444 L 137.78404695211418 131.54269913093444 L 137.78404695211418 153 L 113.98452714419102 153 L 113.98452714419102 131.54269913093444 Z" stroke-linejoin="bevel" stroke-miterlimit="10"/><path fill="#fc8d59" stroke="none" paint-order="stroke fill markers" d=" M 177.4499132986528 118.32266752854989 L 201.24943310657602 118.32266752854989 L 201.24943310657602 153 L 177.4499132986528 153 L 177.4499132986528 118.32266752854989 Z"/><path fill="none" stroke="black" paint-order="fill stroke markers" d=" M 177.4499132986528 118.32266752854989 L 201.24943310657602 118.32266752854989 L 201.24943310657602 153 L 177.4499132986528 153 L 177.4499132986528 118.32266752854989 Z" stroke-linejoin="bevel" stroke-miterlimit="10"/><path fill="#ffffbf" stroke="none" paint-order="stroke fill markers" d=" M 203.89382419634524 118.70423041011276 L 227.6933440042684 118.70423041011276 L 227.6933440042684 153 L 203.89382419634524 153 L 203.89382419634524 118.70423041011276 Z"/><path fill="none" stroke="black" paint-order="fill stroke markers" d=" M 203.89382419634524 118.70423041011276 L 227.6933440042684 118.70423041011276 L 227.6933440042684 153 L 203.89382419634524 153 L 203.89382419634524 118.70423041011276 Z" stroke-linejoin="bevel" stroke-miterlimit="10"/><path fill="#91bfdb" stroke="none" paint-order="stroke fill markers" d=" M 230.33773509403764 130.91424262012498 L 254.1372549019608 130.91424262012498 L 254.1372549019608 153 L 230.33773509403764 153 L 230.33773509403764 130.91424262012498 Z"/><path fill="none" stroke="black" paint-order="fill stroke markers" d=" M 230.33773509403764 130.91424262012498 L 254.1372549019608 130.91424262012498 L 254.1372549019608 153 L 230.33773509403764 153 L 230.33773509403764 130.91424262012498 Z" stroke-linejoin="bevel" stroke-miterlimit="10"/><path fill="#fc8d59" stroke="none" paint-order="stroke fill markers" d=" M 293.80312124849945 113.11545643898586 L 317.6026410564226 113.11545643898586 L 317.6026410564226 153 L 293.80312124849945 153 L 293.80312124849945 113.11545643898586 Z"/><path fill="none" stroke="black" paint-order="fill stroke markers" d=" M 293.80312124849945 113.11545643898586 L 317.6026410564226 113.11545643898586 L 317.6026410564226 153 L 293.80312124849945 153 L 293.80312124849945 113.11545643898586 Z" stroke-linejoin="bevel" stroke-miterlimit="10"/><path fill="#ffffbf" stroke="none" paint-order="stroke fill markers" d=" M 320.2470321461918 107.21245421245422 L 344.046551954115 107.21245421245422 L 344.046551954115 153 L 320.2470321461918 153 L 320.2470321461918 107.21245421245422 Z"/><path fill="none" stroke="black" paint-order="fill stroke markers" d=" M 320.2470321461918 107.21245421245422 L 344.046551954115 107.21245421245422 L 344.046551954115 153 L 320.2470321461918 153 L 320.2470321461918 107.21245421245422 Z" stroke-linejoin="bevel" stroke-miterlimit="10"/><path fill="#91bfdb" stroke="none" paint-order="stroke fill markers" d=" M 346.6909430438843 123.37276449041156 L 370.49046285180737 123.37276449041156 L 370.49046285180737 153 L 346.6909430438843 153 L 346.6909430438843 123.37276449041156 Z"/><path fill="none" stroke="black" paint-order="fill stroke markers" d=" M 346.6909430438843 123.37276449041156 L 370.49046285180737 123.37276449041156 L 370.49046285180737 153 L 346.6909430438843 153 L 346.6909430438843 123.37276449041156 Z" stroke-linejoin="bevel" stroke-miterlimit="10"/><path fill="#fc8d59" stroke="none" paint-order="stroke fill markers" d=" M 410.15632919834604 113.11545643898586 L 433.9558490062692 113.11545643898586 L 433.9558490062692 153 L 410.15632919834604 153 L 410.15632919834604 113.11545643898586 Z"/><path fill="none" stroke="black" paint-order="fill stroke markers" d=" M 410.15632919834604 113.11545643898586 L 433.9558490062692 113.11545643898586 L 433.9558490062692 153 L 410.15632919834604 153 L 410.15632919834604 113.11545643898586 Z" stroke-linejoin="bevel" stroke-miterlimit="10"/><path fill="#ffffbf" stroke="none" paint-order="stroke fill markers" d=" M 436.6002400960384 113.90102707749767 L 460.3997599039616 113.90102707749767 L 460.3997599039616 153 L 436.6002400960384 153 L 436.6002400960384 113.90102707749767 Z"/><path fill="none" stroke="black" paint-order="fill stroke markers" d=" M 436.6002400960384 113.90102707749767 L 460.3997599039616 113.90102707749767 L 460.3997599039616 153 L 436.6002400960384 153 L 436.6002400960384 113.90102707749767 Z" stroke-linejoin="bevel" stroke-miterlimit="10"/><path fill="#91bfdb" stroke="none" paint-order="stroke fill markers" d=" M 463.0441509937308 116.28018386841916 L 486.84367080165407 116.28018386841916 L 486.84367080165407 153 L 463.0441509937308 153 L 463.0441509937308 116.28018386841916 Z"/><path fill="none" stroke="black" paint-order="fill stroke markers" d=" M 463.0441509937308 116.28018386841916 L 486.84367080165407 116.28018386841916 L 486.84367080165407 153 L 463.0441509937308 153 L 463.0441509937308 116.28018386841916 Z" stroke-linejoin="bevel" stroke-miterlimit="10"/><path fill="#fc8d59" stroke="none" paint-order="stroke fill markers" d=" M 526.5095371481927 108.87337499102205 L 550.3090569561157 108.87337499102205 L 550.3090569561157 153 L 526.5095371481927 153 L 526.5095371481927 108.87337499102205 Z"/><path fill="none" stroke="black" paint-order="fill stroke markers" d=" M 526.5095371481927 108.87337499102205 L 550.3090569561157 108.87337499102205 L 550.3090569561157 153 L 526.5095371481927 153 L 526.5095371481927 108.87337499102205 Z" stroke-linejoin="bevel" stroke-miterlimit="10"/><path fill="#ffffbf" stroke="none" paint-order="stroke fill markers" d=" M 552.9534480458851 111.02808302808302 L 576.7529678538083 111.02808302808302 L 576.7529678538083 153 L 552.9534480458851 153 L 552.9534480458851 111.02808302808302 Z"/><path fill="none" stroke="black" paint-order="fill stroke markers" d=" M 552.9534480458851 111.02808302808302 L 576.7529678538083 111.02808302808302 L 576.7529678538083 153 L 552.9534480458851 153 L 552.9534480458851 111.02808302808302 Z" stroke-linejoin="bevel" stroke-miterlimit="10"/><path fill="#91bfdb" stroke="none" paint-order="stroke fill markers" d=" M 579.3973589435775 126.62727142138907 L 603.1968787515007 126.62727142138907 L 603.1968787515007 153 L 579.3973589435775 153 L 579.3973589435775 126.62727142138907 Z"/><path fill="none" stroke="black" paint-order="fill stroke markers" d=" M 579.3973589435775 126.62727142138907 L 603.1968787515007 126.62727142138907 L 603.1968787515007 153 L 579.3973589435775 153 L 579.3973589435775 126.62727142138907 Z" stroke-linejoin="bevel" stroke-miterlimit="10"/><path fill="#fc8d59" stroke="none" paint-order="stroke fill markers" d=" M 642.8627450980392 108.87337499102205 L 666.6622649059624 108.87337499102205 L 666.6622649059624 153 L 642.8627450980392 153 L 642.8627450980392 108.87337499102205 Z"/><path fill="none" stroke="black" paint-order="fill stroke markers" d=" M 642.8627450980392 108.87337499102205 L 666.6622649059624 108.87337499102205 L 666.6622649059624 153 L 642.8627450980392 153 L 642.8627450980392 108.87337499102205 Z" stroke-linejoin="bevel" stroke-miterlimit="10"/><path fill="#ffffbf" stroke="none" paint-order="stroke fill markers" d=" M 669.3066559957316 68.60726854844502 L 693.1061758036548 68.60726854844502 L 693.1061758036548 153 L 669.3066559957316 153 L 669.3066559957316 68.60726854844502 Z"/><path fill="none" stroke="black" paint-order="fill stroke markers" d=" M 669.3066559957316 68.60726854844502 L 693.1061758036548 68.60726854844502 L 693.1061758036548 153 L 669.3066559957316 153 L 669.3066559957316 68.60726854844502 Z" stroke-linejoin="bevel" stroke-miterlimit="10"/><path fill="#91bfdb" stroke="none" paint-order="stroke fill markers" d=" M 695.7505668934241 105.75353731236083 L 719.5500867013473 105.75353731236083 L 719.5500867013473 153 L 695.7505668934241 153 L 695.7505668934241 105.75353731236083 Z"/><path fill="none" stroke="black" paint-order="fill stroke markers" d=" M 695.7505668934241 105.75353731236083 L 719.5500867013473 105.75353731236083 L 719.5500867013473 153 L 695.7505668934241 153 L 695.7505668934241 105.75353731236083 Z" stroke-linejoin="bevel" stroke-miterlimit="10"/><path fill="#fc8d59" stroke="none" paint-order="stroke fill markers" d=" M 759.2159530478858 67.08101702219349 L 783.015472855809 67.08101702219349 L 783.015472855809 153 L 759.2159530478858 153 L 759.2159530478858 67.08101702219349 Z"/><path fill="none" stroke="black" paint-order="fill stroke markers" d=" M 759.2159530478858 67.08101702219349 L 783.015472855809 67.08101702219349 L 783.015472855809 153 L 759.2159530478858 153 L 759.2159530478858 67.08101702219349 Z" stroke-linejoin="bevel" stroke-miterlimit="10"/><path fill="#ffffbf" stroke="none" paint-order="stroke fill markers" d=" M 785.6598639455782 48.83333333333333 L 809.4593837535014 48.83333333333333 L 809.4593837535014 153 L 785.6598639455782 153 L 785.6598639455782 48.83333333333333 Z"/><path fill="none" stroke="black" paint-order="fill stroke markers" d=" M 785.6598639455782 48.83333333333333 L 809.4593837535014 48.83333333333333 L 809.4593837535014 153 L 785.6598639455782 153 L 785.6598639455782 48.83333333333333 Z" stroke-linejoin="bevel" stroke-miterlimit="10"/><path fill="#91bfdb" stroke="none" paint-order="stroke fill markers" d=" M 812.1037748432707 102.47658550599726 L 835.9032946511938 102.47658550599726 L 835.9032946511938 153 L 812.1037748432707 153 L 812.1037748432707 102.47658550599726 Z"/><path fill="none" stroke="black" paint-order="fill stroke markers" d=" M 812.1037748432707 102.47658550599726 L 835.9032946511938 102.47658550599726 L 835.9032946511938 153 L 812.1037748432707 153 L 812.1037748432707 102.47658550599726 Z" stroke-linejoin="bevel" stroke-miterlimit="10"/></g></g></g><g><g fill="#444444"><path fill="" stroke="none" d=""/><g transform="translate(52,23)"><path fill="none" stroke="none"/><text fill="" stroke="none" font-family="helvetica" font-size="13px" font-style="normal" font-weight="bold" text-decoration="normal" x="0" y="0" text-anchor="start" dominant-baseline="text-after-edge">US Counties - 14 day projection</text></g></g></g><g><g fill="#444444" stroke="lightgrey" stroke-linejoin="bevel" stroke-miterlimit="10" stroke-width="2"><path fill="none" stroke="black" paint-order="fill stroke markers" d=" M 52 153 L 845 153" stroke-linejoin="bevel" stroke-miterlimit="10"/><path fill="none" stroke="black" paint-order="fill stroke markers" d=" M 73 159 L 73 151" stroke-linejoin="bevel" stroke-miterlimit="10"/><path fill="none" stroke="black" paint-order="fill stroke markers" d=" M 99 159 L 99 151" stroke-linejoin="bevel" stroke-miterlimit="10"/><path fill="none" stroke="black" paint-order="fill stroke markers" d=" M 126 159 L 126 151" stroke-linejoin="bevel" stroke-miterlimit="10"/><path fill="none" stroke="black" paint-order="fill stroke markers" d=" M 189 159 L 189 151" stroke-linejoin="bevel" stroke-miterlimit="10"/><path fill="none" stroke="black" paint-order="fill stroke markers" d=" M 216 159 L 216 151" stroke-linejoin="bevel" stroke-miterlimit="10"/><path fill="none" stroke="black" paint-order="fill stroke markers" d=" M 242 159 L 242 151" stroke-linejoin="bevel" stroke-miterlimit="10"/><path fill="none" stroke="black" paint-order="fill stroke markers" d=" M 306 159 L 306 151" stroke-linejoin="bevel" stroke-miterlimit="10"/><path fill="none" stroke="black" paint-order="fill stroke markers" d=" M 332 159 L 332 151" stroke-linejoin="bevel" stroke-miterlimit="10"/><path fill="none" stroke="black" paint-order="fill stroke markers" d=" M 359 159 L 359 151" stroke-linejoin="bevel" stroke-miterlimit="10"/><path fill="none" stroke="black" paint-order="fill stroke markers" d=" M 422 159 L 422 151" stroke-linejoin="bevel" stroke-miterlimit="10"/><path fill="none" stroke="black" paint-order="fill stroke markers" d=" M 449 159 L 449 151" stroke-linejoin="bevel" stroke-miterlimit="10"/><path fill="none" stroke="black" paint-order="fill stroke markers" d=" M 475 159 L 475 151" stroke-linejoin="bevel" stroke-miterlimit="10"/><path fill="none" stroke="black" paint-order="fill stroke markers" d=" M 538 159 L 538 151" stroke-linejoin="bevel" stroke-miterlimit="10"/><path fill="none" stroke="black" paint-order="fill stroke markers" d=" M 565 159 L 565 151" stroke-linejoin="bevel" stroke-miterlimit="10"/><path fill="none" stroke="black" paint-order="fill stroke markers" d=" M 591 159 L 591 151" stroke-linejoin="bevel" stroke-miterlimit="10"/><path fill="none" stroke="black" paint-order="fill stroke markers" d=" M 655 159 L 655 151" stroke-linejoin="bevel" stroke-miterlimit="10"/><path fill="none" stroke="black" paint-order="fill stroke markers" d=" M 681 159 L 681 151" stroke-linejoin="bevel" stroke-miterlimit="10"/><path fill="none" stroke="black" paint-order="fill stroke markers" d=" M 708 159 L 708 151" stroke-linejoin="bevel" stroke-miterlimit="10"/><path fill="none" stroke="black" paint-order="fill stroke markers" d=" M 771 159 L 771 151" stroke-linejoin="bevel" stroke-miterlimit="10"/><path fill="none" stroke="black" paint-order="fill stroke markers" d=" M 798 159 L 798 151" stroke-linejoin="bevel" stroke-miterlimit="10"/><path fill="" stroke="" paint-order="fill stroke markers" d=" M 824 159 L 824 151" stroke-linejoin="bevel" stroke-miterlimit="10"/><g transform="translate(73,164) rotate(-57.29577951308232,0,0)"><text fill="" stroke="none" font-family="helvetica" font-size="11px" font-style="normal" font-weight="normal" text-decoration="normal" x="0" y="0" text-anchor="end" dominant-baseline="central">Columbia</text><g transform="rotate(57.29577951308232,0,0) translate(-73,-164) translate(99,164) rotate(-57.29577951308232,0,0)"><text fill="" stroke="none" font-family="helvetica" font-size="11px" font-style="normal" font-weight="normal" text-decoration="normal" x="0" y="0" text-anchor="end" dominant-baseline="central">Google</text><g transform="rotate(57.29577951308232,0,0) translate(-99,-164) translate(126,164) rotate(-57.29577951308232,0,0)"><text fill="" stroke="none" font-family="helvetica" font-size="11px" font-style="normal" font-weight="normal" text-decoration="normal" x="0" y="0" text-anchor="end" dominant-baseline="central">bAR</text><g transform="rotate(57.29577951308232,0,0) translate(-126,-164) translate(189,164) rotate(-57.29577951308232,0,0)"><text fill="" stroke="none" font-family="helvetica" font-size="11px" font-style="normal" font-weight="normal" text-decoration="normal" x="0" y="0" text-anchor="end" dominant-baseline="central">Columbia</text><g transform="rotate(57.29577951308232,0,0) translate(-189,-164) translate(216,164) rotate(-57.29577951308232,0,0)"><text fill="" stroke="none" font-family="helvetica" font-size="11px" font-style="normal" font-weight="normal" text-decoration="normal" x="0" y="0" text-anchor="end" dominant-baseline="central">Google</text><g transform="rotate(57.29577951308232,0,0) translate(-216,-164) translate(242,164) rotate(-57.29577951308232,0,0)"><text fill="" stroke="none" font-family="helvetica" font-size="11px" font-style="normal" font-weight="normal" text-decoration="normal" x="0" y="0" text-anchor="end" dominant-baseline="central">bAR</text><g transform="rotate(57.29577951308232,0,0) translate(-242,-164) translate(306,164) rotate(-57.29577951308232,0,0)"><text fill="" stroke="none" font-family="helvetica" font-size="11px" font-style="normal" font-weight="normal" text-decoration="normal" x="0" y="0" text-anchor="end" dominant-baseline="central">Columbia</text><g transform="rotate(57.29577951308232,0,0) translate(-306,-164) translate(332,164) rotate(-57.29577951308232,0,0)"><text fill="" stroke="none" font-family="helvetica" font-size="11px" font-style="normal" font-weight="normal" text-decoration="normal" x="0" y="0" text-anchor="end" dominant-baseline="central">Google</text><g transform="rotate(57.29577951308232,0,0) translate(-332,-164) translate(359,164) rotate(-57.29577951308232,0,0)"><text fill="" stroke="none" font-family="helvetica" font-size="11px" font-style="normal" font-weight="normal" text-decoration="normal" x="0" y="0" text-anchor="end" dominant-baseline="central">bAR</text><g transform="rotate(57.29577951308232,0,0) translate(-359,-164) translate(422,164) rotate(-57.29577951308232,0,0)"><text fill="" stroke="none" font-family="helvetica" font-size="11px" font-style="normal" font-weight="normal" text-decoration="normal" x="0" y="0" text-anchor="end" dominant-baseline="central">Columbia</text><g transform="rotate(57.29577951308232,0,0) translate(-422,-164) translate(449,164) rotate(-57.29577951308232,0,0)"><text fill="" stroke="none" font-family="helvetica" font-size="11px" font-style="normal" font-weight="normal" text-decoration="normal" x="0" y="0" text-anchor="end" dominant-baseline="central">Google</text><g transform="rotate(57.29577951308232,0,0) translate(-449,-164) translate(475,164) rotate(-57.29577951308232,0,0)"><text fill="" stroke="none" font-family="helvetica" font-size="11px" font-style="normal" font-weight="normal" text-decoration="normal" x="0" y="0" text-anchor="end" dominant-baseline="central">bAR</text><g transform="rotate(57.29577951308232,0,0) translate(-475,-164) translate(538,164) rotate(-57.29577951308232,0,0)"><text fill="" stroke="none" font-family="helvetica" font-size="11px" font-style="normal" font-weight="normal" text-decoration="normal" x="0" y="0" text-anchor="end" dominant-baseline="central">Columbia</text><g transform="rotate(57.29577951308232,0,0) translate(-538,-164) translate(565,164) rotate(-57.29577951308232,0,0)"><text fill="" stroke="none" font-family="helvetica" font-size="11px" font-style="normal" font-weight="normal" text-decoration="normal" x="0" y="0" text-anchor="end" dominant-baseline="central">Google</text><g transform="rotate(57.29577951308232,0,0) translate(-565,-164) translate(591,164) rotate(-57.29577951308232,0,0)"><text fill="" stroke="none" font-family="helvetica" font-size="11px" font-style="normal" font-weight="normal" text-decoration="normal" x="0" y="0" text-anchor="end" dominant-baseline="central">bAR</text><g transform="rotate(57.29577951308232,0,0) translate(-591,-164) translate(655,164) rotate(-57.29577951308232,0,0)"><text fill="" stroke="none" font-family="helvetica" font-size="11px" font-style="normal" font-weight="normal" text-decoration="normal" x="0" y="0" text-anchor="end" dominant-baseline="central">Columbia</text><g transform="rotate(57.29577951308232,0,0) translate(-655,-164) translate(681,164) rotate(-57.29577951308232,0,0)"><text fill="" stroke="none" font-family="helvetica" font-size="11px" font-style="normal" font-weight="normal" text-decoration="normal" x="0" y="0" text-anchor="end" dominant-baseline="central">Google</text><g transform="rotate(57.29577951308232,0,0) translate(-681,-164) translate(708,164) rotate(-57.29577951308232,0,0)"><text fill="" stroke="none" font-family="helvetica" font-size="11px" font-style="normal" font-weight="normal" text-decoration="normal" x="0" y="0" text-anchor="end" dominant-baseline="central">bAR</text><g transform="rotate(57.29577951308232,0,0) translate(-708,-164) translate(771,164) rotate(-57.29577951308232,0,0)"><text fill="" stroke="none" font-family="helvetica" font-size="11px" font-style="normal" font-weight="normal" text-decoration="normal" x="0" y="0" text-anchor="end" dominant-baseline="central">Columbia</text><g transform="rotate(57.29577951308232,0,0) translate(-771,-164) translate(798,164) rotate(-57.29577951308232,0,0)"><text fill="" stroke="none" font-family="helvetica" font-size="11px" font-style="normal" font-weight="normal" text-decoration="normal" x="0" y="0" text-anchor="end" dominant-baseline="central">Google</text><g transform="rotate(57.29577951308232,0,0) translate(-798,-164) translate(824,164) rotate(-57.29577951308232,0,0)"><text fill="" stroke="none" font-family="helvetica" font-size="11px" font-style="normal" font-weight="normal" text-decoration="normal" x="0" y="0" text-anchor="end" dominant-baseline="central">bAR</text><g transform="rotate(57.29577951308232,0,0) translate(-824,-164) translate(99,216) rotate(0,0,0)"><text fill="" stroke="none" font-family="helvetica" font-size="11px" font-style="normal" font-weight="bold" text-decoration="normal" x="0" y="0" text-anchor="middle" dominant-baseline="hanging">05/11</text><g transform="rotate(0,0,0) translate(-99,-216) translate(216,216) rotate(0,0,0)"><text fill="" stroke="none" font-family="helvetica" font-size="11px" font-style="normal" font-weight="bold" text-decoration="normal" x="0" y="0" text-anchor="middle" dominant-baseline="hanging">05/18</text><g transform="rotate(0,0,0) translate(-216,-216) translate(332,216) rotate(0,0,0)"><text fill="" stroke="none" font-family="helvetica" font-size="11px" font-style="normal" font-weight="bold" text-decoration="normal" x="0" y="0" text-anchor="middle" dominant-baseline="hanging">05/25</text><g transform="rotate(0,0,0) translate(-332,-216) translate(449,216) rotate(0,0,0)"><text fill="" stroke="none" font-family="helvetica" font-size="11px" font-style="normal" font-weight="bold" text-decoration="normal" x="0" y="0" text-anchor="middle" dominant-baseline="hanging">05/30</text><g transform="rotate(0,0,0) translate(-449,-216) translate(565,216) rotate(0,0,0)"><text fill="" stroke="none" font-family="helvetica" font-size="11px" font-style="normal" font-weight="bold" text-decoration="normal" x="0" y="0" text-anchor="middle" dominant-baseline="hanging">06/08</text><g transform="rotate(0,0,0) translate(-565,-216) translate(681,216) rotate(0,0,0)"><text fill="" stroke="none" font-family="helvetica" font-size="11px" font-style="normal" font-weight="bold" text-decoration="normal" x="0" y="0" text-anchor="middle" dominant-baseline="hanging">06/20</text><g transform="rotate(0,0,0) translate(-681,-216) translate(798,216) rotate(0,0,0)"><text fill="" stroke="none" font-family="helvetica" font-size="11px" font-style="normal" font-weight="bold" text-decoration="normal" x="0" y="0" text-anchor="middle" dominant-baseline="hanging">06/27</text><g transform="rotate(0,0,0) translate(-798,-216) translate(449,235) rotate(0,0,0)"><text fill="" stroke="none" font-family="helvetica" font-size="13px" font-style="italic" font-weight="normal" text-decoration="normal" x="0" y="0" text-anchor="middle" dominant-baseline="hanging">Projection date</text><g transform="rotate(0,0,0) translate(-449,-235)"><path fill="none" stroke="" paint-order="fill stroke markers" d=" M 158 218 L 158 156"/><path fill="none" stroke="" paint-order="fill stroke markers" d=" M 274 218 L 274 156"/><path fill="none" stroke="" paint-order="fill stroke markers" d=" M 390 218 L 390 156"/><path fill="none" stroke="" paint-order="fill stroke markers" d=" M 507 218 L 507 156"/><path fill="none" stroke="" paint-order="fill stroke markers" d=" M 623 218 L 623 156"/><path fill="none" stroke="" paint-order="fill stroke markers" d=" M 739 218 L 739 156"/></g></g></g></g></g></g></g></g></g></g></g></g></g></g></g></g></g></g></g></g></g></g></g></g></g></g></g></g></g></g></g></g><g><g fill="#444444"><path fill="none" stroke="black" paint-order="fill stroke markers" d=" M 52 153 L 52 28" stroke-linejoin="bevel" stroke-miterlimit="10"/><path fill="none" stroke="black" paint-order="fill stroke markers" d=" M 46 153 L 54 153" stroke-linejoin="bevel" stroke-miterlimit="10"/><path fill="none" stroke="black" paint-order="fill stroke markers" d=" M 46 131 L 54 131" stroke-linejoin="bevel" stroke-miterlimit="10"/><path fill="none" stroke="black" paint-order="fill stroke markers" d=" M 46 108 L 54 108" stroke-linejoin="bevel" stroke-miterlimit="10"/><path fill="none" stroke="black" paint-order="fill stroke markers" d=" M 46 86 L 54 86" stroke-linejoin="bevel" stroke-miterlimit="10"/><path fill="none" stroke="black" paint-order="fill stroke markers" d=" M 46 63 L 54 63" stroke-linejoin="bevel" stroke-miterlimit="10"/><path fill="none" stroke="black" paint-order="fill stroke markers" d=" M 46 41 L 54 41" stroke-linejoin="bevel" stroke-miterlimit="10"/><path fill="none" stroke="black" paint-order="fill stroke markers" d=" M 48 153 L 52 153" stroke-linejoin="bevel" stroke-miterlimit="10"/><path fill="none" stroke="black" paint-order="fill stroke markers" d=" M 48 149 L 52 149" stroke-linejoin="bevel" stroke-miterlimit="10"/><path fill="none" stroke="black" paint-order="fill stroke markers" d=" M 48 144 L 52 144" stroke-linejoin="bevel" stroke-miterlimit="10"/><path fill="none" stroke="black" paint-order="fill stroke markers" d=" M 48 140 L 52 140" stroke-linejoin="bevel" stroke-miterlimit="10"/><path fill="none" stroke="black" paint-order="fill stroke markers" d=" M 48 135 L 52 135" stroke-linejoin="bevel" stroke-miterlimit="10"/><path fill="none" stroke="black" paint-order="fill stroke markers" d=" M 48 131 L 52 131" stroke-linejoin="bevel" stroke-miterlimit="10"/><path fill="none" stroke="black" paint-order="fill stroke markers" d=" M 48 126 L 52 126" stroke-linejoin="bevel" stroke-miterlimit="10"/><path fill="none" stroke="black" paint-order="fill stroke markers" d=" M 48 122 L 52 122" stroke-linejoin="bevel" stroke-miterlimit="10"/><path fill="none" stroke="black" paint-order="fill stroke markers" d=" M 48 117 L 52 117" stroke-linejoin="bevel" stroke-miterlimit="10"/><path fill="none" stroke="black" paint-order="fill stroke markers" d=" M 48 113 L 52 113" stroke-linejoin="bevel" stroke-miterlimit="10"/><path fill="none" stroke="black" paint-order="fill stroke markers" d=" M 48 108 L 52 108" stroke-linejoin="bevel" stroke-miterlimit="10"/><path fill="none" stroke="black" paint-order="fill stroke markers" d=" M 48 104 L 52 104" stroke-linejoin="bevel" stroke-miterlimit="10"/><path fill="none" stroke="black" paint-order="fill stroke markers" d=" M 48 99 L 52 99" stroke-linejoin="bevel" stroke-miterlimit="10"/><path fill="none" stroke="black" paint-order="fill stroke markers" d=" M 48 95 L 52 95" stroke-linejoin="bevel" stroke-miterlimit="10"/><path fill="none" stroke="black" paint-order="fill stroke markers" d=" M 48 90 L 52 90" stroke-linejoin="bevel" stroke-miterlimit="10"/><path fill="none" stroke="black" paint-order="fill stroke markers" d=" M 48 86 L 52 86" stroke-linejoin="bevel" stroke-miterlimit="10"/><path fill="none" stroke="black" paint-order="fill stroke markers" d=" M 48 81 L 52 81" stroke-linejoin="bevel" stroke-miterlimit="10"/><path fill="none" stroke="black" paint-order="fill stroke markers" d=" M 48 77 L 52 77" stroke-linejoin="bevel" stroke-miterlimit="10"/><path fill="none" stroke="black" paint-order="fill stroke markers" d=" M 48 72 L 52 72" stroke-linejoin="bevel" stroke-miterlimit="10"/><path fill="none" stroke="black" paint-order="fill stroke markers" d=" M 48 68 L 52 68" stroke-linejoin="bevel" stroke-miterlimit="10"/><path fill="none" stroke="black" paint-order="fill stroke markers" d=" M 48 63 L 52 63" stroke-linejoin="bevel" stroke-miterlimit="10"/><path fill="none" stroke="black" paint-order="fill stroke markers" d=" M 48 59 L 52 59" stroke-linejoin="bevel" stroke-miterlimit="10"/><path fill="none" stroke="black" paint-order="fill stroke markers" d=" M 48 54 L 52 54" stroke-linejoin="bevel" stroke-miterlimit="10"/><path fill="none" stroke="black" paint-order="fill stroke markers" d=" M 48 50 L 52 50" stroke-linejoin="bevel" stroke-miterlimit="10"/><path fill="none" stroke="black" paint-order="fill stroke markers" d=" M 48 45 L 52 45" stroke-linejoin="bevel" stroke-miterlimit="10"/><path fill="none" stroke="black" paint-order="fill stroke markers" d=" M 48 41 L 52 41" stroke-linejoin="bevel" stroke-miterlimit="10"/><path fill="none" stroke="black" paint-order="fill stroke markers" d=" M 48 36 L 52 36" stroke-linejoin="bevel" stroke-miterlimit="10"/><path fill="" stroke="black" paint-order="fill stroke markers" d=" M 48 32 L 52 32" stroke-linejoin="bevel" stroke-miterlimit="10"/><g transform="translate(41,153) rotate(0,0,0)"><text fill="" stroke="none" font-family="helvetica" font-size="11px" font-style="normal" font-weight="normal" text-decoration="normal" x="0" y="0" text-anchor="end" dominant-baseline="central">0</text><g transform="rotate(0,0,0) translate(-41,-153) translate(41,131) rotate(0,0,0)"><text fill="" stroke="none" font-family="helvetica" font-size="11px" font-style="normal" font-weight="normal" text-decoration="normal" x="0" y="0" text-anchor="end" dominant-baseline="central">100</text><g transform="rotate(0,0,0) translate(-41,-131) translate(41,108) rotate(0,0,0)"><text fill="" stroke="none" font-family="helvetica" font-size="11px" font-style="normal" font-weight="normal" text-decoration="normal" x="0" y="0" text-anchor="end" dominant-baseline="central">200</text><g transform="rotate(0,0,0) translate(-41,-108) translate(41,86) rotate(0,0,0)"><text fill="" stroke="none" font-family="helvetica" font-size="11px" font-style="normal" font-weight="normal" text-decoration="normal" x="0" y="0" text-anchor="end" dominant-baseline="central">300</text><g transform="rotate(0,0,0) translate(-41,-86) translate(41,63) rotate(0,0,0)"><text fill="" stroke="none" font-family="helvetica" font-size="11px" font-style="normal" font-weight="normal" text-decoration="normal" x="0" y="0" text-anchor="end" dominant-baseline="central">400</text><g transform="rotate(0,0,0) translate(-41,-63) translate(41,41) rotate(0,0,0)"><text fill="" stroke="none" font-family="helvetica" font-size="11px" font-style="normal" font-weight="normal" text-decoration="normal" x="0" y="0" text-anchor="end" dominant-baseline="central">500</text><g transform="rotate(0,0,0) translate(-41,-41) translate(16,91) rotate(-90,0,0)"><text fill="" stroke="none" font-family="helvetica" font-size="13px" font-style="italic" font-weight="normal" text-decoration="normal" x="0" y="0" text-anchor="middle" dominant-baseline="alphabetic">Avg. RMSE</text><g transform="rotate(90,0,0) translate(-16,-91)"/></g></g></g></g></g></g></g></g></g></g></g></svg>