<svg version="1.1" xmlns="http://www.w3.org/2000/svg" xmlns:xlink="http://www.w3.org/1999/xlink" width="400" height="300" style="width: 400px; height: 300px;"><defs><clipPath id="BHWWpkOtNElG"><path fill="none" stroke="none" d=" M 55 28 L 308 28 L 308 196 L 55 196 L 55 28 Z"/></clipPath><clipPath id="mFPJMNQCGpTS"><path fill="none" stroke="none" d=" M 55 28 L 308 28 L 308 196 L 55 196 L 55 28 Z"/></clipPath><clipPath id="VhVHBECxyvId"><path fill="none" stroke="none" d=" M 55 28 L 308 28 L 308 196 L 55 196 L 55 28 Z"/></clipPath><clipPath id="kAztelrdaTXD"><path fill="none" stroke="none" d=" M 55 28 L 308 28 L 308 196 L 55 196 L 55 28 Z"/></clipPath><clipPath id="QZLBsrQFbOrF"><path fill="none" stroke="none" d=" M 55 28 L 308 28 L 308 196 L 55 196 L 55 28 Z"/></clipPath><clipPath id="RrCGypWeTveO"><path fill="none" stroke="none" d=" M 55 28 L 308 28 L 308 196 L 55 196 L 55 28 Z"/></clipPath></defs><g><g/><g/><g/><g/><g/><g/><g transform="scale(1,1) translate(0.5,0.5)"><rect fill="#FFFFFF" stroke="none" x="0" y="0" width="400" height="300"/><rect fill="#ffffff" stroke="none" x="0" y="0" width="400" height="300"/><rect fill="#FFFFFF" stroke="none" x="55" y="28" width="253" height="168"/><rect fill="#ffffff" stroke="none" x="55" y="28" width="253" height="168"/><g clip-path="url(#BHWWpkOtNElG)"><g><g><path fill="none" stroke="#e5e5e5" paint-order="fill stroke markers" d=" M 79 196 L 79 28" stroke-linejoin="bevel" stroke-miterlimit="10"/><path fill="none" stroke="#e5e5e5" paint-order="fill stroke markers" d=" M 112 196 L 112 28" stroke-linejoin="bevel" stroke-miterlimit="10"/><path fill="none" stroke="#e5e5e5" paint-order="fill stroke markers" d=" M 148 196 L 148 28" stroke-linejoin="bevel" stroke-miterlimit="10"/><path fill="none" stroke="#e5e5e5" paint-order="fill stroke markers" d=" M 182 196 L 182 28" stroke-linejoin="bevel" stroke-miterlimit="10"/><path fill="none" stroke="#e5e5e5" paint-order="fill stroke markers" d=" M 218 196 L 218 28" stroke-linejoin="bevel" stroke-miterlimit="10"/><path fill="none" stroke="#e5e5e5" paint-order="fill stroke markers" d=" M 252 196 L 252 28" stroke-linejoin="bevel" stroke-miterlimit="10"/><path fill="none" stroke="#e5e5e5" paint-order="fill stroke markers" d=" M 287 196 L 287 28" stroke-linejoin="bevel" stroke-miterlimit="10"/></g></g></g><g clip-path="url(#mFPJMNQCGpTS)"><g><g/></g></g><g clip-path="url(#VhVHBECxyvId)"><g><g><path fill="none" stroke="none"/><path fill="none" stroke="#3182bd" paint-order="fill stroke markers" d=" M 66.5 28.03522962354822 L 67.64427860696742 28.203395852549704 L 68.7885572139312 28.207800521908894 L 69.93283582089862 28.206726210220893 L 71.0771144278624 28.208283962607993 L 72.22139303482618 28.37686025217718 L 73.3656716417936 28.40501325375999 L 74.50995024875738 28.41151436462158 L 75.65422885572116 28.427955410581887 L 76.79850746268858 28.478999884002633 L 77.94278606965236 28 L 79.08706467661978 28.60291627984327 L 80.23134328358356 28.86252173402761 L 81.37562189054734 29.03036654871326 L 82.51990049751475 28.7126612021016 L 83.66417910447854 29.473845805579714 L 84.80845771144595 29.667314685476413 L 85.95273631840973 29.804318796876544 L 87.09701492537351 29.903937663776333 L 88.24129353234093 29.86712415607525 L 89.38557213930471 30.03608104671497 L 90.5298507462685 30.17567458620249 L 91.67412935323591 30.265644528293336 L 92.81840796019969 30.39127366585396 L 93.96268656716711 30.482558855971064 L 95.10696517413089 30.55123111778832 L 96.25124378109467 30.623140915411227 L 97.39552238806209 30.711918788926482 L 98.53980099502587 30.813529029027876 L 99.68407960199329 30.77926251109193 L 100.82835820895707 31.549458441794116 L 101.97263681592085 31.582461517080446 L 103.11691542288827 31.54287954936001 L 104.26119402985205 31.50302979718103 L 105.40547263681583 31.469382735314127 L 106.54975124378325 31.446682499418557 L 107.69402985074703 31.429266811711273 L 108.83830845771445 31.30526441021854 L 109.98258706467823 32.17365838507888 L 111.12686567164201 32.93446893283044 L 112.27114427860943 32.733456848559456 L 113.41542288557321 32.60624197584204 L 114.55970149253699 32.758189267516826 L 115.7039800995044 33.39294427569186 L 116.84825870646819 33.21770489789168 L 117.9925373134356 33.248016638824964 L 119.13681592039939 34.246201459440954 L 120.28109452736317 34.769790200004934 L 121.42537313433058 34.387240228888686 L 122.56965174129436 33.97463063339896 L 123.71393034826178 33.614976436877356 L 124.85820895522556 33.3090215933137 L 126.00248756218934 33.04860559757489 L 127.14676616915676 33.03693735618589 L 128.29104477612054 33.55854411410749 L 129.43532338308432 33.46476873405632 L 130.57960199005174 33.20149585086884 L 131.72388059701552 32.95996335722384 L 132.86815920398294 32.75646121504329 L 134.01243781094672 32.58172990539725 L 135.1567164179105 32.432566941076146 L 136.30099502487792 32.40293179004124 L 137.4452736318417 33.06027399789011 L 138.58955223880912 32.9262050131714 L 139.7338308457729 32.92253218557761 L 140.87810945273668 33.514654877390825 L 142.0223880597041 33.31864013140333 L 143.16666666666788 33.06864725346688 L 144.31094527363166 32.84373222196419 L 145.45522388059908 32.65165054967312 L 146.59950248756286 32.62692120624243 L 147.74378109453028 33.247152117986474 L 148.88805970149406 33.08674456930396 L 150.03233830845784 33.09538819833719 L 151.17661691542526 33.66611468315813 L 152.32089552238904 33.44315050589722 L 153.46517412935646 33.176588546327395 L 154.60945273632024 32.939006020658496 L 155.75373134328402 32.736912864187246 L 156.89800995025143 32.727948852469524 L 158.04228855721522 33.338742143967124 L 159.186567164179 33.166755493152294 L 160.33084577114641 33.18701602821798 L 161.4751243781102 33.74434156432662 L 162.6194029850776 33.517735698708094 L 163.7636815920414 33.25185296057103 L 164.90796019900517 32.92858155706409 L 166.0522388059726 32.84140992038007 L 167.19651741293637 32.66255760485225 L 168.34079601990015 32.52012887734185 L 169.48507462686757 32.319915641335854 L 170.62935323383135 32.32990090330583 L 171.77363184079877 32.24025361136077 L 172.91791044776255 32.25730800272456 L 174.06218905472633 32.93344269010632 L 175.20646766169375 32.8375214294974 L 176.35074626865753 32.68448012590483 L 177.49502487562495 32.54571895062762 L 178.63930348258873 32.42106902852407 L 179.7835820895525 32.310848044812445 L 180.92786069651993 32.211218751410144 L 182.0721393034837 32.12870683559245 L 183.2164179104475 32.06336131070407 L 184.3606965174149 31.99726541697069 L 185.5049751243787 31.94498582820927 L 186.6492537313461 31.899344956722246 L 187.7935323383099 31.86109697378265 L 188.93781094527367 31.828137105859867 L 190.0820895522411 31.804510354020096 L 191.22636815920487 31.79377604049111 L 192.37064676617229 31.81206221298001 L 193.51492537313607 31.824253211489093 L 194.65920398009985 31.839357344064126 L 195.80348258706726 31.86417185428064 L 196.94776119403105 31.90409235723297 L 198.09203980099483 31.931929916910093 L 199.23631840796224 31.960631603839033 L 200.38059701492602 31.921571649497963 L 201.52487562189344 32.07382920979953 L 202.66915422885722 32.28402363369378 L 203.813432835821 32.939978256890726 L 204.95771144278842 33.01576206476287 L 206.1019900497522 33.085664121806815 L 207.24626865671962 33.17669660248373 L 208.3905472636834 33.29443188212667 L 209.53482587064718 33.44293432637053 L 210.6791044776146 33.603570753901096 L 211.82338308457838 33.7603446260604 L 212.96766169154216 34.50763115629826 L 214.11194029850958 35.20043767161252 L 215.25621890547336 35.50110962221268 L 216.40049751244078 36.25707419647145 L 217.54477611940456 36.99427778723421 L 218.68905472636834 37.57217020781394 L 219.83333333333576 38.3063216784677 L 220.97761194029954 39.243110868281775 L 222.12189054726696 40.364732539300064 L 223.26616915423074 41.605616507011035 L 224.41044776119452 42.994478926609446 L 225.55472636816194 44.59730094563099 L 226.69900497512572 46.42526769520987 L 227.8432835820895 48.49197235561462 L 228.98756218905692 50.865045138993935 L 230.1318407960207 53.302232665726706 L 231.27611940298812 55.682917772384485 L 232.4203980099519 57.99070269877055 L 233.56467661691568 60.24232101087438 L 234.7089552238831 63.82141582981083 L 235.85323383084688 66.34869899010798 L 236.99751243781066 68.43470304774206 L 238.14179104477807 68.84853750239003 L 239.28606965174185 69.96873434918649 L 240.43034825870927 71.31835267709921 L 241.57462686567305 72.60413419244507 L 242.71890547263683 72.66359420231302 L 243.86318407960425 75.12214983052947 L 245.00746268656803 76.78889732756015 L 246.15174129353545 78.21513685992208 L 247.29601990049923 79.70416179358726 L 248.440298507463 81.24720954787475 L 249.58457711443043 82.78474047960681 L 250.7288557213942 84.25225916714977 L 251.873134328358 85.64112915030587 L 253.0174129353254 86.99785004833552 L 254.1616915422892 88.43647638001784 L 255.3059701492566 90.06214707389422 L 256.4502487562204 91.79423008300391 L 257.59452736318417 93.81242245640655 L 258.7388059701516 96.02565410910087 L 259.88308457711537 98.28635618449157 L 261.0273631840828 100.8179708587051 L 262.17164179104657 103.3259514424488 L 263.31592039801035 105.84758857630023 L 264.46019900497777 108.87754054265659 L 265.60447761194155 111.96521719575831 L 266.7487562189053 115.23594215234277 L 267.89303482587275 118.58211521348574 L 269.0373134328365 123.94739736779565 L 270.18159203980395 132.3552462033623 L 271.3258706467677 138.60149186854414 L 272.4701492537315 138.81623563966608 L 273.6144278606989 137.2663877528721 L 274.7587064676627 138.97900987962572 L 275.9029850746301 141.13221262816018 L 277.0472636815939 142.86658923514761 L 278.1915422885577 144.26236794848825 L 279.3358208955251 145.34861738588103 L 280.4800995024889 146.64401926578014 L 281.62437810945266 148.41457177066798 L 282.7686567164201 149.58352510415745 L 283.91293532338386 152.80639561979035 L 285.0572139303513 157.17176934506796 L 286.20149253731506 161.97082264112146 L 287.34577114427884 161.61241223995842 L 288.49004975124626 165.13817389774738 L 289.63432835821004 164.51218015318153 L 290.7786069651738 167.75780110499443 L 291.92288557214124 175.47229464019662 L 293.067164179105 181.68576799746384 L 294.21144278607244 186.75444067265482 L 295.3557213930362 191.28862139961217 L 296.5 196" stroke-linejoin="bevel" stroke-miterlimit="10" stroke-width="1.5"/></g></g></g><g clip-path="url(#kAztelrdaTXD)"><g><g><path fill="none" stroke="none"/><path fill="none" stroke="#de2d26" paint-order="fill stroke markers" d=" M 66.5 NaN" stroke-linejoin="bevel" stroke-miterlimit="10" stroke-width="1.5"/><path fill="none" stroke="none"/><path fill="none" stroke="#de2d26" paint-order="fill stroke markers" d=" M 68.7885572139312 NaN" stroke-linejoin="bevel" stroke-miterlimit="10" stroke-width="1.5"/><path fill="none" stroke="none"/><path fill="none" stroke="#de2d26" paint-order="fill stroke markers" d=" M 71.0771144278624 NaN" stroke-linejoin="bevel" stroke-miterlimit="10" stroke-width="1.5"/><path fill="none" stroke="none"/><path fill="none" stroke="#de2d26" paint-order="fill stroke markers" d=" M 73.3656716417936 NaN" stroke-linejoin="bevel" stroke-miterlimit="10" stroke-width="1.5"/><path fill="none" stroke="none"/><path fill="none" stroke="#de2d26" paint-order="fill stroke markers" d=" M 75.65422885572116 NaN" stroke-linejoin="bevel" stroke-miterlimit="10" stroke-width="1.5"/><path fill="none" stroke="none"/><path fill="none" stroke="#de2d26" paint-order="fill stroke markers" d=" M 77.94278606965236 NaN" stroke-linejoin="bevel" stroke-miterlimit="10" stroke-width="1.5"/><path fill="none" stroke="none"/><path fill="none" stroke="#de2d26" paint-order="fill stroke markers" d=" M 80.23134328358356 NaN" stroke-linejoin="bevel" stroke-miterlimit="10" stroke-width="1.5"/><path fill="none" stroke="none"/><path fill="none" stroke="#de2d26" paint-order="fill stroke markers" d=" M 82.51990049751475 NaN" stroke-linejoin="bevel" stroke-miterlimit="10" stroke-width="1.5"/><path fill="none" stroke="none"/><path fill="none" stroke="#de2d26" paint-order="fill stroke markers" d=" M 84.80845771144595 NaN" stroke-linejoin="bevel" stroke-miterlimit="10" stroke-width="1.5"/><path fill="none" stroke="none"/><path fill="none" stroke="#de2d26" paint-order="fill stroke markers" d=" M 87.09701492537351 NaN" stroke-linejoin="bevel" stroke-miterlimit="10" stroke-width="1.5"/><path fill="none" stroke="none"/><path fill="none" stroke="#de2d26" paint-order="fill stroke markers" d=" M 89.38557213930471 NaN" stroke-linejoin="bevel" stroke-miterlimit="10" stroke-width="1.5"/><path fill="none" stroke="none"/><path fill="none" stroke="#de2d26" paint-order="fill stroke markers" d=" M 91.67412935323591 NaN" stroke-linejoin="bevel" stroke-miterlimit="10" stroke-width="1.5"/><path fill="none" stroke="none"/><path fill="none" stroke="#de2d26" paint-order="fill stroke markers" d=" M 93.96268656716711 NaN" stroke-linejoin="bevel" stroke-miterlimit="10" stroke-width="1.5"/><path fill="none" stroke="none"/><path fill="none" stroke="#de2d26" paint-order="fill stroke markers" d=" M 96.25124378109467 NaN" stroke-linejoin="bevel" stroke-miterlimit="10" stroke-width="1.5"/><path fill="none" stroke="none"/><path fill="none" stroke="#de2d26" paint-order="fill stroke markers" d=" M 98.53980099502587 NaN" stroke-linejoin="bevel" stroke-miterlimit="10" stroke-width="1.5"/><path fill="none" stroke="none"/><path fill="none" stroke="#de2d26" paint-order="fill stroke markers" d=" M 100.82835820895707 NaN" stroke-linejoin="bevel" stroke-miterlimit="10" stroke-width="1.5"/><path fill="none" stroke="none"/><path fill="none" stroke="#de2d26" paint-order="fill stroke markers" d=" M 103.11691542288827 NaN" stroke-linejoin="bevel" stroke-miterlimit="10" stroke-width="1.5"/><path fill="none" stroke="none"/><path fill="none" stroke="#de2d26" paint-order="fill stroke markers" d=" M 105.40547263681583 NaN" stroke-linejoin="bevel" stroke-miterlimit="10" stroke-width="1.5"/><path fill="none" stroke="none"/><path fill="none" stroke="#de2d26" paint-order="fill stroke markers" d=" M 107.69402985074703 NaN" stroke-linejoin="bevel" stroke-miterlimit="10" stroke-width="1.5"/><path fill="none" stroke="none"/><path fill="none" stroke="#de2d26" paint-order="fill stroke markers" d=" M 109.98258706467823 NaN" stroke-linejoin="bevel" stroke-miterlimit="10" stroke-width="1.5"/><path fill="none" stroke="none"/><path fill="none" stroke="#de2d26" paint-order="fill stroke markers" d=" M 112.27114427860943 NaN" stroke-linejoin="bevel" stroke-miterlimit="10" stroke-width="1.5"/><path fill="none" stroke="none"/><path fill="none" stroke="#de2d26" paint-order="fill stroke markers" d=" M 114.55970149253699 NaN" stroke-linejoin="bevel" stroke-miterlimit="10" stroke-width="1.5"/><path fill="none" stroke="none"/><path fill="none" stroke="#de2d26" paint-order="fill stroke markers" d=" M 116.84825870646819 11.14232024281705 L 117.9925373134356 28 L 119.13681592039939 44.85767975718292 L 120.28109452736317 47.72222101423631 L 121.42537313433058 51.23850748636582 L 122.56965174129436 50.969770044986774 L 123.71393034826178 50.2846404856341 L 124.85820895522556 56.14982011475482 L 126.00248756218934 56.931268576186824 L 127.14676616915676 46.53562026631977 L 128.29104477612054 55.85017988524518 L 129.43532338308432 45.71111788436022 L 130.57960199005174 47.546112417163755 L 131.72388059701552 45.35101291957534 L 132.86815920398294 34.499111895808454 L 134.01243781094672 45.04404458472288 L 135.1567164179105 54.398292587339455 L 136.30099502487792 55.39597065182727 L 137.4452736318417 56.043073091941835 L 138.58955223880912 59.83101239027184 L 139.7338308457729 63.06852233337111 L 140.87810945273668 61.38537963342395 L 142.0223880597041 60.885808918623155 L 143.16666666666788 60.6845868411051 L 144.31094527363166 62.71385215813376 L 145.45522388059908 65.75846199418848 L 146.59950248756286 66.42696011277704 L 147.74378109453028 66.31562319610276 L 148.88805970149406 68.98414179140465 L 150.03233830845784 69.47412103917361 L 151.17661691542526 69.7806459244314 L 152.32089552238904 73.20634350959493 L 153.46517412935646 74.6311121052164 L 154.60945273632024 76.64810232804071 L 155.75373134328402 81.05265325374663 L 156.89800995025143 84.4209699436224 L 158.04228855721522 87.76697554754705 L 159.186567164179 92.68861722319032 L 160.33084577114641 94.36696926272002 L 161.4751243781102 98.52259126969139 L 162.6194029850776 102.50544964360681 L 163.7636815920414 102.94448394576023 L 164.90796019900517 103.29472360468202 L 166.0522388059726 105.43263467422948 L 167.19651741293637 107.5563488611445 L 168.34079601990015 107.99810583024335 L 169.48507462686757 108.34908786796134 L 170.62935323383135 109.1352328884161 L 171.77363184079877 110.76131535193583 L 172.91791044776255 113.31628332340107 L 174.06218905472633 115.35932647999938 L 175.20646766169375 115.30124335612798 L 176.35074626865753 118.43698481802866 L 177.49502487562495 121.58724002663338 L 178.63930348258873 124.51727778749212 L 179.7835820895525 126.77006785104744 L 180.92786069651993 130.10365301853187 L 182.0721393034837 131.97674868866514 L 183.2164179104475 136.47972537497103 L 184.3606965174149 137.07608020015238 L 185.5049751243787 138.20083376659443 L 186.6492537313461 137.82957607014808 L 187.7935323383099 140.97367311396724 L 188.93781094527367 142.96679072326143 L 190.0820895522411 146.29340904649843 L 191.22636815920487 147.8754462148682 L 192.37064676617229 150.71103151255178 L 193.51492537313607 150.8018080759505 L 194.65920398009985 155.02902522811814 L 195.80348258706726 155.19834475015404 L 196.94776119403105 159.03221016940574 L 198.09203980099483 161.75057418669113 L 199.23631840796224 164.15779729235072 L 200.38059701492602 164.80425878664707 L 201.52487562189344 164.94817169345845 L 202.66915422885722 165.03520629511223 L 203.813432835821 168.7022530360557 L 204.95771144278842 165.08394011079582 L 206.1019900497522 163.80534648671116 L 207.24626865671962 165.88753014757782 L 208.3905472636834 164.79016145948154 L 209.53482587064718 164.93272393031583 L 210.6791044776146 165.07489980617345 L 211.82338308457838 162.0591312372523 L 212.96766169154216 158.8066351052385 L 214.11194029850958 159.13102220731608 L 215.25621890547336 159.89010648192297 L 216.40049751244078 164.14385703343805 L 217.54477611940456 167.99149562299326 L 218.68905472636834 170.0250975536992 L 219.83333333333576 171.23967144509007 L 220.97761194029954 179.6976378984329 L 222.12189054726696 180.73794536947256 L 223.26616915423074 178.00915678443258 L 224.41044776119452 180.8343625476018 L 225.55472636816194 181.28844958121581 L 226.69900497512572 180.92418414584716 L 227.8432835820895 176.28316901272893 L 228.98756218905692 174.72124214710075 L 230.1318407960207 177.3332421361246 L 231.27611940298812 174.67594973228304 L 232.4203980099519 175.28440919474642 L 233.56467661691568 175.0254899864482 L 234.7089552238831 173.71035402021192 L 235.85323383084688 179.32815869329514 L 236.99751243781066 182.45149116876237 L 238.14179104477807 183.13677710699605 L 239.28606965174185 187.0540362228824 L 240.43034825870927 186.9621441509801 L 241.57462686567305 187.38039290100522 L 242.71890547263683 190.27957469111797 L 243.86318407960425 190.16598922788674 L 245.00746268656803 164.7584144869022 L 246.15174129353545 161.14772435656022 L 247.29601990049923 162.0440183855066 L 248.440298507463 159.38746304149356 L 249.58457711443043 159.73840231289586 L 250.7288557213942 159.20718356224612 L 251.873134328358 159.5549996720404 L 253.0174129353254 176.56111047591293 L 254.1616915422892 179.94255708142796 L 255.3059701492566 178.31163764058152 L 256.4502487562204 179.76710115833336 L 257.59452736318417 179.01408145591824 L 258.7388059701516 181.5477106704571 L 259.88308457711537 178.50214750030068 L 261.0273631840828 176.66450666370062 L 262.17164179104657 176.8767452074938 L 263.31592039801035 177.73814064495224 L 264.46019900497777 181.22569903647656 L 265.60447761194155 182.23553133343913 L 266.7487562189053 182.77569435831293 L 267.89303482587275 187.21153312069154 L 269.0373134328365 190.735960793167 L 270.18159203980395 197.07757939430275 L 271.3258706467677 198.39576744310233 L 272.4701492537315 203.23495395954794 L 273.6144278606989 196.4307816422751 L 274.7587064676627 196.10722192054894 L 275.9029850746301 192.01557130456462 L 277.0472636815939 190.49280658065078 L 278.1915422885577 188.80894010409938 L 279.3358208955251 186.76792764680485 L 280.4800995024889 183.22204334167216 L 281.62437810945266 183.26313779139764 L 282.7686567164201 179.3112902623058 L 283.91293532338386 179.35954656911431 L 285.0572139303513 180.54725406982104 L 286.20149253731506 177.9590130072518 L 287.34577114427884 178.6629638877068 L 288.49004975124626 179.29858685084997 L 289.63432835821004 181.37843465752272 L 290.7786069651738 181.7940748450354 L 291.92288557214124 183.38232936783606 L 293.067164179105 182.54223518758278 L 294.21144278607244 186.2056790494853 L 295.3557213930362 182.620847011502 L 296.5 181.17159058089462" stroke-linejoin="bevel" stroke-miterlimit="10" stroke-width="1.5"/></g></g></g><g clip-path="url(#QZLBsrQFbOrF)"><g><g><path fill="none" stroke="none"/><path fill="none" stroke="#9ecae1" paint-order="fill stroke markers" d=" M 66.5 30.482451139100192 L 67.64427860696742 30.5802636353784 L 68.7885572139312 30.61053606515773 L 69.93283582089862 30.33914583806788 L 71.0771144278624 30.81864757310754 L 72.22139303482618 30.978038174837252 L 73.3656716417936 30.671999929549116 L 74.50995024875738 31.224672473301496 L 75.65422885572116 31.17599753770466 L 76.79850746268858 30.86336878539919 L 77.94278606965236 31.3554562635469 L 79.08706467661978 31.086309218422855 L 80.23134328358356 31.5454140347249 L 81.37562189054734 31.28526396473862 L 82.51990049751475 31.750948007812156 L 83.66417910447854 31.645667033770025 L 84.80845771144595 31.524437349727066 L 85.95273631840973 31.31453701236694 L 87.09701492537351 31.811414908174953 L 88.24129353234093 31.787518914757328 L 89.38557213930471 31.76017149641632 L 90.5298507462685 31.772847212942622 L 91.67412935323591 31.75493944683248 L 92.81840796019969 31.79555609323083 L 93.96268656716711 31.810821545866617 L 95.10696517413089 31.82765161810056 L 96.25124378109467 31.860503577062275 L 97.39552238806209 31.9315522695442 L 98.53980099502587 32.00589806050425 L 99.68407960199329 32.06212027960166 L 100.82835820895707 32.21278380241213 L 101.97263681592085 32.152288566832965 L 103.11691542288827 32.08089781194849 L 104.26119402985205 31.97573814110055 L 105.40547263681583 31.98895657972625 L 106.54975124378325 31.94158695611077 L 107.69402985074703 31.89653968696814 L 108.83830845771445 31.852088176911792 L 109.98258706467823 31.8119003867329 L 111.12686567164201 31.775220559435866 L 112.27114427860943 31.741131304470457 L 113.41542288557321 31.712221227203912 L 114.55970149253699 31.687626854877777 L 115.7039800995044 31.665136566663563 L 116.84825870646819 31.64383336095031 L 117.9925373134356 31.62652152571721 L 119.13681592039939 31.60689108285615 L 120.28109452736317 31.589687850294013 L 121.42537313433058 31.574803827510948 L 122.56965174129436 31.562346746358344 L 123.71393034826178 31.551399763969386 L 124.85820895522556 31.539590122088754 L 126.00248756218934 31.52788849139253 L 127.14676616915676 31.494941440500043 L 128.29104477612054 32.174144068961596 L 129.43532338308432 32.26146371282363 L 130.57960199005174 32.17646456242386 L 131.72388059701552 32.084351196038 L 132.86815920398294 32.007894371705504 L 134.01243781094672 31.940076350617716 L 135.1567164179105 31.88030167137049 L 136.30099502487792 31.825008411793277 L 137.4452736318417 31.786655866518515 L 138.58955223880912 32.51084321697556 L 139.7338308457729 32.449571179124064 L 140.87810945273668 32.32909128313466 L 142.0223880597041 32.22282178371279 L 143.16666666666788 32.193463717837176 L 144.31094527363166 33.115863142576046 L 145.45522388059908 33.767859680500266 L 146.59950248756286 33.540977339386615 L 147.74378109453028 33.25563526643475 L 148.88805970149406 33.01019823573478 L 150.03233830845784 32.80036562893258 L 151.17661691542526 32.61871424566317 L 152.32089552238904 32.46522617287303 L 153.46517412935646 32.33297746693441 L 154.60945273632024 32.21623771818926 L 155.75373134328402 32.11478474523187 L 156.89800995025143 32.02877498657952 L 158.04228855721522 31.953402140966972 L 159.186567164179 31.88688315554947 L 160.33084577114641 31.831427641258045 L 161.4751243781102 31.776515114839867 L 162.6194029850776 31.734173379563913 L 163.7636815920414 31.581167254881535 L 164.90796019900517 31.66384217955499 L 166.0522388059726 31.635743674775625 L 167.19651741293637 31.505456319076785 L 168.34079601990015 31.60014996310366 L 169.48507462686757 31.59529638972697 L 170.62935323383135 31.586398243287704 L 171.77363184079877 31.578686591132453 L 172.91791044776255 31.564827362793267 L 174.06218905472633 31.555066717858864 L 175.20646766169375 31.426139574014286 L 176.35074626865753 31.429051139779432 L 177.49502487562495 31.542502073457825 L 178.63930348258873 31.54223244791524 L 179.7835820895525 31.438756430463854 L 180.92786069651993 31.546384690680185 L 182.0721393034837 31.545791511910153 L 183.2164179104475 31.546762168293128 L 184.3606965174149 31.54223244791524 L 185.5049751243787 31.536624255868958 L 186.6492537313461 31.527403173755772 L 187.7935323383099 31.52454519769367 L 188.93781094527367 31.419399876410978 L 190.0820895522411 31.523574566483035 L 191.22636815920487 31.52335887080781 L 192.37064676617229 32.2754961296495 L 193.51492537313607 32.275873928664595 L 194.65920398009985 32.1154862404961 L 195.80348258706726 32.155850166189055 L 196.94776119403105 32.101294563427246 L 198.09203980099483 32.12552308179656 L 199.23631840796224 32.812246668966054 L 200.38059701492602 32.744634949484606 L 201.52487562189344 32.61650053949697 L 202.66915422885722 32.489950849137614 L 203.813432835821 32.366010741018556 L 204.95771144278842 32.278032783375465 L 206.1019900497522 32.23037733109177 L 207.24626865671962 32.19222249824861 L 208.3905472636834 32.15811664621606 L 209.53482587064718 32.133185695708704 L 210.6791044776146 32.110359942188495 L 211.82338308457838 32.08580809662601 L 212.96766169154216 32.18331814957901 L 214.11194029850958 32.84167995512456 L 215.25621890547336 32.83563119724914 L 216.40049751244078 32.780762273106546 L 217.54477611940456 33.001285381045534 L 218.68905472636834 33.59762472346708 L 219.83333333333576 33.730447256555124 L 220.97761194029954 33.80462492574682 L 222.12189054726696 33.94899784206811 L 223.26616915423074 34.523107352142745 L 224.41044776119452 35.24896269875035 L 225.55472636816194 35.53881616367096 L 226.69900497512572 35.77885504052165 L 227.8432835820895 36.134702303710185 L 228.98756218905692 36.63091282102184 L 230.1318407960207 37.20562882196012 L 231.27611940298812 37.75449485273114 L 232.4203980099519 38.25762316958682 L 233.56467661691568 38.772576083609806 L 234.7089552238831 39.33991533258302 L 235.85323383084688 39.96600749507033 L 236.99751243781066 40.90543207876502 L 238.14179104477807 41.54527274269577 L 239.28606965174185 42.379986990133716 L 240.43034825870927 43.33239690536777 L 241.57462686567305 43.59524734053511 L 242.71890547263683 43.66486946263274 L 243.86318407960425 43.760862106330194 L 245.00746268656803 43.90643044830381 L 246.15174129353545 44.70736186820409 L 247.29601990049923 45.17130632711593 L 248.440298507463 45.56341749251757 L 249.58457711443043 46.027771067697046 L 250.7288557213942 46.521570161217966 L 251.873134328358 47.021529218017065 L 253.0174129353254 47.535570369193465 L 254.1616915422892 48.12600792025617 L 255.3059701492566 48.79542069121783 L 256.4502487562204 49.50731764238742 L 257.59452736318417 50.24262403750657 L 258.7388059701516 51.07890861455405 L 259.88308457711537 52.01144088627632 L 261.0273631840828 53.018195510018955 L 262.17164179104657 54.068817577160445 L 263.31592039801035 54.77574809091365 L 264.46019900497777 56.1439665795412 L 265.60447761194155 57.76192944747828 L 266.7487562189053 59.41866235218254 L 267.89303482587275 61.205207087481995 L 269.0373134328365 65.19272798833754 L 270.18159203980395 68.24561869919066 L 271.3258706467677 72.48635785056118 L 272.4701492537315 75.133894938508 L 273.6144278606989 77.04157492608756 L 274.7587064676627 78.50822331152376 L 275.9029850746301 79.58985414951368 L 277.0472636815939 80.35487644288358 L 278.1915422885577 80.98134866828076 L 279.3358208955251 81.5071507468983 L 280.4800995024889 82.21936379842931 L 281.62437810945266 83.27464608540026 L 282.7686567164201 86.59378809988878 L 283.91293532338386 89.26418330960036 L 285.0572139303513 92.10016032817155 L 286.20149253731506 95.23664052604265 L 287.34577114427884 95.37414403904287 L 288.49004975124626 97.88876416305489 L 289.63432835821004 101.22476323479643 L 290.7786069651738 104.5997013338406 L 291.92288557214124 107.85746397861068 L 293.067164179105 111.15180604354086 L 294.21144278607244 114.3041877722093 L 295.3557213930362 119.71527990480084 L 296.5 123.95076112321168" stroke-linejoin="bevel" stroke-miterlimit="10" stroke-width="1.5"/></g></g></g><g clip-path="url(#RrCGypWeTveO)"><g><g><path fill="none" stroke="none"/><path fill="none" stroke="#fc9272" paint-order="fill stroke markers" d=" M 66.5 NaN" stroke-linejoin="bevel" stroke-miterlimit="10" stroke-width="1.5"/><path fill="none" stroke="none"/><path fill="none" stroke="#fc9272" paint-order="fill stroke markers" d=" M 68.7885572139312 NaN" stroke-linejoin="bevel" stroke-miterlimit="10" stroke-width="1.5"/><path fill="none" stroke="none"/><path fill="none" stroke="#fc9272" paint-order="fill stroke markers" d=" M 71.0771144278624 NaN" stroke-linejoin="bevel" stroke-miterlimit="10" stroke-width="1.5"/><path fill="none" stroke="none"/><path fill="none" stroke="#fc9272" paint-order="fill stroke markers" d=" M 73.3656716417936 NaN" stroke-linejoin="bevel" stroke-miterlimit="10" stroke-width="1.5"/><path fill="none" stroke="none"/><path fill="none" stroke="#fc9272" paint-order="fill stroke markers" d=" M 75.65422885572116 NaN" stroke-linejoin="bevel" stroke-miterlimit="10" stroke-width="1.5"/><path fill="none" stroke="none"/><path fill="none" stroke="#fc9272" paint-order="fill stroke markers" d=" M 77.94278606965236 NaN" stroke-linejoin="bevel" stroke-miterlimit="10" stroke-width="1.5"/><path fill="none" stroke="none"/><path fill="none" stroke="#fc9272" paint-order="fill stroke markers" d=" M 80.23134328358356 NaN" stroke-linejoin="bevel" stroke-miterlimit="10" stroke-width="1.5"/><path fill="none" stroke="none"/><path fill="none" stroke="#fc9272" paint-order="fill stroke markers" d=" M 82.51990049751475 NaN" stroke-linejoin="bevel" stroke-miterlimit="10" stroke-width="1.5"/><path fill="none" stroke="none"/><path fill="none" stroke="#fc9272" paint-order="fill stroke markers" d=" M 84.80845771144595 NaN" stroke-linejoin="bevel" stroke-miterlimit="10" stroke-width="1.5"/><path fill="none" stroke="none"/><path fill="none" stroke="#fc9272" paint-order="fill stroke markers" d=" M 87.09701492537351 NaN" stroke-linejoin="bevel" stroke-miterlimit="10" stroke-width="1.5"/><path fill="none" stroke="none"/><path fill="none" stroke="#fc9272" paint-order="fill stroke markers" d=" M 89.38557213930471 NaN" stroke-linejoin="bevel" stroke-miterlimit="10" stroke-width="1.5"/><path fill="none" stroke="none"/><path fill="none" stroke="#fc9272" paint-order="fill stroke markers" d=" M 91.67412935323591 NaN" stroke-linejoin="bevel" stroke-miterlimit="10" stroke-width="1.5"/><path fill="none" stroke="none"/><path fill="none" stroke="#fc9272" paint-order="fill stroke markers" d=" M 93.96268656716711 NaN" stroke-linejoin="bevel" stroke-miterlimit="10" stroke-width="1.5"/><path fill="none" stroke="none"/><path fill="none" stroke="#fc9272" paint-order="fill stroke markers" d=" M 96.25124378109467 NaN" stroke-linejoin="bevel" stroke-miterlimit="10" stroke-width="1.5"/><path fill="none" stroke="none"/><path fill="none" stroke="#fc9272" paint-order="fill stroke markers" d=" M 98.53980099502587 NaN" stroke-linejoin="bevel" stroke-miterlimit="10" stroke-width="1.5"/><path fill="none" stroke="none"/><path fill="none" stroke="#fc9272" paint-order="fill stroke markers" d=" M 100.82835820895707 NaN" stroke-linejoin="bevel" stroke-miterlimit="10" stroke-width="1.5"/><path fill="none" stroke="none"/><path fill="none" stroke="#fc9272" paint-order="fill stroke markers" d=" M 103.11691542288827 NaN" stroke-linejoin="bevel" stroke-miterlimit="10" stroke-width="1.5"/><path fill="none" stroke="none"/><path fill="none" stroke="#fc9272" paint-order="fill stroke markers" d=" M 105.40547263681583 NaN" stroke-linejoin="bevel" stroke-miterlimit="10" stroke-width="1.5"/><path fill="none" stroke="none"/><path fill="none" stroke="#fc9272" paint-order="fill stroke markers" d=" M 107.69402985074703 NaN" stroke-linejoin="bevel" stroke-miterlimit="10" stroke-width="1.5"/><path fill="none" stroke="none"/><path fill="none" stroke="#fc9272" paint-order="fill stroke markers" d=" M 109.98258706467823 NaN" stroke-linejoin="bevel" stroke-miterlimit="10" stroke-width="1.5"/><path fill="none" stroke="none"/><path fill="none" stroke="#fc9272" paint-order="fill stroke markers" d=" M 112.27114427860943 NaN" stroke-linejoin="bevel" stroke-miterlimit="10" stroke-width="1.5"/><path fill="none" stroke="none"/><path fill="none" stroke="#fc9272" paint-order="fill stroke markers" d=" M 114.55970149253699 NaN" stroke-linejoin="bevel" stroke-miterlimit="10" stroke-width="1.5"/><path fill="none" stroke="none"/><path fill="none" stroke="#fc9272" paint-order="fill stroke markers" d=" M 116.84825870646819 NaN" stroke-linejoin="bevel" stroke-miterlimit="10" stroke-width="1.5"/><path fill="none" stroke="none"/><path fill="none" stroke="#fc9272" paint-order="fill stroke markers" d=" M 119.13681592039939 28 L 120.28109452736317 44.85767975718295 L 121.42537313433058 54.718790264301106 L 122.56965174129436 61.7153595143659 L 123.71393034826178 67.14232024281705 L 124.85820895522556 71.57647002148404 L 126.00248756218934 75.32549024079839 L 127.14676616915676 78.57303927154881 L 128.29104477612054 81.43758052860218 L 129.43532338308432 67.14232024281705 L 130.57960199005174 71.57647002148404 L 131.72388059701552 38.745589469379155 L 132.86815920398294 48.25675881698518 L 134.01243781094672 50.65595290397883 L 135.1567164179105 58.733610844985265 L 136.30099502487792 54.31003289477712 L 137.4452736318417 51.54832684796364 L 138.58955223880912 47.94637459164204 L 139.7338308457729 55.34645067343263 L 140.87810945273668 57.43761214601244 L 142.0223880597041 57.58333152135444 L 143.16666666666788 56.59608017634625 L 144.31094527363166 56.65219645951541 L 145.45522388059908 59.06377966953676 L 146.59950248756286 63.63030818316466 L 147.74378109453028 62.52830336126499 L 148.88805970149406 63.682815331149044 L 150.03233830845784 65.2906011400805 L 151.17661691542526 66.62046021053851 L 152.32089552238904 68.87383467564689 L 153.46517412935646 70.00564696312833 L 154.60945273632024 70.7651709465733 L 155.75373134328402 72.7440778039788 L 156.89800995025143 72.33510142608714 L 158.04228855721522 75.27326670562218 L 159.186567164179 77.35118480599252 L 160.33084577114641 79.83818078406695 L 161.4751243781102 81.17523652311017 L 162.6194029850776 84.25141900832784 L 163.7636815920414 86.2854980581003 L 164.90796019900517 88.56726421970367 L 166.0522388059726 90.79972182658221 L 167.19651741293637 92.473315913969 L 168.34079601990015 90.38300046255512 L 169.48507462686757 92.38372326537018 L 170.62935323383135 92.71841954257548 L 171.77363184079877 93.33158810299464 L 172.91791044776255 94.7287427118067 L 174.06218905472633 96.39927476815421 L 175.20646766169375 97.58676248924033 L 176.35074626865753 101.63856407813502 L 177.49502487562495 102.30805275610969 L 178.63930348258873 102.41344299955847 L 179.7835820895525 104.8804265563743 L 180.92786069651993 106.49320242968366 L 182.0721393034837 105.75338379763062 L 183.2164179104475 106.53863430557551 L 184.3606965174149 105.24572432585906 L 185.5049751243787 107.269044164696 L 186.6492537313461 107.75396598327687 L 187.7935323383099 109.78671928476149 L 188.93781094527367 109.6325574911974 L 190.0820895522411 110.13869974668934 L 191.22636815920487 110.65698466309274 L 192.37064676617229 113.73249753353227 L 193.51492537313607 114.73844391014697 L 194.65920398009985 118.14377465413651 L 195.80348258706726 118.73395125507129 L 196.94776119403105 122.5576939330115 L 198.09203980099483 125.13836559810646 L 199.23631840796224 126.0846389118965 L 200.38059701492602 128.04245059579782 L 201.52487562189344 127.26018356529374 L 202.66915422885722 128.1878609822483 L 203.813432835821 127.08888421152561 L 204.95771144278842 127.23398453341711 L 206.1019900497522 126.82717795918842 L 207.24626865671962 131.01495444239157 L 208.3905472636834 131.49222381175588 L 209.53482587064718 133.56169887838277 L 210.6791044776146 134.01462049101912 L 211.82338308457838 136.14381343293311 L 212.96766169154216 137.1848576398944 L 214.11194029850958 139.99601270742826 L 215.25621890547336 137.8012581984971 L 216.40049751244078 137.35514943549063 L 217.54477611940456 140.0430754284356 L 218.68905472636834 140.73090630619797 L 219.83333333333576 141.7669912004762 L 220.97761194029954 144.89304058112242 L 222.12189054726696 144.38050493464004 L 223.26616915423074 146.02538800486434 L 224.41044776119452 151.55714673177528 L 225.55472636816194 152.13234567224225 L 226.69900497512572 155.7730406984834 L 227.8432835820895 154.7415203473759 L 228.98756218905692 153.32188976820805 L 230.1318407960207 158.88907658821296 L 231.27611940298812 161.1973691382761 L 232.4203980099519 159.21299548196117 L 233.56467661691568 161.77474369462192 L 234.7089552238831 162.74926652052 L 235.85323383084688 169.71408984742345 L 236.99751243781066 173.6192720779813 L 238.14179104477807 171.2367448945562 L 239.28606965174185 172.2149627223199 L 240.43034825870927 175.02833153168135 L 241.57462686567305 172.90051920107646 L 242.71890547263683 173.9323829701217 L 243.86318407960425 171.1940269205829 L 245.00746268656803 162.4813546499087 L 246.15174129353545 161.85162327271425 L 247.29601990049923 161.4781943633899 L 248.440298507463 163.02375561873316 L 249.58457711443043 163.74641440687796 L 250.7288557213942 162.59673878136513 L 251.873134328358 159.41481159055868 L 253.0174129353254 163.16754014395707 L 254.1616915422892 165.85090389498134 L 255.3059701492566 168.5275737148787 L 256.4502487562204 163.29766204063947 L 257.59452736318417 162.90679074957728 L 258.7388059701516 160.71613708528866 L 259.88308457711537 162.39655938408532 L 261.0273631840828 164.17945621560185 L 262.17164179104657 162.12196100960375 L 263.31592039801035 159.62304963211255 L 264.46019900497777 162.21407698247708 L 265.60447761194155 161.52865041706437 L 266.7487562189053 162.75494718501668 L 267.89303482587275 163.3156574515119 L 269.0373134328365 165.4928609411417 L 270.18159203980395 169.15691748644377 L 271.3258706467677 171.07815701154132 L 272.4701492537315 172.97279836464 L 273.6144278606989 174.45598239169874 L 274.7587064676627 176.02361974067279 L 275.9029850746301 178.74960439478684 L 277.0472636815939 176.52051004352433 L 278.1915422885577 170.17859467646824 L 279.3358208955251 163.9851912794013 L 280.4800995024889 158.81381909314638 L 281.62437810945266 156.4961936775699 L 282.7686567164201 155.36754543507092 L 283.91293532338386 152.58680122190543 L 285.0572139303513 153.2418114150986 L 286.20149253731506 152.02105536848057 L 287.34577114427884 155.20834637128613 L 288.49004975124626 158.54060395504948 L 289.63432835821004 161.0168824992169 L 290.7786069651738 162.34052379969563 L 291.92288557214124 164.0557572644934 L 293.067164179105 163.37738142198987 L 294.21144278607244 166.4566605082829 L 295.3557213930362 167.4093730260496 L 296.5 165.77634884887294" stroke-linejoin="bevel" stroke-miterlimit="10" stroke-width="1.5"/></g></g></g><g><g/><g><path fill="#ffffff" stroke="none" paint-order="stroke fill markers" d=" M 14.441864013671875 258 L 308 258 L 308 278.98333740234375 L 14.441864013671875 278.98333740234375 L 14.441864013671875 258 Z" fill-opacity="0.95"/><text fill="#444444" stroke="none" font-family="helvetica" font-size="13px" font-style="normal" font-weight="normal" text-decoration="normal" x="39.441864013671875" y="268.4916687011719" text-anchor="start" dominant-baseline="central">Bergen, New Jersey</text><g><path fill="none" stroke="#3182bd" paint-order="fill stroke markers" d=" M 14.441864013671875 268 L 34.441864013671875 268" stroke-linejoin="bevel" stroke-miterlimit="10" stroke-width="1.5"/></g><text fill="#444444" stroke="none" font-family="helvetica" font-size="13px" font-style="normal" font-weight="normal" text-decoration="normal" x="184.06977081298828" y="268.4916687011719" text-anchor="start" dominant-baseline="central">Camden, New Jersey</text><g><path fill="none" stroke="#9ecae1" paint-order="fill stroke markers" d=" M 159.06977081298828 268 L 179.06977081298828 268" stroke-linejoin="bevel" stroke-miterlimit="10" stroke-width="1.5"/></g></g></g><g><g/><g><path fill="#ffffff" stroke="none" paint-order="stroke fill markers" d=" M 14.441864013671875 279 L 308 279 L 308 299.98333740234375 L 14.441864013671875 299.98333740234375 L 14.441864013671875 279 Z" fill-opacity="0.95"/><text fill="#444444" stroke="none" font-family="helvetica" font-size="13px" font-style="normal" font-weight="normal" text-decoration="normal" x="39.441864013671875" y="289.4916687011719" text-anchor="start" dominant-baseline="central">Bergen, New Jersey</text><g><path fill="none" stroke="#de2d26" paint-order="fill stroke markers" d=" M 14.441864013671875 289 L 34.441864013671875 289" stroke-linejoin="bevel" stroke-miterlimit="10" stroke-width="1.5"/></g><text fill="#444444" stroke="none" font-family="helvetica" font-size="13px" font-style="normal" font-weight="normal" text-decoration="normal" x="184.06977081298828" y="289.4916687011719" text-anchor="start" dominant-baseline="central">Camden, New Jersey</text><g><path fill="none" stroke="#fc9272" paint-order="fill stroke markers" d=" M 159.06977081298828 289 L 179.06977081298828 289" stroke-linejoin="bevel" stroke-miterlimit="10" stroke-width="1.5"/></g></g></g><g><g fill="#444444"><path fill="" stroke="none" d=""/><g transform="translate(55,23)"><path fill="none" stroke="none"/><text fill="" stroke="none" font-family="helvetica" font-size="13px" font-style="normal" font-weight="bold" text-decoration="normal" x="0" y="0" text-anchor="start" dominant-baseline="text-after-edge">Beta - New Jersey</text></g></g></g><g/><g><g fill="#444444"><path fill="none" stroke="black" paint-order="fill stroke markers" d=" M 55 196 L 308 196" stroke-linejoin="bevel" stroke-miterlimit="10"/><path fill="none" stroke="black" paint-order="fill stroke markers" d=" M 79 202 L 79 194" stroke-linejoin="bevel" stroke-miterlimit="10"/><path fill="none" stroke="black" paint-order="fill stroke markers" d=" M 112 202 L 112 194" stroke-linejoin="bevel" stroke-miterlimit="10"/><path fill="none" stroke="black" paint-order="fill stroke markers" d=" M 148 202 L 148 194" stroke-linejoin="bevel" stroke-miterlimit="10"/><path fill="none" stroke="black" paint-order="fill stroke markers" d=" M 182 202 L 182 194" stroke-linejoin="bevel" stroke-miterlimit="10"/><path fill="none" stroke="black" paint-order="fill stroke markers" d=" M 218 202 L 218 194" stroke-linejoin="bevel" stroke-miterlimit="10"/><path fill="none" stroke="black" paint-order="fill stroke markers" d=" M 252 202 L 252 194" stroke-linejoin="bevel" stroke-miterlimit="10"/><path fill="" stroke="black" paint-order="fill stroke markers" d=" M 287 202 L 287 194" stroke-linejoin="bevel" stroke-miterlimit="10"/><g transform="translate(79,207) rotate(-45,0,0)"><text fill="" stroke="none" font-family="helvetica" font-size="11px" font-style="normal" font-weight="normal" text-decoration="normal" x="0" y="0" text-anchor="end" dominant-baseline="central">2/2020</text><g transform="rotate(45,0,0) translate(-79,-207) translate(112,207) rotate(-45,0,0)"><text fill="" stroke="none" font-family="helvetica" font-size="11px" font-style="normal" font-weight="normal" text-decoration="normal" x="0" y="0" text-anchor="end" dominant-baseline="central">3/2020</text><g transform="rotate(45,0,0) translate(-112,-207) translate(148,207) rotate(-45,0,0)"><text fill="" stroke="none" font-family="helvetica" font-size="11px" font-style="normal" font-weight="normal" text-decoration="normal" x="0" y="0" text-anchor="end" dominant-baseline="central">4/2020</text><g transform="rotate(45,0,0) translate(-148,-207) translate(182,207) rotate(-45,0,0)"><text fill="" stroke="none" font-family="helvetica" font-size="11px" font-style="normal" font-weight="normal" text-decoration="normal" x="0" y="0" text-anchor="end" dominant-baseline="central">5/2020</text><g transform="rotate(45,0,0) translate(-182,-207) translate(218,207) rotate(-45,0,0)"><text fill="" stroke="none" font-family="helvetica" font-size="11px" font-style="normal" font-weight="normal" text-decoration="normal" x="0" y="0" text-anchor="end" dominant-baseline="central">6/2020</text><g transform="rotate(45,0,0) translate(-218,-207) translate(252,207) rotate(-45,0,0)"><text fill="" stroke="none" font-family="helvetica" font-size="11px" font-style="normal" font-weight="normal" text-decoration="normal" x="0" y="0" text-anchor="end" dominant-baseline="central">7/2020</text><g transform="rotate(45,0,0) translate(-252,-207) translate(287,207) rotate(-45,0,0)"><text fill="" stroke="none" font-family="helvetica" font-size="11px" font-style="normal" font-weight="normal" text-decoration="normal" x="0" y="0" text-anchor="end" dominant-baseline="central">8/2020</text><g transform="rotate(45,0,0) translate(-287,-207) translate(182,243) rotate(0,0,0)"><text fill="" stroke="none" font-family="helvetica" font-size="13px" font-style="italic" font-weight="normal" text-decoration="normal" x="0" y="0" text-anchor="middle" dominant-baseline="hanging">Month</text><g transform="rotate(0,0,0) translate(-182,-243)"/></g></g></g></g></g></g></g></g></g></g><g><g fill="#444444"><path fill="none" stroke="black" paint-order="fill stroke markers" d=" M 55 196 L 55 28" stroke-linejoin="bevel" stroke-miterlimit="10"/><path fill="none" stroke="black" paint-order="fill stroke markers" d=" M 49 176 L 57 176" stroke-linejoin="bevel" stroke-miterlimit="10"/><path fill="none" stroke="black" paint-order="fill stroke markers" d=" M 49 124 L 57 124" stroke-linejoin="bevel" stroke-miterlimit="10"/><path fill="none" stroke="black" paint-order="fill stroke markers" d=" M 49 75 L 57 75" stroke-linejoin="bevel" stroke-miterlimit="10"/><path fill="none" stroke="black" paint-order="fill stroke markers" d=" M 49 29 L 57 29" stroke-linejoin="bevel" stroke-miterlimit="10"/><path fill="none" stroke="black" paint-order="fill stroke markers" d=" M 51 181 L 55 181" stroke-linejoin="bevel" stroke-miterlimit="10"/><path fill="none" stroke="black" paint-order="fill stroke markers" d=" M 51 187 L 55 187" stroke-linejoin="bevel" stroke-miterlimit="10"/><path fill="none" stroke="black" paint-order="fill stroke markers" d=" M 51 192 L 55 192" stroke-linejoin="bevel" stroke-miterlimit="10"/><path fill="none" stroke="black" paint-order="fill stroke markers" d=" M 51 176 L 55 176" stroke-linejoin="bevel" stroke-miterlimit="10"/><path fill="none" stroke="black" paint-order="fill stroke markers" d=" M 51 171 L 55 171" stroke-linejoin="bevel" stroke-miterlimit="10"/><path fill="none" stroke="black" paint-order="fill stroke markers" d=" M 51 165 L 55 165" stroke-linejoin="bevel" stroke-miterlimit="10"/><path fill="none" stroke="black" paint-order="fill stroke markers" d=" M 51 160 L 55 160" stroke-linejoin="bevel" stroke-miterlimit="10"/><path fill="none" stroke="black" paint-order="fill stroke markers" d=" M 51 155 L 55 155" stroke-linejoin="bevel" stroke-miterlimit="10"/><path fill="none" stroke="black" paint-order="fill stroke markers" d=" M 51 150 L 55 150" stroke-linejoin="bevel" stroke-miterlimit="10"/><path fill="none" stroke="black" paint-order="fill stroke markers" d=" M 51 144 L 55 144" stroke-linejoin="bevel" stroke-miterlimit="10"/><path fill="none" stroke="black" paint-order="fill stroke markers" d=" M 51 139 L 55 139" stroke-linejoin="bevel" stroke-miterlimit="10"/><path fill="none" stroke="black" paint-order="fill stroke markers" d=" M 51 134 L 55 134" stroke-linejoin="bevel" stroke-miterlimit="10"/><path fill="none" stroke="black" paint-order="fill stroke markers" d=" M 51 129 L 55 129" stroke-linejoin="bevel" stroke-miterlimit="10"/><path fill="none" stroke="black" paint-order="fill stroke markers" d=" M 51 124 L 55 124" stroke-linejoin="bevel" stroke-miterlimit="10"/><path fill="none" stroke="black" paint-order="fill stroke markers" d=" M 51 119 L 55 119" stroke-linejoin="bevel" stroke-miterlimit="10"/><path fill="none" stroke="black" paint-order="fill stroke markers" d=" M 51 114 L 55 114" stroke-linejoin="bevel" stroke-miterlimit="10"/><path fill="none" stroke="black" paint-order="fill stroke markers" d=" M 51 109 L 55 109" stroke-linejoin="bevel" stroke-miterlimit="10"/><path fill="none" stroke="black" paint-order="fill stroke markers" d=" M 51 104 L 55 104" stroke-linejoin="bevel" stroke-miterlimit="10"/><path fill="none" stroke="black" paint-order="fill stroke markers" d=" M 51 99 L 55 99" stroke-linejoin="bevel" stroke-miterlimit="10"/><path fill="none" stroke="black" paint-order="fill stroke markers" d=" M 51 94 L 55 94" stroke-linejoin="bevel" stroke-miterlimit="10"/><path fill="none" stroke="black" paint-order="fill stroke markers" d=" M 51 89 L 55 89" stroke-linejoin="bevel" stroke-miterlimit="10"/><path fill="none" stroke="black" paint-order="fill stroke markers" d=" M 51 85 L 55 85" stroke-linejoin="bevel" stroke-miterlimit="10"/><path fill="none" stroke="black" paint-order="fill stroke markers" d=" M 51 80 L 55 80" stroke-linejoin="bevel" stroke-miterlimit="10"/><path fill="none" stroke="black" paint-order="fill stroke markers" d=" M 51 75 L 55 75" stroke-linejoin="bevel" stroke-miterlimit="10"/><path fill="none" stroke="black" paint-order="fill stroke markers" d=" M 51 70 L 55 70" stroke-linejoin="bevel" stroke-miterlimit="10"/><path fill="none" stroke="black" paint-order="fill stroke markers" d=" M 51 66 L 55 66" stroke-linejoin="bevel" stroke-miterlimit="10"/><path fill="none" stroke="black" paint-order="fill stroke markers" d=" M 51 61 L 55 61" stroke-linejoin="bevel" stroke-miterlimit="10"/><path fill="none" stroke="black" paint-order="fill stroke markers" d=" M 51 56 L 55 56" stroke-linejoin="bevel" stroke-miterlimit="10"/><path fill="none" stroke="black" paint-order="fill stroke markers" d=" M 51 52 L 55 52" stroke-linejoin="bevel" stroke-miterlimit="10"/><path fill="none" stroke="black" paint-order="fill stroke markers" d=" M 51 47 L 55 47" stroke-linejoin="bevel" stroke-miterlimit="10"/><path fill="none" stroke="black" paint-order="fill stroke markers" d=" M 51 42 L 55 42" stroke-linejoin="bevel" stroke-miterlimit="10"/><path fill="none" stroke="black" paint-order="fill stroke markers" d=" M 51 38 L 55 38" stroke-linejoin="bevel" stroke-miterlimit="10"/><path fill="none" stroke="black" paint-order="fill stroke markers" d=" M 51 33 L 55 33" stroke-linejoin="bevel" stroke-miterlimit="10"/><path fill="" stroke="black" paint-order="fill stroke markers" d=" M 51 29 L 55 29" stroke-linejoin="bevel" stroke-miterlimit="10"/><g transform="translate(44,176) rotate(0,0,0)"><text fill="" stroke="none" font-family="helvetica" font-size="11px" font-style="normal" font-weight="normal" text-decoration="normal" x="0" y="0" text-anchor="end" dominant-baseline="central">0.8</text><g transform="rotate(0,0,0) translate(-44,-176) translate(44,124) rotate(0,0,0)"><text fill="" stroke="none" font-family="helvetica" font-size="11px" font-style="normal" font-weight="normal" text-decoration="normal" x="0" y="0" text-anchor="end" dominant-baseline="central">0.85</text><g transform="rotate(0,0,0) translate(-44,-124) translate(44,75) rotate(0,0,0)"><text fill="" stroke="none" font-family="helvetica" font-size="11px" font-style="normal" font-weight="normal" text-decoration="normal" x="0" y="0" text-anchor="end" dominant-baseline="central">0.9</text><g transform="rotate(0,0,0) translate(-44,-75) translate(44,29) rotate(0,0,0)"><text fill="" stroke="none" font-family="helvetica" font-size="11px" font-style="normal" font-weight="normal" text-decoration="normal" x="0" y="0" text-anchor="end" dominant-baseline="central">0.95</text><g transform="rotate(0,0,0) translate(-44,-29) translate(15,112) rotate(-90,0,0)"><text fill="" stroke="none" font-family="helvetica" font-size="13px" font-style="italic" font-weight="normal" text-decoration="normal" x="0" y="0" text-anchor="middle" dominant-baseline="alphabetic">log(beta)</text><g transform="rotate(90,0,0) translate(-15,-112)"/></g></g></g></g></g></g></g><g><g fill="#444444"><path fill="none" stroke="black" paint-order="fill stroke markers" d=" M 308 196 L 308 28" stroke-linejoin="bevel" stroke-miterlimit="10"/><path fill="none" stroke="black" paint-order="fill stroke markers" d=" M 314 196 L 306 196" stroke-linejoin="bevel" stroke-miterlimit="10"/><path fill="none" stroke="black" paint-order="fill stroke markers" d=" M 314 140 L 306 140" stroke-linejoin="bevel" stroke-miterlimit="10"/><path fill="none" stroke="black" paint-order="fill stroke markers" d=" M 314 84 L 306 84" stroke-linejoin="bevel" stroke-miterlimit="10"/><path fill="none" stroke="black" paint-order="fill stroke markers" d=" M 314 28 L 306 28" stroke-linejoin="bevel" stroke-miterlimit="10"/><path fill="none" stroke="black" paint-order="fill stroke markers" d=" M 312 196 L 308 196" stroke-linejoin="bevel" stroke-miterlimit="10"/><path fill="none" stroke="black" paint-order="fill stroke markers" d=" M 312 179 L 308 179" stroke-linejoin="bevel" stroke-miterlimit="10"/><path fill="none" stroke="black" paint-order="fill stroke markers" d=" M 312 162 L 308 162" stroke-linejoin="bevel" stroke-miterlimit="10"/><path fill="none" stroke="black" paint-order="fill stroke markers" d=" M 312 152 L 308 152" stroke-linejoin="bevel" stroke-miterlimit="10"/><path fill="none" stroke="black" paint-order="fill stroke markers" d=" M 312 145 L 308 145" stroke-linejoin="bevel" stroke-miterlimit="10"/><path fill="none" stroke="black" paint-order="fill stroke markers" d=" M 312 140 L 308 140" stroke-linejoin="bevel" stroke-miterlimit="10"/><path fill="none" stroke="black" paint-order="fill stroke markers" d=" M 312 123 L 308 123" stroke-linejoin="bevel" stroke-miterlimit="10"/><path fill="none" stroke="black" paint-order="fill stroke markers" d=" M 312 106 L 308 106" stroke-linejoin="bevel" stroke-miterlimit="10"/><path fill="none" stroke="black" paint-order="fill stroke markers" d=" M 312 96 L 308 96" stroke-linejoin="bevel" stroke-miterlimit="10"/><path fill="none" stroke="black" paint-order="fill stroke markers" d=" M 312 89 L 308 89" stroke-linejoin="bevel" stroke-miterlimit="10"/><path fill="none" stroke="black" paint-order="fill stroke markers" d=" M 312 84 L 308 84" stroke-linejoin="bevel" stroke-miterlimit="10"/><path fill="none" stroke="black" paint-order="fill stroke markers" d=" M 312 67 L 308 67" stroke-linejoin="bevel" stroke-miterlimit="10"/><path fill="none" stroke="black" paint-order="fill stroke markers" d=" M 312 50 L 308 50" stroke-linejoin="bevel" stroke-miterlimit="10"/><path fill="none" stroke="black" paint-order="fill stroke markers" d=" M 312 40 L 308 40" stroke-linejoin="bevel" stroke-miterlimit="10"/><path fill="none" stroke="black" paint-order="fill stroke markers" d=" M 312 33 L 308 33" stroke-linejoin="bevel" stroke-miterlimit="10"/><path fill="" stroke="black" paint-order="fill stroke markers" d=" M 312 28 L 308 28" stroke-linejoin="bevel" stroke-miterlimit="10"/><g transform="translate(319,196) rotate(0,0,0)"><text fill="" stroke="none" font-family="helvetica" font-size="11px" font-style="normal" font-weight="normal" text-decoration="normal" x="0" y="0" text-anchor="start" dominant-baseline="central">10^-3</text><g transform="rotate(0,0,0) translate(-319,-196) translate(319,140) rotate(0,0,0)"><text fill="" stroke="none" font-family="helvetica" font-size="11px" font-style="normal" font-weight="normal" text-decoration="normal" x="0" y="0" text-anchor="start" dominant-baseline="central">10^-2</text><g transform="rotate(0,0,0) translate(-319,-140) translate(319,84) rotate(0,0,0)"><text fill="" stroke="none" font-family="helvetica" font-size="11px" font-style="normal" font-weight="normal" text-decoration="normal" x="0" y="0" text-anchor="start" dominant-baseline="central">10^-1</text><g transform="rotate(0,0,0) translate(-319,-84) translate(319,28) rotate(0,0,0)"><text fill="" stroke="none" font-family="helvetica" font-size="11px" font-style="normal" font-weight="normal" text-decoration="normal" x="0" y="0" text-anchor="start" dominant-baseline="central">10^0</text><g transform="rotate(0,0,0) translate(-319,-28) translate(354,112) rotate(90,0,0)"><text fill="" stroke="none" font-family="helvetica" font-size="13px" font-style="italic" font-weight="normal" text-decoration="normal" x="0" y="0" text-anchor="middle" dominant-baseline="alphabetic">log(growth)</text><g transform="rotate(-90,0,0) translate(-354,-112)"/></g></g></g></g></g></g></g></g><g/><g/><g/><g/><g/><g/><g/><g/><g/><g/><g/><g/><g/><g/><g/><g/><g/><g/><g/><g/><g/><g/><g/><g/><g/><g/><g/><g/><g/><g/><g/><g/><g/><g/><g/><g/><g/><g/><g/><g/><g/><g/><g/><g/><g/><g/><g/><g/><g/><g/></g></svg>