<svg version="1.1" xmlns="http://www.w3.org/2000/svg" xmlns:xlink="http://www.w3.org/1999/xlink" width="500" height="350" style="width: 500px; height: 350px;"><defs><clipPath id="iOgVsEvqZdzf"><path fill="none" stroke="none" d=" M 159 28 L 425 28 L 425 305 L 159 305 L 159 28 Z"/></clipPath><clipPath id="HZrSbXLPSQBe"><path fill="none" stroke="none" d=" M 159 28 L 425 28 L 425 305 L 159 305 L 159 28 Z"/></clipPath><clipPath id="nBWHWhzOgSVr"><path fill="none" stroke="none" d=" M 159 28 L 425 28 L 425 305 L 159 305 L 159 28 Z"/></clipPath><clipPath id="wsGbsIbvGbtN"><path fill="none" stroke="none" d=" M 159 28 L 425 28 L 425 305 L 159 305 L 159 28 Z"/></clipPath><clipPath id="TUSzIZAqXcbl"><path fill="none" stroke="none" d=" M 159 28 L 425 28 L 425 305 L 159 305 L 159 28 Z"/></clipPath><clipPath id="TPyJortIibAt"><path fill="none" stroke="none" d=" M 159 28 L 425 28 L 425 305 L 159 305 L 159 28 Z"/></clipPath><clipPath id="bXkLqzHKcDny"><path fill="none" stroke="none" d=" M 159 28 L 425 28 L 425 305 L 159 305 L 159 28 Z"/></clipPath><clipPath id="xfTqSsUTPSry"><path fill="none" stroke="none" d=" M 159 28 L 425 28 L 425 305 L 159 305 L 159 28 Z"/></clipPath><clipPath id="JHMttynPPPQi"><path fill="none" stroke="none" d=" M 159 28 L 425 28 L 425 305 L 159 305 L 159 28 Z"/></clipPath><clipPath id="AnQLlCBAqJvT"><path fill="none" stroke="none" d=" M 159 28 L 425 28 L 425 305 L 159 305 L 159 28 Z"/></clipPath><clipPath id="KCEcHGnnIhvU"><path fill="none" stroke="none" d=" M 159 28 L 425 28 L 425 305 L 159 305 L 159 28 Z"/></clipPath><clipPath id="NBBXBOKqClqp"><path fill="none" stroke="none" d=" M 159 28 L 425 28 L 425 305 L 159 305 L 159 28 Z"/></clipPath><clipPath id="IKTeQgRrgsSE"><path fill="none" stroke="none" d=" M 159 28 L 425 28 L 425 305 L 159 305 L 159 28 Z"/></clipPath><clipPath id="ThTqmqtULrIa"><path fill="none" stroke="none" d=" M 159 28 L 425 28 L 425 305 L 159 305 L 159 28 Z"/></clipPath><clipPath id="SVuZmgOuJWpF"><path fill="none" stroke="none" d=" M 159 28 L 425 28 L 425 305 L 159 305 L 159 28 Z"/></clipPath><clipPath id="IyOtsgPdcexP"><path fill="none" stroke="none" d=" M 159 28 L 425 28 L 425 305 L 159 305 L 159 28 Z"/></clipPath><clipPath id="uFFJUrTgKAoa"><path fill="none" stroke="none" d=" M 159 28 L 425 28 L 425 305 L 159 305 L 159 28 Z"/></clipPath><clipPath id="kCvzroiyGSaX"><path fill="none" stroke="none" d=" M 159 28 L 425 28 L 425 305 L 159 305 L 159 28 Z"/></clipPath><clipPath id="bDzDqHWTHqXf"><path fill="none" stroke="none" d=" M 159 28 L 425 28 L 425 305 L 159 305 L 159 28 Z"/></clipPath><clipPath id="xKvqInPeFmvO"><path fill="none" stroke="none" d=" M 159 28 L 425 28 L 425 305 L 159 305 L 159 28 Z"/></clipPath><clipPath id="HzZTUxqBHlDh"><path fill="none" stroke="none" d=" M 159 28 L 425 28 L 425 305 L 159 305 L 159 28 Z"/></clipPath><clipPath id="SxOVaOItsdNW"><path fill="none" stroke="none" d=" M 159 28 L 425 28 L 425 305 L 159 305 L 159 28 Z"/></clipPath><clipPath id="DSgVECnORTAB"><path fill="none" stroke="none" d=" M 159 28 L 425 28 L 425 305 L 159 305 L 159 28 Z"/></clipPath><clipPath id="XHrWfMekToWf"><path fill="none" stroke="none" d=" M 159 28 L 425 28 L 425 305 L 159 305 L 159 28 Z"/></clipPath><clipPath id="AfMaucSlPaKR"><path fill="none" stroke="none" d=" M 159 28 L 425 28 L 425 305 L 159 305 L 159 28 Z"/></clipPath><clipPath id="goSpbMXfZpTd"><path fill="none" stroke="none" d=" M 159 28 L 425 28 L 425 305 L 159 305 L 159 28 Z"/></clipPath><clipPath id="kPEFPHFcWcHX"><path fill="none" stroke="none" d=" M 159 28 L 425 28 L 425 305 L 159 305 L 159 28 Z"/></clipPath><clipPath id="WCXNeurbLkRm"><path fill="none" stroke="none" d=" M 159 28 L 425 28 L 425 305 L 159 305 L 159 28 Z"/></clipPath></defs><g><g transform="scale(1,1) translate(0.5,0.5)"><rect fill="#FFFFFF" stroke="none" x="0" y="0" width="500" height="350"/><rect fill="#ffffff" stroke="none" x="0" y="0" width="500" height="350"/><rect fill="#FFFFFF" stroke="none" x="159" y="28" width="266" height="277"/><rect fill="#ffffff" stroke="none" x="159" y="28" width="266" height="277"/><g><rect fill="none" stroke="#e5e5e5" x="159" y="28" width="266" height="277" stroke-linejoin="bevel" stroke-miterlimit="10"/></g><g clip-path="url(#iOgVsEvqZdzf)"><g><g><path fill="none" stroke="#e5e5e5" paint-order="fill stroke markers" d=" M 226 305 L 226 28" stroke-linejoin="bevel" stroke-miterlimit="10"/><path fill="none" stroke="#e5e5e5" paint-order="fill stroke markers" d=" M 270 305 L 270 28" stroke-linejoin="bevel" stroke-miterlimit="10"/><path fill="none" stroke="#e5e5e5" paint-order="fill stroke markers" d=" M 314 305 L 314 28" stroke-linejoin="bevel" stroke-miterlimit="10"/><path fill="none" stroke="#e5e5e5" paint-order="fill stroke markers" d=" M 359 305 L 359 28" stroke-linejoin="bevel" stroke-miterlimit="10"/><path fill="none" stroke="#e5e5e5" paint-order="fill stroke markers" d=" M 403 305 L 403 28" stroke-linejoin="bevel" stroke-miterlimit="10"/></g></g></g><g clip-path="url(#HZrSbXLPSQBe)"><g><g><path fill="none" stroke="#e5e5e5" paint-order="fill stroke markers" d=" M 159 294 L 425 294" stroke-linejoin="bevel" stroke-miterlimit="10"/><path fill="none" stroke="#e5e5e5" paint-order="fill stroke markers" d=" M 159 273 L 425 273" stroke-linejoin="bevel" stroke-miterlimit="10"/><path fill="none" stroke="#e5e5e5" paint-order="fill stroke markers" d=" M 159 252 L 425 252" stroke-linejoin="bevel" stroke-miterlimit="10"/><path fill="none" stroke="#e5e5e5" paint-order="fill stroke markers" d=" M 159 230 L 425 230" stroke-linejoin="bevel" stroke-miterlimit="10"/><path fill="none" stroke="#e5e5e5" paint-order="fill stroke markers" d=" M 159 209 L 425 209" stroke-linejoin="bevel" stroke-miterlimit="10"/><path fill="none" stroke="#e5e5e5" paint-order="fill stroke markers" d=" M 159 188 L 425 188" stroke-linejoin="bevel" stroke-miterlimit="10"/><path fill="none" stroke="#e5e5e5" paint-order="fill stroke markers" d=" M 159 167 L 425 167" stroke-linejoin="bevel" stroke-miterlimit="10"/><path fill="none" stroke="#e5e5e5" paint-order="fill stroke markers" d=" M 159 145 L 425 145" stroke-linejoin="bevel" stroke-miterlimit="10"/><path fill="none" stroke="#e5e5e5" paint-order="fill stroke markers" d=" M 159 124 L 425 124" stroke-linejoin="bevel" stroke-miterlimit="10"/><path fill="none" stroke="#e5e5e5" paint-order="fill stroke markers" d=" M 159 103 L 425 103" stroke-linejoin="bevel" stroke-miterlimit="10"/><path fill="none" stroke="#e5e5e5" paint-order="fill stroke markers" d=" M 159 81 L 425 81" stroke-linejoin="bevel" stroke-miterlimit="10"/><path fill="none" stroke="#e5e5e5" paint-order="fill stroke markers" d=" M 159 60 L 425 60" stroke-linejoin="bevel" stroke-miterlimit="10"/><path fill="none" stroke="#e5e5e5" paint-order="fill stroke markers" d=" M 159 39 L 425 39" stroke-linejoin="bevel" stroke-miterlimit="10"/></g></g></g><g clip-path="url(#nBWHWhzOgSVr)"><g><g><path fill="none" stroke="none"/><path fill="none" stroke="#0C0786" paint-order="fill stroke markers" d=" M 181.16666666666666 38.65384615384619 L 225.5 38.65384615384619 L 269.83333333333337 38.65384615384619 L 314.1666666666667 38.65384615384619 L 358.5 38.65384615384619 L 402.83333333333337 38.65384615384619" stroke-linejoin="bevel" stroke-miterlimit="10" stroke-width="3" stroke-opacity="0.5"/></g></g></g><g clip-path="url(#wsGbsIbvGbtN)"><g><g><path fill="none" stroke="none"/><path fill="white" stroke="#0C0786" paint-order="fill stroke markers" d=" M 183.66666666666666 38.65384615384619 A 2.5 2.5 0 1 1 183.66666541666677 38.65134615426285" stroke-linejoin="bevel" stroke-miterlimit="10" stroke-width="2"/><path fill="white" stroke="#0C0786" paint-order="fill stroke markers" d=" M 228 38.65384615384619 A 2.5 2.5 0 1 1 227.99999875000012 38.65134615426285" stroke-linejoin="bevel" stroke-miterlimit="10" stroke-width="2"/><path fill="white" stroke="#0C0786" paint-order="fill stroke markers" d=" M 272.33333333333337 38.65384615384619 A 2.5 2.5 0 1 1 272.33333208333346 38.65134615426285" stroke-linejoin="bevel" stroke-miterlimit="10" stroke-width="2"/><path fill="white" stroke="#0C0786" paint-order="fill stroke markers" d=" M 316.6666666666667 38.65384615384619 A 2.5 2.5 0 1 1 316.6666654166668 38.65134615426285" stroke-linejoin="bevel" stroke-miterlimit="10" stroke-width="2"/><path fill="white" stroke="#0C0786" paint-order="fill stroke markers" d=" M 361 38.65384615384619 A 2.5 2.5 0 1 1 360.9999987500001 38.65134615426285" stroke-linejoin="bevel" stroke-miterlimit="10" stroke-width="2"/><path fill="white" stroke="#0C0786" paint-order="fill stroke markers" d=" M 405.33333333333337 38.65384615384619 A 2.5 2.5 0 1 1 405.33333208333346 38.65134615426285" stroke-linejoin="bevel" stroke-miterlimit="10" stroke-width="2"/></g></g></g><g clip-path="url(#TUSzIZAqXcbl)"><g><g><path fill="none" stroke="none"/><path fill="none" stroke="#3A049A" paint-order="fill stroke markers" d=" M 181.16666666666666 59.96153846153848 L 225.5 59.96153846153848 L 269.83333333333337 59.96153846153848 L 314.1666666666667 59.96153846153848 L 358.5 59.96153846153848 L 402.83333333333337 59.96153846153848" stroke-linejoin="bevel" stroke-miterlimit="10" stroke-width="3" stroke-opacity="0.5"/></g></g></g><g clip-path="url(#TPyJortIibAt)"><g><g><path fill="none" stroke="none"/><path fill="white" stroke="#3A049A" paint-order="fill stroke markers" d=" M 183.66666666666666 59.96153846153848 A 2.5 2.5 0 1 1 183.66666541666677 59.959038461955146" stroke-linejoin="bevel" stroke-miterlimit="10" stroke-width="2"/><path fill="white" stroke="#3A049A" paint-order="fill stroke markers" d=" M 228 59.96153846153848 A 2.5 2.5 0 1 1 227.99999875000012 59.959038461955146" stroke-linejoin="bevel" stroke-miterlimit="10" stroke-width="2"/><path fill="white" stroke="#3A049A" paint-order="fill stroke markers" d=" M 272.33333333333337 59.96153846153848 A 2.5 2.5 0 1 1 272.33333208333346 59.959038461955146" stroke-linejoin="bevel" stroke-miterlimit="10" stroke-width="2"/><path fill="white" stroke="#3A049A" paint-order="fill stroke markers" d=" M 316.6666666666667 59.96153846153848 A 2.5 2.5 0 1 1 316.6666654166668 59.959038461955146" stroke-linejoin="bevel" stroke-miterlimit="10" stroke-width="2"/><path fill="white" stroke="#3A049A" paint-order="fill stroke markers" d=" M 361 59.96153846153848 A 2.5 2.5 0 1 1 360.9999987500001 59.959038461955146" stroke-linejoin="bevel" stroke-miterlimit="10" stroke-width="2"/><path fill="white" stroke="#3A049A" paint-order="fill stroke markers" d=" M 405.33333333333337 59.96153846153848 A 2.5 2.5 0 1 1 405.33333208333346 59.959038461955146" stroke-linejoin="bevel" stroke-miterlimit="10" stroke-width="2"/></g></g></g><g clip-path="url(#bXkLqzHKcDny)"><g><g><path fill="none" stroke="none"/><path fill="none" stroke="#5C00A5" paint-order="fill stroke markers" d=" M 181.16666666666666 81.26923076923077 L 225.5 81.26923076923077 L 269.83333333333337 81.26923076923077 L 314.1666666666667 81.26923076923077 L 358.5 81.26923076923077 L 402.83333333333337 81.26923076923077" stroke-linejoin="bevel" stroke-miterlimit="10" stroke-width="3" stroke-opacity="0.5"/></g></g></g><g clip-path="url(#xfTqSsUTPSry)"><g><g><path fill="none" stroke="none"/><path fill="white" stroke="#5C00A5" paint-order="fill stroke markers" d=" M 183.66666666666666 81.26923076923077 A 2.5 2.5 0 1 1 183.66666541666677 81.26673076964744" stroke-linejoin="bevel" stroke-miterlimit="10" stroke-width="2"/><path fill="white" stroke="#5C00A5" paint-order="fill stroke markers" d=" M 228 81.26923076923077 A 2.5 2.5 0 1 1 227.99999875000012 81.26673076964744" stroke-linejoin="bevel" stroke-miterlimit="10" stroke-width="2"/><path fill="white" stroke="#5C00A5" paint-order="fill stroke markers" d=" M 272.33333333333337 81.26923076923077 A 2.5 2.5 0 1 1 272.33333208333346 81.26673076964744" stroke-linejoin="bevel" stroke-miterlimit="10" stroke-width="2"/><path fill="white" stroke="#5C00A5" paint-order="fill stroke markers" d=" M 316.6666666666667 81.26923076923077 A 2.5 2.5 0 1 1 316.6666654166668 81.26673076964744" stroke-linejoin="bevel" stroke-miterlimit="10" stroke-width="2"/><path fill="white" stroke="#5C00A5" paint-order="fill stroke markers" d=" M 361 81.26923076923077 A 2.5 2.5 0 1 1 360.9999987500001 81.26673076964744" stroke-linejoin="bevel" stroke-miterlimit="10" stroke-width="2"/><path fill="white" stroke="#5C00A5" paint-order="fill stroke markers" d=" M 405.33333333333337 81.26923076923077 A 2.5 2.5 0 1 1 405.33333208333346 81.26673076964744" stroke-linejoin="bevel" stroke-miterlimit="10" stroke-width="2"/></g></g></g><g clip-path="url(#JHMttynPPPQi)"><g><g><path fill="none" stroke="none"/><path fill="none" stroke="#7C02A7" paint-order="fill stroke markers" d=" M 181.16666666666666 166.5 L 225.5 230.42307692307693 L 269.83333333333337 251.73076923076923 L 314.1666666666667 187.80769230769232 L 358.5 166.5 L 402.83333333333337 123.88461538461539" stroke-linejoin="bevel" stroke-miterlimit="10" stroke-width="3" stroke-opacity="0.5"/></g></g></g><g clip-path="url(#AnQLlCBAqJvT)"><g><g><path fill="none" stroke="none"/><path fill="white" stroke="#7C02A7" paint-order="fill stroke markers" d=" M 183.66666666666666 166.5 A 2.5 2.5 0 1 1 183.66666541666677 166.49750000041666" stroke-linejoin="bevel" stroke-miterlimit="10" stroke-width="2"/><path fill="white" stroke="#7C02A7" paint-order="fill stroke markers" d=" M 228 230.42307692307693 A 2.5 2.5 0 1 1 227.99999875000012 230.4205769234936" stroke-linejoin="bevel" stroke-miterlimit="10" stroke-width="2"/><path fill="white" stroke="#7C02A7" paint-order="fill stroke markers" d=" M 272.33333333333337 251.73076923076923 A 2.5 2.5 0 1 1 272.33333208333346 251.7282692311859" stroke-linejoin="bevel" stroke-miterlimit="10" stroke-width="2"/><path fill="white" stroke="#7C02A7" paint-order="fill stroke markers" d=" M 316.6666666666667 187.80769230769232 A 2.5 2.5 0 1 1 316.6666654166668 187.80519230810899" stroke-linejoin="bevel" stroke-miterlimit="10" stroke-width="2"/><path fill="white" stroke="#7C02A7" paint-order="fill stroke markers" d=" M 361 166.5 A 2.5 2.5 0 1 1 360.9999987500001 166.49750000041666" stroke-linejoin="bevel" stroke-miterlimit="10" stroke-width="2"/><path fill="white" stroke="#7C02A7" paint-order="fill stroke markers" d=" M 405.33333333333337 123.88461538461539 A 2.5 2.5 0 1 1 405.33333208333346 123.88211538503205" stroke-linejoin="bevel" stroke-miterlimit="10" stroke-width="2"/></g></g></g><g clip-path="url(#KCEcHGnnIhvU)"><g><g><path fill="none" stroke="none"/><path fill="none" stroke="#9B179E" paint-order="fill stroke markers" d=" M 181.16666666666666 209.1153846153846 L 225.5 166.5 L 269.83333333333337 230.42307692307693 L 314.1666666666667 166.5 L 358.5 145.1923076923077 L 402.83333333333337 145.1923076923077" stroke-linejoin="bevel" stroke-miterlimit="10" stroke-width="3" stroke-opacity="0.5"/></g></g></g><g clip-path="url(#NBBXBOKqClqp)"><g><g><path fill="none" stroke="none"/><path fill="white" stroke="#9B179E" paint-order="fill stroke markers" d=" M 183.66666666666666 209.1153846153846 A 2.5 2.5 0 1 1 183.66666541666677 209.11288461580128" stroke-linejoin="bevel" stroke-miterlimit="10" stroke-width="2"/><path fill="white" stroke="#9B179E" paint-order="fill stroke markers" d=" M 228 166.5 A 2.5 2.5 0 1 1 227.99999875000012 166.49750000041666" stroke-linejoin="bevel" stroke-miterlimit="10" stroke-width="2"/><path fill="white" stroke="#9B179E" paint-order="fill stroke markers" d=" M 272.33333333333337 230.42307692307693 A 2.5 2.5 0 1 1 272.33333208333346 230.4205769234936" stroke-linejoin="bevel" stroke-miterlimit="10" stroke-width="2"/><path fill="white" stroke="#9B179E" paint-order="fill stroke markers" d=" M 316.6666666666667 166.5 A 2.5 2.5 0 1 1 316.6666654166668 166.49750000041666" stroke-linejoin="bevel" stroke-miterlimit="10" stroke-width="2"/><path fill="white" stroke="#9B179E" paint-order="fill stroke markers" d=" M 361 145.1923076923077 A 2.5 2.5 0 1 1 360.9999987500001 145.18980769272437" stroke-linejoin="bevel" stroke-miterlimit="10" stroke-width="2"/><path fill="white" stroke="#9B179E" paint-order="fill stroke markers" d=" M 405.33333333333337 145.1923076923077 A 2.5 2.5 0 1 1 405.33333208333346 145.18980769272437" stroke-linejoin="bevel" stroke-miterlimit="10" stroke-width="2"/></g></g></g><g clip-path="url(#IKTeQgRrgsSE)"><g><g><path fill="none" stroke="none"/><path fill="none" stroke="#B52E8C" paint-order="fill stroke markers" d=" M 181.16666666666666 251.73076923076923 L 225.5 145.1923076923077 L 269.83333333333337 145.1923076923077 L 314.1666666666667 209.1153846153846 L 358.5 123.88461538461539 L 402.83333333333337 102.5769230769231" stroke-linejoin="bevel" stroke-miterlimit="10" stroke-width="3" stroke-opacity="0.5"/></g></g></g><g clip-path="url(#ThTqmqtULrIa)"><g><g><path fill="none" stroke="none"/><path fill="white" stroke="#B52E8C" paint-order="fill stroke markers" d=" M 183.66666666666666 251.73076923076923 A 2.5 2.5 0 1 1 183.66666541666677 251.7282692311859" stroke-linejoin="bevel" stroke-miterlimit="10" stroke-width="2"/><path fill="white" stroke="#B52E8C" paint-order="fill stroke markers" d=" M 228 145.1923076923077 A 2.5 2.5 0 1 1 227.99999875000012 145.18980769272437" stroke-linejoin="bevel" stroke-miterlimit="10" stroke-width="2"/><path fill="white" stroke="#B52E8C" paint-order="fill stroke markers" d=" M 272.33333333333337 145.1923076923077 A 2.5 2.5 0 1 1 272.33333208333346 145.18980769272437" stroke-linejoin="bevel" stroke-miterlimit="10" stroke-width="2"/><path fill="white" stroke="#B52E8C" paint-order="fill stroke markers" d=" M 316.6666666666667 209.1153846153846 A 2.5 2.5 0 1 1 316.6666654166668 209.11288461580128" stroke-linejoin="bevel" stroke-miterlimit="10" stroke-width="2"/><path fill="white" stroke="#B52E8C" paint-order="fill stroke markers" d=" M 361 123.88461538461539 A 2.5 2.5 0 1 1 360.9999987500001 123.88211538503205" stroke-linejoin="bevel" stroke-miterlimit="10" stroke-width="2"/><path fill="white" stroke="#B52E8C" paint-order="fill stroke markers" d=" M 405.33333333333337 102.5769230769231 A 2.5 2.5 0 1 1 405.33333208333346 102.57442307733976" stroke-linejoin="bevel" stroke-miterlimit="10" stroke-width="2"/></g></g></g><g clip-path="url(#SVuZmgOuJWpF)"><g><g><path fill="none" stroke="none"/><path fill="none" stroke="#CA4678" paint-order="fill stroke markers" d=" M 181.16666666666666 187.80769230769232 L 225.5 273.03846153846155 L 269.83333333333337 123.88461538461539 L 314.1666666666667 145.1923076923077 L 358.5 102.5769230769231 L 402.83333333333337 166.5" stroke-linejoin="bevel" stroke-miterlimit="10" stroke-width="3" stroke-opacity="0.5"/></g></g></g><g clip-path="url(#IyOtsgPdcexP)"><g><g><path fill="none" stroke="none"/><path fill="white" stroke="#CA4678" paint-order="fill stroke markers" d=" M 183.66666666666666 187.80769230769232 A 2.5 2.5 0 1 1 183.66666541666677 187.80519230810899" stroke-linejoin="bevel" stroke-miterlimit="10" stroke-width="2"/><path fill="white" stroke="#CA4678" paint-order="fill stroke markers" d=" M 228 273.03846153846155 A 2.5 2.5 0 1 1 227.99999875000012 273.0359615388782" stroke-linejoin="bevel" stroke-miterlimit="10" stroke-width="2"/><path fill="white" stroke="#CA4678" paint-order="fill stroke markers" d=" M 272.33333333333337 123.88461538461539 A 2.5 2.5 0 1 1 272.33333208333346 123.88211538503205" stroke-linejoin="bevel" stroke-miterlimit="10" stroke-width="2"/><path fill="white" stroke="#CA4678" paint-order="fill stroke markers" d=" M 316.6666666666667 145.1923076923077 A 2.5 2.5 0 1 1 316.6666654166668 145.18980769272437" stroke-linejoin="bevel" stroke-miterlimit="10" stroke-width="2"/><path fill="white" stroke="#CA4678" paint-order="fill stroke markers" d=" M 361 102.5769230769231 A 2.5 2.5 0 1 1 360.9999987500001 102.57442307733976" stroke-linejoin="bevel" stroke-miterlimit="10" stroke-width="2"/><path fill="white" stroke="#CA4678" paint-order="fill stroke markers" d=" M 405.33333333333337 166.5 A 2.5 2.5 0 1 1 405.33333208333346 166.49750000041666" stroke-linejoin="bevel" stroke-miterlimit="10" stroke-width="2"/></g></g></g><g clip-path="url(#uFFJUrTgKAoa)"><g><g><path fill="none" stroke="none"/><path fill="none" stroke="#DC5E66" paint-order="fill stroke markers" d=" M 181.16666666666666 123.88461538461539 L 225.5 251.73076923076923 L 269.83333333333337 273.03846153846155 L 314.1666666666667 123.88461538461539 L 358.5 187.80769230769232 L 402.83333333333337 187.80769230769232" stroke-linejoin="bevel" stroke-miterlimit="10" stroke-width="3" stroke-opacity="0.5"/></g></g></g><g clip-path="url(#kCvzroiyGSaX)"><g><g><path fill="none" stroke="none"/><path fill="white" stroke="#DC5E66" paint-order="fill stroke markers" d=" M 183.66666666666666 123.88461538461539 A 2.5 2.5 0 1 1 183.66666541666677 123.88211538503205" stroke-linejoin="bevel" stroke-miterlimit="10" stroke-width="2"/><path fill="white" stroke="#DC5E66" paint-order="fill stroke markers" d=" M 228 251.73076923076923 A 2.5 2.5 0 1 1 227.99999875000012 251.7282692311859" stroke-linejoin="bevel" stroke-miterlimit="10" stroke-width="2"/><path fill="white" stroke="#DC5E66" paint-order="fill stroke markers" d=" M 272.33333333333337 273.03846153846155 A 2.5 2.5 0 1 1 272.33333208333346 273.0359615388782" stroke-linejoin="bevel" stroke-miterlimit="10" stroke-width="2"/><path fill="white" stroke="#DC5E66" paint-order="fill stroke markers" d=" M 316.6666666666667 123.88461538461539 A 2.5 2.5 0 1 1 316.6666654166668 123.88211538503205" stroke-linejoin="bevel" stroke-miterlimit="10" stroke-width="2"/><path fill="white" stroke="#DC5E66" paint-order="fill stroke markers" d=" M 361 187.80769230769232 A 2.5 2.5 0 1 1 360.9999987500001 187.80519230810899" stroke-linejoin="bevel" stroke-miterlimit="10" stroke-width="2"/><path fill="white" stroke="#DC5E66" paint-order="fill stroke markers" d=" M 405.33333333333337 187.80769230769232 A 2.5 2.5 0 1 1 405.33333208333346 187.80519230810899" stroke-linejoin="bevel" stroke-miterlimit="10" stroke-width="2"/></g></g></g><g clip-path="url(#bDzDqHWTHqXf)"><g><g><path fill="none" stroke="none"/><path fill="none" stroke="#EC7853" paint-order="fill stroke markers" d=" M 181.16666666666666 145.1923076923077 L 225.5 123.88461538461539 L 269.83333333333337 209.1153846153846 L 314.1666666666667 102.5769230769231 L 358.5 209.1153846153846 L 402.83333333333337 209.1153846153846" stroke-linejoin="bevel" stroke-miterlimit="10" stroke-width="3" stroke-opacity="0.5"/></g></g></g><g clip-path="url(#xKvqInPeFmvO)"><g><g><path fill="none" stroke="none"/><path fill="white" stroke="#EC7853" paint-order="fill stroke markers" d=" M 183.66666666666666 145.1923076923077 A 2.5 2.5 0 1 1 183.66666541666677 145.18980769272437" stroke-linejoin="bevel" stroke-miterlimit="10" stroke-width="2"/><path fill="white" stroke="#EC7853" paint-order="fill stroke markers" d=" M 228 123.88461538461539 A 2.5 2.5 0 1 1 227.99999875000012 123.88211538503205" stroke-linejoin="bevel" stroke-miterlimit="10" stroke-width="2"/><path fill="white" stroke="#EC7853" paint-order="fill stroke markers" d=" M 272.33333333333337 209.1153846153846 A 2.5 2.5 0 1 1 272.33333208333346 209.11288461580128" stroke-linejoin="bevel" stroke-miterlimit="10" stroke-width="2"/><path fill="white" stroke="#EC7853" paint-order="fill stroke markers" d=" M 316.6666666666667 102.5769230769231 A 2.5 2.5 0 1 1 316.6666654166668 102.57442307733976" stroke-linejoin="bevel" stroke-miterlimit="10" stroke-width="2"/><path fill="white" stroke="#EC7853" paint-order="fill stroke markers" d=" M 361 209.1153846153846 A 2.5 2.5 0 1 1 360.9999987500001 209.11288461580128" stroke-linejoin="bevel" stroke-miterlimit="10" stroke-width="2"/><path fill="white" stroke="#EC7853" paint-order="fill stroke markers" d=" M 405.33333333333337 209.1153846153846 A 2.5 2.5 0 1 1 405.33333208333346 209.11288461580128" stroke-linejoin="bevel" stroke-miterlimit="10" stroke-width="2"/></g></g></g><g clip-path="url(#HzZTUxqBHlDh)"><g><g><path fill="none" stroke="none"/><path fill="none" stroke="#F79341" paint-order="fill stroke markers" d=" M 181.16666666666666 273.03846153846155 L 225.5 187.80769230769232 L 269.83333333333337 166.5 L 314.1666666666667 230.42307692307693 L 358.5 230.42307692307693 L 402.83333333333337 230.42307692307693" stroke-linejoin="bevel" stroke-miterlimit="10" stroke-width="3" stroke-opacity="0.5"/></g></g></g><g clip-path="url(#SxOVaOItsdNW)"><g><g><path fill="none" stroke="none"/><path fill="white" stroke="#F79341" paint-order="fill stroke markers" d=" M 183.66666666666666 273.03846153846155 A 2.5 2.5 0 1 1 183.66666541666677 273.0359615388782" stroke-linejoin="bevel" stroke-miterlimit="10" stroke-width="2"/><path fill="white" stroke="#F79341" paint-order="fill stroke markers" d=" M 228 187.80769230769232 A 2.5 2.5 0 1 1 227.99999875000012 187.80519230810899" stroke-linejoin="bevel" stroke-miterlimit="10" stroke-width="2"/><path fill="white" stroke="#F79341" paint-order="fill stroke markers" d=" M 272.33333333333337 166.5 A 2.5 2.5 0 1 1 272.33333208333346 166.49750000041666" stroke-linejoin="bevel" stroke-miterlimit="10" stroke-width="2"/><path fill="white" stroke="#F79341" paint-order="fill stroke markers" d=" M 316.6666666666667 230.42307692307693 A 2.5 2.5 0 1 1 316.6666654166668 230.4205769234936" stroke-linejoin="bevel" stroke-miterlimit="10" stroke-width="2"/><path fill="white" stroke="#F79341" paint-order="fill stroke markers" d=" M 361 230.42307692307693 A 2.5 2.5 0 1 1 360.9999987500001 230.4205769234936" stroke-linejoin="bevel" stroke-miterlimit="10" stroke-width="2"/><path fill="white" stroke="#F79341" paint-order="fill stroke markers" d=" M 405.33333333333337 230.42307692307693 A 2.5 2.5 0 1 1 405.33333208333346 230.4205769234936" stroke-linejoin="bevel" stroke-miterlimit="10" stroke-width="2"/></g></g></g><g clip-path="url(#DSgVECnORTAB)"><g><g><path fill="none" stroke="none"/><path fill="none" stroke="#FDB22F" paint-order="fill stroke markers" d=" M 181.16666666666666 230.42307692307693 L 225.5 209.1153846153846 L 269.83333333333337 187.80769230769232 L 314.1666666666667 273.03846153846155 L 358.5 251.73076923076923 L 402.83333333333337 251.73076923076923" stroke-linejoin="bevel" stroke-miterlimit="10" stroke-width="3" stroke-opacity="0.5"/></g></g></g><g clip-path="url(#XHrWfMekToWf)"><g><g><path fill="none" stroke="none"/><path fill="white" stroke="#FDB22F" paint-order="fill stroke markers" d=" M 183.66666666666666 230.42307692307693 A 2.5 2.5 0 1 1 183.66666541666677 230.4205769234936" stroke-linejoin="bevel" stroke-miterlimit="10" stroke-width="2"/><path fill="white" stroke="#FDB22F" paint-order="fill stroke markers" d=" M 228 209.1153846153846 A 2.5 2.5 0 1 1 227.99999875000012 209.11288461580128" stroke-linejoin="bevel" stroke-miterlimit="10" stroke-width="2"/><path fill="white" stroke="#FDB22F" paint-order="fill stroke markers" d=" M 272.33333333333337 187.80769230769232 A 2.5 2.5 0 1 1 272.33333208333346 187.80519230810899" stroke-linejoin="bevel" stroke-miterlimit="10" stroke-width="2"/><path fill="white" stroke="#FDB22F" paint-order="fill stroke markers" d=" M 316.6666666666667 273.03846153846155 A 2.5 2.5 0 1 1 316.6666654166668 273.0359615388782" stroke-linejoin="bevel" stroke-miterlimit="10" stroke-width="2"/><path fill="white" stroke="#FDB22F" paint-order="fill stroke markers" d=" M 361 251.73076923076923 A 2.5 2.5 0 1 1 360.9999987500001 251.7282692311859" stroke-linejoin="bevel" stroke-miterlimit="10" stroke-width="2"/><path fill="white" stroke="#FDB22F" paint-order="fill stroke markers" d=" M 405.33333333333337 251.73076923076923 A 2.5 2.5 0 1 1 405.33333208333346 251.7282692311859" stroke-linejoin="bevel" stroke-miterlimit="10" stroke-width="2"/></g></g></g><g clip-path="url(#AfMaucSlPaKR)"><g><g><path fill="none" stroke="none"/><path fill="none" stroke="#FBD324" paint-order="fill stroke markers" d=" M 181.16666666666666 294.34615384615387 L 225.5 102.5769230769231 L 269.83333333333337 102.5769230769231 L 314.1666666666667 294.34615384615387 L 358.5 273.03846153846155 L 402.83333333333337 273.03846153846155" stroke-linejoin="bevel" stroke-miterlimit="10" stroke-width="3" stroke-opacity="0.5"/></g></g></g><g clip-path="url(#goSpbMXfZpTd)"><g><g><path fill="none" stroke="none"/><path fill="white" stroke="#FBD324" paint-order="fill stroke markers" d=" M 183.66666666666666 294.34615384615387 A 2.5 2.5 0 1 1 183.66666541666677 294.34365384657053" stroke-linejoin="bevel" stroke-miterlimit="10" stroke-width="2"/><path fill="white" stroke="#FBD324" paint-order="fill stroke markers" d=" M 228 102.5769230769231 A 2.5 2.5 0 1 1 227.99999875000012 102.57442307733976" stroke-linejoin="bevel" stroke-miterlimit="10" stroke-width="2"/><path fill="white" stroke="#FBD324" paint-order="fill stroke markers" d=" M 272.33333333333337 102.5769230769231 A 2.5 2.5 0 1 1 272.33333208333346 102.57442307733976" stroke-linejoin="bevel" stroke-miterlimit="10" stroke-width="2"/><path fill="white" stroke="#FBD324" paint-order="fill stroke markers" d=" M 316.6666666666667 294.34615384615387 A 2.5 2.5 0 1 1 316.6666654166668 294.34365384657053" stroke-linejoin="bevel" stroke-miterlimit="10" stroke-width="2"/><path fill="white" stroke="#FBD324" paint-order="fill stroke markers" d=" M 361 273.03846153846155 A 2.5 2.5 0 1 1 360.9999987500001 273.0359615388782" stroke-linejoin="bevel" stroke-miterlimit="10" stroke-width="2"/><path fill="white" stroke="#FBD324" paint-order="fill stroke markers" d=" M 405.33333333333337 273.03846153846155 A 2.5 2.5 0 1 1 405.33333208333346 273.0359615388782" stroke-linejoin="bevel" stroke-miterlimit="10" stroke-width="2"/></g></g></g><g clip-path="url(#kPEFPHFcWcHX)"><g><g><path fill="none" stroke="none"/><path fill="none" stroke="#EFF821" paint-order="fill stroke markers" d=" M 181.16666666666666 102.5769230769231 L 225.5 294.34615384615387 L 269.83333333333337 294.34615384615387 L 314.1666666666667 251.73076923076923 L 358.5 294.34615384615387 L 402.83333333333337 294.34615384615387" stroke-linejoin="bevel" stroke-miterlimit="10" stroke-width="3" stroke-opacity="0.5"/></g></g></g><g clip-path="url(#WCXNeurbLkRm)"><g><g><path fill="none" stroke="none"/><path fill="white" stroke="#EFF821" paint-order="fill stroke markers" d=" M 183.66666666666666 102.5769230769231 A 2.5 2.5 0 1 1 183.66666541666677 102.57442307733976" stroke-linejoin="bevel" stroke-miterlimit="10" stroke-width="2"/><path fill="white" stroke="#EFF821" paint-order="fill stroke markers" d=" M 228 294.34615384615387 A 2.5 2.5 0 1 1 227.99999875000012 294.34365384657053" stroke-linejoin="bevel" stroke-miterlimit="10" stroke-width="2"/><path fill="white" stroke="#EFF821" paint-order="fill stroke markers" d=" M 272.33333333333337 294.34615384615387 A 2.5 2.5 0 1 1 272.33333208333346 294.34365384657053" stroke-linejoin="bevel" stroke-miterlimit="10" stroke-width="2"/><path fill="white" stroke="#EFF821" paint-order="fill stroke markers" d=" M 316.6666666666667 251.73076923076923 A 2.5 2.5 0 1 1 316.6666654166668 251.7282692311859" stroke-linejoin="bevel" stroke-miterlimit="10" stroke-width="2"/><path fill="white" stroke="#EFF821" paint-order="fill stroke markers" d=" M 361 294.34615384615387 A 2.5 2.5 0 1 1 360.9999987500001 294.34365384657053" stroke-linejoin="bevel" stroke-miterlimit="10" stroke-width="2"/><path fill="white" stroke="#EFF821" paint-order="fill stroke markers" d=" M 405.33333333333337 294.34615384615387 A 2.5 2.5 0 1 1 405.33333208333346 294.34365384657053" stroke-linejoin="bevel" stroke-miterlimit="10" stroke-width="2"/></g></g></g><g><g fill="#444444"><path fill="" stroke="none" d=""/><g transform="translate(159,23)"><path fill="none" stroke="none"/><text fill="" stroke="none" font-family="helvetica" font-size="13px" font-style="normal" font-weight="bold" text-decoration="normal" x="0" y="0" text-anchor="start" dominant-baseline="text-after-edge">Forecast Ranking - RMSE</text></g></g></g><g/><g><g fill="#444444"><path fill="none" stroke="black" paint-order="fill stroke markers" d=" M 159 305 L 425 305" stroke-linejoin="bevel" stroke-miterlimit="10"/><path fill="none" stroke="black" paint-order="fill stroke markers" d=" M 181 311 L 181 303" stroke-linejoin="bevel" stroke-miterlimit="10"/><path fill="none" stroke="black" paint-order="fill stroke markers" d=" M 226 311 L 226 303" stroke-linejoin="bevel" stroke-miterlimit="10"/><path fill="none" stroke="black" paint-order="fill stroke markers" d=" M 270 311 L 270 303" stroke-linejoin="bevel" stroke-miterlimit="10"/><path fill="none" stroke="black" paint-order="fill stroke markers" d=" M 314 311 L 314 303" stroke-linejoin="bevel" stroke-miterlimit="10"/><path fill="none" stroke="black" paint-order="fill stroke markers" d=" M 359 311 L 359 303" stroke-linejoin="bevel" stroke-miterlimit="10"/><path fill="" stroke="black" paint-order="fill stroke markers" d=" M 403 311 L 403 303" stroke-linejoin="bevel" stroke-miterlimit="10"/><g transform="translate(181,316) rotate(0,0,0)"><text fill="" stroke="none" font-family="helvetica" font-size="11px" font-style="normal" font-weight="normal" text-decoration="normal" x="0" y="0" text-anchor="middle" dominant-baseline="hanging">6</text><g transform="rotate(0,0,0) translate(-181,-316) translate(226,316) rotate(0,0,0)"><text fill="" stroke="none" font-family="helvetica" font-size="11px" font-style="normal" font-weight="normal" text-decoration="normal" x="0" y="0" text-anchor="middle" dominant-baseline="hanging">13</text><g transform="rotate(0,0,0) translate(-226,-316) translate(270,316) rotate(0,0,0)"><text fill="" stroke="none" font-family="helvetica" font-size="11px" font-style="normal" font-weight="normal" text-decoration="normal" x="0" y="0" text-anchor="middle" dominant-baseline="hanging">20</text><g transform="rotate(0,0,0) translate(-270,-316) translate(314,316) rotate(0,0,0)"><text fill="" stroke="none" font-family="helvetica" font-size="11px" font-style="normal" font-weight="normal" text-decoration="normal" x="0" y="0" text-anchor="middle" dominant-baseline="hanging">27</text><g transform="rotate(0,0,0) translate(-314,-316) translate(359,316) rotate(0,0,0)"><text fill="" stroke="none" font-family="helvetica" font-size="11px" font-style="normal" font-weight="normal" text-decoration="normal" x="0" y="0" text-anchor="middle" dominant-baseline="hanging">34</text><g transform="rotate(0,0,0) translate(-359,-316) translate(403,316) rotate(0,0,0)"><text fill="" stroke="none" font-family="helvetica" font-size="11px" font-style="normal" font-weight="normal" text-decoration="normal" x="0" y="0" text-anchor="middle" dominant-baseline="hanging">41</text><g transform="rotate(0,0,0) translate(-403,-316) translate(292,334) rotate(0,0,0)"><text fill="" stroke="none" font-family="helvetica" font-size="13px" font-style="italic" font-weight="normal" text-decoration="normal" x="0" y="0" text-anchor="middle" dominant-baseline="hanging">Forecasted days</text><g transform="rotate(0,0,0) translate(-292,-334)"/></g></g></g></g></g></g></g></g></g><g><g fill="#444444"><path fill="none" stroke="black" paint-order="fill stroke markers" d=" M 159 305 L 159 28" stroke-linejoin="bevel" stroke-miterlimit="10"/><path fill="none" stroke="black" paint-order="fill stroke markers" d=" M 153 294 L 161 294" stroke-linejoin="bevel" stroke-miterlimit="10"/><path fill="none" stroke="black" paint-order="fill stroke markers" d=" M 153 273 L 161 273" stroke-linejoin="bevel" stroke-miterlimit="10"/><path fill="none" stroke="black" paint-order="fill stroke markers" d=" M 153 252 L 161 252" stroke-linejoin="bevel" stroke-miterlimit="10"/><path fill="none" stroke="black" paint-order="fill stroke markers" d=" M 153 230 L 161 230" stroke-linejoin="bevel" stroke-miterlimit="10"/><path fill="none" stroke="black" paint-order="fill stroke markers" d=" M 153 209 L 161 209" stroke-linejoin="bevel" stroke-miterlimit="10"/><path fill="none" stroke="black" paint-order="fill stroke markers" d=" M 153 188 L 161 188" stroke-linejoin="bevel" stroke-miterlimit="10"/><path fill="none" stroke="black" paint-order="fill stroke markers" d=" M 153 167 L 161 167" stroke-linejoin="bevel" stroke-miterlimit="10"/><path fill="none" stroke="black" paint-order="fill stroke markers" d=" M 153 145 L 161 145" stroke-linejoin="bevel" stroke-miterlimit="10"/><path fill="none" stroke="black" paint-order="fill stroke markers" d=" M 153 124 L 161 124" stroke-linejoin="bevel" stroke-miterlimit="10"/><path fill="none" stroke="black" paint-order="fill stroke markers" d=" M 153 103 L 161 103" stroke-linejoin="bevel" stroke-miterlimit="10"/><path fill="none" stroke="black" paint-order="fill stroke markers" d=" M 153 81 L 161 81" stroke-linejoin="bevel" stroke-miterlimit="10"/><path fill="none" stroke="black" paint-order="fill stroke markers" d=" M 153 60 L 161 60" stroke-linejoin="bevel" stroke-miterlimit="10"/><path fill="" stroke="black" paint-order="fill stroke markers" d=" M 153 39 L 161 39" stroke-linejoin="bevel" stroke-miterlimit="10"/><g transform="translate(148,294) rotate(0,0,0)"><text fill="" stroke="none" font-family="helvetica" font-size="11px" font-style="normal" font-weight="normal" text-decoration="normal" x="0" y="0" text-anchor="end" dominant-baseline="central">USC-SI_kJalpha</text><g transform="rotate(0,0,0) translate(-148,-294) translate(148,273) rotate(0,0,0)"><text fill="" stroke="none" font-family="helvetica" font-size="11px" font-style="normal" font-weight="normal" text-decoration="normal" x="0" y="0" text-anchor="end" dominant-baseline="central">UMass-MechBayes</text><g transform="rotate(0,0,0) translate(-148,-273) translate(148,252) rotate(0,0,0)"><text fill="" stroke="none" font-family="helvetica" font-size="11px" font-style="normal" font-weight="normal" text-decoration="normal" x="0" y="0" text-anchor="end" dominant-baseline="central">UCLA-SuEIR</text><g transform="rotate(0,0,0) translate(-148,-252) translate(148,230) rotate(0,0,0)"><text fill="" stroke="none" font-family="helvetica" font-size="11px" font-style="normal" font-weight="normal" text-decoration="normal" x="0" y="0" text-anchor="end" dominant-baseline="central">OliverWyman-Navigator</text><g transform="rotate(0,0,0) translate(-148,-230) translate(148,209) rotate(0,0,0)"><text fill="" stroke="none" font-family="helvetica" font-size="11px" font-style="normal" font-weight="normal" text-decoration="normal" x="0" y="0" text-anchor="end" dominant-baseline="central">MITCovAlliance-SIR</text><g transform="rotate(0,0,0) translate(-148,-209) translate(148,188) rotate(0,0,0)"><text fill="" stroke="none" font-family="helvetica" font-size="11px" font-style="normal" font-weight="normal" text-decoration="normal" x="0" y="0" text-anchor="end" dominant-baseline="central">LNQ-ens1</text><g transform="rotate(0,0,0) translate(-148,-188) translate(148,167) rotate(0,0,0)"><text fill="" stroke="none" font-family="helvetica" font-size="11px" font-style="normal" font-weight="normal" text-decoration="normal" x="0" y="0" text-anchor="end" dominant-baseline="central">JHU_IDD-CovidSP</text><g transform="rotate(0,0,0) translate(-148,-167) translate(148,145) rotate(0,0,0)"><text fill="" stroke="none" font-family="helvetica" font-size="11px" font-style="normal" font-weight="normal" text-decoration="normal" x="0" y="0" text-anchor="end" dominant-baseline="central">IowaStateLW-STEM</text><g transform="rotate(0,0,0) translate(-148,-145) translate(148,124) rotate(0,0,0)"><text fill="" stroke="none" font-family="helvetica" font-size="11px" font-style="normal" font-weight="normal" text-decoration="normal" x="0" y="0" text-anchor="end" dominant-baseline="central">CU-select</text><g transform="rotate(0,0,0) translate(-148,-124) translate(148,103) rotate(0,0,0)"><text fill="" stroke="none" font-family="helvetica" font-size="11px" font-style="normal" font-weight="normal" text-decoration="normal" x="0" y="0" text-anchor="end" dominant-baseline="central">CU-nochange</text><g transform="rotate(0,0,0) translate(-148,-103) translate(148,81) rotate(0,0,0)"><text fill="" stroke="none" font-family="helvetica" font-size="11px" font-style="normal" font-weight="normal" text-decoration="normal" x="0" y="0" text-anchor="end" dominant-baseline="central">CEID-Walk</text><g transform="rotate(0,0,0) translate(-148,-81) translate(148,60) rotate(0,0,0)"><text fill="" stroke="none" font-family="helvetica" font-size="11px" font-style="normal" font-weight="normal" text-decoration="normal" x="0" y="0" text-anchor="end" dominant-baseline="central">CDDEP-SEIR_MCMC</text><g transform="rotate(0,0,0) translate(-148,-60) translate(148,39) rotate(0,0,0)"><text fill="" stroke="none" font-family="helvetica" font-size="11px" font-style="normal" font-weight="normal" text-decoration="normal" x="0" y="0" text-anchor="end" dominant-baseline="central">bAR</text><g transform="rotate(0,0,0) translate(-148,-39) translate(15,167) rotate(-90,0,0)"><text fill="" stroke="none" font-family="helvetica" font-size="13px" font-style="italic" font-weight="normal" text-decoration="normal" x="0" y="0" text-anchor="middle" dominant-baseline="alphabetic">Model</text><g transform="rotate(90,0,0) translate(-15,-167)"/></g></g></g></g></g></g></g></g></g></g></g></g></g></g></g></g><g><g fill="#444444"><path fill="none" stroke="black" paint-order="fill stroke markers" d=" M 425 305 L 425 28" stroke-linejoin="bevel" stroke-miterlimit="10"/><path fill="none" stroke="black" paint-order="fill stroke markers" d=" M 431 294 L 423 294" stroke-linejoin="bevel" stroke-miterlimit="10"/><path fill="none" stroke="black" paint-order="fill stroke markers" d=" M 431 273 L 423 273" stroke-linejoin="bevel" stroke-miterlimit="10"/><path fill="none" stroke="black" paint-order="fill stroke markers" d=" M 431 252 L 423 252" stroke-linejoin="bevel" stroke-miterlimit="10"/><path fill="none" stroke="black" paint-order="fill stroke markers" d=" M 431 230 L 423 230" stroke-linejoin="bevel" stroke-miterlimit="10"/><path fill="none" stroke="black" paint-order="fill stroke markers" d=" M 431 209 L 423 209" stroke-linejoin="bevel" stroke-miterlimit="10"/><path fill="none" stroke="black" paint-order="fill stroke markers" d=" M 431 188 L 423 188" stroke-linejoin="bevel" stroke-miterlimit="10"/><path fill="none" stroke="black" paint-order="fill stroke markers" d=" M 431 167 L 423 167" stroke-linejoin="bevel" stroke-miterlimit="10"/><path fill="none" stroke="black" paint-order="fill stroke markers" d=" M 431 145 L 423 145" stroke-linejoin="bevel" stroke-miterlimit="10"/><path fill="none" stroke="black" paint-order="fill stroke markers" d=" M 431 124 L 423 124" stroke-linejoin="bevel" stroke-miterlimit="10"/><path fill="none" stroke="black" paint-order="fill stroke markers" d=" M 431 103 L 423 103" stroke-linejoin="bevel" stroke-miterlimit="10"/><path fill="none" stroke="black" paint-order="fill stroke markers" d=" M 431 81 L 423 81" stroke-linejoin="bevel" stroke-miterlimit="10"/><path fill="none" stroke="black" paint-order="fill stroke markers" d=" M 431 60 L 423 60" stroke-linejoin="bevel" stroke-miterlimit="10"/><path fill="" stroke="black" paint-order="fill stroke markers" d=" M 431 39 L 423 39" stroke-linejoin="bevel" stroke-miterlimit="10"/><g transform="translate(436,294) rotate(0,0,0)"><text fill="" stroke="none" font-family="helvetica" font-size="11px" font-style="normal" font-weight="normal" text-decoration="normal" x="0" y="0" text-anchor="start" dominant-baseline="central">13</text><g transform="rotate(0,0,0) translate(-436,-294) translate(436,273) rotate(0,0,0)"><text fill="" stroke="none" font-family="helvetica" font-size="11px" font-style="normal" font-weight="normal" text-decoration="normal" x="0" y="0" text-anchor="start" dominant-baseline="central">12</text><g transform="rotate(0,0,0) translate(-436,-273) translate(436,252) rotate(0,0,0)"><text fill="" stroke="none" font-family="helvetica" font-size="11px" font-style="normal" font-weight="normal" text-decoration="normal" x="0" y="0" text-anchor="start" dominant-baseline="central">11</text><g transform="rotate(0,0,0) translate(-436,-252) translate(436,230) rotate(0,0,0)"><text fill="" stroke="none" font-family="helvetica" font-size="11px" font-style="normal" font-weight="normal" text-decoration="normal" x="0" y="0" text-anchor="start" dominant-baseline="central">10</text><g transform="rotate(0,0,0) translate(-436,-230) translate(436,209) rotate(0,0,0)"><text fill="" stroke="none" font-family="helvetica" font-size="11px" font-style="normal" font-weight="normal" text-decoration="normal" x="0" y="0" text-anchor="start" dominant-baseline="central">9</text><g transform="rotate(0,0,0) translate(-436,-209) translate(436,188) rotate(0,0,0)"><text fill="" stroke="none" font-family="helvetica" font-size="11px" font-style="normal" font-weight="normal" text-decoration="normal" x="0" y="0" text-anchor="start" dominant-baseline="central">8</text><g transform="rotate(0,0,0) translate(-436,-188) translate(436,167) rotate(0,0,0)"><text fill="" stroke="none" font-family="helvetica" font-size="11px" font-style="normal" font-weight="normal" text-decoration="normal" x="0" y="0" text-anchor="start" dominant-baseline="central">7</text><g transform="rotate(0,0,0) translate(-436,-167) translate(436,145) rotate(0,0,0)"><text fill="" stroke="none" font-family="helvetica" font-size="11px" font-style="normal" font-weight="normal" text-decoration="normal" x="0" y="0" text-anchor="start" dominant-baseline="central">6</text><g transform="rotate(0,0,0) translate(-436,-145) translate(436,124) rotate(0,0,0)"><text fill="" stroke="none" font-family="helvetica" font-size="11px" font-style="normal" font-weight="normal" text-decoration="normal" x="0" y="0" text-anchor="start" dominant-baseline="central">5</text><g transform="rotate(0,0,0) translate(-436,-124) translate(436,103) rotate(0,0,0)"><text fill="" stroke="none" font-family="helvetica" font-size="11px" font-style="normal" font-weight="normal" text-decoration="normal" x="0" y="0" text-anchor="start" dominant-baseline="central">4</text><g transform="rotate(0,0,0) translate(-436,-103) translate(436,81) rotate(0,0,0)"><text fill="" stroke="none" font-family="helvetica" font-size="11px" font-style="normal" font-weight="normal" text-decoration="normal" x="0" y="0" text-anchor="start" dominant-baseline="central">3</text><g transform="rotate(0,0,0) translate(-436,-81) translate(436,60) rotate(0,0,0)"><text fill="" stroke="none" font-family="helvetica" font-size="11px" font-style="normal" font-weight="normal" text-decoration="normal" x="0" y="0" text-anchor="start" dominant-baseline="central">2</text><g transform="rotate(0,0,0) translate(-436,-60) translate(436,39) rotate(0,0,0)"><text fill="" stroke="none" font-family="helvetica" font-size="11px" font-style="normal" font-weight="normal" text-decoration="normal" x="0" y="0" text-anchor="start" dominant-baseline="central">1</text><g transform="rotate(0,0,0) translate(-436,-39) translate(454,167) rotate(90,0,0)"><text fill="" stroke="none" font-family="helvetica" font-size="13px" font-style="italic" font-weight="normal" text-decoration="normal" x="0" y="0" text-anchor="middle" dominant-baseline="alphabetic">Rank</text><g transform="rotate(-90,0,0) translate(-454,-167)"/></g></g></g></g></g></g></g></g></g></g></g></g></g></g></g></g></g></g></svg>